G75*
G70*
%OFA0B0*%
%FSLAX24Y24*%
%IPPOS*%
%LPD*%
%AMOC8*
5,1,8,0,0,1.08239X$1,22.5*
%
%ADD10C,0.0000*%
%ADD11C,0.0040*%
%ADD12C,0.0080*%
%ADD13C,0.0060*%
%ADD14C,0.0030*%
D10*
X000202Y000242D02*
X000202Y009992D01*
X031702Y009992D01*
X031702Y000242D01*
X000202Y000242D01*
X002148Y001626D02*
X002150Y001653D01*
X002156Y001680D01*
X002165Y001706D01*
X002178Y001730D01*
X002194Y001753D01*
X002213Y001772D01*
X002235Y001789D01*
X002259Y001803D01*
X002284Y001813D01*
X002311Y001820D01*
X002338Y001823D01*
X002366Y001822D01*
X002393Y001817D01*
X002419Y001809D01*
X002443Y001797D01*
X002466Y001781D01*
X002487Y001763D01*
X002504Y001742D01*
X002519Y001718D01*
X002530Y001693D01*
X002538Y001667D01*
X002542Y001640D01*
X002542Y001612D01*
X002538Y001585D01*
X002530Y001559D01*
X002519Y001534D01*
X002504Y001510D01*
X002487Y001489D01*
X002466Y001471D01*
X002444Y001455D01*
X002419Y001443D01*
X002393Y001435D01*
X002366Y001430D01*
X002338Y001429D01*
X002311Y001432D01*
X002284Y001439D01*
X002259Y001449D01*
X002235Y001463D01*
X002213Y001480D01*
X002194Y001499D01*
X002178Y001522D01*
X002165Y001546D01*
X002156Y001572D01*
X002150Y001599D01*
X002148Y001626D01*
X002148Y003358D02*
X002150Y003385D01*
X002156Y003412D01*
X002165Y003438D01*
X002178Y003462D01*
X002194Y003485D01*
X002213Y003504D01*
X002235Y003521D01*
X002259Y003535D01*
X002284Y003545D01*
X002311Y003552D01*
X002338Y003555D01*
X002366Y003554D01*
X002393Y003549D01*
X002419Y003541D01*
X002443Y003529D01*
X002466Y003513D01*
X002487Y003495D01*
X002504Y003474D01*
X002519Y003450D01*
X002530Y003425D01*
X002538Y003399D01*
X002542Y003372D01*
X002542Y003344D01*
X002538Y003317D01*
X002530Y003291D01*
X002519Y003266D01*
X002504Y003242D01*
X002487Y003221D01*
X002466Y003203D01*
X002444Y003187D01*
X002419Y003175D01*
X002393Y003167D01*
X002366Y003162D01*
X002338Y003161D01*
X002311Y003164D01*
X002284Y003171D01*
X002259Y003181D01*
X002235Y003195D01*
X002213Y003212D01*
X002194Y003231D01*
X002178Y003254D01*
X002165Y003278D01*
X002156Y003304D01*
X002150Y003331D01*
X002148Y003358D01*
D11*
X005062Y001722D02*
X005062Y001262D01*
X005215Y001262D02*
X004908Y001262D01*
X005215Y001569D02*
X005062Y001722D01*
X005829Y001569D02*
X005982Y001262D01*
X006136Y001569D01*
X006289Y001492D02*
X006289Y001415D01*
X006596Y001415D01*
X006596Y001339D02*
X006596Y001492D01*
X006520Y001569D01*
X006366Y001569D01*
X006289Y001492D01*
X006366Y001262D02*
X006520Y001262D01*
X006596Y001339D01*
X006750Y001262D02*
X006903Y001415D01*
X006826Y001415D02*
X007057Y001415D01*
X007057Y001262D02*
X007057Y001722D01*
X006826Y001722D01*
X006750Y001646D01*
X006750Y001492D01*
X006826Y001415D01*
X003002Y007473D02*
X003002Y007713D01*
X003122Y007593D02*
X002882Y007593D01*
X002882Y007841D02*
X002822Y007901D01*
X002822Y008021D01*
X002882Y008081D01*
X002942Y008081D01*
X003002Y008021D01*
X003002Y007961D01*
X003002Y008021D02*
X003062Y008081D01*
X003122Y008081D01*
X003182Y008021D01*
X003182Y007901D01*
X003122Y007841D01*
X003822Y007897D02*
X003942Y007777D01*
X003942Y007837D02*
X003942Y007657D01*
X003822Y007657D02*
X004182Y007657D01*
X004182Y007837D01*
X004122Y007897D01*
X004002Y007897D01*
X003942Y007837D01*
X004002Y008025D02*
X004002Y008145D01*
X004182Y008025D02*
X003822Y008025D01*
X003822Y008265D01*
X003882Y008394D02*
X003822Y008454D01*
X003822Y008574D01*
X003882Y008634D01*
X003942Y008634D01*
X004002Y008574D01*
X004002Y008454D01*
X004062Y008394D01*
X004122Y008394D01*
X004182Y008454D01*
X004182Y008574D01*
X004122Y008634D01*
X004182Y008265D02*
X004182Y008025D01*
X004822Y008025D02*
X004822Y008265D01*
X004822Y008394D02*
X005182Y008394D01*
X005182Y008634D01*
X005002Y008514D02*
X005002Y008394D01*
X005182Y008265D02*
X005182Y008025D01*
X004822Y008025D01*
X004822Y007897D02*
X004942Y007777D01*
X004942Y007837D02*
X004942Y007657D01*
X004822Y007657D02*
X005182Y007657D01*
X005182Y007837D01*
X005122Y007897D01*
X005002Y007897D01*
X004942Y007837D01*
X005002Y008025D02*
X005002Y008145D01*
X005822Y008025D02*
X006182Y008025D01*
X006182Y008265D01*
X006122Y008394D02*
X005882Y008394D01*
X006122Y008634D01*
X005882Y008634D01*
X005822Y008574D01*
X005822Y008454D01*
X005882Y008394D01*
X006122Y008394D02*
X006182Y008454D01*
X006182Y008574D01*
X006122Y008634D01*
X006822Y008634D02*
X006822Y008394D01*
X006822Y008514D02*
X007182Y008514D01*
X007062Y008394D01*
X007182Y008265D02*
X007182Y008025D01*
X006822Y008025D01*
X007002Y008025D02*
X007002Y008145D01*
X007002Y007897D02*
X006942Y007837D01*
X006942Y007657D01*
X006822Y007657D02*
X007182Y007657D01*
X007182Y007837D01*
X007122Y007897D01*
X007002Y007897D01*
X006182Y007837D02*
X006182Y007657D01*
X005822Y007657D01*
X005942Y007657D02*
X005942Y007837D01*
X006002Y007897D01*
X006122Y007897D01*
X006182Y007837D01*
X006002Y008025D02*
X006002Y008145D01*
X007822Y008025D02*
X008182Y008025D01*
X008182Y008265D01*
X008002Y008145D02*
X008002Y008025D01*
X008002Y007897D02*
X007942Y007837D01*
X007942Y007657D01*
X007822Y007657D02*
X008182Y007657D01*
X008182Y007837D01*
X008122Y007897D01*
X008002Y007897D01*
X008822Y008025D02*
X009182Y008025D01*
X009182Y008265D01*
X009182Y008394D02*
X009002Y008394D01*
X009062Y008514D01*
X009062Y008574D01*
X009002Y008634D01*
X008882Y008634D01*
X008822Y008574D01*
X008822Y008454D01*
X008882Y008394D01*
X009182Y008394D02*
X009182Y008634D01*
X009822Y008574D02*
X009822Y008454D01*
X009882Y008394D01*
X010002Y008394D01*
X010002Y008574D01*
X009942Y008634D01*
X009882Y008634D01*
X009822Y008574D01*
X010002Y008394D02*
X010122Y008514D01*
X010182Y008634D01*
X010822Y008394D02*
X010882Y008394D01*
X011122Y008634D01*
X011182Y008634D01*
X011182Y008394D01*
X011182Y008265D02*
X011182Y008025D01*
X010822Y008025D01*
X011002Y008025D02*
X011002Y008145D01*
X011002Y007897D02*
X010942Y007837D01*
X010942Y007657D01*
X010822Y007657D02*
X011182Y007657D01*
X011182Y007837D01*
X011122Y007897D01*
X011002Y007897D01*
X010182Y007837D02*
X010182Y007657D01*
X009822Y007657D01*
X009942Y007657D02*
X009942Y007837D01*
X010002Y007897D01*
X010122Y007897D01*
X010182Y007837D01*
X010182Y008025D02*
X009822Y008025D01*
X010002Y008025D02*
X010002Y008145D01*
X010182Y008025D02*
X010182Y008265D01*
X009182Y007837D02*
X009122Y007897D01*
X009002Y007897D01*
X008942Y007837D01*
X008942Y007657D01*
X008822Y007657D02*
X009182Y007657D01*
X009182Y007837D01*
X009002Y008025D02*
X009002Y008145D01*
X008182Y008574D02*
X008002Y008394D01*
X008002Y008634D01*
X007822Y008574D02*
X008182Y008574D01*
X011822Y008634D02*
X011822Y008394D01*
X012062Y008634D01*
X012122Y008634D01*
X012182Y008574D01*
X012182Y008454D01*
X012122Y008394D01*
X012182Y008265D02*
X012182Y008025D01*
X011822Y008025D01*
X011822Y008265D01*
X012002Y008145D02*
X012002Y008025D01*
X012002Y007897D02*
X011942Y007837D01*
X011942Y007657D01*
X011822Y007657D02*
X012182Y007657D01*
X012182Y007837D01*
X012122Y007897D01*
X012002Y007897D01*
X012822Y008025D02*
X012822Y008265D01*
X012882Y008394D02*
X012822Y008454D01*
X012822Y008574D01*
X012882Y008634D01*
X012942Y008634D01*
X013002Y008574D01*
X013002Y008394D01*
X012882Y008394D01*
X013002Y008394D02*
X013122Y008514D01*
X013182Y008634D01*
X013822Y008574D02*
X013822Y008454D01*
X013882Y008394D01*
X014122Y008634D01*
X013882Y008634D01*
X013822Y008574D01*
X014122Y008634D02*
X014182Y008574D01*
X014182Y008454D01*
X014122Y008394D01*
X013882Y008394D01*
X013882Y008265D02*
X014122Y008265D01*
X014182Y008205D01*
X014182Y008025D01*
X013822Y008025D01*
X013822Y008205D01*
X013882Y008265D01*
X013182Y008265D02*
X013182Y008025D01*
X012822Y008025D01*
X013002Y008025D02*
X013002Y008145D01*
X013002Y007897D02*
X012942Y007837D01*
X012942Y007657D01*
X012822Y007657D02*
X013182Y007657D01*
X013182Y007837D01*
X013122Y007897D01*
X013002Y007897D01*
X013822Y007657D02*
X014182Y007657D01*
X014182Y007837D01*
X014122Y007897D01*
X014002Y007897D01*
X013942Y007837D01*
X013942Y007657D01*
X014822Y007657D02*
X015182Y007657D01*
X015182Y007837D01*
X015122Y007897D01*
X015002Y007897D01*
X014942Y007837D01*
X014942Y007657D01*
X014822Y008025D02*
X014822Y008205D01*
X014882Y008265D01*
X015122Y008265D01*
X015182Y008205D01*
X015182Y008025D01*
X014822Y008025D01*
X014822Y008394D02*
X014822Y008634D01*
X014822Y008514D02*
X015182Y008514D01*
X015062Y008394D01*
X015822Y008394D02*
X015822Y008634D01*
X016062Y008634D02*
X016122Y008634D01*
X016182Y008574D01*
X016182Y008454D01*
X016122Y008394D01*
X016122Y008265D02*
X015882Y008265D01*
X015822Y008205D01*
X015822Y008025D01*
X016182Y008025D01*
X016182Y008205D01*
X016122Y008265D01*
X015822Y008394D02*
X016062Y008634D01*
X016822Y008574D02*
X016822Y008454D01*
X016882Y008394D01*
X016882Y008265D02*
X016822Y008205D01*
X016822Y008025D01*
X017182Y008025D01*
X017182Y008205D01*
X017122Y008265D01*
X016882Y008265D01*
X017122Y008394D02*
X017182Y008454D01*
X017182Y008574D01*
X017122Y008634D01*
X017062Y008634D01*
X017002Y008574D01*
X016942Y008634D01*
X016882Y008634D01*
X016822Y008574D01*
X017002Y008574D02*
X017002Y008514D01*
X017822Y008574D02*
X018182Y008574D01*
X018002Y008394D01*
X018002Y008634D01*
X018122Y008265D02*
X018182Y008205D01*
X018182Y008025D01*
X017822Y008025D01*
X017822Y008205D01*
X017882Y008265D01*
X018122Y008265D01*
X018122Y007897D02*
X018002Y007897D01*
X017942Y007837D01*
X017942Y007657D01*
X017822Y007657D02*
X018182Y007657D01*
X018182Y007837D01*
X018122Y007897D01*
X018822Y008025D02*
X018822Y008205D01*
X018882Y008265D01*
X019122Y008265D01*
X019182Y008205D01*
X019182Y008025D01*
X018822Y008025D01*
X019002Y007897D02*
X018942Y007837D01*
X018942Y007657D01*
X018822Y007657D02*
X019182Y007657D01*
X019182Y007837D01*
X019122Y007897D01*
X019002Y007897D01*
X019822Y008025D02*
X019822Y008205D01*
X019882Y008265D01*
X020122Y008265D01*
X020182Y008205D01*
X020182Y008025D01*
X019822Y008025D01*
X020002Y007897D02*
X019942Y007837D01*
X019942Y007657D01*
X019822Y007657D02*
X020182Y007657D01*
X020182Y007837D01*
X020122Y007897D01*
X020002Y007897D01*
X020822Y008025D02*
X020822Y008205D01*
X020882Y008265D01*
X021122Y008265D01*
X021182Y008205D01*
X021182Y008025D01*
X020822Y008025D01*
X021002Y007897D02*
X020942Y007837D01*
X020942Y007657D01*
X020822Y007657D02*
X021182Y007657D01*
X021182Y007837D01*
X021122Y007897D01*
X021002Y007897D01*
X021822Y008085D02*
X021822Y008205D01*
X021882Y008265D01*
X021882Y008394D02*
X021822Y008454D01*
X021822Y008574D01*
X021882Y008634D01*
X021942Y008634D01*
X022002Y008574D01*
X022002Y008394D01*
X021882Y008394D01*
X022002Y008394D02*
X022122Y008514D01*
X022182Y008634D01*
X022822Y008394D02*
X022882Y008394D01*
X023122Y008634D01*
X023182Y008634D01*
X023182Y008394D01*
X023122Y008265D02*
X023182Y008205D01*
X023182Y008085D01*
X023122Y008025D01*
X022882Y008025D01*
X022822Y008085D01*
X022822Y008205D01*
X022882Y008265D01*
X022182Y008205D02*
X022182Y008085D01*
X022122Y008025D01*
X021882Y008025D01*
X021822Y008085D01*
X022122Y008265D02*
X022182Y008205D01*
X022122Y007897D02*
X022002Y007897D01*
X021942Y007837D01*
X021942Y007657D01*
X021822Y007657D02*
X022182Y007657D01*
X022182Y007837D01*
X022122Y007897D01*
X022822Y007657D02*
X023182Y007657D01*
X023182Y007837D01*
X023122Y007897D01*
X023002Y007897D01*
X022942Y007837D01*
X022942Y007657D01*
X023822Y007657D02*
X024182Y007657D01*
X024182Y007837D01*
X024122Y007897D01*
X024002Y007897D01*
X023942Y007837D01*
X023942Y007657D01*
X024822Y007657D02*
X025182Y007657D01*
X025182Y007837D01*
X025122Y007897D01*
X025002Y007897D01*
X024942Y007837D01*
X024942Y007657D01*
X025002Y008025D02*
X025002Y008205D01*
X024942Y008265D01*
X024882Y008265D01*
X024822Y008205D01*
X024822Y008025D01*
X025182Y008025D01*
X025182Y008205D01*
X025122Y008265D01*
X025062Y008265D01*
X025002Y008205D01*
X025062Y008394D02*
X025182Y008514D01*
X024822Y008514D01*
X024822Y008394D02*
X024822Y008634D01*
X024182Y008574D02*
X024182Y008454D01*
X024122Y008394D01*
X023882Y008394D01*
X024122Y008634D01*
X023882Y008634D01*
X023822Y008574D01*
X023822Y008454D01*
X023882Y008394D01*
X023882Y008265D02*
X023822Y008205D01*
X023822Y008025D01*
X024182Y008025D01*
X024182Y008205D01*
X024122Y008265D01*
X024062Y008265D01*
X024002Y008205D01*
X024002Y008025D01*
X024002Y008205D02*
X023942Y008265D01*
X023882Y008265D01*
X024182Y008574D02*
X024122Y008634D01*
X025822Y008634D02*
X025822Y008394D01*
X026062Y008634D01*
X026122Y008634D01*
X026182Y008574D01*
X026182Y008454D01*
X026122Y008394D01*
X026122Y008265D02*
X026062Y008265D01*
X026002Y008205D01*
X026002Y008025D01*
X026002Y007897D02*
X025942Y007837D01*
X025942Y007657D01*
X025822Y007657D02*
X026182Y007657D01*
X026182Y007837D01*
X026122Y007897D01*
X026002Y007897D01*
X025822Y008025D02*
X026182Y008025D01*
X026182Y008205D01*
X026122Y008265D01*
X026002Y008205D02*
X025942Y008265D01*
X025882Y008265D01*
X025822Y008205D01*
X025822Y008025D01*
X026822Y008025D02*
X026822Y008205D01*
X026882Y008265D01*
X026942Y008265D01*
X027002Y008205D01*
X027002Y008025D01*
X027002Y007897D02*
X026942Y007837D01*
X026942Y007657D01*
X026822Y007657D02*
X027182Y007657D01*
X027182Y007837D01*
X027122Y007897D01*
X027002Y007897D01*
X026822Y008025D02*
X027182Y008025D01*
X027182Y008205D01*
X027122Y008265D01*
X027062Y008265D01*
X027002Y008205D01*
X027122Y008394D02*
X027182Y008454D01*
X027182Y008574D01*
X027122Y008634D01*
X027062Y008634D01*
X027002Y008574D01*
X026942Y008634D01*
X026882Y008634D01*
X026822Y008574D01*
X026822Y008454D01*
X026882Y008394D01*
X027002Y008514D02*
X027002Y008574D01*
X027822Y008574D02*
X028182Y008574D01*
X028002Y008394D01*
X028002Y008634D01*
X028062Y008265D02*
X028002Y008205D01*
X028002Y008025D01*
X028002Y007897D02*
X027942Y007837D01*
X027942Y007657D01*
X027822Y007657D02*
X028182Y007657D01*
X028182Y007837D01*
X028122Y007897D01*
X028002Y007897D01*
X027822Y008025D02*
X028182Y008025D01*
X028182Y008205D01*
X028122Y008265D01*
X028062Y008265D01*
X028002Y008205D02*
X027942Y008265D01*
X027882Y008265D01*
X027822Y008205D01*
X027822Y008025D01*
X028822Y008025D02*
X028822Y008205D01*
X028882Y008265D01*
X028942Y008265D01*
X029002Y008205D01*
X029002Y008025D01*
X029002Y007897D02*
X028942Y007837D01*
X028942Y007657D01*
X028822Y007657D02*
X029182Y007657D01*
X029182Y007837D01*
X029122Y007897D01*
X029002Y007897D01*
X028822Y008025D02*
X029182Y008025D01*
X029182Y008205D01*
X029122Y008265D01*
X029062Y008265D01*
X029002Y008205D01*
X029002Y008394D02*
X029062Y008514D01*
X029062Y008574D01*
X029002Y008634D01*
X028882Y008634D01*
X028822Y008574D01*
X028822Y008454D01*
X028882Y008394D01*
X029002Y008394D02*
X029182Y008394D01*
X029182Y008634D01*
X029822Y008574D02*
X029822Y008454D01*
X029882Y008394D01*
X030002Y008394D01*
X030002Y008574D01*
X029942Y008634D01*
X029882Y008634D01*
X029822Y008574D01*
X030002Y008394D02*
X030122Y008514D01*
X030182Y008634D01*
X030822Y008394D02*
X030882Y008394D01*
X031122Y008634D01*
X031182Y008634D01*
X031182Y008394D01*
X031122Y008265D02*
X031062Y008265D01*
X031002Y008205D01*
X031002Y008025D01*
X031002Y007897D02*
X030942Y007837D01*
X030942Y007657D01*
X030822Y007657D02*
X031182Y007657D01*
X031182Y007837D01*
X031122Y007897D01*
X031002Y007897D01*
X030822Y008025D02*
X031182Y008025D01*
X031182Y008205D01*
X031122Y008265D01*
X031002Y008205D02*
X030942Y008265D01*
X030882Y008265D01*
X030822Y008205D01*
X030822Y008025D01*
X030182Y008025D02*
X030182Y008205D01*
X030122Y008265D01*
X030062Y008265D01*
X030002Y008205D01*
X030002Y008025D01*
X030002Y007897D02*
X029942Y007837D01*
X029942Y007657D01*
X029822Y007657D02*
X030182Y007657D01*
X030182Y007837D01*
X030122Y007897D01*
X030002Y007897D01*
X029822Y008025D02*
X030182Y008025D01*
X029822Y008025D02*
X029822Y008205D01*
X029882Y008265D01*
X029942Y008265D01*
X030002Y008205D01*
X021182Y008394D02*
X021182Y008634D01*
X021122Y008634D01*
X020882Y008394D01*
X020822Y008394D01*
X020182Y008634D02*
X020122Y008514D01*
X020002Y008394D01*
X020002Y008574D01*
X019942Y008634D01*
X019882Y008634D01*
X019822Y008574D01*
X019822Y008454D01*
X019882Y008394D01*
X020002Y008394D01*
X019182Y008394D02*
X019182Y008634D01*
X019062Y008574D02*
X019062Y008514D01*
X019002Y008394D01*
X019182Y008394D01*
X018882Y008394D02*
X018822Y008454D01*
X018822Y008574D01*
X018882Y008634D01*
X019002Y008634D01*
X019062Y008574D01*
X017182Y007837D02*
X017122Y007897D01*
X017002Y007897D01*
X016942Y007837D01*
X016942Y007657D01*
X016822Y007657D02*
X017182Y007657D01*
X017182Y007837D01*
X016182Y007837D02*
X016182Y007657D01*
X015822Y007657D01*
X015942Y007657D02*
X015942Y007837D01*
X016002Y007897D01*
X016122Y007897D01*
X016182Y007837D01*
X003182Y008454D02*
X003122Y008394D01*
X003182Y008454D02*
X003182Y008574D01*
X003122Y008634D01*
X003062Y008634D01*
X003002Y008574D01*
X002942Y008634D01*
X002882Y008634D01*
X002822Y008574D01*
X002822Y008454D01*
X002882Y008394D01*
X002882Y008269D02*
X002822Y008269D01*
X002822Y008209D01*
X002882Y008209D01*
X002882Y008269D01*
X003002Y008514D02*
X003002Y008574D01*
X002182Y008634D02*
X002182Y008394D01*
X002002Y008394D01*
X002062Y008514D01*
X002062Y008574D01*
X002002Y008634D01*
X001882Y008634D01*
X001822Y008574D01*
X001822Y008454D01*
X001882Y008394D01*
X002002Y008265D02*
X002002Y008025D01*
X002122Y008145D02*
X001882Y008145D01*
X001182Y008025D02*
X000822Y008265D01*
X001182Y008265D01*
X001182Y008394D02*
X000822Y008394D01*
X000822Y008574D01*
X000882Y008634D01*
X001122Y008634D01*
X001182Y008574D01*
X001182Y008394D01*
X001182Y008025D02*
X000822Y008025D01*
X000882Y007897D02*
X001002Y007897D01*
X001002Y007777D01*
X001122Y007657D02*
X000882Y007657D01*
X000822Y007717D01*
X000822Y007837D01*
X000882Y007897D01*
X001122Y007897D02*
X001182Y007837D01*
X001182Y007717D01*
X001122Y007657D01*
D12*
X016880Y000892D02*
X017000Y001012D01*
X017120Y000892D01*
X017120Y000532D01*
X017360Y000532D02*
X017360Y001012D01*
X017240Y001012D01*
X017120Y000892D01*
X016880Y000892D02*
X016880Y000532D01*
X017616Y000652D02*
X017736Y000532D01*
X017977Y000532D01*
X018097Y000652D01*
X018097Y000892D01*
X017977Y001012D01*
X017736Y001012D01*
X017616Y000892D01*
X017616Y000652D01*
X018353Y000532D02*
X018713Y000532D01*
X018833Y000652D01*
X018833Y000892D01*
X018713Y001012D01*
X018353Y001012D01*
X019082Y000652D02*
X019082Y000532D01*
X019202Y000532D01*
X019202Y000652D01*
X019082Y000652D01*
X019458Y000652D02*
X019578Y000532D01*
X019938Y000532D01*
X020195Y000652D02*
X020195Y000892D01*
X020315Y001012D01*
X020675Y001012D01*
X020931Y000892D02*
X020931Y000532D01*
X021291Y000532D01*
X021412Y000652D01*
X021291Y000772D01*
X020931Y000772D01*
X020931Y000892D02*
X021051Y001012D01*
X021291Y001012D01*
X020675Y001252D02*
X020675Y000532D01*
X020315Y000532D01*
X020195Y000652D01*
X019938Y000892D02*
X019818Y000772D01*
X019578Y000772D01*
X019458Y000652D01*
X019818Y001012D02*
X019938Y000892D01*
X019818Y001012D02*
X019458Y001012D01*
X021668Y000532D02*
X022148Y000532D01*
X022148Y001252D01*
X022404Y000892D02*
X022524Y001012D01*
X022645Y000892D01*
X022645Y000532D01*
X022885Y000532D02*
X022885Y001012D01*
X022765Y001012D01*
X022645Y000892D01*
X022404Y000892D02*
X022404Y000532D01*
X023141Y000652D02*
X023141Y000892D01*
X023261Y001012D01*
X023501Y001012D01*
X023621Y000892D01*
X023621Y000652D01*
X023501Y000532D01*
X023261Y000532D01*
X023141Y000652D01*
X023878Y000652D02*
X023878Y000892D01*
X023998Y001012D01*
X024238Y001012D01*
X024358Y000892D01*
X024358Y000652D01*
X024238Y000532D01*
X023998Y000532D01*
X023878Y000652D01*
X024614Y000532D02*
X024854Y000772D01*
X024734Y000772D02*
X025095Y000772D01*
X024734Y000772D02*
X024614Y000892D01*
X024614Y001132D01*
X024734Y001252D01*
X025095Y001252D01*
X025095Y000532D01*
X025345Y000532D02*
X025586Y000532D01*
X025466Y000532D02*
X025466Y001252D01*
X025586Y001252D01*
X025957Y001252D02*
X025957Y000532D01*
X026077Y000532D02*
X025837Y000532D01*
X026333Y000532D02*
X026693Y000532D01*
X026813Y000652D01*
X026693Y000772D01*
X026333Y000772D01*
X026333Y000892D02*
X026333Y000532D01*
X026333Y000892D02*
X026453Y001012D01*
X026693Y001012D01*
X027070Y000892D02*
X027070Y000532D01*
X027310Y000532D02*
X027310Y000892D01*
X027190Y001012D01*
X027070Y000892D01*
X027310Y000892D02*
X027430Y001012D01*
X027550Y001012D01*
X027550Y000532D01*
X027806Y000652D02*
X027926Y000532D01*
X028166Y000532D01*
X028287Y000652D01*
X027926Y000892D02*
X027806Y000772D01*
X027806Y000652D01*
X027926Y000892D02*
X028166Y000892D01*
X028287Y001012D01*
X028287Y001132D01*
X028166Y001252D01*
X027926Y001252D01*
X027806Y001132D01*
X026077Y001252D02*
X025957Y001252D01*
D13*
X007047Y002147D02*
X007047Y002888D01*
X006800Y002641D01*
X006553Y002888D01*
X006553Y002147D01*
X006310Y002270D02*
X006310Y002517D01*
X006187Y002641D01*
X005940Y002641D01*
X005816Y002517D01*
X005816Y002394D01*
X006310Y002394D01*
X006310Y002270D02*
X006187Y002147D01*
X005940Y002147D01*
X005573Y002270D02*
X005450Y002147D01*
X005080Y002147D01*
X005080Y002023D02*
X005080Y002641D01*
X005450Y002641D01*
X005573Y002517D01*
X005573Y002270D01*
X005203Y001900D02*
X005080Y002023D01*
X005203Y001900D02*
X005326Y001900D01*
X004837Y002270D02*
X004713Y002147D01*
X004343Y002147D01*
X004343Y002517D01*
X004466Y002641D01*
X004713Y002641D01*
X004713Y002394D02*
X004343Y002394D01*
X004713Y002394D02*
X004837Y002270D01*
X004100Y002270D02*
X003977Y002147D01*
X003730Y002147D01*
X003606Y002270D01*
X003606Y002888D01*
X004100Y002888D02*
X004100Y002270D01*
X003364Y002517D02*
X002870Y002517D01*
X002993Y002888D02*
X003364Y002517D01*
X002993Y002147D02*
X002993Y002888D01*
X002627Y002888D02*
X002257Y002888D01*
X002133Y002764D01*
X002133Y002270D01*
X002257Y002147D01*
X002627Y002147D01*
X002627Y002888D01*
X001890Y002517D02*
X001767Y002641D01*
X001520Y002641D01*
X001397Y002517D01*
X001397Y002394D01*
X001890Y002394D01*
X001890Y002517D02*
X001890Y002270D01*
X001767Y002147D01*
X001520Y002147D01*
X000907Y002147D02*
X000660Y002641D01*
X001154Y002641D02*
X000907Y002147D01*
D14*
X012264Y005570D02*
X012264Y005879D01*
X012449Y005879D01*
X012510Y005817D01*
X012510Y005694D01*
X012449Y005632D01*
X012264Y005632D01*
X012264Y005570D02*
X012325Y005508D01*
X012387Y005508D01*
X012694Y005632D02*
X012817Y005632D01*
X012879Y005694D01*
X012879Y005817D01*
X012817Y005879D01*
X012694Y005879D01*
X012632Y005817D01*
X012632Y005755D01*
X012879Y005755D01*
X013000Y005879D02*
X013062Y005879D01*
X013186Y005755D01*
X013307Y005755D02*
X013307Y006002D01*
X013186Y005879D02*
X013186Y005632D01*
X013307Y005755D02*
X013430Y005632D01*
X013554Y005755D01*
X013554Y006002D01*
X014044Y005940D02*
X014044Y005879D01*
X014105Y005817D01*
X014044Y005755D01*
X014044Y005694D01*
X014105Y005632D01*
X014229Y005632D01*
X014290Y005694D01*
X014413Y005694D02*
X014413Y005632D01*
X014475Y005632D01*
X014475Y005694D01*
X014413Y005694D01*
X014596Y005694D02*
X014658Y005632D01*
X014781Y005632D01*
X014843Y005694D01*
X014719Y005817D02*
X014658Y005817D01*
X014596Y005755D01*
X014596Y005694D01*
X014658Y005817D02*
X014596Y005879D01*
X014596Y005940D01*
X014658Y006002D01*
X014781Y006002D01*
X014843Y005940D01*
X014290Y005940D02*
X014229Y006002D01*
X014105Y006002D01*
X014044Y005940D01*
X014105Y005817D02*
X014167Y005817D01*
X015333Y005632D02*
X015457Y005632D01*
X015395Y005632D02*
X015395Y006002D01*
X015457Y006002D01*
X015640Y005879D02*
X015578Y005817D01*
X015578Y005632D01*
X015763Y005632D01*
X015825Y005694D01*
X015763Y005755D01*
X015578Y005755D01*
X015640Y005879D02*
X015763Y005879D01*
X015946Y005817D02*
X015946Y005632D01*
X016193Y005632D02*
X016193Y005879D01*
X016008Y005879D01*
X015946Y005817D01*
X016315Y005879D02*
X016377Y005879D01*
X016500Y005755D01*
X016622Y005755D02*
X016622Y005817D01*
X016683Y005879D01*
X016807Y005879D01*
X016869Y005817D01*
X016869Y005694D01*
X016807Y005632D01*
X016683Y005632D01*
X016622Y005755D02*
X016869Y005755D01*
X016991Y005632D02*
X017052Y005694D01*
X017052Y005940D01*
X017114Y005879D02*
X016991Y005879D01*
X017236Y005817D02*
X017236Y005632D01*
X017482Y005632D02*
X017482Y005879D01*
X017297Y005879D01*
X017236Y005817D01*
X017666Y005879D02*
X017666Y005632D01*
X017728Y005632D02*
X017604Y005632D01*
X017666Y005879D02*
X017728Y005879D01*
X017666Y006002D02*
X017666Y006064D01*
X018218Y005879D02*
X018342Y005879D01*
X018280Y005940D02*
X018280Y005694D01*
X018218Y005632D01*
X018463Y005632D02*
X018648Y005632D01*
X018710Y005694D01*
X018710Y005817D01*
X018648Y005879D01*
X018463Y005879D01*
X018831Y005817D02*
X018831Y005755D01*
X019078Y005755D01*
X019078Y005694D02*
X019078Y005817D01*
X019017Y005879D01*
X018893Y005879D01*
X018831Y005817D01*
X019017Y005632D02*
X019078Y005694D01*
X019017Y005632D02*
X018893Y005632D01*
X019200Y005632D02*
X019200Y005817D01*
X019261Y005879D01*
X019447Y005879D01*
X019447Y005632D01*
X019568Y005632D02*
X019568Y005817D01*
X019630Y005879D01*
X019815Y005879D01*
X019815Y005632D01*
X019936Y005694D02*
X019998Y005632D01*
X020122Y005632D01*
X020183Y005694D01*
X020183Y005817D01*
X020122Y005879D01*
X019998Y005879D01*
X019936Y005817D01*
X019936Y005694D01*
X020305Y005694D02*
X020366Y005632D01*
X020490Y005632D01*
X020552Y005694D01*
X020552Y005940D01*
X020490Y006002D01*
X020366Y006002D01*
X020305Y005940D01*
X021041Y005879D02*
X021288Y005879D01*
X021288Y005755D02*
X021041Y005755D01*
X021778Y005632D02*
X021963Y005632D01*
X022025Y005694D01*
X022025Y005817D01*
X021963Y005879D01*
X021778Y005879D01*
X021778Y005570D01*
X021840Y005508D01*
X021901Y005508D01*
X022208Y005632D02*
X022331Y005632D01*
X022393Y005694D01*
X022393Y005817D01*
X022331Y005879D01*
X022208Y005879D01*
X022146Y005817D01*
X022146Y005755D01*
X022393Y005755D01*
X022515Y005879D02*
X022577Y005879D01*
X022700Y005755D01*
X022821Y005755D02*
X022821Y006002D01*
X022700Y005879D02*
X022700Y005632D01*
X022821Y005755D02*
X022945Y005632D01*
X023068Y005755D01*
X023068Y006002D01*
X023190Y005940D02*
X023190Y005879D01*
X023251Y005817D01*
X023190Y005755D01*
X023190Y005694D01*
X023251Y005632D01*
X023375Y005632D01*
X023437Y005694D01*
X023313Y005817D02*
X023251Y005817D01*
X023190Y005940D02*
X023251Y006002D01*
X023375Y006002D01*
X023437Y005940D01*
X023375Y006632D02*
X023251Y006632D01*
X023190Y006694D01*
X023190Y007002D01*
X023068Y006940D02*
X023007Y007002D01*
X022883Y007002D01*
X022821Y006940D01*
X022700Y007002D02*
X022515Y007002D01*
X022453Y006940D01*
X022453Y006879D01*
X022515Y006817D01*
X022700Y006817D01*
X022821Y006755D02*
X022821Y006694D01*
X022883Y006632D01*
X023007Y006632D01*
X023068Y006694D01*
X023007Y006817D02*
X022883Y006817D01*
X022821Y006755D01*
X022700Y006632D02*
X022515Y006632D01*
X022453Y006694D01*
X022453Y006755D01*
X022515Y006817D01*
X022700Y006632D02*
X022700Y007002D01*
X023007Y006817D02*
X023068Y006879D01*
X023068Y006940D01*
X023437Y007002D02*
X023437Y006694D01*
X023375Y006632D01*
X021963Y006755D02*
X021716Y006755D01*
X021716Y006879D02*
X021963Y006879D01*
X021227Y007002D02*
X020980Y007002D01*
X021103Y007002D02*
X021103Y006632D01*
X020858Y006694D02*
X020797Y006755D01*
X020612Y006755D01*
X020612Y006817D02*
X020612Y006632D01*
X020797Y006632D01*
X020858Y006694D01*
X020673Y006879D02*
X020612Y006817D01*
X020673Y006879D02*
X020797Y006879D01*
X020490Y007002D02*
X020490Y006632D01*
X020490Y006755D02*
X020305Y006879D01*
X020183Y006817D02*
X020122Y006879D01*
X019998Y006879D01*
X019936Y006817D01*
X019936Y006755D01*
X020183Y006755D01*
X020183Y006694D02*
X020183Y006817D01*
X020183Y006694D02*
X020122Y006632D01*
X019998Y006632D01*
X020305Y006632D02*
X020490Y006755D01*
X019447Y006755D02*
X019323Y006632D01*
X019200Y006755D01*
X019200Y007002D01*
X019078Y006940D02*
X019078Y006694D01*
X019017Y006632D01*
X018893Y006632D01*
X018831Y006694D01*
X018710Y006694D02*
X018648Y006632D01*
X018525Y006632D01*
X018463Y006694D01*
X018710Y006694D02*
X018710Y006940D01*
X018648Y007002D01*
X018525Y007002D01*
X018463Y006940D01*
X017973Y006817D02*
X017850Y006817D01*
X017728Y006879D02*
X017728Y006632D01*
X017728Y006755D02*
X017604Y006879D01*
X017543Y006879D01*
X017421Y006817D02*
X017421Y006694D01*
X017359Y006632D01*
X017236Y006632D01*
X017174Y006694D01*
X017174Y006817D01*
X017236Y006879D01*
X017359Y006879D01*
X017421Y006817D01*
X017053Y006879D02*
X017053Y006632D01*
X016929Y006632D02*
X016929Y006817D01*
X016868Y006879D01*
X016806Y006817D01*
X016806Y006632D01*
X016929Y006817D02*
X016991Y006879D01*
X017053Y006879D01*
X016316Y007002D02*
X016316Y006694D01*
X016254Y006632D01*
X016131Y006632D01*
X016069Y006694D01*
X016069Y007002D01*
X015948Y006940D02*
X015948Y006879D01*
X015886Y006817D01*
X015763Y006817D01*
X015701Y006755D01*
X015701Y006694D01*
X015763Y006632D01*
X015886Y006632D01*
X015948Y006694D01*
X015948Y006940D02*
X015886Y007002D01*
X015763Y007002D01*
X015701Y006940D01*
X015579Y007002D02*
X015394Y007002D01*
X015333Y006940D01*
X015333Y006879D01*
X015394Y006817D01*
X015579Y006817D01*
X015394Y006817D02*
X015333Y006755D01*
X015333Y006694D01*
X015394Y006632D01*
X015579Y006632D01*
X015579Y007002D01*
X014843Y006879D02*
X014658Y006879D01*
X014596Y006817D01*
X014596Y006694D01*
X014658Y006632D01*
X014843Y006632D01*
X014843Y006508D02*
X014843Y006879D01*
X014475Y006817D02*
X014475Y006694D01*
X014413Y006632D01*
X014289Y006632D01*
X014228Y006694D01*
X014228Y006817D01*
X014289Y006879D01*
X014413Y006879D01*
X014475Y006817D01*
X014106Y006879D02*
X014106Y006632D01*
X014106Y006755D02*
X013983Y006879D01*
X013921Y006879D01*
X013799Y006879D02*
X013676Y006879D01*
X013738Y006940D02*
X013738Y006694D01*
X013676Y006632D01*
X016500Y005879D02*
X016500Y005632D01*
X016316Y005002D02*
X016192Y005002D01*
X016131Y004940D01*
X016131Y004879D01*
X016192Y004817D01*
X016131Y004755D01*
X016131Y004694D01*
X016192Y004632D01*
X016316Y004632D01*
X016377Y004694D01*
X016254Y004817D02*
X016192Y004817D01*
X016009Y004694D02*
X015947Y004694D01*
X015947Y004632D01*
X016009Y004632D01*
X016009Y004694D01*
X015825Y004694D02*
X015763Y004632D01*
X015640Y004632D01*
X015578Y004694D01*
X015578Y004755D01*
X015640Y004817D01*
X015702Y004817D01*
X015640Y004817D02*
X015578Y004879D01*
X015578Y004940D01*
X015640Y005002D01*
X015763Y005002D01*
X015825Y004940D01*
X016316Y005002D02*
X016377Y004940D01*
X016867Y004879D02*
X016929Y004879D01*
X017053Y004755D01*
X017053Y004632D02*
X017053Y004879D01*
X017174Y004817D02*
X017236Y004879D01*
X017359Y004879D01*
X017421Y004817D01*
X017421Y004694D01*
X017359Y004632D01*
X017236Y004632D01*
X017174Y004694D01*
X017174Y004817D01*
X017911Y004879D02*
X018035Y004879D01*
X017973Y004940D02*
X017973Y004694D01*
X017911Y004632D01*
X018157Y004632D02*
X018280Y004632D01*
X018219Y004632D02*
X018219Y005002D01*
X018280Y005002D01*
X018463Y004879D02*
X018587Y004879D01*
X018649Y004817D01*
X018649Y004694D01*
X018587Y004632D01*
X018463Y004632D01*
X018402Y004694D01*
X018402Y004817D01*
X018463Y004879D01*
X018770Y004879D02*
X018893Y004632D01*
X019017Y004879D01*
X019507Y004817D02*
X019507Y004694D01*
X019568Y004632D01*
X019692Y004632D01*
X019754Y004694D01*
X019754Y004817D02*
X019630Y004879D01*
X019568Y004879D01*
X019507Y004817D01*
X019507Y005002D02*
X019754Y005002D01*
X019754Y004817D01*
X020243Y004694D02*
X020305Y004632D01*
X020428Y004632D01*
X020490Y004694D01*
X020490Y004940D01*
X020428Y005002D01*
X020305Y005002D01*
X020243Y004940D01*
X020612Y004940D02*
X020673Y005002D01*
X020797Y005002D01*
X020858Y004940D01*
X020858Y004694D01*
X020797Y004632D01*
X020673Y004632D01*
X020612Y004694D01*
X020980Y004755D02*
X020980Y005002D01*
X021227Y005002D02*
X021227Y004755D01*
X021103Y004632D01*
X020980Y004755D01*
X021716Y004755D02*
X021963Y004755D01*
X021963Y004879D02*
X021716Y004879D01*
X022453Y004879D02*
X022515Y004817D01*
X022453Y004755D01*
X022453Y004694D01*
X022515Y004632D01*
X022638Y004632D01*
X022700Y004694D01*
X022577Y004817D02*
X022515Y004817D01*
X022453Y004879D02*
X022453Y004940D01*
X022515Y005002D01*
X022638Y005002D01*
X022700Y004940D01*
X022821Y005002D02*
X023068Y004632D01*
X023190Y004694D02*
X023251Y004632D01*
X023375Y004632D01*
X023437Y004694D01*
X023437Y004817D02*
X023313Y004879D01*
X023251Y004879D01*
X023190Y004817D01*
X023190Y004694D01*
X023437Y004817D02*
X023437Y005002D01*
X023190Y005002D01*
X019447Y006755D02*
X019447Y007002D01*
X019078Y006940D02*
X019017Y007002D01*
X018893Y007002D01*
X018831Y006940D01*
X017912Y006940D02*
X017912Y006632D01*
X017912Y006940D02*
X017850Y007002D01*
X014352Y005002D02*
X014290Y005002D01*
X014290Y004632D01*
X014352Y004632D02*
X014228Y004632D01*
X014045Y004694D02*
X013983Y004632D01*
X014045Y004694D02*
X014045Y004940D01*
X014106Y004879D02*
X013983Y004879D01*
X014473Y004817D02*
X014473Y004694D01*
X014535Y004632D01*
X014658Y004632D01*
X014720Y004694D01*
X014720Y004817D01*
X014658Y004879D01*
X014535Y004879D01*
X014473Y004817D01*
X014842Y004879D02*
X014965Y004632D01*
X015088Y004879D01*
M02*
