G75*
G70*
%OFA0B0*%
%FSLAX24Y24*%
%IPPOS*%
%LPD*%
%AMOC8*
5,1,8,0,0,1.08239X$1,22.5*
%
%ADD10C,0.0000*%
%ADD11R,0.0591X0.0197*%
%ADD12R,0.0197X0.0591*%
%ADD13R,0.0512X0.0591*%
%ADD14R,0.0591X0.0512*%
%ADD15R,0.0512X0.0630*%
%ADD16R,0.0945X0.0787*%
%ADD17R,0.0909X0.0197*%
%ADD18R,0.2000X0.0700*%
%ADD19R,0.0315X0.0472*%
%ADD20R,0.0600X0.0900*%
%ADD21R,0.0900X0.0900*%
%ADD22R,0.0472X0.0472*%
%ADD23R,0.0551X0.1102*%
%ADD24R,0.0551X0.0472*%
D10*
X000202Y000141D02*
X000202Y039324D01*
X031698Y039324D01*
X031698Y000141D01*
X000202Y000141D01*
X002148Y001525D02*
X002150Y001552D01*
X002156Y001579D01*
X002165Y001605D01*
X002178Y001629D01*
X002194Y001652D01*
X002213Y001671D01*
X002235Y001688D01*
X002259Y001702D01*
X002284Y001712D01*
X002311Y001719D01*
X002338Y001722D01*
X002366Y001721D01*
X002393Y001716D01*
X002419Y001708D01*
X002443Y001696D01*
X002466Y001680D01*
X002487Y001662D01*
X002504Y001641D01*
X002519Y001617D01*
X002530Y001592D01*
X002538Y001566D01*
X002542Y001539D01*
X002542Y001511D01*
X002538Y001484D01*
X002530Y001458D01*
X002519Y001433D01*
X002504Y001409D01*
X002487Y001388D01*
X002466Y001370D01*
X002444Y001354D01*
X002419Y001342D01*
X002393Y001334D01*
X002366Y001329D01*
X002338Y001328D01*
X002311Y001331D01*
X002284Y001338D01*
X002259Y001348D01*
X002235Y001362D01*
X002213Y001379D01*
X002194Y001398D01*
X002178Y001421D01*
X002165Y001445D01*
X002156Y001471D01*
X002150Y001498D01*
X002148Y001525D01*
X002148Y003257D02*
X002150Y003284D01*
X002156Y003311D01*
X002165Y003337D01*
X002178Y003361D01*
X002194Y003384D01*
X002213Y003403D01*
X002235Y003420D01*
X002259Y003434D01*
X002284Y003444D01*
X002311Y003451D01*
X002338Y003454D01*
X002366Y003453D01*
X002393Y003448D01*
X002419Y003440D01*
X002443Y003428D01*
X002466Y003412D01*
X002487Y003394D01*
X002504Y003373D01*
X002519Y003349D01*
X002530Y003324D01*
X002538Y003298D01*
X002542Y003271D01*
X002542Y003243D01*
X002538Y003216D01*
X002530Y003190D01*
X002519Y003165D01*
X002504Y003141D01*
X002487Y003120D01*
X002466Y003102D01*
X002444Y003086D01*
X002419Y003074D01*
X002393Y003066D01*
X002366Y003061D01*
X002338Y003060D01*
X002311Y003063D01*
X002284Y003070D01*
X002259Y003080D01*
X002235Y003094D01*
X002213Y003111D01*
X002194Y003130D01*
X002178Y003153D01*
X002165Y003177D01*
X002156Y003203D01*
X002150Y003230D01*
X002148Y003257D01*
X002148Y011337D02*
X002150Y011364D01*
X002156Y011391D01*
X002165Y011417D01*
X002178Y011441D01*
X002194Y011464D01*
X002213Y011483D01*
X002235Y011500D01*
X002259Y011514D01*
X002284Y011524D01*
X002311Y011531D01*
X002338Y011534D01*
X002366Y011533D01*
X002393Y011528D01*
X002419Y011520D01*
X002443Y011508D01*
X002466Y011492D01*
X002487Y011474D01*
X002504Y011453D01*
X002519Y011429D01*
X002530Y011404D01*
X002538Y011378D01*
X002542Y011351D01*
X002542Y011323D01*
X002538Y011296D01*
X002530Y011270D01*
X002519Y011245D01*
X002504Y011221D01*
X002487Y011200D01*
X002466Y011182D01*
X002444Y011166D01*
X002419Y011154D01*
X002393Y011146D01*
X002366Y011141D01*
X002338Y011140D01*
X002311Y011143D01*
X002284Y011150D01*
X002259Y011160D01*
X002235Y011174D01*
X002213Y011191D01*
X002194Y011210D01*
X002178Y011233D01*
X002165Y011257D01*
X002156Y011283D01*
X002150Y011310D01*
X002148Y011337D01*
X002148Y013070D02*
X002150Y013097D01*
X002156Y013124D01*
X002165Y013150D01*
X002178Y013174D01*
X002194Y013197D01*
X002213Y013216D01*
X002235Y013233D01*
X002259Y013247D01*
X002284Y013257D01*
X002311Y013264D01*
X002338Y013267D01*
X002366Y013266D01*
X002393Y013261D01*
X002419Y013253D01*
X002443Y013241D01*
X002466Y013225D01*
X002487Y013207D01*
X002504Y013186D01*
X002519Y013162D01*
X002530Y013137D01*
X002538Y013111D01*
X002542Y013084D01*
X002542Y013056D01*
X002538Y013029D01*
X002530Y013003D01*
X002519Y012978D01*
X002504Y012954D01*
X002487Y012933D01*
X002466Y012915D01*
X002444Y012899D01*
X002419Y012887D01*
X002393Y012879D01*
X002366Y012874D01*
X002338Y012873D01*
X002311Y012876D01*
X002284Y012883D01*
X002259Y012893D01*
X002235Y012907D01*
X002213Y012924D01*
X002194Y012943D01*
X002178Y012966D01*
X002165Y012990D01*
X002156Y013016D01*
X002150Y013043D01*
X002148Y013070D01*
X002148Y021150D02*
X002150Y021177D01*
X002156Y021204D01*
X002165Y021230D01*
X002178Y021254D01*
X002194Y021277D01*
X002213Y021296D01*
X002235Y021313D01*
X002259Y021327D01*
X002284Y021337D01*
X002311Y021344D01*
X002338Y021347D01*
X002366Y021346D01*
X002393Y021341D01*
X002419Y021333D01*
X002443Y021321D01*
X002466Y021305D01*
X002487Y021287D01*
X002504Y021266D01*
X002519Y021242D01*
X002530Y021217D01*
X002538Y021191D01*
X002542Y021164D01*
X002542Y021136D01*
X002538Y021109D01*
X002530Y021083D01*
X002519Y021058D01*
X002504Y021034D01*
X002487Y021013D01*
X002466Y020995D01*
X002444Y020979D01*
X002419Y020967D01*
X002393Y020959D01*
X002366Y020954D01*
X002338Y020953D01*
X002311Y020956D01*
X002284Y020963D01*
X002259Y020973D01*
X002235Y020987D01*
X002213Y021004D01*
X002194Y021023D01*
X002178Y021046D01*
X002165Y021070D01*
X002156Y021096D01*
X002150Y021123D01*
X002148Y021150D01*
X002148Y022882D02*
X002150Y022909D01*
X002156Y022936D01*
X002165Y022962D01*
X002178Y022986D01*
X002194Y023009D01*
X002213Y023028D01*
X002235Y023045D01*
X002259Y023059D01*
X002284Y023069D01*
X002311Y023076D01*
X002338Y023079D01*
X002366Y023078D01*
X002393Y023073D01*
X002419Y023065D01*
X002443Y023053D01*
X002466Y023037D01*
X002487Y023019D01*
X002504Y022998D01*
X002519Y022974D01*
X002530Y022949D01*
X002538Y022923D01*
X002542Y022896D01*
X002542Y022868D01*
X002538Y022841D01*
X002530Y022815D01*
X002519Y022790D01*
X002504Y022766D01*
X002487Y022745D01*
X002466Y022727D01*
X002444Y022711D01*
X002419Y022699D01*
X002393Y022691D01*
X002366Y022686D01*
X002338Y022685D01*
X002311Y022688D01*
X002284Y022695D01*
X002259Y022705D01*
X002235Y022719D01*
X002213Y022736D01*
X002194Y022755D01*
X002178Y022778D01*
X002165Y022802D01*
X002156Y022828D01*
X002150Y022855D01*
X002148Y022882D01*
X002148Y030962D02*
X002150Y030989D01*
X002156Y031016D01*
X002165Y031042D01*
X002178Y031066D01*
X002194Y031089D01*
X002213Y031108D01*
X002235Y031125D01*
X002259Y031139D01*
X002284Y031149D01*
X002311Y031156D01*
X002338Y031159D01*
X002366Y031158D01*
X002393Y031153D01*
X002419Y031145D01*
X002443Y031133D01*
X002466Y031117D01*
X002487Y031099D01*
X002504Y031078D01*
X002519Y031054D01*
X002530Y031029D01*
X002538Y031003D01*
X002542Y030976D01*
X002542Y030948D01*
X002538Y030921D01*
X002530Y030895D01*
X002519Y030870D01*
X002504Y030846D01*
X002487Y030825D01*
X002466Y030807D01*
X002444Y030791D01*
X002419Y030779D01*
X002393Y030771D01*
X002366Y030766D01*
X002338Y030765D01*
X002311Y030768D01*
X002284Y030775D01*
X002259Y030785D01*
X002235Y030799D01*
X002213Y030816D01*
X002194Y030835D01*
X002178Y030858D01*
X002165Y030882D01*
X002156Y030908D01*
X002150Y030935D01*
X002148Y030962D01*
X002148Y032695D02*
X002150Y032722D01*
X002156Y032749D01*
X002165Y032775D01*
X002178Y032799D01*
X002194Y032822D01*
X002213Y032841D01*
X002235Y032858D01*
X002259Y032872D01*
X002284Y032882D01*
X002311Y032889D01*
X002338Y032892D01*
X002366Y032891D01*
X002393Y032886D01*
X002419Y032878D01*
X002443Y032866D01*
X002466Y032850D01*
X002487Y032832D01*
X002504Y032811D01*
X002519Y032787D01*
X002530Y032762D01*
X002538Y032736D01*
X002542Y032709D01*
X002542Y032681D01*
X002538Y032654D01*
X002530Y032628D01*
X002519Y032603D01*
X002504Y032579D01*
X002487Y032558D01*
X002466Y032540D01*
X002444Y032524D01*
X002419Y032512D01*
X002393Y032504D01*
X002366Y032499D01*
X002338Y032498D01*
X002311Y032501D01*
X002284Y032508D01*
X002259Y032518D01*
X002235Y032532D01*
X002213Y032549D01*
X002194Y032568D01*
X002178Y032591D01*
X002165Y032615D01*
X002156Y032641D01*
X002150Y032668D01*
X002148Y032695D01*
D11*
G36*
X013062Y033030D02*
X012646Y032614D01*
X012508Y032752D01*
X012924Y033168D01*
X013062Y033030D01*
G37*
G36*
X013285Y032807D02*
X012869Y032391D01*
X012731Y032529D01*
X013147Y032945D01*
X013285Y032807D01*
G37*
G36*
X013508Y032584D02*
X013092Y032168D01*
X012954Y032306D01*
X013370Y032722D01*
X013508Y032584D01*
G37*
G36*
X013730Y032362D02*
X013314Y031946D01*
X013176Y032084D01*
X013592Y032500D01*
X013730Y032362D01*
G37*
G36*
X013953Y032139D02*
X013537Y031723D01*
X013399Y031861D01*
X013815Y032277D01*
X013953Y032139D01*
G37*
G36*
X014176Y031916D02*
X013760Y031500D01*
X013622Y031638D01*
X014038Y032054D01*
X014176Y031916D01*
G37*
G36*
X014398Y031693D02*
X013982Y031277D01*
X013844Y031415D01*
X014260Y031831D01*
X014398Y031693D01*
G37*
G36*
X014621Y031471D02*
X014205Y031055D01*
X014067Y031193D01*
X014483Y031609D01*
X014621Y031471D01*
G37*
G36*
X014844Y031248D02*
X014428Y030832D01*
X014290Y030970D01*
X014706Y031386D01*
X014844Y031248D01*
G37*
G36*
X015067Y031025D02*
X014651Y030609D01*
X014513Y030747D01*
X014929Y031163D01*
X015067Y031025D01*
G37*
G36*
X015289Y030803D02*
X014873Y030387D01*
X014735Y030525D01*
X015151Y030941D01*
X015289Y030803D01*
G37*
G36*
X018296Y034255D02*
X017880Y033839D01*
X017742Y033977D01*
X018158Y034393D01*
X018296Y034255D01*
G37*
G36*
X018519Y034032D02*
X018103Y033616D01*
X017965Y033754D01*
X018381Y034170D01*
X018519Y034032D01*
G37*
G36*
X018073Y034477D02*
X017657Y034061D01*
X017519Y034199D01*
X017935Y034615D01*
X018073Y034477D01*
G37*
G36*
X017850Y034700D02*
X017434Y034284D01*
X017296Y034422D01*
X017712Y034838D01*
X017850Y034700D01*
G37*
G36*
X017628Y034923D02*
X017212Y034507D01*
X017074Y034645D01*
X017490Y035061D01*
X017628Y034923D01*
G37*
G36*
X017405Y035145D02*
X016989Y034729D01*
X016851Y034867D01*
X017267Y035283D01*
X017405Y035145D01*
G37*
G36*
X017182Y035368D02*
X016766Y034952D01*
X016628Y035090D01*
X017044Y035506D01*
X017182Y035368D01*
G37*
G36*
X016960Y035591D02*
X016544Y035175D01*
X016406Y035313D01*
X016822Y035729D01*
X016960Y035591D01*
G37*
G36*
X016737Y035814D02*
X016321Y035398D01*
X016183Y035536D01*
X016599Y035952D01*
X016737Y035814D01*
G37*
G36*
X016514Y036036D02*
X016098Y035620D01*
X015960Y035758D01*
X016376Y036174D01*
X016514Y036036D01*
G37*
G36*
X016291Y036259D02*
X015875Y035843D01*
X015737Y035981D01*
X016153Y036397D01*
X016291Y036259D01*
G37*
G36*
X016291Y026446D02*
X015875Y026030D01*
X015737Y026168D01*
X016153Y026584D01*
X016291Y026446D01*
G37*
G36*
X016514Y026224D02*
X016098Y025808D01*
X015960Y025946D01*
X016376Y026362D01*
X016514Y026224D01*
G37*
G36*
X016737Y026001D02*
X016321Y025585D01*
X016183Y025723D01*
X016599Y026139D01*
X016737Y026001D01*
G37*
G36*
X016960Y025778D02*
X016544Y025362D01*
X016406Y025500D01*
X016822Y025916D01*
X016960Y025778D01*
G37*
G36*
X017182Y025556D02*
X016766Y025140D01*
X016628Y025278D01*
X017044Y025694D01*
X017182Y025556D01*
G37*
G36*
X017405Y025333D02*
X016989Y024917D01*
X016851Y025055D01*
X017267Y025471D01*
X017405Y025333D01*
G37*
G36*
X017628Y025110D02*
X017212Y024694D01*
X017074Y024832D01*
X017490Y025248D01*
X017628Y025110D01*
G37*
G36*
X017850Y024888D02*
X017434Y024472D01*
X017296Y024610D01*
X017712Y025026D01*
X017850Y024888D01*
G37*
G36*
X018073Y024665D02*
X017657Y024249D01*
X017519Y024387D01*
X017935Y024803D01*
X018073Y024665D01*
G37*
G36*
X018296Y024442D02*
X017880Y024026D01*
X017742Y024164D01*
X018158Y024580D01*
X018296Y024442D01*
G37*
G36*
X018519Y024219D02*
X018103Y023803D01*
X017965Y023941D01*
X018381Y024357D01*
X018519Y024219D01*
G37*
G36*
X015289Y020990D02*
X014873Y020574D01*
X014735Y020712D01*
X015151Y021128D01*
X015289Y020990D01*
G37*
G36*
X015067Y021213D02*
X014651Y020797D01*
X014513Y020935D01*
X014929Y021351D01*
X015067Y021213D01*
G37*
G36*
X014844Y021435D02*
X014428Y021019D01*
X014290Y021157D01*
X014706Y021573D01*
X014844Y021435D01*
G37*
G36*
X014621Y021658D02*
X014205Y021242D01*
X014067Y021380D01*
X014483Y021796D01*
X014621Y021658D01*
G37*
G36*
X014398Y021881D02*
X013982Y021465D01*
X013844Y021603D01*
X014260Y022019D01*
X014398Y021881D01*
G37*
G36*
X014176Y022104D02*
X013760Y021688D01*
X013622Y021826D01*
X014038Y022242D01*
X014176Y022104D01*
G37*
G36*
X013953Y022326D02*
X013537Y021910D01*
X013399Y022048D01*
X013815Y022464D01*
X013953Y022326D01*
G37*
G36*
X013730Y022549D02*
X013314Y022133D01*
X013176Y022271D01*
X013592Y022687D01*
X013730Y022549D01*
G37*
G36*
X013508Y022772D02*
X013092Y022356D01*
X012954Y022494D01*
X013370Y022910D01*
X013508Y022772D01*
G37*
G36*
X013285Y022994D02*
X012869Y022578D01*
X012731Y022716D01*
X013147Y023132D01*
X013285Y022994D01*
G37*
G36*
X013062Y023217D02*
X012646Y022801D01*
X012508Y022939D01*
X012924Y023355D01*
X013062Y023217D01*
G37*
G36*
X016291Y016634D02*
X015875Y016218D01*
X015737Y016356D01*
X016153Y016772D01*
X016291Y016634D01*
G37*
G36*
X016514Y016411D02*
X016098Y015995D01*
X015960Y016133D01*
X016376Y016549D01*
X016514Y016411D01*
G37*
G36*
X016737Y016189D02*
X016321Y015773D01*
X016183Y015911D01*
X016599Y016327D01*
X016737Y016189D01*
G37*
G36*
X016960Y015966D02*
X016544Y015550D01*
X016406Y015688D01*
X016822Y016104D01*
X016960Y015966D01*
G37*
G36*
X017182Y015743D02*
X016766Y015327D01*
X016628Y015465D01*
X017044Y015881D01*
X017182Y015743D01*
G37*
G36*
X017405Y015520D02*
X016989Y015104D01*
X016851Y015242D01*
X017267Y015658D01*
X017405Y015520D01*
G37*
G36*
X017628Y015298D02*
X017212Y014882D01*
X017074Y015020D01*
X017490Y015436D01*
X017628Y015298D01*
G37*
G36*
X017850Y015075D02*
X017434Y014659D01*
X017296Y014797D01*
X017712Y015213D01*
X017850Y015075D01*
G37*
G36*
X018073Y014852D02*
X017657Y014436D01*
X017519Y014574D01*
X017935Y014990D01*
X018073Y014852D01*
G37*
G36*
X018296Y014630D02*
X017880Y014214D01*
X017742Y014352D01*
X018158Y014768D01*
X018296Y014630D01*
G37*
G36*
X018519Y014407D02*
X018103Y013991D01*
X017965Y014129D01*
X018381Y014545D01*
X018519Y014407D01*
G37*
G36*
X015289Y011178D02*
X014873Y010762D01*
X014735Y010900D01*
X015151Y011316D01*
X015289Y011178D01*
G37*
G36*
X015067Y011400D02*
X014651Y010984D01*
X014513Y011122D01*
X014929Y011538D01*
X015067Y011400D01*
G37*
G36*
X014844Y011623D02*
X014428Y011207D01*
X014290Y011345D01*
X014706Y011761D01*
X014844Y011623D01*
G37*
G36*
X014621Y011846D02*
X014205Y011430D01*
X014067Y011568D01*
X014483Y011984D01*
X014621Y011846D01*
G37*
G36*
X014398Y012068D02*
X013982Y011652D01*
X013844Y011790D01*
X014260Y012206D01*
X014398Y012068D01*
G37*
G36*
X014176Y012291D02*
X013760Y011875D01*
X013622Y012013D01*
X014038Y012429D01*
X014176Y012291D01*
G37*
G36*
X013953Y012514D02*
X013537Y012098D01*
X013399Y012236D01*
X013815Y012652D01*
X013953Y012514D01*
G37*
G36*
X013730Y012737D02*
X013314Y012321D01*
X013176Y012459D01*
X013592Y012875D01*
X013730Y012737D01*
G37*
G36*
X013508Y012959D02*
X013092Y012543D01*
X012954Y012681D01*
X013370Y013097D01*
X013508Y012959D01*
G37*
G36*
X013285Y013182D02*
X012869Y012766D01*
X012731Y012904D01*
X013147Y013320D01*
X013285Y013182D01*
G37*
G36*
X013062Y013405D02*
X012646Y012989D01*
X012508Y013127D01*
X012924Y013543D01*
X013062Y013405D01*
G37*
G36*
X016291Y006821D02*
X015875Y006405D01*
X015737Y006543D01*
X016153Y006959D01*
X016291Y006821D01*
G37*
G36*
X016514Y006599D02*
X016098Y006183D01*
X015960Y006321D01*
X016376Y006737D01*
X016514Y006599D01*
G37*
G36*
X016737Y006376D02*
X016321Y005960D01*
X016183Y006098D01*
X016599Y006514D01*
X016737Y006376D01*
G37*
G36*
X016960Y006153D02*
X016544Y005737D01*
X016406Y005875D01*
X016822Y006291D01*
X016960Y006153D01*
G37*
G36*
X017182Y005931D02*
X016766Y005515D01*
X016628Y005653D01*
X017044Y006069D01*
X017182Y005931D01*
G37*
G36*
X017405Y005708D02*
X016989Y005292D01*
X016851Y005430D01*
X017267Y005846D01*
X017405Y005708D01*
G37*
G36*
X017628Y005485D02*
X017212Y005069D01*
X017074Y005207D01*
X017490Y005623D01*
X017628Y005485D01*
G37*
G36*
X017850Y005263D02*
X017434Y004847D01*
X017296Y004985D01*
X017712Y005401D01*
X017850Y005263D01*
G37*
G36*
X018073Y005040D02*
X017657Y004624D01*
X017519Y004762D01*
X017935Y005178D01*
X018073Y005040D01*
G37*
G36*
X018296Y004817D02*
X017880Y004401D01*
X017742Y004539D01*
X018158Y004955D01*
X018296Y004817D01*
G37*
G36*
X018519Y004594D02*
X018103Y004178D01*
X017965Y004316D01*
X018381Y004732D01*
X018519Y004594D01*
G37*
G36*
X015289Y001365D02*
X014873Y000949D01*
X014735Y001087D01*
X015151Y001503D01*
X015289Y001365D01*
G37*
G36*
X015067Y001588D02*
X014651Y001172D01*
X014513Y001310D01*
X014929Y001726D01*
X015067Y001588D01*
G37*
G36*
X014844Y001810D02*
X014428Y001394D01*
X014290Y001532D01*
X014706Y001948D01*
X014844Y001810D01*
G37*
G36*
X014621Y002033D02*
X014205Y001617D01*
X014067Y001755D01*
X014483Y002171D01*
X014621Y002033D01*
G37*
G36*
X014398Y002256D02*
X013982Y001840D01*
X013844Y001978D01*
X014260Y002394D01*
X014398Y002256D01*
G37*
G36*
X014176Y002479D02*
X013760Y002063D01*
X013622Y002201D01*
X014038Y002617D01*
X014176Y002479D01*
G37*
G36*
X013953Y002701D02*
X013537Y002285D01*
X013399Y002423D01*
X013815Y002839D01*
X013953Y002701D01*
G37*
G36*
X013730Y002924D02*
X013314Y002508D01*
X013176Y002646D01*
X013592Y003062D01*
X013730Y002924D01*
G37*
G36*
X013508Y003147D02*
X013092Y002731D01*
X012954Y002869D01*
X013370Y003285D01*
X013508Y003147D01*
G37*
G36*
X013285Y003369D02*
X012869Y002953D01*
X012731Y003091D01*
X013147Y003507D01*
X013285Y003369D01*
G37*
G36*
X013062Y003592D02*
X012646Y003176D01*
X012508Y003314D01*
X012924Y003730D01*
X013062Y003592D01*
G37*
D12*
G36*
X013062Y004316D02*
X012924Y004178D01*
X012508Y004594D01*
X012646Y004732D01*
X013062Y004316D01*
G37*
G36*
X013285Y004539D02*
X013147Y004401D01*
X012731Y004817D01*
X012869Y004955D01*
X013285Y004539D01*
G37*
G36*
X013508Y004762D02*
X013370Y004624D01*
X012954Y005040D01*
X013092Y005178D01*
X013508Y004762D01*
G37*
G36*
X013730Y004985D02*
X013592Y004847D01*
X013176Y005263D01*
X013314Y005401D01*
X013730Y004985D01*
G37*
G36*
X013953Y005207D02*
X013815Y005069D01*
X013399Y005485D01*
X013537Y005623D01*
X013953Y005207D01*
G37*
G36*
X014176Y005430D02*
X014038Y005292D01*
X013622Y005708D01*
X013760Y005846D01*
X014176Y005430D01*
G37*
G36*
X014398Y005653D02*
X014260Y005515D01*
X013844Y005931D01*
X013982Y006069D01*
X014398Y005653D01*
G37*
G36*
X014621Y005875D02*
X014483Y005737D01*
X014067Y006153D01*
X014205Y006291D01*
X014621Y005875D01*
G37*
G36*
X014844Y006098D02*
X014706Y005960D01*
X014290Y006376D01*
X014428Y006514D01*
X014844Y006098D01*
G37*
G36*
X015067Y006321D02*
X014929Y006183D01*
X014513Y006599D01*
X014651Y006737D01*
X015067Y006321D01*
G37*
G36*
X015289Y006543D02*
X015151Y006405D01*
X014735Y006821D01*
X014873Y006959D01*
X015289Y006543D01*
G37*
G36*
X018519Y003314D02*
X018381Y003176D01*
X017965Y003592D01*
X018103Y003730D01*
X018519Y003314D01*
G37*
G36*
X018296Y003091D02*
X018158Y002953D01*
X017742Y003369D01*
X017880Y003507D01*
X018296Y003091D01*
G37*
G36*
X018073Y002869D02*
X017935Y002731D01*
X017519Y003147D01*
X017657Y003285D01*
X018073Y002869D01*
G37*
G36*
X017850Y002646D02*
X017712Y002508D01*
X017296Y002924D01*
X017434Y003062D01*
X017850Y002646D01*
G37*
G36*
X017628Y002423D02*
X017490Y002285D01*
X017074Y002701D01*
X017212Y002839D01*
X017628Y002423D01*
G37*
G36*
X017405Y002201D02*
X017267Y002063D01*
X016851Y002479D01*
X016989Y002617D01*
X017405Y002201D01*
G37*
G36*
X017182Y001978D02*
X017044Y001840D01*
X016628Y002256D01*
X016766Y002394D01*
X017182Y001978D01*
G37*
G36*
X016960Y001755D02*
X016822Y001617D01*
X016406Y002033D01*
X016544Y002171D01*
X016960Y001755D01*
G37*
G36*
X016737Y001532D02*
X016599Y001394D01*
X016183Y001810D01*
X016321Y001948D01*
X016737Y001532D01*
G37*
G36*
X016514Y001310D02*
X016376Y001172D01*
X015960Y001588D01*
X016098Y001726D01*
X016514Y001310D01*
G37*
G36*
X016291Y001087D02*
X016153Y000949D01*
X015737Y001365D01*
X015875Y001503D01*
X016291Y001087D01*
G37*
G36*
X016291Y010900D02*
X016153Y010762D01*
X015737Y011178D01*
X015875Y011316D01*
X016291Y010900D01*
G37*
G36*
X016514Y011122D02*
X016376Y010984D01*
X015960Y011400D01*
X016098Y011538D01*
X016514Y011122D01*
G37*
G36*
X016737Y011345D02*
X016599Y011207D01*
X016183Y011623D01*
X016321Y011761D01*
X016737Y011345D01*
G37*
G36*
X016960Y011568D02*
X016822Y011430D01*
X016406Y011846D01*
X016544Y011984D01*
X016960Y011568D01*
G37*
G36*
X017182Y011790D02*
X017044Y011652D01*
X016628Y012068D01*
X016766Y012206D01*
X017182Y011790D01*
G37*
G36*
X017405Y012013D02*
X017267Y011875D01*
X016851Y012291D01*
X016989Y012429D01*
X017405Y012013D01*
G37*
G36*
X017628Y012236D02*
X017490Y012098D01*
X017074Y012514D01*
X017212Y012652D01*
X017628Y012236D01*
G37*
G36*
X017850Y012459D02*
X017712Y012321D01*
X017296Y012737D01*
X017434Y012875D01*
X017850Y012459D01*
G37*
G36*
X018073Y012681D02*
X017935Y012543D01*
X017519Y012959D01*
X017657Y013097D01*
X018073Y012681D01*
G37*
G36*
X018296Y012904D02*
X018158Y012766D01*
X017742Y013182D01*
X017880Y013320D01*
X018296Y012904D01*
G37*
G36*
X018519Y013127D02*
X018381Y012989D01*
X017965Y013405D01*
X018103Y013543D01*
X018519Y013127D01*
G37*
G36*
X015289Y016356D02*
X015151Y016218D01*
X014735Y016634D01*
X014873Y016772D01*
X015289Y016356D01*
G37*
G36*
X015067Y016133D02*
X014929Y015995D01*
X014513Y016411D01*
X014651Y016549D01*
X015067Y016133D01*
G37*
G36*
X014844Y015911D02*
X014706Y015773D01*
X014290Y016189D01*
X014428Y016327D01*
X014844Y015911D01*
G37*
G36*
X014621Y015688D02*
X014483Y015550D01*
X014067Y015966D01*
X014205Y016104D01*
X014621Y015688D01*
G37*
G36*
X014398Y015465D02*
X014260Y015327D01*
X013844Y015743D01*
X013982Y015881D01*
X014398Y015465D01*
G37*
G36*
X014176Y015242D02*
X014038Y015104D01*
X013622Y015520D01*
X013760Y015658D01*
X014176Y015242D01*
G37*
G36*
X013953Y015020D02*
X013815Y014882D01*
X013399Y015298D01*
X013537Y015436D01*
X013953Y015020D01*
G37*
G36*
X013730Y014797D02*
X013592Y014659D01*
X013176Y015075D01*
X013314Y015213D01*
X013730Y014797D01*
G37*
G36*
X013508Y014574D02*
X013370Y014436D01*
X012954Y014852D01*
X013092Y014990D01*
X013508Y014574D01*
G37*
G36*
X013285Y014352D02*
X013147Y014214D01*
X012731Y014630D01*
X012869Y014768D01*
X013285Y014352D01*
G37*
G36*
X013062Y014129D02*
X012924Y013991D01*
X012508Y014407D01*
X012646Y014545D01*
X013062Y014129D01*
G37*
G36*
X016291Y020712D02*
X016153Y020574D01*
X015737Y020990D01*
X015875Y021128D01*
X016291Y020712D01*
G37*
G36*
X016514Y020935D02*
X016376Y020797D01*
X015960Y021213D01*
X016098Y021351D01*
X016514Y020935D01*
G37*
G36*
X016737Y021157D02*
X016599Y021019D01*
X016183Y021435D01*
X016321Y021573D01*
X016737Y021157D01*
G37*
G36*
X016960Y021380D02*
X016822Y021242D01*
X016406Y021658D01*
X016544Y021796D01*
X016960Y021380D01*
G37*
G36*
X017182Y021603D02*
X017044Y021465D01*
X016628Y021881D01*
X016766Y022019D01*
X017182Y021603D01*
G37*
G36*
X017405Y021826D02*
X017267Y021688D01*
X016851Y022104D01*
X016989Y022242D01*
X017405Y021826D01*
G37*
G36*
X017628Y022048D02*
X017490Y021910D01*
X017074Y022326D01*
X017212Y022464D01*
X017628Y022048D01*
G37*
G36*
X017850Y022271D02*
X017712Y022133D01*
X017296Y022549D01*
X017434Y022687D01*
X017850Y022271D01*
G37*
G36*
X018073Y022494D02*
X017935Y022356D01*
X017519Y022772D01*
X017657Y022910D01*
X018073Y022494D01*
G37*
G36*
X018296Y022716D02*
X018158Y022578D01*
X017742Y022994D01*
X017880Y023132D01*
X018296Y022716D01*
G37*
G36*
X018519Y022939D02*
X018381Y022801D01*
X017965Y023217D01*
X018103Y023355D01*
X018519Y022939D01*
G37*
G36*
X015289Y026168D02*
X015151Y026030D01*
X014735Y026446D01*
X014873Y026584D01*
X015289Y026168D01*
G37*
G36*
X015067Y025946D02*
X014929Y025808D01*
X014513Y026224D01*
X014651Y026362D01*
X015067Y025946D01*
G37*
G36*
X014844Y025723D02*
X014706Y025585D01*
X014290Y026001D01*
X014428Y026139D01*
X014844Y025723D01*
G37*
G36*
X014621Y025500D02*
X014483Y025362D01*
X014067Y025778D01*
X014205Y025916D01*
X014621Y025500D01*
G37*
G36*
X014398Y025278D02*
X014260Y025140D01*
X013844Y025556D01*
X013982Y025694D01*
X014398Y025278D01*
G37*
G36*
X014176Y025055D02*
X014038Y024917D01*
X013622Y025333D01*
X013760Y025471D01*
X014176Y025055D01*
G37*
G36*
X013953Y024832D02*
X013815Y024694D01*
X013399Y025110D01*
X013537Y025248D01*
X013953Y024832D01*
G37*
G36*
X013730Y024610D02*
X013592Y024472D01*
X013176Y024888D01*
X013314Y025026D01*
X013730Y024610D01*
G37*
G36*
X013508Y024387D02*
X013370Y024249D01*
X012954Y024665D01*
X013092Y024803D01*
X013508Y024387D01*
G37*
G36*
X013285Y024164D02*
X013147Y024026D01*
X012731Y024442D01*
X012869Y024580D01*
X013285Y024164D01*
G37*
G36*
X013062Y023941D02*
X012924Y023803D01*
X012508Y024219D01*
X012646Y024357D01*
X013062Y023941D01*
G37*
G36*
X016291Y030525D02*
X016153Y030387D01*
X015737Y030803D01*
X015875Y030941D01*
X016291Y030525D01*
G37*
G36*
X016514Y030747D02*
X016376Y030609D01*
X015960Y031025D01*
X016098Y031163D01*
X016514Y030747D01*
G37*
G36*
X016737Y030970D02*
X016599Y030832D01*
X016183Y031248D01*
X016321Y031386D01*
X016737Y030970D01*
G37*
G36*
X016960Y031193D02*
X016822Y031055D01*
X016406Y031471D01*
X016544Y031609D01*
X016960Y031193D01*
G37*
G36*
X017182Y031415D02*
X017044Y031277D01*
X016628Y031693D01*
X016766Y031831D01*
X017182Y031415D01*
G37*
G36*
X017405Y031638D02*
X017267Y031500D01*
X016851Y031916D01*
X016989Y032054D01*
X017405Y031638D01*
G37*
G36*
X017628Y031861D02*
X017490Y031723D01*
X017074Y032139D01*
X017212Y032277D01*
X017628Y031861D01*
G37*
G36*
X017850Y032084D02*
X017712Y031946D01*
X017296Y032362D01*
X017434Y032500D01*
X017850Y032084D01*
G37*
G36*
X018073Y032306D02*
X017935Y032168D01*
X017519Y032584D01*
X017657Y032722D01*
X018073Y032306D01*
G37*
G36*
X018296Y032529D02*
X018158Y032391D01*
X017742Y032807D01*
X017880Y032945D01*
X018296Y032529D01*
G37*
G36*
X018519Y032752D02*
X018381Y032614D01*
X017965Y033030D01*
X018103Y033168D01*
X018519Y032752D01*
G37*
G36*
X015289Y035981D02*
X015151Y035843D01*
X014735Y036259D01*
X014873Y036397D01*
X015289Y035981D01*
G37*
G36*
X015067Y035758D02*
X014929Y035620D01*
X014513Y036036D01*
X014651Y036174D01*
X015067Y035758D01*
G37*
G36*
X014844Y035536D02*
X014706Y035398D01*
X014290Y035814D01*
X014428Y035952D01*
X014844Y035536D01*
G37*
G36*
X014621Y035313D02*
X014483Y035175D01*
X014067Y035591D01*
X014205Y035729D01*
X014621Y035313D01*
G37*
G36*
X014398Y035090D02*
X014260Y034952D01*
X013844Y035368D01*
X013982Y035506D01*
X014398Y035090D01*
G37*
G36*
X014176Y034867D02*
X014038Y034729D01*
X013622Y035145D01*
X013760Y035283D01*
X014176Y034867D01*
G37*
G36*
X013953Y034645D02*
X013815Y034507D01*
X013399Y034923D01*
X013537Y035061D01*
X013953Y034645D01*
G37*
G36*
X013730Y034422D02*
X013592Y034284D01*
X013176Y034700D01*
X013314Y034838D01*
X013730Y034422D01*
G37*
G36*
X013508Y034199D02*
X013370Y034061D01*
X012954Y034477D01*
X013092Y034615D01*
X013508Y034199D01*
G37*
G36*
X013285Y033977D02*
X013147Y033839D01*
X012731Y034255D01*
X012869Y034393D01*
X013285Y033977D01*
G37*
G36*
X013062Y033754D02*
X012924Y033616D01*
X012508Y034032D01*
X012646Y034170D01*
X013062Y033754D01*
G37*
D13*
X011966Y034094D03*
X011218Y034094D03*
X011108Y031049D03*
X011856Y031049D03*
X012603Y031019D03*
X013351Y031019D03*
X013463Y026631D03*
X014211Y026631D03*
X011966Y024281D03*
X011218Y024281D03*
X011108Y021236D03*
X011856Y021236D03*
X012603Y021206D03*
X013351Y021206D03*
X013463Y016819D03*
X014211Y016819D03*
X011966Y014469D03*
X011218Y014469D03*
X011108Y011424D03*
X011856Y011424D03*
X012603Y011394D03*
X013351Y011394D03*
X013463Y007006D03*
X014211Y007006D03*
X011966Y004656D03*
X011218Y004656D03*
X011108Y001611D03*
X011856Y001611D03*
X012603Y001581D03*
X013351Y001581D03*
X017803Y000961D03*
X018551Y000961D03*
X025133Y000931D03*
X025881Y000931D03*
X025881Y010744D03*
X025133Y010744D03*
X018551Y010774D03*
X017803Y010774D03*
X017803Y020586D03*
X018551Y020586D03*
X025133Y020556D03*
X025881Y020556D03*
X025881Y030369D03*
X025133Y030369D03*
X018551Y030399D03*
X017803Y030399D03*
X014211Y036444D03*
X013463Y036444D03*
X003576Y036329D03*
X002828Y036329D03*
X001826Y036329D03*
X001078Y036329D03*
X001078Y026516D03*
X001826Y026516D03*
X002828Y026516D03*
X003576Y026516D03*
X003576Y016704D03*
X002828Y016704D03*
X001826Y016704D03*
X001078Y016704D03*
X001078Y006891D03*
X001826Y006891D03*
X002828Y006891D03*
X003576Y006891D03*
D14*
X007147Y004730D03*
X007147Y003982D03*
X010452Y003892D03*
X010452Y004640D03*
X010452Y013705D03*
X010452Y014453D03*
X007147Y014543D03*
X007147Y013795D03*
X007147Y023607D03*
X007147Y024355D03*
X010452Y024265D03*
X010452Y023517D03*
X010452Y033330D03*
X010452Y034078D03*
X007147Y034168D03*
X007147Y033420D03*
X019202Y033703D03*
X019202Y032955D03*
X019202Y023890D03*
X019202Y023142D03*
X019202Y014078D03*
X019202Y013330D03*
X019202Y004265D03*
X019202Y003517D03*
D15*
X020953Y003266D03*
X021701Y003266D03*
X024078Y005641D03*
X024826Y005641D03*
X026078Y005641D03*
X026078Y004641D03*
X026826Y004641D03*
X026826Y005641D03*
X021701Y013079D03*
X020953Y013079D03*
X024078Y015454D03*
X024826Y015454D03*
X026078Y015454D03*
X026078Y014454D03*
X026826Y014454D03*
X026826Y015454D03*
X021701Y022891D03*
X020953Y022891D03*
X024078Y025266D03*
X024826Y025266D03*
X026078Y025266D03*
X026826Y025266D03*
X026826Y024266D03*
X026078Y024266D03*
X021701Y032704D03*
X020953Y032704D03*
X024078Y035079D03*
X024826Y035079D03*
X026078Y035079D03*
X026826Y035079D03*
X026826Y034079D03*
X026078Y034079D03*
X005826Y032089D03*
X005826Y031169D03*
X005078Y031169D03*
X005078Y032089D03*
X005078Y022276D03*
X005078Y021356D03*
X005826Y021356D03*
X005826Y022276D03*
X005826Y012464D03*
X005826Y011544D03*
X005078Y011544D03*
X005078Y012464D03*
X005078Y002651D03*
X005078Y001731D03*
X005826Y001731D03*
X005826Y002651D03*
D16*
X003330Y004123D03*
X001164Y004123D03*
X001164Y000659D03*
X003330Y000659D03*
X003330Y010471D03*
X001164Y010471D03*
X001164Y013936D03*
X003330Y013936D03*
X003330Y020284D03*
X001164Y020284D03*
X001164Y023748D03*
X003330Y023748D03*
X003330Y030096D03*
X001164Y030096D03*
X001164Y033561D03*
X003330Y033561D03*
D17*
X003552Y032459D03*
X003552Y032144D03*
X003552Y031829D03*
X003552Y031514D03*
X003552Y031199D03*
X003552Y022646D03*
X003552Y022331D03*
X003552Y022016D03*
X003552Y021701D03*
X003552Y021386D03*
X003552Y012834D03*
X003552Y012519D03*
X003552Y012204D03*
X003552Y011889D03*
X003552Y011574D03*
X003552Y003021D03*
X003552Y002706D03*
X003552Y002391D03*
X003552Y002076D03*
X003552Y001761D03*
D18*
X019927Y001391D03*
X023727Y001391D03*
X023727Y011204D03*
X019927Y011204D03*
X019927Y021016D03*
X023727Y021016D03*
X023727Y030829D03*
X019927Y030829D03*
D19*
X011916Y033289D03*
X011207Y033289D03*
X011207Y023476D03*
X011916Y023476D03*
X011916Y013664D03*
X011207Y013664D03*
X011207Y003851D03*
X011916Y003851D03*
D20*
X006175Y004134D03*
X005265Y004134D03*
X004355Y004134D03*
X004355Y013947D03*
X005265Y013947D03*
X006175Y013947D03*
X006175Y023759D03*
X005265Y023759D03*
X004355Y023759D03*
X004355Y033572D03*
X005265Y033572D03*
X006175Y033572D03*
D21*
X005265Y036212D03*
X005265Y026399D03*
X005265Y016587D03*
X005265Y006774D03*
D22*
X025202Y003679D03*
X025202Y002853D03*
X027014Y002853D03*
X027014Y003679D03*
X027014Y012665D03*
X027014Y013492D03*
X025202Y013492D03*
X025202Y012665D03*
X025202Y022478D03*
X025202Y023304D03*
X027014Y023304D03*
X027014Y022478D03*
X027014Y032290D03*
X027014Y033117D03*
X025202Y033117D03*
X025202Y032290D03*
D23*
X024213Y032704D03*
X024213Y022891D03*
X024213Y013079D03*
X024213Y003266D03*
D24*
X023190Y002833D03*
X023190Y003699D03*
X023190Y012646D03*
X023190Y013512D03*
X023190Y022458D03*
X023190Y023324D03*
X023190Y032271D03*
X023190Y033137D03*
M02*
