G75*
G70*
%OFA0B0*%
%FSLAX24Y24*%
%IPPOS*%
%LPD*%
%AMOC8*
5,1,8,0,0,1.08239X$1,22.5*
%
%ADD10C,0.0000*%
%ADD11R,0.0780X0.0780*%
%ADD12OC8,0.0780*%
%ADD13C,0.0640*%
%ADD14C,0.0780*%
%ADD15C,0.0434*%
%ADD16OC8,0.0800*%
%ADD17C,0.0600*%
%ADD18R,0.0039X0.0013*%
%ADD19R,0.0065X0.0013*%
%ADD20R,0.0078X0.0013*%
%ADD21R,0.0117X0.0013*%
%ADD22R,0.0130X0.0013*%
%ADD23R,0.0169X0.0013*%
%ADD24R,0.0195X0.0013*%
%ADD25R,0.0221X0.0013*%
%ADD26R,0.0247X0.0013*%
%ADD27R,0.0273X0.0013*%
%ADD28R,0.0299X0.0013*%
%ADD29R,0.0325X0.0013*%
%ADD30R,0.0351X0.0013*%
%ADD31R,0.0377X0.0013*%
%ADD32R,0.0416X0.0013*%
%ADD33R,0.0429X0.0013*%
%ADD34R,0.1937X0.0013*%
%ADD35R,0.1664X0.0013*%
%ADD36R,0.1924X0.0013*%
%ADD37R,0.1898X0.0013*%
%ADD38R,0.1885X0.0013*%
%ADD39R,0.1859X0.0013*%
%ADD40R,0.1846X0.0013*%
%ADD41R,0.1820X0.0013*%
%ADD42R,0.1807X0.0013*%
%ADD43R,0.1781X0.0013*%
%ADD44R,0.1768X0.0013*%
%ADD45R,0.1755X0.0013*%
%ADD46R,0.1742X0.0013*%
%ADD47R,0.1716X0.0013*%
%ADD48R,0.1703X0.0013*%
%ADD49R,0.1677X0.0013*%
%ADD50R,0.1651X0.0013*%
%ADD51R,0.1625X0.0013*%
%ADD52R,0.1612X0.0013*%
%ADD53R,0.1586X0.0013*%
%ADD54R,0.0260X0.0013*%
%ADD55R,0.0247X0.0013*%
%ADD56R,0.0455X0.0013*%
%ADD57R,0.1430X0.0013*%
%ADD58R,0.1157X0.0013*%
%ADD59R,0.0520X0.0013*%
%ADD60R,0.1287X0.0013*%
%ADD61R,0.0585X0.0013*%
%ADD62R,0.1352X0.0013*%
%ADD63R,0.0637X0.0013*%
%ADD64R,0.1443X0.0013*%
%ADD65R,0.1378X0.0013*%
%ADD66R,0.0689X0.0013*%
%ADD67R,0.1404X0.0013*%
%ADD68R,0.0715X0.0013*%
%ADD69R,0.1417X0.0013*%
%ADD70R,0.0767X0.0013*%
%ADD71R,0.0793X0.0013*%
%ADD72R,0.0819X0.0013*%
%ADD73R,0.1456X0.0013*%
%ADD74R,0.0871X0.0013*%
%ADD75R,0.1469X0.0013*%
%ADD76R,0.0884X0.0013*%
%ADD77R,0.0897X0.0013*%
%ADD78R,0.1482X0.0013*%
%ADD79R,0.0923X0.0013*%
%ADD80R,0.1196X0.0013*%
%ADD81R,0.1495X0.0013*%
%ADD82R,0.1209X0.0013*%
%ADD83R,0.1508X0.0013*%
%ADD84R,0.1521X0.0013*%
%ADD85R,0.1222X0.0013*%
%ADD86R,0.2756X0.0013*%
%ADD87R,0.1989X0.0013*%
%ADD88R,0.1963X0.0013*%
%ADD89R,0.1950X0.0013*%
%ADD90R,0.0676X0.0013*%
%ADD91R,0.0663X0.0013*%
%ADD92R,0.0910X0.0013*%
%ADD93R,0.0936X0.0013*%
%ADD94R,0.2548X0.0013*%
%ADD95R,0.0650X0.0013*%
%ADD96R,0.0897X0.0013*%
%ADD97R,0.0884X0.0013*%
%ADD98R,0.1547X0.0013*%
%ADD99R,0.1053X0.0013*%
%ADD100R,0.0468X0.0013*%
%ADD101R,0.1040X0.0013*%
%ADD102R,0.1027X0.0013*%
%ADD103R,0.1014X0.0013*%
%ADD104R,0.1001X0.0013*%
%ADD105R,0.0702X0.0013*%
%ADD106R,0.0728X0.0013*%
%ADD107R,0.0741X0.0013*%
%ADD108R,0.0754X0.0013*%
%ADD109R,0.0780X0.0013*%
%ADD110R,0.0832X0.0013*%
%ADD111R,0.0468X0.0013*%
%ADD112R,0.0858X0.0013*%
%ADD113R,0.0871X0.0013*%
%ADD114R,0.0403X0.0013*%
%ADD115R,0.0481X0.0013*%
%ADD116R,0.0533X0.0013*%
%ADD117R,0.0728X0.0013*%
%ADD118R,0.1014X0.0013*%
%ADD119R,0.0741X0.0013*%
%ADD120R,0.0988X0.0013*%
%ADD121R,0.0975X0.0013*%
%ADD122R,0.0754X0.0013*%
%ADD123R,0.0949X0.0013*%
%ADD124R,0.0845X0.0013*%
%ADD125R,0.0390X0.0013*%
%ADD126R,0.0481X0.0013*%
%ADD127R,0.0442X0.0013*%
%ADD128R,0.0624X0.0013*%
%ADD129R,0.0611X0.0013*%
%ADD130R,0.0598X0.0013*%
%ADD131R,0.0572X0.0013*%
%ADD132R,0.1001X0.0013*%
%ADD133R,0.0858X0.0013*%
%ADD134R,0.0806X0.0013*%
%ADD135R,0.0988X0.0013*%
%ADD136R,0.0962X0.0013*%
%ADD137R,0.0624X0.0013*%
%ADD138R,0.0546X0.0013*%
%ADD139R,0.0364X0.0013*%
%ADD140R,0.0221X0.0013*%
%ADD141R,0.1521X0.0013*%
%ADD142R,0.4394X0.0013*%
D10*
X000202Y000242D02*
X000202Y009992D01*
X031702Y009992D01*
X031702Y000242D01*
X000202Y000242D01*
X002148Y001626D02*
X002150Y001653D01*
X002156Y001680D01*
X002165Y001706D01*
X002178Y001730D01*
X002194Y001753D01*
X002213Y001772D01*
X002235Y001789D01*
X002259Y001803D01*
X002284Y001813D01*
X002311Y001820D01*
X002338Y001823D01*
X002366Y001822D01*
X002393Y001817D01*
X002419Y001809D01*
X002443Y001797D01*
X002466Y001781D01*
X002487Y001763D01*
X002504Y001742D01*
X002519Y001718D01*
X002530Y001693D01*
X002538Y001667D01*
X002542Y001640D01*
X002542Y001612D01*
X002538Y001585D01*
X002530Y001559D01*
X002519Y001534D01*
X002504Y001510D01*
X002487Y001489D01*
X002466Y001471D01*
X002444Y001455D01*
X002419Y001443D01*
X002393Y001435D01*
X002366Y001430D01*
X002338Y001429D01*
X002311Y001432D01*
X002284Y001439D01*
X002259Y001449D01*
X002235Y001463D01*
X002213Y001480D01*
X002194Y001499D01*
X002178Y001522D01*
X002165Y001546D01*
X002156Y001572D01*
X002150Y001599D01*
X002148Y001626D01*
X002148Y003358D02*
X002150Y003385D01*
X002156Y003412D01*
X002165Y003438D01*
X002178Y003462D01*
X002194Y003485D01*
X002213Y003504D01*
X002235Y003521D01*
X002259Y003535D01*
X002284Y003545D01*
X002311Y003552D01*
X002338Y003555D01*
X002366Y003554D01*
X002393Y003549D01*
X002419Y003541D01*
X002443Y003529D01*
X002466Y003513D01*
X002487Y003495D01*
X002504Y003474D01*
X002519Y003450D01*
X002530Y003425D01*
X002538Y003399D01*
X002542Y003372D01*
X002542Y003344D01*
X002538Y003317D01*
X002530Y003291D01*
X002519Y003266D01*
X002504Y003242D01*
X002487Y003221D01*
X002466Y003203D01*
X002444Y003187D01*
X002419Y003175D01*
X002393Y003167D01*
X002366Y003162D01*
X002338Y003161D01*
X002311Y003164D01*
X002284Y003171D01*
X002259Y003181D01*
X002235Y003195D01*
X002213Y003212D01*
X002194Y003231D01*
X002178Y003254D01*
X002165Y003278D01*
X002156Y003304D01*
X002150Y003331D01*
X002148Y003358D01*
D11*
X009902Y002232D03*
D12*
X008902Y002232D03*
X007902Y002232D03*
X007902Y001232D03*
X008902Y001232D03*
X009902Y001232D03*
D13*
X028812Y001412D02*
X028812Y002012D01*
X030592Y002012D02*
X030592Y001412D01*
X030592Y003972D02*
X030592Y004572D01*
X028812Y004572D02*
X028812Y003972D01*
D14*
X029202Y005742D03*
X030202Y005742D03*
D15*
X002345Y003358D03*
X002345Y001626D03*
D16*
X001952Y009242D03*
X002952Y009242D03*
X003952Y009242D03*
X004952Y009242D03*
X005952Y009242D03*
X006952Y009242D03*
X007952Y009242D03*
X008952Y009242D03*
X009952Y009242D03*
X010952Y009242D03*
X011952Y009242D03*
X012952Y009242D03*
X013952Y009242D03*
X014952Y009242D03*
X015952Y009242D03*
X016952Y009242D03*
X017952Y009242D03*
X018952Y009242D03*
X019952Y009242D03*
X020952Y009242D03*
X021952Y009242D03*
X022952Y009242D03*
X023952Y009242D03*
X024952Y009242D03*
X025952Y009242D03*
X026952Y009242D03*
X027952Y009242D03*
X028952Y009242D03*
X029952Y009242D03*
X030952Y009242D03*
X000952Y009242D03*
D17*
X007312Y007017D02*
X007312Y006457D01*
X008312Y006457D02*
X008312Y007017D01*
X009312Y007017D02*
X009312Y006457D01*
X009322Y004617D02*
X009322Y004057D01*
X008322Y004057D02*
X008322Y004617D01*
X002077Y005337D02*
X002077Y005897D01*
X001077Y005897D02*
X001077Y005337D01*
D18*
X025602Y001380D03*
D19*
X025602Y001393D03*
D20*
X025608Y001406D03*
D21*
X025615Y001419D03*
D22*
X025621Y001432D03*
D23*
X025628Y001445D03*
D24*
X025628Y001458D03*
X024536Y002979D03*
D25*
X025628Y001471D03*
D26*
X025641Y001484D03*
D27*
X025641Y001497D03*
D28*
X025641Y001510D03*
D29*
X025654Y001523D03*
D30*
X025654Y001536D03*
X024536Y002992D03*
D31*
X026460Y004305D03*
X026460Y004318D03*
X026460Y004331D03*
X026460Y004344D03*
X026460Y004357D03*
X025654Y001549D03*
D32*
X025660Y001562D03*
X025842Y001705D03*
X025972Y001796D03*
X026167Y001939D03*
X026219Y001978D03*
X026323Y002056D03*
X026375Y002095D03*
X026427Y002134D03*
X026375Y003668D03*
X026375Y003681D03*
X026388Y003707D03*
X026388Y003720D03*
X026388Y003733D03*
X026388Y003746D03*
X026388Y003759D03*
X026388Y003772D03*
X026401Y003811D03*
X026401Y003824D03*
X026401Y003837D03*
X026401Y003850D03*
X026401Y003863D03*
X026414Y003941D03*
X026414Y003954D03*
X026921Y003980D03*
X026921Y003993D03*
X026921Y004006D03*
X026921Y004019D03*
X026908Y004084D03*
X026908Y004097D03*
X026908Y004110D03*
X026895Y004188D03*
X026895Y004201D03*
X026895Y004214D03*
X026882Y004279D03*
X026882Y004292D03*
X026882Y004305D03*
X026882Y004318D03*
X026934Y003928D03*
X026934Y003915D03*
X026934Y003902D03*
X026934Y003889D03*
X026934Y003876D03*
X026947Y003824D03*
X026947Y003811D03*
X026947Y003798D03*
X026947Y003785D03*
X026947Y003772D03*
X026947Y003759D03*
X026947Y003746D03*
X026960Y003733D03*
X026960Y003720D03*
X026960Y003707D03*
X026960Y003694D03*
X026960Y003681D03*
X026960Y003668D03*
D33*
X026382Y003694D03*
X025303Y004149D03*
X025303Y004162D03*
X024861Y004474D03*
X024861Y004487D03*
X026460Y002160D03*
X026447Y002147D03*
X026408Y002121D03*
X026395Y002108D03*
X026356Y002082D03*
X026343Y002069D03*
X026304Y002043D03*
X026291Y002030D03*
X026265Y002017D03*
X026252Y002004D03*
X026239Y001991D03*
X026200Y001965D03*
X026187Y001952D03*
X026148Y001926D03*
X026135Y001913D03*
X026109Y001900D03*
X026096Y001887D03*
X026083Y001874D03*
X026057Y001861D03*
X026044Y001848D03*
X026031Y001835D03*
X026005Y001822D03*
X025992Y001809D03*
X025953Y001783D03*
X025927Y001770D03*
X025914Y001757D03*
X025901Y001744D03*
X025875Y001731D03*
X025862Y001718D03*
X025823Y001692D03*
X025810Y001679D03*
X025797Y001666D03*
X025771Y001653D03*
X025758Y001640D03*
X025745Y001627D03*
X025719Y001614D03*
X025706Y001601D03*
X025693Y001588D03*
X025667Y001575D03*
D34*
X027240Y002173D03*
D35*
X027376Y002368D03*
X024646Y002381D03*
X024646Y002394D03*
X024646Y002407D03*
X024646Y002420D03*
X024646Y002368D03*
X024646Y002355D03*
X024646Y002342D03*
X024646Y002329D03*
X024646Y002316D03*
X024646Y002303D03*
X024646Y002290D03*
X024646Y002277D03*
X024646Y002264D03*
X024646Y002251D03*
X024646Y002238D03*
X024646Y002225D03*
X024646Y002212D03*
X024646Y002199D03*
X024646Y002186D03*
X024646Y002173D03*
X024646Y005501D03*
X024646Y005514D03*
X024646Y005527D03*
X024646Y005540D03*
X024646Y005553D03*
X024646Y005566D03*
X024646Y005683D03*
X024646Y005696D03*
X024646Y005709D03*
X024646Y005722D03*
X024646Y005735D03*
X024646Y005748D03*
D36*
X027246Y002186D03*
D37*
X027259Y002199D03*
D38*
X027266Y002212D03*
D39*
X027279Y002225D03*
D40*
X027285Y002238D03*
D41*
X027298Y002251D03*
D42*
X027305Y002264D03*
D43*
X027318Y002277D03*
D44*
X027324Y002290D03*
D45*
X027331Y002303D03*
D46*
X027337Y002316D03*
D47*
X027350Y002329D03*
D48*
X027357Y002342D03*
D49*
X027370Y002355D03*
D50*
X027383Y002381D03*
D51*
X027396Y002394D03*
D52*
X027402Y002407D03*
D53*
X027415Y002420D03*
D54*
X028078Y002433D03*
X028078Y002446D03*
X028078Y002459D03*
X028078Y002472D03*
X028078Y002485D03*
X028078Y002498D03*
X028078Y002511D03*
X028078Y002524D03*
X028078Y002537D03*
X028078Y002550D03*
X028078Y002563D03*
X028078Y002576D03*
X028078Y002589D03*
X028078Y002602D03*
X028078Y002615D03*
X028078Y002628D03*
X028078Y002641D03*
X028078Y002654D03*
X028078Y002667D03*
X028078Y002680D03*
X028078Y002693D03*
X028078Y002706D03*
X028078Y002719D03*
X028078Y002732D03*
X028078Y002745D03*
X028078Y002758D03*
X028078Y002771D03*
X028078Y002784D03*
X028078Y002797D03*
X028078Y002810D03*
X028078Y002823D03*
X028078Y002836D03*
X028078Y002849D03*
X028078Y002862D03*
X028078Y002875D03*
X028078Y002888D03*
X028078Y002901D03*
X028078Y002914D03*
X028078Y002927D03*
X028078Y002940D03*
X028078Y002953D03*
X028078Y002966D03*
X028078Y002979D03*
X028078Y002992D03*
X028078Y003005D03*
X028078Y004825D03*
X028078Y004838D03*
X028078Y004851D03*
X028078Y004864D03*
X028078Y004877D03*
X028078Y004890D03*
X028078Y004903D03*
X028078Y004916D03*
X028078Y004929D03*
X028078Y004942D03*
X028078Y004955D03*
X028078Y004968D03*
X028078Y004981D03*
X028078Y004994D03*
X028078Y005007D03*
X028078Y005020D03*
X028078Y005033D03*
X028078Y005046D03*
X028078Y005059D03*
X028078Y005072D03*
X028078Y005085D03*
X028078Y005098D03*
X028078Y005111D03*
X028078Y005124D03*
X028078Y005137D03*
X028078Y005150D03*
X028078Y005163D03*
X028078Y005176D03*
X028078Y005189D03*
X028078Y005202D03*
X028078Y005215D03*
X028078Y005228D03*
X028078Y005241D03*
X028078Y005254D03*
X028078Y005267D03*
X028078Y005280D03*
X028078Y005293D03*
X028078Y005306D03*
X028078Y005319D03*
X028078Y005332D03*
X028078Y005345D03*
X028078Y005358D03*
X028078Y005371D03*
X028078Y005384D03*
X028078Y005397D03*
X028078Y005410D03*
X028078Y005423D03*
X028078Y005436D03*
X028078Y005449D03*
X028078Y005462D03*
X028078Y005475D03*
X028078Y005488D03*
D55*
X023938Y005488D03*
X023938Y005475D03*
X023938Y005462D03*
X023938Y005449D03*
X023938Y005436D03*
X023938Y005423D03*
X023938Y005410D03*
X023938Y005397D03*
X023938Y005384D03*
X023938Y005371D03*
X023938Y005358D03*
X023938Y005345D03*
X023938Y005332D03*
X023938Y005319D03*
X023938Y005306D03*
X023938Y005293D03*
X023938Y005280D03*
X023938Y005267D03*
X023938Y005254D03*
X023938Y005241D03*
X023938Y005228D03*
X023938Y005215D03*
X023938Y005202D03*
X023938Y005189D03*
X023938Y005176D03*
X023938Y005163D03*
X023938Y005150D03*
X023938Y005137D03*
X023938Y005124D03*
X023938Y005111D03*
X023938Y005098D03*
X023938Y005085D03*
X023938Y005072D03*
X023938Y005059D03*
X023938Y005046D03*
X023938Y005033D03*
X023938Y005020D03*
X023938Y005007D03*
X023938Y004994D03*
X023938Y004981D03*
X023938Y004968D03*
X023938Y004955D03*
X023938Y004942D03*
X023938Y004929D03*
X023938Y004916D03*
X023938Y004903D03*
X023938Y004890D03*
X023938Y004877D03*
X023938Y004864D03*
X023938Y004851D03*
X023938Y004838D03*
X023938Y004825D03*
X023938Y004812D03*
X023938Y004799D03*
X023938Y004786D03*
X023938Y004773D03*
X023938Y004760D03*
X023938Y004747D03*
X023938Y004734D03*
X023938Y004721D03*
X023938Y004708D03*
X023938Y004695D03*
X023938Y004682D03*
X023938Y004669D03*
X023938Y004656D03*
X023938Y004643D03*
X023938Y004630D03*
X023938Y004617D03*
X023938Y004604D03*
X023938Y004591D03*
X023938Y004578D03*
X023938Y004565D03*
X023938Y004552D03*
X023938Y004266D03*
X023938Y004253D03*
X023938Y004240D03*
X023938Y004227D03*
X023938Y004214D03*
X023938Y004201D03*
X023938Y004188D03*
X023938Y004175D03*
X023938Y004162D03*
X023938Y004149D03*
X023938Y004136D03*
X023938Y004123D03*
X023938Y004110D03*
X023938Y004097D03*
X023938Y004084D03*
X023938Y004071D03*
X023938Y004058D03*
X023938Y004045D03*
X023938Y004032D03*
X023938Y004019D03*
X023938Y004006D03*
X023938Y003993D03*
X023938Y003980D03*
X023938Y003967D03*
X023938Y003954D03*
X023938Y003941D03*
X023938Y003928D03*
X023938Y003915D03*
X023938Y003902D03*
X023938Y003889D03*
X023938Y003876D03*
X023938Y003863D03*
X023938Y003850D03*
X023938Y003837D03*
X023938Y003824D03*
X023938Y003811D03*
X023938Y003161D03*
X023938Y003148D03*
X023938Y003135D03*
X023938Y003122D03*
X023938Y003109D03*
X023938Y003096D03*
X023938Y003083D03*
X023938Y003070D03*
X023938Y003057D03*
X023938Y003044D03*
X023938Y003031D03*
X023938Y003018D03*
X023938Y003005D03*
X023938Y002992D03*
X023938Y002979D03*
X023938Y002966D03*
X023938Y002953D03*
X023938Y002940D03*
X023938Y002927D03*
X023938Y002914D03*
X023938Y002901D03*
X023938Y002888D03*
X023938Y002875D03*
X023938Y002862D03*
X023938Y002849D03*
X023938Y002836D03*
X023938Y002823D03*
X023938Y002810D03*
X023938Y002797D03*
X023938Y002784D03*
X023938Y002771D03*
X023938Y002758D03*
X023938Y002745D03*
X023938Y002732D03*
X023938Y002719D03*
X023938Y002706D03*
X023938Y002693D03*
X023938Y002680D03*
X023938Y002667D03*
X023938Y002654D03*
X023938Y002641D03*
X023938Y002628D03*
X023938Y002615D03*
X023938Y002602D03*
X023938Y002589D03*
X023938Y002576D03*
X023938Y002563D03*
X023938Y002550D03*
X023938Y002537D03*
X023938Y002524D03*
X023938Y002511D03*
X023938Y002498D03*
X023938Y002485D03*
X023938Y002472D03*
X023938Y002459D03*
X023938Y002446D03*
X023938Y002433D03*
D56*
X024536Y003005D03*
X025277Y003720D03*
X025277Y003733D03*
X025277Y003746D03*
X025290Y003785D03*
X025316Y004487D03*
X024848Y004526D03*
D57*
X025842Y003096D03*
X027493Y003044D03*
X027493Y003031D03*
X027493Y003018D03*
D58*
X025966Y003018D03*
D59*
X024529Y003018D03*
D60*
X025901Y003031D03*
D61*
X024536Y003031D03*
D62*
X025881Y003044D03*
D63*
X024536Y003044D03*
X024731Y004110D03*
D64*
X025836Y003109D03*
X027487Y003109D03*
X027487Y003122D03*
X027487Y003135D03*
X027487Y003148D03*
X027487Y003161D03*
X027487Y003174D03*
X027487Y003187D03*
X027487Y003096D03*
X027487Y003083D03*
X027487Y003070D03*
X027487Y003057D03*
D65*
X025868Y003057D03*
D66*
X024536Y003057D03*
X024159Y003291D03*
X024159Y003629D03*
X024419Y003824D03*
X024432Y003837D03*
X024692Y004071D03*
X024159Y004513D03*
X024159Y004526D03*
X026681Y004734D03*
X026681Y004747D03*
X026681Y004760D03*
X026681Y004773D03*
X026681Y004786D03*
X026681Y004799D03*
D67*
X025855Y003070D03*
D68*
X024536Y003070D03*
X024172Y003278D03*
X024172Y003655D03*
X024445Y003850D03*
X024458Y003863D03*
X024666Y004045D03*
X026681Y004643D03*
X026681Y004656D03*
X026681Y004669D03*
X026681Y004682D03*
X026681Y004695D03*
X027851Y004695D03*
X027851Y004708D03*
X027851Y004721D03*
X027851Y004734D03*
X027851Y004747D03*
X027851Y004760D03*
X027851Y004773D03*
X027851Y004786D03*
X027851Y004799D03*
X027851Y004812D03*
X027851Y004682D03*
X027851Y004669D03*
X027851Y004656D03*
X027851Y004643D03*
X027851Y004630D03*
X027851Y004617D03*
X027851Y004604D03*
X027851Y004591D03*
X027851Y004578D03*
X027851Y004565D03*
X027851Y004552D03*
X027851Y004539D03*
X027851Y004526D03*
X027851Y004513D03*
X027851Y004500D03*
X027851Y004487D03*
X027851Y004474D03*
X027851Y004461D03*
X027851Y004448D03*
X027851Y004435D03*
X027851Y004422D03*
X027851Y004409D03*
X027851Y004396D03*
X027851Y004383D03*
X027851Y004370D03*
X027851Y004357D03*
X027851Y004344D03*
X027851Y004331D03*
X027851Y004318D03*
X027851Y004305D03*
X027851Y004292D03*
X027851Y004279D03*
X027851Y004266D03*
X027851Y004253D03*
X027851Y004240D03*
X027851Y004227D03*
X027851Y004214D03*
X027851Y004201D03*
X027851Y004188D03*
X027851Y004175D03*
X027851Y004162D03*
X027851Y004149D03*
X027851Y004136D03*
X027851Y004123D03*
X027851Y004110D03*
X027851Y004097D03*
X027851Y004084D03*
X027851Y004071D03*
X027851Y004058D03*
X027851Y004045D03*
X027851Y004032D03*
X027851Y004019D03*
X027851Y004006D03*
X027851Y003993D03*
X027851Y003980D03*
X027851Y003967D03*
X027851Y003954D03*
X027851Y003941D03*
X027851Y003928D03*
X027851Y003915D03*
X027851Y003902D03*
X027851Y003889D03*
X027851Y003876D03*
X027851Y003863D03*
X027851Y003850D03*
X027851Y003837D03*
X027851Y003824D03*
X027851Y003811D03*
X027851Y003798D03*
X027851Y003785D03*
X027851Y003772D03*
X027851Y003759D03*
X027851Y003746D03*
X027851Y003733D03*
X027851Y003720D03*
X027851Y003707D03*
X027851Y003694D03*
X027851Y003681D03*
X027851Y003668D03*
X027851Y003655D03*
X027851Y003642D03*
X027851Y003629D03*
X027851Y003616D03*
X027851Y003603D03*
X027851Y003590D03*
X027851Y003577D03*
X027851Y003564D03*
X027851Y003551D03*
X027851Y003538D03*
X027851Y003525D03*
X027851Y003512D03*
X027851Y003499D03*
X027851Y003486D03*
X027851Y003473D03*
X027851Y003460D03*
X027851Y003447D03*
X027851Y003434D03*
X027851Y003421D03*
X027851Y003408D03*
X027851Y003395D03*
X027851Y003382D03*
D69*
X025849Y003083D03*
D70*
X024536Y003083D03*
X026681Y004474D03*
X026681Y004487D03*
X026681Y004500D03*
D71*
X026681Y004409D03*
X026681Y004396D03*
X025732Y004786D03*
X024211Y003720D03*
X024536Y003096D03*
D72*
X024536Y003109D03*
X024224Y003733D03*
D73*
X025829Y003122D03*
X027480Y003200D03*
X027480Y003213D03*
X027480Y003226D03*
X027480Y003239D03*
X027480Y003252D03*
X027480Y003265D03*
X027480Y003278D03*
X027480Y003291D03*
X027480Y003304D03*
X027480Y003317D03*
X027480Y003330D03*
D74*
X025069Y003395D03*
X025069Y003408D03*
X025069Y003421D03*
X025069Y003434D03*
X025069Y003447D03*
X025069Y003460D03*
X025069Y003473D03*
X025069Y003486D03*
X025069Y003499D03*
X025069Y003512D03*
X025069Y003525D03*
X025069Y003538D03*
X025069Y003551D03*
X025069Y003564D03*
X025069Y003577D03*
X025069Y003590D03*
X025069Y003603D03*
X025069Y003616D03*
X025069Y003629D03*
X025069Y003642D03*
X025069Y003655D03*
X025069Y004279D03*
X025069Y004292D03*
X025069Y004305D03*
X024536Y003122D03*
D75*
X025823Y003135D03*
X025823Y003148D03*
D76*
X024529Y003135D03*
X025062Y004266D03*
D77*
X025056Y004253D03*
X024536Y003148D03*
D78*
X025816Y003161D03*
X025816Y003174D03*
D79*
X024536Y003161D03*
X025667Y003954D03*
X025667Y004019D03*
X025043Y004227D03*
X025667Y004721D03*
D80*
X024412Y003187D03*
X024412Y003174D03*
D81*
X025810Y003187D03*
X025810Y003200D03*
D82*
X024419Y003200D03*
X024419Y003213D03*
D83*
X025816Y003213D03*
D84*
X025810Y003226D03*
X025810Y003239D03*
X025810Y003252D03*
D85*
X024425Y003252D03*
X024425Y003239D03*
X024425Y003226D03*
D86*
X025192Y003265D03*
D87*
X025576Y003278D03*
D88*
X025589Y003291D03*
D89*
X025595Y003304D03*
X025595Y003317D03*
D90*
X024152Y003304D03*
X024152Y003616D03*
X024698Y004084D03*
X024152Y004279D03*
X024152Y004292D03*
X024152Y004305D03*
X024152Y004318D03*
X024152Y004331D03*
X024152Y004344D03*
X024152Y004357D03*
X024152Y004370D03*
X024152Y004383D03*
X024152Y004396D03*
X024152Y004409D03*
X024152Y004422D03*
X024152Y004435D03*
X024152Y004448D03*
X024152Y004461D03*
X024152Y004474D03*
X024152Y004487D03*
X024152Y004500D03*
X026674Y004812D03*
D91*
X024718Y004097D03*
X024406Y003811D03*
X024146Y003603D03*
X024146Y003590D03*
X024146Y003577D03*
X024146Y003564D03*
X024146Y003330D03*
X024146Y003317D03*
D92*
X025088Y003343D03*
X024269Y003798D03*
X025049Y004240D03*
X024568Y004669D03*
X025673Y004734D03*
X026115Y003330D03*
D93*
X025101Y003330D03*
X025036Y004214D03*
X024568Y004656D03*
X025660Y004708D03*
D94*
X026934Y003369D03*
X026934Y003356D03*
X026934Y003343D03*
D95*
X024139Y003356D03*
X024139Y003369D03*
X024139Y003382D03*
X024139Y003395D03*
X024139Y003408D03*
X024139Y003421D03*
X024139Y003434D03*
X024139Y003447D03*
X024139Y003460D03*
X024139Y003473D03*
X024139Y003486D03*
X024139Y003499D03*
X024139Y003512D03*
X024139Y003525D03*
X024139Y003538D03*
X024139Y003551D03*
X024139Y003343D03*
X024568Y004786D03*
D96*
X024562Y004682D03*
X025680Y004006D03*
X025082Y003356D03*
D97*
X025075Y003369D03*
X025075Y003382D03*
X024256Y003785D03*
X025686Y003967D03*
X025686Y004747D03*
X024568Y004695D03*
D98*
X026434Y003434D03*
X026434Y003421D03*
X026434Y003408D03*
X026434Y003395D03*
X026434Y003382D03*
D99*
X026668Y003447D03*
X026668Y003460D03*
X026668Y003473D03*
X026668Y003486D03*
X026668Y003499D03*
X026668Y003512D03*
X026668Y003525D03*
X025602Y003837D03*
D100*
X025894Y003824D03*
X025894Y003811D03*
X025894Y003798D03*
X025894Y003785D03*
X025894Y003772D03*
X025894Y003759D03*
X025894Y003746D03*
X025894Y003733D03*
X025894Y003720D03*
X025894Y003707D03*
X025894Y003694D03*
X025894Y003681D03*
X025894Y003668D03*
X025894Y003655D03*
X025894Y003642D03*
X025894Y003629D03*
X025894Y003616D03*
X025894Y003603D03*
X025894Y003590D03*
X025894Y003577D03*
X025894Y003564D03*
X025894Y003551D03*
X025894Y003538D03*
X025894Y003525D03*
X025894Y003512D03*
X025894Y003499D03*
X025894Y003486D03*
X025894Y003473D03*
X025894Y003460D03*
X025894Y003447D03*
X025270Y003668D03*
X025270Y003681D03*
X025270Y003694D03*
X025270Y003707D03*
X025296Y003798D03*
X025894Y004110D03*
X025894Y004123D03*
X025894Y004136D03*
X025894Y004149D03*
X025894Y004162D03*
X025894Y004175D03*
X025894Y004188D03*
X025894Y004201D03*
X025894Y004214D03*
X025894Y004227D03*
X025894Y004240D03*
X025894Y004253D03*
X025894Y004266D03*
X025894Y004279D03*
X025894Y004292D03*
X025894Y004305D03*
X025894Y004318D03*
X025894Y004331D03*
X025894Y004344D03*
X025894Y004357D03*
X025894Y004370D03*
X025894Y004383D03*
X025894Y004396D03*
X025894Y004409D03*
X025894Y004422D03*
X025894Y004435D03*
X025894Y004448D03*
X025894Y004461D03*
X025894Y004474D03*
X025894Y004487D03*
X025894Y004500D03*
X024841Y004539D03*
D101*
X025608Y004526D03*
X025608Y004513D03*
X025608Y003863D03*
X025608Y003850D03*
X026674Y003538D03*
D102*
X026668Y003551D03*
X026668Y003564D03*
X026668Y003577D03*
X026668Y003590D03*
X026668Y003603D03*
X025615Y003876D03*
X025615Y004539D03*
X025615Y004552D03*
X025615Y004565D03*
X025615Y004578D03*
D103*
X026674Y003629D03*
X026674Y003616D03*
D104*
X026668Y003642D03*
X026668Y003655D03*
X025628Y003902D03*
X025628Y004071D03*
X025628Y004617D03*
X025628Y004630D03*
D105*
X026674Y004708D03*
X026674Y004721D03*
X024568Y004773D03*
X024165Y004539D03*
X024672Y004058D03*
X024165Y003642D03*
D106*
X024178Y003668D03*
X024633Y004019D03*
X024568Y004760D03*
D107*
X024627Y004006D03*
X024497Y003902D03*
X024185Y003681D03*
D108*
X024191Y003694D03*
X024516Y003915D03*
X024568Y003954D03*
X024581Y003967D03*
D109*
X024204Y003707D03*
X026674Y004422D03*
X026674Y004435D03*
X026674Y004448D03*
X026674Y004461D03*
X024568Y004747D03*
D110*
X024568Y004721D03*
X025712Y004773D03*
X024230Y003746D03*
D111*
X025283Y003759D03*
X025283Y003772D03*
X024568Y004825D03*
D112*
X024568Y004708D03*
X024243Y003759D03*
D113*
X024250Y003772D03*
X025082Y004435D03*
X025082Y004448D03*
X025082Y004461D03*
D114*
X026421Y004032D03*
X026421Y004019D03*
X026421Y004006D03*
X026421Y003993D03*
X026421Y003980D03*
X026421Y003967D03*
X026408Y003928D03*
X026408Y003915D03*
X026408Y003902D03*
X026408Y003889D03*
X026408Y003876D03*
X026395Y003798D03*
X026395Y003785D03*
X026434Y004071D03*
X026434Y004084D03*
X026434Y004097D03*
X026434Y004110D03*
X026434Y004123D03*
X026889Y004227D03*
X026889Y004240D03*
X026889Y004253D03*
X026889Y004266D03*
X026876Y004331D03*
X026876Y004344D03*
X026876Y004357D03*
X026876Y004370D03*
X026902Y004175D03*
X026902Y004162D03*
X026902Y004149D03*
X026902Y004136D03*
X026902Y004123D03*
X026915Y004071D03*
X026915Y004058D03*
X026915Y004045D03*
X026915Y004032D03*
X026928Y003967D03*
X026928Y003954D03*
X026928Y003941D03*
X026941Y003863D03*
X026941Y003850D03*
X026941Y003837D03*
D115*
X025303Y003811D03*
X025329Y004500D03*
D116*
X025342Y003824D03*
D117*
X024646Y004032D03*
X024477Y003876D03*
X026674Y004617D03*
X026674Y004630D03*
D118*
X025621Y004604D03*
X025621Y004591D03*
X025621Y004097D03*
X025621Y004084D03*
X025621Y003889D03*
D119*
X024614Y003993D03*
X024484Y003889D03*
X026681Y004565D03*
X026681Y004578D03*
X026681Y004591D03*
X026681Y004604D03*
X025758Y004799D03*
D120*
X025634Y004656D03*
X025634Y004643D03*
X025634Y004058D03*
X025634Y003915D03*
D121*
X025641Y003928D03*
X025641Y004045D03*
X025017Y004188D03*
X024562Y004604D03*
X025641Y004669D03*
D122*
X026674Y004552D03*
X026674Y004539D03*
X026674Y004526D03*
X026674Y004513D03*
X024594Y003980D03*
X024542Y003941D03*
X024529Y003928D03*
D123*
X025030Y004201D03*
X025654Y004032D03*
X025654Y003941D03*
X024562Y004643D03*
X025654Y004695D03*
D124*
X025706Y003993D03*
X025706Y003980D03*
D125*
X026427Y004045D03*
X026427Y004058D03*
X026440Y004136D03*
X026440Y004149D03*
X026440Y004162D03*
X026440Y004175D03*
X026440Y004188D03*
X026440Y004201D03*
X026453Y004214D03*
X026453Y004227D03*
X026453Y004240D03*
X026453Y004253D03*
X026453Y004266D03*
X026453Y004279D03*
X026453Y004292D03*
X026466Y004370D03*
D126*
X025342Y004110D03*
D127*
X025322Y004123D03*
X025309Y004136D03*
X025309Y004474D03*
X024854Y004500D03*
X024854Y004513D03*
D128*
X024737Y004123D03*
D129*
X024757Y004136D03*
D130*
X024763Y004149D03*
X024568Y004799D03*
D131*
X024776Y004162D03*
D132*
X025017Y004175D03*
X024575Y004552D03*
D133*
X025075Y004422D03*
X025075Y004409D03*
X025075Y004396D03*
X025075Y004383D03*
X025075Y004370D03*
X025075Y004357D03*
X025075Y004344D03*
X025075Y004331D03*
X025075Y004318D03*
X025699Y004760D03*
D134*
X026674Y004383D03*
X024568Y004734D03*
D135*
X024568Y004591D03*
X024568Y004578D03*
X024568Y004565D03*
D136*
X024568Y004617D03*
X024568Y004630D03*
X025647Y004682D03*
D137*
X025816Y004812D03*
D138*
X024568Y004812D03*
D139*
X024568Y004838D03*
D140*
X024575Y004851D03*
D141*
X027448Y005501D03*
X027448Y005514D03*
X027448Y005527D03*
X027448Y005540D03*
X027448Y005553D03*
X027448Y005566D03*
X027448Y005683D03*
X027448Y005696D03*
X027448Y005709D03*
X027448Y005722D03*
X027448Y005735D03*
X027448Y005748D03*
D142*
X026011Y005670D03*
X026011Y005657D03*
X026011Y005644D03*
X026011Y005631D03*
X026011Y005618D03*
X026011Y005605D03*
X026011Y005592D03*
X026011Y005579D03*
M02*
