G75*
G70*
%OFA0B0*%
%FSLAX24Y24*%
%IPPOS*%
%LPD*%
%AMOC8*
5,1,8,0,0,1.08239X$1,22.5*
%
%ADD10R,3.1500X0.0062*%
%ADD11R,3.1500X0.0063*%
%ADD12C,0.0000*%
%ADD13R,0.0631X0.0237*%
%ADD14R,0.0237X0.0631*%
%ADD15R,0.0552X0.0631*%
%ADD16R,0.0631X0.0552*%
%ADD17R,0.0780X0.0780*%
%ADD18OC8,0.0780*%
%ADD19R,0.0552X0.0670*%
%ADD20C,0.0640*%
%ADD21C,0.0780*%
%ADD22R,0.0985X0.0827*%
%ADD23R,0.0949X0.0237*%
%ADD24C,0.0434*%
%ADD25OC8,0.0800*%
%ADD26R,0.2040X0.0740*%
%ADD27C,0.0600*%
%ADD28R,0.0355X0.0512*%
%ADD29R,0.0640X0.0940*%
%ADD30R,0.0940X0.0940*%
%ADD31R,0.0512X0.0512*%
%ADD32R,0.0591X0.1142*%
%ADD33R,0.0591X0.0512*%
D10*
X015952Y019735D03*
D11*
X015952Y029547D03*
X015952Y029547D03*
X015952Y009922D03*
D12*
X000202Y000141D02*
X000202Y039324D01*
X031698Y039324D01*
X031698Y000141D01*
X000202Y000141D01*
X002148Y001525D02*
X002150Y001552D01*
X002156Y001579D01*
X002165Y001605D01*
X002178Y001629D01*
X002194Y001652D01*
X002213Y001671D01*
X002235Y001688D01*
X002259Y001702D01*
X002284Y001712D01*
X002311Y001719D01*
X002338Y001722D01*
X002366Y001721D01*
X002393Y001716D01*
X002419Y001708D01*
X002443Y001696D01*
X002466Y001680D01*
X002487Y001662D01*
X002504Y001641D01*
X002519Y001617D01*
X002530Y001592D01*
X002538Y001566D01*
X002542Y001539D01*
X002542Y001511D01*
X002538Y001484D01*
X002530Y001458D01*
X002519Y001433D01*
X002504Y001409D01*
X002487Y001388D01*
X002466Y001370D01*
X002444Y001354D01*
X002419Y001342D01*
X002393Y001334D01*
X002366Y001329D01*
X002338Y001328D01*
X002311Y001331D01*
X002284Y001338D01*
X002259Y001348D01*
X002235Y001362D01*
X002213Y001379D01*
X002194Y001398D01*
X002178Y001421D01*
X002165Y001445D01*
X002156Y001471D01*
X002150Y001498D01*
X002148Y001525D01*
X002148Y003257D02*
X002150Y003284D01*
X002156Y003311D01*
X002165Y003337D01*
X002178Y003361D01*
X002194Y003384D01*
X002213Y003403D01*
X002235Y003420D01*
X002259Y003434D01*
X002284Y003444D01*
X002311Y003451D01*
X002338Y003454D01*
X002366Y003453D01*
X002393Y003448D01*
X002419Y003440D01*
X002443Y003428D01*
X002466Y003412D01*
X002487Y003394D01*
X002504Y003373D01*
X002519Y003349D01*
X002530Y003324D01*
X002538Y003298D01*
X002542Y003271D01*
X002542Y003243D01*
X002538Y003216D01*
X002530Y003190D01*
X002519Y003165D01*
X002504Y003141D01*
X002487Y003120D01*
X002466Y003102D01*
X002444Y003086D01*
X002419Y003074D01*
X002393Y003066D01*
X002366Y003061D01*
X002338Y003060D01*
X002311Y003063D01*
X002284Y003070D01*
X002259Y003080D01*
X002235Y003094D01*
X002213Y003111D01*
X002194Y003130D01*
X002178Y003153D01*
X002165Y003177D01*
X002156Y003203D01*
X002150Y003230D01*
X002148Y003257D01*
X002148Y011337D02*
X002150Y011364D01*
X002156Y011391D01*
X002165Y011417D01*
X002178Y011441D01*
X002194Y011464D01*
X002213Y011483D01*
X002235Y011500D01*
X002259Y011514D01*
X002284Y011524D01*
X002311Y011531D01*
X002338Y011534D01*
X002366Y011533D01*
X002393Y011528D01*
X002419Y011520D01*
X002443Y011508D01*
X002466Y011492D01*
X002487Y011474D01*
X002504Y011453D01*
X002519Y011429D01*
X002530Y011404D01*
X002538Y011378D01*
X002542Y011351D01*
X002542Y011323D01*
X002538Y011296D01*
X002530Y011270D01*
X002519Y011245D01*
X002504Y011221D01*
X002487Y011200D01*
X002466Y011182D01*
X002444Y011166D01*
X002419Y011154D01*
X002393Y011146D01*
X002366Y011141D01*
X002338Y011140D01*
X002311Y011143D01*
X002284Y011150D01*
X002259Y011160D01*
X002235Y011174D01*
X002213Y011191D01*
X002194Y011210D01*
X002178Y011233D01*
X002165Y011257D01*
X002156Y011283D01*
X002150Y011310D01*
X002148Y011337D01*
X002148Y013070D02*
X002150Y013097D01*
X002156Y013124D01*
X002165Y013150D01*
X002178Y013174D01*
X002194Y013197D01*
X002213Y013216D01*
X002235Y013233D01*
X002259Y013247D01*
X002284Y013257D01*
X002311Y013264D01*
X002338Y013267D01*
X002366Y013266D01*
X002393Y013261D01*
X002419Y013253D01*
X002443Y013241D01*
X002466Y013225D01*
X002487Y013207D01*
X002504Y013186D01*
X002519Y013162D01*
X002530Y013137D01*
X002538Y013111D01*
X002542Y013084D01*
X002542Y013056D01*
X002538Y013029D01*
X002530Y013003D01*
X002519Y012978D01*
X002504Y012954D01*
X002487Y012933D01*
X002466Y012915D01*
X002444Y012899D01*
X002419Y012887D01*
X002393Y012879D01*
X002366Y012874D01*
X002338Y012873D01*
X002311Y012876D01*
X002284Y012883D01*
X002259Y012893D01*
X002235Y012907D01*
X002213Y012924D01*
X002194Y012943D01*
X002178Y012966D01*
X002165Y012990D01*
X002156Y013016D01*
X002150Y013043D01*
X002148Y013070D01*
X002148Y021150D02*
X002150Y021177D01*
X002156Y021204D01*
X002165Y021230D01*
X002178Y021254D01*
X002194Y021277D01*
X002213Y021296D01*
X002235Y021313D01*
X002259Y021327D01*
X002284Y021337D01*
X002311Y021344D01*
X002338Y021347D01*
X002366Y021346D01*
X002393Y021341D01*
X002419Y021333D01*
X002443Y021321D01*
X002466Y021305D01*
X002487Y021287D01*
X002504Y021266D01*
X002519Y021242D01*
X002530Y021217D01*
X002538Y021191D01*
X002542Y021164D01*
X002542Y021136D01*
X002538Y021109D01*
X002530Y021083D01*
X002519Y021058D01*
X002504Y021034D01*
X002487Y021013D01*
X002466Y020995D01*
X002444Y020979D01*
X002419Y020967D01*
X002393Y020959D01*
X002366Y020954D01*
X002338Y020953D01*
X002311Y020956D01*
X002284Y020963D01*
X002259Y020973D01*
X002235Y020987D01*
X002213Y021004D01*
X002194Y021023D01*
X002178Y021046D01*
X002165Y021070D01*
X002156Y021096D01*
X002150Y021123D01*
X002148Y021150D01*
X002148Y022882D02*
X002150Y022909D01*
X002156Y022936D01*
X002165Y022962D01*
X002178Y022986D01*
X002194Y023009D01*
X002213Y023028D01*
X002235Y023045D01*
X002259Y023059D01*
X002284Y023069D01*
X002311Y023076D01*
X002338Y023079D01*
X002366Y023078D01*
X002393Y023073D01*
X002419Y023065D01*
X002443Y023053D01*
X002466Y023037D01*
X002487Y023019D01*
X002504Y022998D01*
X002519Y022974D01*
X002530Y022949D01*
X002538Y022923D01*
X002542Y022896D01*
X002542Y022868D01*
X002538Y022841D01*
X002530Y022815D01*
X002519Y022790D01*
X002504Y022766D01*
X002487Y022745D01*
X002466Y022727D01*
X002444Y022711D01*
X002419Y022699D01*
X002393Y022691D01*
X002366Y022686D01*
X002338Y022685D01*
X002311Y022688D01*
X002284Y022695D01*
X002259Y022705D01*
X002235Y022719D01*
X002213Y022736D01*
X002194Y022755D01*
X002178Y022778D01*
X002165Y022802D01*
X002156Y022828D01*
X002150Y022855D01*
X002148Y022882D01*
X002148Y030962D02*
X002150Y030989D01*
X002156Y031016D01*
X002165Y031042D01*
X002178Y031066D01*
X002194Y031089D01*
X002213Y031108D01*
X002235Y031125D01*
X002259Y031139D01*
X002284Y031149D01*
X002311Y031156D01*
X002338Y031159D01*
X002366Y031158D01*
X002393Y031153D01*
X002419Y031145D01*
X002443Y031133D01*
X002466Y031117D01*
X002487Y031099D01*
X002504Y031078D01*
X002519Y031054D01*
X002530Y031029D01*
X002538Y031003D01*
X002542Y030976D01*
X002542Y030948D01*
X002538Y030921D01*
X002530Y030895D01*
X002519Y030870D01*
X002504Y030846D01*
X002487Y030825D01*
X002466Y030807D01*
X002444Y030791D01*
X002419Y030779D01*
X002393Y030771D01*
X002366Y030766D01*
X002338Y030765D01*
X002311Y030768D01*
X002284Y030775D01*
X002259Y030785D01*
X002235Y030799D01*
X002213Y030816D01*
X002194Y030835D01*
X002178Y030858D01*
X002165Y030882D01*
X002156Y030908D01*
X002150Y030935D01*
X002148Y030962D01*
X002148Y032695D02*
X002150Y032722D01*
X002156Y032749D01*
X002165Y032775D01*
X002178Y032799D01*
X002194Y032822D01*
X002213Y032841D01*
X002235Y032858D01*
X002259Y032872D01*
X002284Y032882D01*
X002311Y032889D01*
X002338Y032892D01*
X002366Y032891D01*
X002393Y032886D01*
X002419Y032878D01*
X002443Y032866D01*
X002466Y032850D01*
X002487Y032832D01*
X002504Y032811D01*
X002519Y032787D01*
X002530Y032762D01*
X002538Y032736D01*
X002542Y032709D01*
X002542Y032681D01*
X002538Y032654D01*
X002530Y032628D01*
X002519Y032603D01*
X002504Y032579D01*
X002487Y032558D01*
X002466Y032540D01*
X002444Y032524D01*
X002419Y032512D01*
X002393Y032504D01*
X002366Y032499D01*
X002338Y032498D01*
X002311Y032501D01*
X002284Y032508D01*
X002259Y032518D01*
X002235Y032532D01*
X002213Y032549D01*
X002194Y032568D01*
X002178Y032591D01*
X002165Y032615D01*
X002156Y032641D01*
X002150Y032668D01*
X002148Y032695D01*
D13*
G36*
X013091Y033030D02*
X012646Y032585D01*
X012479Y032752D01*
X012924Y033197D01*
X013091Y033030D01*
G37*
G36*
X013314Y032807D02*
X012869Y032362D01*
X012702Y032529D01*
X013147Y032974D01*
X013314Y032807D01*
G37*
G36*
X013537Y032584D02*
X013092Y032139D01*
X012925Y032306D01*
X013370Y032751D01*
X013537Y032584D01*
G37*
G36*
X013759Y032362D02*
X013314Y031917D01*
X013147Y032084D01*
X013592Y032529D01*
X013759Y032362D01*
G37*
G36*
X013982Y032139D02*
X013537Y031694D01*
X013370Y031861D01*
X013815Y032306D01*
X013982Y032139D01*
G37*
G36*
X014205Y031916D02*
X013760Y031471D01*
X013593Y031638D01*
X014038Y032083D01*
X014205Y031916D01*
G37*
G36*
X014427Y031693D02*
X013982Y031248D01*
X013815Y031415D01*
X014260Y031860D01*
X014427Y031693D01*
G37*
G36*
X014650Y031471D02*
X014205Y031026D01*
X014038Y031193D01*
X014483Y031638D01*
X014650Y031471D01*
G37*
G36*
X014873Y031248D02*
X014428Y030803D01*
X014261Y030970D01*
X014706Y031415D01*
X014873Y031248D01*
G37*
G36*
X015096Y031025D02*
X014651Y030580D01*
X014484Y030747D01*
X014929Y031192D01*
X015096Y031025D01*
G37*
G36*
X015318Y030803D02*
X014873Y030358D01*
X014706Y030525D01*
X015151Y030970D01*
X015318Y030803D01*
G37*
G36*
X018325Y034255D02*
X017880Y033810D01*
X017713Y033977D01*
X018158Y034422D01*
X018325Y034255D01*
G37*
G36*
X018548Y034032D02*
X018103Y033587D01*
X017936Y033754D01*
X018381Y034199D01*
X018548Y034032D01*
G37*
G36*
X018102Y034477D02*
X017657Y034032D01*
X017490Y034199D01*
X017935Y034644D01*
X018102Y034477D01*
G37*
G36*
X017879Y034700D02*
X017434Y034255D01*
X017267Y034422D01*
X017712Y034867D01*
X017879Y034700D01*
G37*
G36*
X017657Y034923D02*
X017212Y034478D01*
X017045Y034645D01*
X017490Y035090D01*
X017657Y034923D01*
G37*
G36*
X017434Y035145D02*
X016989Y034700D01*
X016822Y034867D01*
X017267Y035312D01*
X017434Y035145D01*
G37*
G36*
X017211Y035368D02*
X016766Y034923D01*
X016599Y035090D01*
X017044Y035535D01*
X017211Y035368D01*
G37*
G36*
X016989Y035591D02*
X016544Y035146D01*
X016377Y035313D01*
X016822Y035758D01*
X016989Y035591D01*
G37*
G36*
X016766Y035814D02*
X016321Y035369D01*
X016154Y035536D01*
X016599Y035981D01*
X016766Y035814D01*
G37*
G36*
X016543Y036036D02*
X016098Y035591D01*
X015931Y035758D01*
X016376Y036203D01*
X016543Y036036D01*
G37*
G36*
X016320Y036259D02*
X015875Y035814D01*
X015708Y035981D01*
X016153Y036426D01*
X016320Y036259D01*
G37*
G36*
X016320Y026446D02*
X015875Y026001D01*
X015708Y026168D01*
X016153Y026613D01*
X016320Y026446D01*
G37*
G36*
X016543Y026224D02*
X016098Y025779D01*
X015931Y025946D01*
X016376Y026391D01*
X016543Y026224D01*
G37*
G36*
X016766Y026001D02*
X016321Y025556D01*
X016154Y025723D01*
X016599Y026168D01*
X016766Y026001D01*
G37*
G36*
X016989Y025778D02*
X016544Y025333D01*
X016377Y025500D01*
X016822Y025945D01*
X016989Y025778D01*
G37*
G36*
X017211Y025556D02*
X016766Y025111D01*
X016599Y025278D01*
X017044Y025723D01*
X017211Y025556D01*
G37*
G36*
X017434Y025333D02*
X016989Y024888D01*
X016822Y025055D01*
X017267Y025500D01*
X017434Y025333D01*
G37*
G36*
X017657Y025110D02*
X017212Y024665D01*
X017045Y024832D01*
X017490Y025277D01*
X017657Y025110D01*
G37*
G36*
X017879Y024888D02*
X017434Y024443D01*
X017267Y024610D01*
X017712Y025055D01*
X017879Y024888D01*
G37*
G36*
X018102Y024665D02*
X017657Y024220D01*
X017490Y024387D01*
X017935Y024832D01*
X018102Y024665D01*
G37*
G36*
X018325Y024442D02*
X017880Y023997D01*
X017713Y024164D01*
X018158Y024609D01*
X018325Y024442D01*
G37*
G36*
X018548Y024219D02*
X018103Y023774D01*
X017936Y023941D01*
X018381Y024386D01*
X018548Y024219D01*
G37*
G36*
X015318Y020990D02*
X014873Y020545D01*
X014706Y020712D01*
X015151Y021157D01*
X015318Y020990D01*
G37*
G36*
X015096Y021213D02*
X014651Y020768D01*
X014484Y020935D01*
X014929Y021380D01*
X015096Y021213D01*
G37*
G36*
X014873Y021435D02*
X014428Y020990D01*
X014261Y021157D01*
X014706Y021602D01*
X014873Y021435D01*
G37*
G36*
X014650Y021658D02*
X014205Y021213D01*
X014038Y021380D01*
X014483Y021825D01*
X014650Y021658D01*
G37*
G36*
X014427Y021881D02*
X013982Y021436D01*
X013815Y021603D01*
X014260Y022048D01*
X014427Y021881D01*
G37*
G36*
X014205Y022104D02*
X013760Y021659D01*
X013593Y021826D01*
X014038Y022271D01*
X014205Y022104D01*
G37*
G36*
X013982Y022326D02*
X013537Y021881D01*
X013370Y022048D01*
X013815Y022493D01*
X013982Y022326D01*
G37*
G36*
X013759Y022549D02*
X013314Y022104D01*
X013147Y022271D01*
X013592Y022716D01*
X013759Y022549D01*
G37*
G36*
X013537Y022772D02*
X013092Y022327D01*
X012925Y022494D01*
X013370Y022939D01*
X013537Y022772D01*
G37*
G36*
X013314Y022994D02*
X012869Y022549D01*
X012702Y022716D01*
X013147Y023161D01*
X013314Y022994D01*
G37*
G36*
X013091Y023217D02*
X012646Y022772D01*
X012479Y022939D01*
X012924Y023384D01*
X013091Y023217D01*
G37*
G36*
X016320Y016634D02*
X015875Y016189D01*
X015708Y016356D01*
X016153Y016801D01*
X016320Y016634D01*
G37*
G36*
X016543Y016411D02*
X016098Y015966D01*
X015931Y016133D01*
X016376Y016578D01*
X016543Y016411D01*
G37*
G36*
X016766Y016189D02*
X016321Y015744D01*
X016154Y015911D01*
X016599Y016356D01*
X016766Y016189D01*
G37*
G36*
X016989Y015966D02*
X016544Y015521D01*
X016377Y015688D01*
X016822Y016133D01*
X016989Y015966D01*
G37*
G36*
X017211Y015743D02*
X016766Y015298D01*
X016599Y015465D01*
X017044Y015910D01*
X017211Y015743D01*
G37*
G36*
X017434Y015520D02*
X016989Y015075D01*
X016822Y015242D01*
X017267Y015687D01*
X017434Y015520D01*
G37*
G36*
X017657Y015298D02*
X017212Y014853D01*
X017045Y015020D01*
X017490Y015465D01*
X017657Y015298D01*
G37*
G36*
X017879Y015075D02*
X017434Y014630D01*
X017267Y014797D01*
X017712Y015242D01*
X017879Y015075D01*
G37*
G36*
X018102Y014852D02*
X017657Y014407D01*
X017490Y014574D01*
X017935Y015019D01*
X018102Y014852D01*
G37*
G36*
X018325Y014630D02*
X017880Y014185D01*
X017713Y014352D01*
X018158Y014797D01*
X018325Y014630D01*
G37*
G36*
X018548Y014407D02*
X018103Y013962D01*
X017936Y014129D01*
X018381Y014574D01*
X018548Y014407D01*
G37*
G36*
X015318Y011178D02*
X014873Y010733D01*
X014706Y010900D01*
X015151Y011345D01*
X015318Y011178D01*
G37*
G36*
X015096Y011400D02*
X014651Y010955D01*
X014484Y011122D01*
X014929Y011567D01*
X015096Y011400D01*
G37*
G36*
X014873Y011623D02*
X014428Y011178D01*
X014261Y011345D01*
X014706Y011790D01*
X014873Y011623D01*
G37*
G36*
X014650Y011846D02*
X014205Y011401D01*
X014038Y011568D01*
X014483Y012013D01*
X014650Y011846D01*
G37*
G36*
X014427Y012068D02*
X013982Y011623D01*
X013815Y011790D01*
X014260Y012235D01*
X014427Y012068D01*
G37*
G36*
X014205Y012291D02*
X013760Y011846D01*
X013593Y012013D01*
X014038Y012458D01*
X014205Y012291D01*
G37*
G36*
X013982Y012514D02*
X013537Y012069D01*
X013370Y012236D01*
X013815Y012681D01*
X013982Y012514D01*
G37*
G36*
X013759Y012737D02*
X013314Y012292D01*
X013147Y012459D01*
X013592Y012904D01*
X013759Y012737D01*
G37*
G36*
X013537Y012959D02*
X013092Y012514D01*
X012925Y012681D01*
X013370Y013126D01*
X013537Y012959D01*
G37*
G36*
X013314Y013182D02*
X012869Y012737D01*
X012702Y012904D01*
X013147Y013349D01*
X013314Y013182D01*
G37*
G36*
X013091Y013405D02*
X012646Y012960D01*
X012479Y013127D01*
X012924Y013572D01*
X013091Y013405D01*
G37*
G36*
X016320Y006821D02*
X015875Y006376D01*
X015708Y006543D01*
X016153Y006988D01*
X016320Y006821D01*
G37*
G36*
X016543Y006599D02*
X016098Y006154D01*
X015931Y006321D01*
X016376Y006766D01*
X016543Y006599D01*
G37*
G36*
X016766Y006376D02*
X016321Y005931D01*
X016154Y006098D01*
X016599Y006543D01*
X016766Y006376D01*
G37*
G36*
X016989Y006153D02*
X016544Y005708D01*
X016377Y005875D01*
X016822Y006320D01*
X016989Y006153D01*
G37*
G36*
X017211Y005931D02*
X016766Y005486D01*
X016599Y005653D01*
X017044Y006098D01*
X017211Y005931D01*
G37*
G36*
X017434Y005708D02*
X016989Y005263D01*
X016822Y005430D01*
X017267Y005875D01*
X017434Y005708D01*
G37*
G36*
X017657Y005485D02*
X017212Y005040D01*
X017045Y005207D01*
X017490Y005652D01*
X017657Y005485D01*
G37*
G36*
X017879Y005263D02*
X017434Y004818D01*
X017267Y004985D01*
X017712Y005430D01*
X017879Y005263D01*
G37*
G36*
X018102Y005040D02*
X017657Y004595D01*
X017490Y004762D01*
X017935Y005207D01*
X018102Y005040D01*
G37*
G36*
X018325Y004817D02*
X017880Y004372D01*
X017713Y004539D01*
X018158Y004984D01*
X018325Y004817D01*
G37*
G36*
X018548Y004594D02*
X018103Y004149D01*
X017936Y004316D01*
X018381Y004761D01*
X018548Y004594D01*
G37*
G36*
X015318Y001365D02*
X014873Y000920D01*
X014706Y001087D01*
X015151Y001532D01*
X015318Y001365D01*
G37*
G36*
X015096Y001588D02*
X014651Y001143D01*
X014484Y001310D01*
X014929Y001755D01*
X015096Y001588D01*
G37*
G36*
X014873Y001810D02*
X014428Y001365D01*
X014261Y001532D01*
X014706Y001977D01*
X014873Y001810D01*
G37*
G36*
X014650Y002033D02*
X014205Y001588D01*
X014038Y001755D01*
X014483Y002200D01*
X014650Y002033D01*
G37*
G36*
X014427Y002256D02*
X013982Y001811D01*
X013815Y001978D01*
X014260Y002423D01*
X014427Y002256D01*
G37*
G36*
X014205Y002479D02*
X013760Y002034D01*
X013593Y002201D01*
X014038Y002646D01*
X014205Y002479D01*
G37*
G36*
X013982Y002701D02*
X013537Y002256D01*
X013370Y002423D01*
X013815Y002868D01*
X013982Y002701D01*
G37*
G36*
X013759Y002924D02*
X013314Y002479D01*
X013147Y002646D01*
X013592Y003091D01*
X013759Y002924D01*
G37*
G36*
X013537Y003147D02*
X013092Y002702D01*
X012925Y002869D01*
X013370Y003314D01*
X013537Y003147D01*
G37*
G36*
X013314Y003369D02*
X012869Y002924D01*
X012702Y003091D01*
X013147Y003536D01*
X013314Y003369D01*
G37*
G36*
X013091Y003592D02*
X012646Y003147D01*
X012479Y003314D01*
X012924Y003759D01*
X013091Y003592D01*
G37*
D14*
G36*
X013091Y004316D02*
X012924Y004149D01*
X012479Y004594D01*
X012646Y004761D01*
X013091Y004316D01*
G37*
G36*
X013314Y004539D02*
X013147Y004372D01*
X012702Y004817D01*
X012869Y004984D01*
X013314Y004539D01*
G37*
G36*
X013537Y004762D02*
X013370Y004595D01*
X012925Y005040D01*
X013092Y005207D01*
X013537Y004762D01*
G37*
G36*
X013759Y004985D02*
X013592Y004818D01*
X013147Y005263D01*
X013314Y005430D01*
X013759Y004985D01*
G37*
G36*
X013982Y005207D02*
X013815Y005040D01*
X013370Y005485D01*
X013537Y005652D01*
X013982Y005207D01*
G37*
G36*
X014205Y005430D02*
X014038Y005263D01*
X013593Y005708D01*
X013760Y005875D01*
X014205Y005430D01*
G37*
G36*
X014427Y005653D02*
X014260Y005486D01*
X013815Y005931D01*
X013982Y006098D01*
X014427Y005653D01*
G37*
G36*
X014650Y005875D02*
X014483Y005708D01*
X014038Y006153D01*
X014205Y006320D01*
X014650Y005875D01*
G37*
G36*
X014873Y006098D02*
X014706Y005931D01*
X014261Y006376D01*
X014428Y006543D01*
X014873Y006098D01*
G37*
G36*
X015096Y006321D02*
X014929Y006154D01*
X014484Y006599D01*
X014651Y006766D01*
X015096Y006321D01*
G37*
G36*
X015318Y006543D02*
X015151Y006376D01*
X014706Y006821D01*
X014873Y006988D01*
X015318Y006543D01*
G37*
G36*
X018548Y003314D02*
X018381Y003147D01*
X017936Y003592D01*
X018103Y003759D01*
X018548Y003314D01*
G37*
G36*
X018325Y003091D02*
X018158Y002924D01*
X017713Y003369D01*
X017880Y003536D01*
X018325Y003091D01*
G37*
G36*
X018102Y002869D02*
X017935Y002702D01*
X017490Y003147D01*
X017657Y003314D01*
X018102Y002869D01*
G37*
G36*
X017879Y002646D02*
X017712Y002479D01*
X017267Y002924D01*
X017434Y003091D01*
X017879Y002646D01*
G37*
G36*
X017657Y002423D02*
X017490Y002256D01*
X017045Y002701D01*
X017212Y002868D01*
X017657Y002423D01*
G37*
G36*
X017434Y002201D02*
X017267Y002034D01*
X016822Y002479D01*
X016989Y002646D01*
X017434Y002201D01*
G37*
G36*
X017211Y001978D02*
X017044Y001811D01*
X016599Y002256D01*
X016766Y002423D01*
X017211Y001978D01*
G37*
G36*
X016989Y001755D02*
X016822Y001588D01*
X016377Y002033D01*
X016544Y002200D01*
X016989Y001755D01*
G37*
G36*
X016766Y001532D02*
X016599Y001365D01*
X016154Y001810D01*
X016321Y001977D01*
X016766Y001532D01*
G37*
G36*
X016543Y001310D02*
X016376Y001143D01*
X015931Y001588D01*
X016098Y001755D01*
X016543Y001310D01*
G37*
G36*
X016320Y001087D02*
X016153Y000920D01*
X015708Y001365D01*
X015875Y001532D01*
X016320Y001087D01*
G37*
G36*
X016320Y010900D02*
X016153Y010733D01*
X015708Y011178D01*
X015875Y011345D01*
X016320Y010900D01*
G37*
G36*
X016543Y011122D02*
X016376Y010955D01*
X015931Y011400D01*
X016098Y011567D01*
X016543Y011122D01*
G37*
G36*
X016766Y011345D02*
X016599Y011178D01*
X016154Y011623D01*
X016321Y011790D01*
X016766Y011345D01*
G37*
G36*
X016989Y011568D02*
X016822Y011401D01*
X016377Y011846D01*
X016544Y012013D01*
X016989Y011568D01*
G37*
G36*
X017211Y011790D02*
X017044Y011623D01*
X016599Y012068D01*
X016766Y012235D01*
X017211Y011790D01*
G37*
G36*
X017434Y012013D02*
X017267Y011846D01*
X016822Y012291D01*
X016989Y012458D01*
X017434Y012013D01*
G37*
G36*
X017657Y012236D02*
X017490Y012069D01*
X017045Y012514D01*
X017212Y012681D01*
X017657Y012236D01*
G37*
G36*
X017879Y012459D02*
X017712Y012292D01*
X017267Y012737D01*
X017434Y012904D01*
X017879Y012459D01*
G37*
G36*
X018102Y012681D02*
X017935Y012514D01*
X017490Y012959D01*
X017657Y013126D01*
X018102Y012681D01*
G37*
G36*
X018325Y012904D02*
X018158Y012737D01*
X017713Y013182D01*
X017880Y013349D01*
X018325Y012904D01*
G37*
G36*
X018548Y013127D02*
X018381Y012960D01*
X017936Y013405D01*
X018103Y013572D01*
X018548Y013127D01*
G37*
G36*
X015318Y016356D02*
X015151Y016189D01*
X014706Y016634D01*
X014873Y016801D01*
X015318Y016356D01*
G37*
G36*
X015096Y016133D02*
X014929Y015966D01*
X014484Y016411D01*
X014651Y016578D01*
X015096Y016133D01*
G37*
G36*
X014873Y015911D02*
X014706Y015744D01*
X014261Y016189D01*
X014428Y016356D01*
X014873Y015911D01*
G37*
G36*
X014650Y015688D02*
X014483Y015521D01*
X014038Y015966D01*
X014205Y016133D01*
X014650Y015688D01*
G37*
G36*
X014427Y015465D02*
X014260Y015298D01*
X013815Y015743D01*
X013982Y015910D01*
X014427Y015465D01*
G37*
G36*
X014205Y015242D02*
X014038Y015075D01*
X013593Y015520D01*
X013760Y015687D01*
X014205Y015242D01*
G37*
G36*
X013982Y015020D02*
X013815Y014853D01*
X013370Y015298D01*
X013537Y015465D01*
X013982Y015020D01*
G37*
G36*
X013759Y014797D02*
X013592Y014630D01*
X013147Y015075D01*
X013314Y015242D01*
X013759Y014797D01*
G37*
G36*
X013537Y014574D02*
X013370Y014407D01*
X012925Y014852D01*
X013092Y015019D01*
X013537Y014574D01*
G37*
G36*
X013314Y014352D02*
X013147Y014185D01*
X012702Y014630D01*
X012869Y014797D01*
X013314Y014352D01*
G37*
G36*
X013091Y014129D02*
X012924Y013962D01*
X012479Y014407D01*
X012646Y014574D01*
X013091Y014129D01*
G37*
G36*
X016320Y020712D02*
X016153Y020545D01*
X015708Y020990D01*
X015875Y021157D01*
X016320Y020712D01*
G37*
G36*
X016543Y020935D02*
X016376Y020768D01*
X015931Y021213D01*
X016098Y021380D01*
X016543Y020935D01*
G37*
G36*
X016766Y021157D02*
X016599Y020990D01*
X016154Y021435D01*
X016321Y021602D01*
X016766Y021157D01*
G37*
G36*
X016989Y021380D02*
X016822Y021213D01*
X016377Y021658D01*
X016544Y021825D01*
X016989Y021380D01*
G37*
G36*
X017211Y021603D02*
X017044Y021436D01*
X016599Y021881D01*
X016766Y022048D01*
X017211Y021603D01*
G37*
G36*
X017434Y021826D02*
X017267Y021659D01*
X016822Y022104D01*
X016989Y022271D01*
X017434Y021826D01*
G37*
G36*
X017657Y022048D02*
X017490Y021881D01*
X017045Y022326D01*
X017212Y022493D01*
X017657Y022048D01*
G37*
G36*
X017879Y022271D02*
X017712Y022104D01*
X017267Y022549D01*
X017434Y022716D01*
X017879Y022271D01*
G37*
G36*
X018102Y022494D02*
X017935Y022327D01*
X017490Y022772D01*
X017657Y022939D01*
X018102Y022494D01*
G37*
G36*
X018325Y022716D02*
X018158Y022549D01*
X017713Y022994D01*
X017880Y023161D01*
X018325Y022716D01*
G37*
G36*
X018548Y022939D02*
X018381Y022772D01*
X017936Y023217D01*
X018103Y023384D01*
X018548Y022939D01*
G37*
G36*
X015318Y026168D02*
X015151Y026001D01*
X014706Y026446D01*
X014873Y026613D01*
X015318Y026168D01*
G37*
G36*
X015096Y025946D02*
X014929Y025779D01*
X014484Y026224D01*
X014651Y026391D01*
X015096Y025946D01*
G37*
G36*
X014873Y025723D02*
X014706Y025556D01*
X014261Y026001D01*
X014428Y026168D01*
X014873Y025723D01*
G37*
G36*
X014650Y025500D02*
X014483Y025333D01*
X014038Y025778D01*
X014205Y025945D01*
X014650Y025500D01*
G37*
G36*
X014427Y025278D02*
X014260Y025111D01*
X013815Y025556D01*
X013982Y025723D01*
X014427Y025278D01*
G37*
G36*
X014205Y025055D02*
X014038Y024888D01*
X013593Y025333D01*
X013760Y025500D01*
X014205Y025055D01*
G37*
G36*
X013982Y024832D02*
X013815Y024665D01*
X013370Y025110D01*
X013537Y025277D01*
X013982Y024832D01*
G37*
G36*
X013759Y024610D02*
X013592Y024443D01*
X013147Y024888D01*
X013314Y025055D01*
X013759Y024610D01*
G37*
G36*
X013537Y024387D02*
X013370Y024220D01*
X012925Y024665D01*
X013092Y024832D01*
X013537Y024387D01*
G37*
G36*
X013314Y024164D02*
X013147Y023997D01*
X012702Y024442D01*
X012869Y024609D01*
X013314Y024164D01*
G37*
G36*
X013091Y023941D02*
X012924Y023774D01*
X012479Y024219D01*
X012646Y024386D01*
X013091Y023941D01*
G37*
G36*
X016320Y030525D02*
X016153Y030358D01*
X015708Y030803D01*
X015875Y030970D01*
X016320Y030525D01*
G37*
G36*
X016543Y030747D02*
X016376Y030580D01*
X015931Y031025D01*
X016098Y031192D01*
X016543Y030747D01*
G37*
G36*
X016766Y030970D02*
X016599Y030803D01*
X016154Y031248D01*
X016321Y031415D01*
X016766Y030970D01*
G37*
G36*
X016989Y031193D02*
X016822Y031026D01*
X016377Y031471D01*
X016544Y031638D01*
X016989Y031193D01*
G37*
G36*
X017211Y031415D02*
X017044Y031248D01*
X016599Y031693D01*
X016766Y031860D01*
X017211Y031415D01*
G37*
G36*
X017434Y031638D02*
X017267Y031471D01*
X016822Y031916D01*
X016989Y032083D01*
X017434Y031638D01*
G37*
G36*
X017657Y031861D02*
X017490Y031694D01*
X017045Y032139D01*
X017212Y032306D01*
X017657Y031861D01*
G37*
G36*
X017879Y032084D02*
X017712Y031917D01*
X017267Y032362D01*
X017434Y032529D01*
X017879Y032084D01*
G37*
G36*
X018102Y032306D02*
X017935Y032139D01*
X017490Y032584D01*
X017657Y032751D01*
X018102Y032306D01*
G37*
G36*
X018325Y032529D02*
X018158Y032362D01*
X017713Y032807D01*
X017880Y032974D01*
X018325Y032529D01*
G37*
G36*
X018548Y032752D02*
X018381Y032585D01*
X017936Y033030D01*
X018103Y033197D01*
X018548Y032752D01*
G37*
G36*
X015318Y035981D02*
X015151Y035814D01*
X014706Y036259D01*
X014873Y036426D01*
X015318Y035981D01*
G37*
G36*
X015096Y035758D02*
X014929Y035591D01*
X014484Y036036D01*
X014651Y036203D01*
X015096Y035758D01*
G37*
G36*
X014873Y035536D02*
X014706Y035369D01*
X014261Y035814D01*
X014428Y035981D01*
X014873Y035536D01*
G37*
G36*
X014650Y035313D02*
X014483Y035146D01*
X014038Y035591D01*
X014205Y035758D01*
X014650Y035313D01*
G37*
G36*
X014427Y035090D02*
X014260Y034923D01*
X013815Y035368D01*
X013982Y035535D01*
X014427Y035090D01*
G37*
G36*
X014205Y034867D02*
X014038Y034700D01*
X013593Y035145D01*
X013760Y035312D01*
X014205Y034867D01*
G37*
G36*
X013982Y034645D02*
X013815Y034478D01*
X013370Y034923D01*
X013537Y035090D01*
X013982Y034645D01*
G37*
G36*
X013759Y034422D02*
X013592Y034255D01*
X013147Y034700D01*
X013314Y034867D01*
X013759Y034422D01*
G37*
G36*
X013537Y034199D02*
X013370Y034032D01*
X012925Y034477D01*
X013092Y034644D01*
X013537Y034199D01*
G37*
G36*
X013314Y033977D02*
X013147Y033810D01*
X012702Y034255D01*
X012869Y034422D01*
X013314Y033977D01*
G37*
G36*
X013091Y033754D02*
X012924Y033587D01*
X012479Y034032D01*
X012646Y034199D01*
X013091Y033754D01*
G37*
D15*
X011966Y034094D03*
X011218Y034094D03*
X011108Y031049D03*
X011856Y031049D03*
X012603Y031019D03*
X013351Y031019D03*
X013463Y026631D03*
X014211Y026631D03*
X011966Y024281D03*
X011218Y024281D03*
X011108Y021236D03*
X011856Y021236D03*
X012603Y021206D03*
X013351Y021206D03*
X013463Y016819D03*
X014211Y016819D03*
X011966Y014469D03*
X011218Y014469D03*
X011108Y011424D03*
X011856Y011424D03*
X012603Y011394D03*
X013351Y011394D03*
X013463Y007006D03*
X014211Y007006D03*
X011966Y004656D03*
X011218Y004656D03*
X011108Y001611D03*
X011856Y001611D03*
X012603Y001581D03*
X013351Y001581D03*
X017803Y000961D03*
X018551Y000961D03*
X025133Y000931D03*
X025881Y000931D03*
X025881Y010744D03*
X025133Y010744D03*
X018551Y010774D03*
X017803Y010774D03*
X017803Y020586D03*
X018551Y020586D03*
X025133Y020556D03*
X025881Y020556D03*
X025881Y030369D03*
X025133Y030369D03*
X018551Y030399D03*
X017803Y030399D03*
X014211Y036444D03*
X013463Y036444D03*
X003576Y036329D03*
X002828Y036329D03*
X001826Y036329D03*
X001078Y036329D03*
X001078Y026516D03*
X001826Y026516D03*
X002828Y026516D03*
X003576Y026516D03*
X003576Y016704D03*
X002828Y016704D03*
X001826Y016704D03*
X001078Y016704D03*
X001078Y006891D03*
X001826Y006891D03*
X002828Y006891D03*
X003576Y006891D03*
D16*
X007147Y004730D03*
X007147Y003982D03*
X010452Y003892D03*
X010452Y004640D03*
X010452Y013705D03*
X010452Y014453D03*
X007147Y014543D03*
X007147Y013795D03*
X007147Y023607D03*
X007147Y024355D03*
X010452Y024265D03*
X010452Y023517D03*
X010452Y033330D03*
X010452Y034078D03*
X007147Y034168D03*
X007147Y033420D03*
X019202Y033703D03*
X019202Y032955D03*
X019202Y023890D03*
X019202Y023142D03*
X019202Y014078D03*
X019202Y013330D03*
X019202Y004265D03*
X019202Y003517D03*
D17*
X009902Y002131D03*
X009902Y011944D03*
X009902Y021756D03*
X009902Y031569D03*
D18*
X009902Y030569D03*
X008902Y030569D03*
X008902Y031569D03*
X007902Y031569D03*
X007902Y030569D03*
X007902Y021756D03*
X008902Y021756D03*
X008902Y020756D03*
X007902Y020756D03*
X009902Y020756D03*
X008902Y011944D03*
X008902Y010944D03*
X007902Y010944D03*
X007902Y011944D03*
X009902Y010944D03*
X008902Y002131D03*
X008902Y001131D03*
X007902Y001131D03*
X007902Y002131D03*
X009902Y001131D03*
D19*
X005826Y001731D03*
X005826Y002651D03*
X005078Y002651D03*
X005078Y001731D03*
X005078Y011544D03*
X005078Y012464D03*
X005826Y012464D03*
X005826Y011544D03*
X005826Y021356D03*
X005826Y022276D03*
X005078Y022276D03*
X005078Y021356D03*
X005078Y031169D03*
X005078Y032089D03*
X005826Y032089D03*
X005826Y031169D03*
X020953Y032704D03*
X021701Y032704D03*
X024078Y035079D03*
X024826Y035079D03*
X026078Y035079D03*
X026826Y035079D03*
X026826Y034079D03*
X026078Y034079D03*
X026078Y025266D03*
X026826Y025266D03*
X026826Y024266D03*
X026078Y024266D03*
X024826Y025266D03*
X024078Y025266D03*
X021701Y022891D03*
X020953Y022891D03*
X024078Y015454D03*
X024826Y015454D03*
X026078Y015454D03*
X026078Y014454D03*
X026826Y014454D03*
X026826Y015454D03*
X021701Y013079D03*
X020953Y013079D03*
X024078Y005641D03*
X024826Y005641D03*
X026078Y005641D03*
X026078Y004641D03*
X026826Y004641D03*
X026826Y005641D03*
X021701Y003266D03*
X020953Y003266D03*
D20*
X028812Y003871D02*
X028812Y004471D01*
X030592Y004471D02*
X030592Y003871D01*
X030592Y001911D02*
X030592Y001311D01*
X028812Y001311D02*
X028812Y001911D01*
X028812Y011124D02*
X028812Y011724D01*
X028812Y013684D02*
X028812Y014284D01*
X030592Y014284D02*
X030592Y013684D01*
X030592Y011724D02*
X030592Y011124D01*
X030592Y020936D02*
X030592Y021536D01*
X030592Y023496D02*
X030592Y024096D01*
X028812Y024096D02*
X028812Y023496D01*
X028812Y021536D02*
X028812Y020936D01*
X028812Y030749D02*
X028812Y031349D01*
X028812Y033309D02*
X028812Y033909D01*
X030592Y033909D02*
X030592Y033309D01*
X030592Y031349D02*
X030592Y030749D01*
D21*
X030202Y035079D03*
X029202Y035079D03*
X029202Y025266D03*
X030202Y025266D03*
X030202Y015454D03*
X029202Y015454D03*
X029202Y005641D03*
X030202Y005641D03*
D22*
X003330Y004123D03*
X001164Y004123D03*
X001164Y000659D03*
X003330Y000659D03*
X003330Y010471D03*
X001164Y010471D03*
X001164Y013936D03*
X003330Y013936D03*
X003330Y020284D03*
X001164Y020284D03*
X001164Y023748D03*
X003330Y023748D03*
X003330Y030096D03*
X001164Y030096D03*
X001164Y033561D03*
X003330Y033561D03*
D23*
X003552Y032459D03*
X003552Y032144D03*
X003552Y031829D03*
X003552Y031514D03*
X003552Y031199D03*
X003552Y022646D03*
X003552Y022331D03*
X003552Y022016D03*
X003552Y021701D03*
X003552Y021386D03*
X003552Y012834D03*
X003552Y012519D03*
X003552Y012204D03*
X003552Y011889D03*
X003552Y011574D03*
X003552Y003021D03*
X003552Y002706D03*
X003552Y002391D03*
X003552Y002076D03*
X003552Y001761D03*
D24*
X002345Y001525D03*
X002345Y003257D03*
X002345Y011337D03*
X002345Y013070D03*
X002345Y021150D03*
X002345Y022882D03*
X002345Y030962D03*
X002345Y032695D03*
D25*
X001952Y028766D03*
X002952Y028766D03*
X003952Y028766D03*
X004952Y028766D03*
X005952Y028766D03*
X006952Y028766D03*
X007952Y028766D03*
X008952Y028766D03*
X009952Y028766D03*
X010952Y028766D03*
X011952Y028766D03*
X012952Y028766D03*
X013952Y028766D03*
X014952Y028766D03*
X015952Y028766D03*
X016952Y028766D03*
X017952Y028766D03*
X018952Y028766D03*
X019952Y028766D03*
X020952Y028766D03*
X021952Y028766D03*
X022952Y028766D03*
X023952Y028766D03*
X024952Y028766D03*
X025952Y028766D03*
X026952Y028766D03*
X027952Y028766D03*
X028952Y028766D03*
X029952Y028766D03*
X030952Y028766D03*
X030952Y018954D03*
X029952Y018954D03*
X028952Y018954D03*
X027952Y018954D03*
X026952Y018954D03*
X025952Y018954D03*
X024952Y018954D03*
X023952Y018954D03*
X022952Y018954D03*
X021952Y018954D03*
X020952Y018954D03*
X019952Y018954D03*
X018952Y018954D03*
X017952Y018954D03*
X016952Y018954D03*
X015952Y018954D03*
X014952Y018954D03*
X013952Y018954D03*
X012952Y018954D03*
X011952Y018954D03*
X010952Y018954D03*
X009952Y018954D03*
X008952Y018954D03*
X007952Y018954D03*
X006952Y018954D03*
X005952Y018954D03*
X004952Y018954D03*
X003952Y018954D03*
X002952Y018954D03*
X001952Y018954D03*
X000952Y018954D03*
X000952Y028766D03*
X000952Y038579D03*
X001952Y038579D03*
X002952Y038579D03*
X003952Y038579D03*
X004952Y038579D03*
X005952Y038579D03*
X006952Y038579D03*
X007952Y038579D03*
X008952Y038579D03*
X009952Y038579D03*
X010952Y038579D03*
X011952Y038579D03*
X012952Y038579D03*
X013952Y038579D03*
X014952Y038579D03*
X015952Y038579D03*
X016952Y038579D03*
X017952Y038579D03*
X018952Y038579D03*
X019952Y038579D03*
X020952Y038579D03*
X021952Y038579D03*
X022952Y038579D03*
X023952Y038579D03*
X024952Y038579D03*
X025952Y038579D03*
X026952Y038579D03*
X027952Y038579D03*
X028952Y038579D03*
X029952Y038579D03*
X030952Y038579D03*
X030952Y009141D03*
X029952Y009141D03*
X028952Y009141D03*
X027952Y009141D03*
X026952Y009141D03*
X025952Y009141D03*
X024952Y009141D03*
X023952Y009141D03*
X022952Y009141D03*
X021952Y009141D03*
X020952Y009141D03*
X019952Y009141D03*
X018952Y009141D03*
X017952Y009141D03*
X016952Y009141D03*
X015952Y009141D03*
X014952Y009141D03*
X013952Y009141D03*
X012952Y009141D03*
X011952Y009141D03*
X010952Y009141D03*
X009952Y009141D03*
X008952Y009141D03*
X007952Y009141D03*
X006952Y009141D03*
X005952Y009141D03*
X004952Y009141D03*
X003952Y009141D03*
X002952Y009141D03*
X001952Y009141D03*
X000952Y009141D03*
D26*
X019927Y011204D03*
X023727Y011204D03*
X023727Y021016D03*
X019927Y021016D03*
X019927Y030829D03*
X023727Y030829D03*
X023727Y001391D03*
X019927Y001391D03*
D27*
X009322Y003956D02*
X009322Y004516D01*
X008322Y004516D02*
X008322Y003956D01*
X008312Y006356D02*
X008312Y006916D01*
X009312Y006916D02*
X009312Y006356D01*
X007312Y006356D02*
X007312Y006916D01*
X002077Y005796D02*
X002077Y005236D01*
X001077Y005236D02*
X001077Y005796D01*
X001077Y015049D02*
X001077Y015609D01*
X002077Y015609D02*
X002077Y015049D01*
X007312Y016169D02*
X007312Y016729D01*
X008312Y016729D02*
X008312Y016169D01*
X009312Y016169D02*
X009312Y016729D01*
X009322Y014329D02*
X009322Y013769D01*
X008322Y013769D02*
X008322Y014329D01*
X008322Y023581D02*
X008322Y024141D01*
X009322Y024141D02*
X009322Y023581D01*
X009312Y025981D02*
X009312Y026541D01*
X008312Y026541D02*
X008312Y025981D01*
X007312Y025981D02*
X007312Y026541D01*
X002077Y025421D02*
X002077Y024861D01*
X001077Y024861D02*
X001077Y025421D01*
X001077Y034674D02*
X001077Y035234D01*
X002077Y035234D02*
X002077Y034674D01*
X007312Y035794D02*
X007312Y036354D01*
X008312Y036354D02*
X008312Y035794D01*
X009312Y035794D02*
X009312Y036354D01*
X009322Y033954D02*
X009322Y033394D01*
X008322Y033394D02*
X008322Y033954D01*
D28*
X011207Y033289D03*
X011916Y033289D03*
X011916Y023476D03*
X011207Y023476D03*
X011207Y013664D03*
X011916Y013664D03*
X011916Y003851D03*
X011207Y003851D03*
D29*
X006175Y004134D03*
X005265Y004134D03*
X004355Y004134D03*
X004355Y013947D03*
X005265Y013947D03*
X006175Y013947D03*
X006175Y023759D03*
X005265Y023759D03*
X004355Y023759D03*
X004355Y033572D03*
X005265Y033572D03*
X006175Y033572D03*
D30*
X005265Y036212D03*
X005265Y026399D03*
X005265Y016587D03*
X005265Y006774D03*
D31*
X025202Y003679D03*
X025202Y002853D03*
X027014Y002853D03*
X027014Y003679D03*
X027014Y012665D03*
X027014Y013492D03*
X025202Y013492D03*
X025202Y012665D03*
X025202Y022478D03*
X025202Y023304D03*
X027014Y023304D03*
X027014Y022478D03*
X027014Y032290D03*
X027014Y033117D03*
X025202Y033117D03*
X025202Y032290D03*
D32*
X024213Y032704D03*
X024213Y022891D03*
X024213Y013079D03*
X024213Y003266D03*
D33*
X023190Y002833D03*
X023190Y003699D03*
X023190Y012646D03*
X023190Y013512D03*
X023190Y022458D03*
X023190Y023324D03*
X023190Y032271D03*
X023190Y033137D03*
M02*
