G75*
G70*
%OFA0B0*%
%FSLAX24Y24*%
%IPPOS*%
%LPD*%
%AMOC8*
5,1,8,0,0,1.08239X$1,22.5*
%
%ADD10C,0.0000*%
%ADD11R,0.0591X0.0197*%
%ADD12R,0.0197X0.0591*%
%ADD13R,0.0512X0.0591*%
%ADD14R,0.0591X0.0512*%
%ADD15R,0.0512X0.0630*%
%ADD16R,0.0945X0.0787*%
%ADD17R,0.0909X0.0197*%
%ADD18R,0.2000X0.0700*%
%ADD19R,0.0315X0.0472*%
%ADD20R,0.0600X0.0900*%
%ADD21R,0.0900X0.0900*%
%ADD22R,0.0472X0.0472*%
%ADD23R,0.0551X0.1102*%
%ADD24R,0.0551X0.0472*%
D10*
X000202Y000242D02*
X000202Y009992D01*
X031702Y009992D01*
X031702Y000242D01*
X000202Y000242D01*
X002148Y001626D02*
X002150Y001653D01*
X002156Y001680D01*
X002165Y001706D01*
X002178Y001730D01*
X002194Y001753D01*
X002213Y001772D01*
X002235Y001789D01*
X002259Y001803D01*
X002284Y001813D01*
X002311Y001820D01*
X002338Y001823D01*
X002366Y001822D01*
X002393Y001817D01*
X002419Y001809D01*
X002443Y001797D01*
X002466Y001781D01*
X002487Y001763D01*
X002504Y001742D01*
X002519Y001718D01*
X002530Y001693D01*
X002538Y001667D01*
X002542Y001640D01*
X002542Y001612D01*
X002538Y001585D01*
X002530Y001559D01*
X002519Y001534D01*
X002504Y001510D01*
X002487Y001489D01*
X002466Y001471D01*
X002444Y001455D01*
X002419Y001443D01*
X002393Y001435D01*
X002366Y001430D01*
X002338Y001429D01*
X002311Y001432D01*
X002284Y001439D01*
X002259Y001449D01*
X002235Y001463D01*
X002213Y001480D01*
X002194Y001499D01*
X002178Y001522D01*
X002165Y001546D01*
X002156Y001572D01*
X002150Y001599D01*
X002148Y001626D01*
X002148Y003358D02*
X002150Y003385D01*
X002156Y003412D01*
X002165Y003438D01*
X002178Y003462D01*
X002194Y003485D01*
X002213Y003504D01*
X002235Y003521D01*
X002259Y003535D01*
X002284Y003545D01*
X002311Y003552D01*
X002338Y003555D01*
X002366Y003554D01*
X002393Y003549D01*
X002419Y003541D01*
X002443Y003529D01*
X002466Y003513D01*
X002487Y003495D01*
X002504Y003474D01*
X002519Y003450D01*
X002530Y003425D01*
X002538Y003399D01*
X002542Y003372D01*
X002542Y003344D01*
X002538Y003317D01*
X002530Y003291D01*
X002519Y003266D01*
X002504Y003242D01*
X002487Y003221D01*
X002466Y003203D01*
X002444Y003187D01*
X002419Y003175D01*
X002393Y003167D01*
X002366Y003162D01*
X002338Y003161D01*
X002311Y003164D01*
X002284Y003171D01*
X002259Y003181D01*
X002235Y003195D01*
X002213Y003212D01*
X002194Y003231D01*
X002178Y003254D01*
X002165Y003278D01*
X002156Y003304D01*
X002150Y003331D01*
X002148Y003358D01*
D11*
G36*
X013062Y003693D02*
X012646Y003277D01*
X012508Y003415D01*
X012924Y003831D01*
X013062Y003693D01*
G37*
G36*
X013285Y003470D02*
X012869Y003054D01*
X012731Y003192D01*
X013147Y003608D01*
X013285Y003470D01*
G37*
G36*
X013508Y003248D02*
X013092Y002832D01*
X012954Y002970D01*
X013370Y003386D01*
X013508Y003248D01*
G37*
G36*
X013730Y003025D02*
X013314Y002609D01*
X013176Y002747D01*
X013592Y003163D01*
X013730Y003025D01*
G37*
G36*
X013953Y002802D02*
X013537Y002386D01*
X013399Y002524D01*
X013815Y002940D01*
X013953Y002802D01*
G37*
G36*
X014176Y002579D02*
X013760Y002163D01*
X013622Y002301D01*
X014038Y002717D01*
X014176Y002579D01*
G37*
G36*
X014398Y002357D02*
X013982Y001941D01*
X013844Y002079D01*
X014260Y002495D01*
X014398Y002357D01*
G37*
G36*
X014621Y002134D02*
X014205Y001718D01*
X014067Y001856D01*
X014483Y002272D01*
X014621Y002134D01*
G37*
G36*
X014844Y001911D02*
X014428Y001495D01*
X014290Y001633D01*
X014706Y002049D01*
X014844Y001911D01*
G37*
G36*
X015067Y001689D02*
X014651Y001273D01*
X014513Y001411D01*
X014929Y001827D01*
X015067Y001689D01*
G37*
G36*
X015289Y001466D02*
X014873Y001050D01*
X014735Y001188D01*
X015151Y001604D01*
X015289Y001466D01*
G37*
G36*
X018519Y004695D02*
X018103Y004279D01*
X017965Y004417D01*
X018381Y004833D01*
X018519Y004695D01*
G37*
G36*
X018296Y004918D02*
X017880Y004502D01*
X017742Y004640D01*
X018158Y005056D01*
X018296Y004918D01*
G37*
G36*
X018073Y005141D02*
X017657Y004725D01*
X017519Y004863D01*
X017935Y005279D01*
X018073Y005141D01*
G37*
G36*
X017850Y005363D02*
X017434Y004947D01*
X017296Y005085D01*
X017712Y005501D01*
X017850Y005363D01*
G37*
G36*
X017628Y005586D02*
X017212Y005170D01*
X017074Y005308D01*
X017490Y005724D01*
X017628Y005586D01*
G37*
G36*
X017405Y005809D02*
X016989Y005393D01*
X016851Y005531D01*
X017267Y005947D01*
X017405Y005809D01*
G37*
G36*
X017182Y006031D02*
X016766Y005615D01*
X016628Y005753D01*
X017044Y006169D01*
X017182Y006031D01*
G37*
G36*
X016960Y006254D02*
X016544Y005838D01*
X016406Y005976D01*
X016822Y006392D01*
X016960Y006254D01*
G37*
G36*
X016737Y006477D02*
X016321Y006061D01*
X016183Y006199D01*
X016599Y006615D01*
X016737Y006477D01*
G37*
G36*
X016514Y006700D02*
X016098Y006284D01*
X015960Y006422D01*
X016376Y006838D01*
X016514Y006700D01*
G37*
G36*
X016291Y006922D02*
X015875Y006506D01*
X015737Y006644D01*
X016153Y007060D01*
X016291Y006922D01*
G37*
D12*
G36*
X015289Y006644D02*
X015151Y006506D01*
X014735Y006922D01*
X014873Y007060D01*
X015289Y006644D01*
G37*
G36*
X015067Y006422D02*
X014929Y006284D01*
X014513Y006700D01*
X014651Y006838D01*
X015067Y006422D01*
G37*
G36*
X014844Y006199D02*
X014706Y006061D01*
X014290Y006477D01*
X014428Y006615D01*
X014844Y006199D01*
G37*
G36*
X014621Y005976D02*
X014483Y005838D01*
X014067Y006254D01*
X014205Y006392D01*
X014621Y005976D01*
G37*
G36*
X014398Y005753D02*
X014260Y005615D01*
X013844Y006031D01*
X013982Y006169D01*
X014398Y005753D01*
G37*
G36*
X014176Y005531D02*
X014038Y005393D01*
X013622Y005809D01*
X013760Y005947D01*
X014176Y005531D01*
G37*
G36*
X013953Y005308D02*
X013815Y005170D01*
X013399Y005586D01*
X013537Y005724D01*
X013953Y005308D01*
G37*
G36*
X013730Y005085D02*
X013592Y004947D01*
X013176Y005363D01*
X013314Y005501D01*
X013730Y005085D01*
G37*
G36*
X013508Y004863D02*
X013370Y004725D01*
X012954Y005141D01*
X013092Y005279D01*
X013508Y004863D01*
G37*
G36*
X013285Y004640D02*
X013147Y004502D01*
X012731Y004918D01*
X012869Y005056D01*
X013285Y004640D01*
G37*
G36*
X013062Y004417D02*
X012924Y004279D01*
X012508Y004695D01*
X012646Y004833D01*
X013062Y004417D01*
G37*
G36*
X017850Y002747D02*
X017712Y002609D01*
X017296Y003025D01*
X017434Y003163D01*
X017850Y002747D01*
G37*
G36*
X017628Y002524D02*
X017490Y002386D01*
X017074Y002802D01*
X017212Y002940D01*
X017628Y002524D01*
G37*
G36*
X017405Y002301D02*
X017267Y002163D01*
X016851Y002579D01*
X016989Y002717D01*
X017405Y002301D01*
G37*
G36*
X017182Y002079D02*
X017044Y001941D01*
X016628Y002357D01*
X016766Y002495D01*
X017182Y002079D01*
G37*
G36*
X016960Y001856D02*
X016822Y001718D01*
X016406Y002134D01*
X016544Y002272D01*
X016960Y001856D01*
G37*
G36*
X016737Y001633D02*
X016599Y001495D01*
X016183Y001911D01*
X016321Y002049D01*
X016737Y001633D01*
G37*
G36*
X016514Y001411D02*
X016376Y001273D01*
X015960Y001689D01*
X016098Y001827D01*
X016514Y001411D01*
G37*
G36*
X016291Y001188D02*
X016153Y001050D01*
X015737Y001466D01*
X015875Y001604D01*
X016291Y001188D01*
G37*
G36*
X018073Y002970D02*
X017935Y002832D01*
X017519Y003248D01*
X017657Y003386D01*
X018073Y002970D01*
G37*
G36*
X018296Y003192D02*
X018158Y003054D01*
X017742Y003470D01*
X017880Y003608D01*
X018296Y003192D01*
G37*
G36*
X018519Y003415D02*
X018381Y003277D01*
X017965Y003693D01*
X018103Y003831D01*
X018519Y003415D01*
G37*
D13*
X013351Y001682D03*
X012603Y001682D03*
X011856Y001712D03*
X011108Y001712D03*
X017803Y001062D03*
X018551Y001062D03*
X025133Y001032D03*
X025881Y001032D03*
X011966Y004757D03*
X011218Y004757D03*
X013463Y007107D03*
X014211Y007107D03*
X003576Y006992D03*
X002828Y006992D03*
X001826Y006992D03*
X001078Y006992D03*
D14*
X007147Y004831D03*
X007147Y004083D03*
X010452Y003993D03*
X010452Y004741D03*
X019202Y004366D03*
X019202Y003618D03*
D15*
X020953Y003367D03*
X021701Y003367D03*
X026078Y004742D03*
X026826Y004742D03*
X026826Y005742D03*
X026078Y005742D03*
X024826Y005742D03*
X024078Y005742D03*
X005826Y002752D03*
X005078Y002752D03*
X005078Y001832D03*
X005826Y001832D03*
D16*
X003330Y000760D03*
X001164Y000760D03*
X001164Y004224D03*
X003330Y004224D03*
D17*
X003552Y003122D03*
X003552Y002807D03*
X003552Y002492D03*
X003552Y002177D03*
X003552Y001862D03*
D18*
X019927Y001492D03*
X023727Y001492D03*
D19*
X011916Y003952D03*
X011207Y003952D03*
D20*
X006175Y004235D03*
X005265Y004235D03*
X004355Y004235D03*
D21*
X005265Y006875D03*
D22*
X025202Y003780D03*
X027014Y003780D03*
X027014Y002954D03*
X025202Y002954D03*
D23*
X024213Y003367D03*
D24*
X023190Y003800D03*
X023190Y002934D03*
M02*
