%
M48
M72
T01C0.0120
T02C0.0360
T03C0.0394
T04C0.0400
%
T01
X3562Y3472
X702Y4867
X5202Y4992
X9827Y5242
X12762Y4192
X12442Y3632
X11882Y3392
X14842Y2672
X15082Y2432
X15322Y2192
X15562Y1952
X16827Y1367
X15317Y912
X16327Y867
X13882Y1552
X13162Y912
X11802Y1232
X10602Y912
X11882Y2192
X16922Y3072
X17162Y3312
X17402Y3552
X17642Y3792
X18282Y3952
X17322Y4592
X15882Y4352
X14602Y4592
X18762Y5472
X18762Y5952
X19642Y6272
X20442Y6512
X22452Y6242
X27242Y7552
X27562Y7152
X27452Y8117
X21482Y8032
X12842Y6912
X11962Y6912
X11482Y7392
X19202Y2742
T02
X9322Y4337
X8322Y4337
X2077Y5617
X1077Y5617
X7312Y6737
X8312Y6737
X9312Y6737
T03
X2345Y1626
X2345Y3358
T04
X7902Y2232
X8902Y2232
X9902Y2232
X9902Y1232
X8902Y1232
X7902Y1232
X28812Y1712
X30592Y1712
X30592Y4272
X28812Y4272
X29202Y5742
X30202Y5742
X29952Y9242
X30952Y9242
X28952Y9242
X27952Y9242
X26952Y9242
X25952Y9242
X24952Y9242
X23952Y9242
X22952Y9242
X21952Y9242
X20952Y9242
X19952Y9242
X18952Y9242
X17952Y9242
X16952Y9242
X15952Y9242
X14952Y9242
X13952Y9242
X12952Y9242
X11952Y9242
X10952Y9242
X9952Y9242
X8952Y9242
X7952Y9242
X6952Y9242
X5952Y9242
X4952Y9242
X3952Y9242
X2952Y9242
X1952Y9242
X952Y9242
M30
