%
M48
M72
T01C0.0120
T02C0.0360
T03C0.0394
T04C0.0400
%
T01
X702Y4766
X3562Y3371
X5202Y4891
X9827Y5141
X11482Y7291
X11962Y6811
X12842Y6811
X14602Y4491
X15882Y4251
X17162Y3211
X17402Y3451
X17642Y3691
X18282Y3851
X17322Y4491
X16922Y2971
X16827Y1266
X16327Y766
X15317Y811
X15562Y1851
X15322Y2091
X15082Y2331
X14842Y2571
X13882Y1451
X13162Y811
X11802Y1131
X11882Y2091
X11882Y3291
X12442Y3531
X12762Y4091
X10602Y811
X16327Y10579
X16827Y11079
X15562Y11664
X15322Y11904
X15082Y12144
X14842Y12384
X13882Y11264
X13162Y10624
X11802Y10944
X11882Y11904
X11882Y13104
X12442Y13344
X12762Y13904
X14602Y14304
X15882Y14064
X17162Y13024
X17402Y13264
X17642Y13504
X18282Y13664
X17322Y14304
X16922Y12784
X15317Y10624
X18762Y15184
X18762Y15664
X19642Y15984
X20442Y16224
X21482Y17744
X22452Y15954
X19202Y12454
X21482Y7931
X20442Y6411
X19642Y6171
X18762Y5851
X18762Y5371
X19202Y2641
X22452Y6141
X27242Y7451
X27562Y7051
X27452Y8016
X27562Y16864
X27242Y17264
X27452Y17829
X22452Y25766
X21482Y27556
X20442Y26036
X19642Y25796
X18762Y25476
X18762Y24996
X18282Y23476
X17642Y23316
X17402Y23076
X17162Y22836
X16922Y22596
X17322Y24116
X15882Y23876
X14602Y24116
X12762Y23716
X12442Y23156
X11882Y22916
X11882Y21716
X11802Y20756
X10602Y20436
X13162Y20436
X13882Y21076
X14842Y22196
X15082Y21956
X15322Y21716
X15562Y21476
X15317Y20436
X16327Y20391
X16827Y20891
X19202Y22266
X12842Y26436
X11962Y26436
X11482Y26916
X9827Y24766
X5202Y24516
X3562Y22996
X702Y24391
X3562Y32809
X5202Y34329
X702Y34204
X9827Y34579
X11482Y36729
X11962Y36249
X12842Y36249
X14602Y33929
X15882Y33689
X17162Y32649
X17402Y32889
X17642Y33129
X18282Y33289
X17322Y33929
X16922Y32409
X16827Y30704
X16327Y30204
X15317Y30249
X15562Y31289
X15322Y31529
X15082Y31769
X14842Y32009
X13882Y30889
X13162Y30249
X11802Y30569
X11882Y31529
X11882Y32729
X12442Y32969
X12762Y33529
X10602Y30249
X18762Y34809
X18762Y35289
X19642Y35609
X20442Y35849
X21482Y37369
X22452Y35579
X19202Y32079
X27242Y36889
X27562Y36489
X27452Y37454
X27452Y27641
X27242Y27076
X27562Y26676
X12842Y16624
X11962Y16624
X11482Y17104
X9827Y14954
X10602Y10624
X5202Y14704
X3562Y13184
X702Y14579
T02
X1077Y15329
X2077Y15329
X7312Y16449
X8312Y16449
X9312Y16449
X9322Y14049
X8322Y14049
X8312Y6636
X9312Y6636
X9322Y4236
X8322Y4236
X7312Y6636
X2077Y5516
X1077Y5516
X8322Y23861
X9322Y23861
X9312Y26261
X8312Y26261
X7312Y26261
X2077Y25141
X1077Y25141
X8322Y33674
X9322Y33674
X9312Y36074
X8312Y36074
X7312Y36074
X2077Y34954
X1077Y34954
T03
X2345Y1525
X2345Y3257
X2345Y11337
X2345Y13070
X2345Y21150
X2345Y22882
X2345Y30962
X2345Y32695
T04
X1952Y28766
X2952Y28766
X3952Y28766
X4952Y28766
X5952Y28766
X6952Y28766
X7952Y28766
X8952Y28766
X9952Y28766
X10952Y28766
X11952Y28766
X12952Y28766
X13952Y28766
X14952Y28766
X15952Y28766
X16952Y28766
X17952Y28766
X18952Y28766
X19952Y28766
X20952Y28766
X21952Y28766
X22952Y28766
X23952Y28766
X24952Y28766
X25952Y28766
X26952Y28766
X27952Y28766
X28952Y28766
X29952Y28766
X30952Y28766
X30592Y31049
X28812Y31049
X28812Y33609
X29202Y35079
X30202Y35079
X30592Y33609
X30952Y38579
X29952Y38579
X28952Y38579
X27952Y38579
X26952Y38579
X25952Y38579
X24952Y38579
X23952Y38579
X22952Y38579
X21952Y38579
X20952Y38579
X19952Y38579
X18952Y38579
X17952Y38579
X16952Y38579
X15952Y38579
X14952Y38579
X13952Y38579
X12952Y38579
X11952Y38579
X10952Y38579
X9952Y38579
X8952Y38579
X7952Y38579
X6952Y38579
X5952Y38579
X4952Y38579
X3952Y38579
X2952Y38579
X1952Y38579
X952Y38579
X7902Y31569
X7902Y30569
X8902Y30569
X8902Y31569
X9902Y31569
X9902Y30569
X9902Y21756
X9902Y20756
X8902Y20756
X8902Y21756
X7902Y21756
X7902Y20756
X7952Y18954
X6952Y18954
X5952Y18954
X4952Y18954
X3952Y18954
X2952Y18954
X1952Y18954
X952Y18954
X7902Y11944
X8902Y11944
X8902Y10944
X7902Y10944
X7952Y9141
X6952Y9141
X5952Y9141
X4952Y9141
X3952Y9141
X2952Y9141
X1952Y9141
X952Y9141
X7902Y2131
X8902Y2131
X8902Y1131
X7902Y1131
X9902Y1131
X9902Y2131
X9952Y9141
X10952Y9141
X11952Y9141
X12952Y9141
X13952Y9141
X14952Y9141
X15952Y9141
X16952Y9141
X17952Y9141
X18952Y9141
X19952Y9141
X20952Y9141
X21952Y9141
X22952Y9141
X23952Y9141
X24952Y9141
X25952Y9141
X26952Y9141
X27952Y9141
X28952Y9141
X29952Y9141
X30952Y9141
X30592Y11424
X28812Y11424
X28812Y13984
X29202Y15454
X30202Y15454
X30592Y13984
X30952Y18954
X29952Y18954
X28952Y18954
X27952Y18954
X26952Y18954
X25952Y18954
X24952Y18954
X23952Y18954
X22952Y18954
X21952Y18954
X20952Y18954
X19952Y18954
X18952Y18954
X17952Y18954
X16952Y18954
X15952Y18954
X14952Y18954
X13952Y18954
X12952Y18954
X11952Y18954
X10952Y18954
X9952Y18954
X8952Y18954
X9902Y11944
X9902Y10944
X8952Y9141
X952Y28766
X28812Y23796
X29202Y25266
X30202Y25266
X30592Y23796
X30592Y21236
X28812Y21236
X29202Y5641
X30202Y5641
X30592Y4171
X28812Y4171
X28812Y1611
X30592Y1611
M30
