G75*
G70*
%OFA0B0*%
%FSLAX24Y24*%
%IPPOS*%
%LPD*%
%AMOC8*
5,1,8,0,0,1.08239X$1,22.5*
%
%ADD10C,0.0040*%
%ADD11C,0.0080*%
%ADD12C,0.0060*%
%ADD13C,0.0030*%
%ADD14C,0.0000*%
D10*
X004908Y001161D02*
X005215Y001161D01*
X005062Y001161D02*
X005062Y001621D01*
X005215Y001468D01*
X005829Y001468D02*
X005982Y001161D01*
X006136Y001468D01*
X006289Y001391D02*
X006289Y001315D01*
X006596Y001315D01*
X006596Y001391D02*
X006520Y001468D01*
X006366Y001468D01*
X006289Y001391D01*
X006366Y001161D02*
X006520Y001161D01*
X006596Y001238D01*
X006596Y001391D01*
X006750Y001391D02*
X006826Y001315D01*
X007057Y001315D01*
X006903Y001315D02*
X006750Y001161D01*
X006750Y001391D02*
X006750Y001545D01*
X006826Y001621D01*
X007057Y001621D01*
X007057Y001161D01*
X006942Y007556D02*
X006942Y007736D01*
X007002Y007796D01*
X007122Y007796D01*
X007182Y007736D01*
X007182Y007556D01*
X006822Y007556D01*
X006822Y007924D02*
X007182Y007924D01*
X007182Y008165D01*
X007062Y008293D02*
X007182Y008413D01*
X006822Y008413D01*
X006822Y008293D02*
X006822Y008533D01*
X007002Y008045D02*
X007002Y007924D01*
X006182Y007924D02*
X006182Y008165D01*
X006122Y008293D02*
X006182Y008353D01*
X006182Y008473D01*
X006122Y008533D01*
X005882Y008293D01*
X005822Y008353D01*
X005822Y008473D01*
X005882Y008533D01*
X006122Y008533D01*
X006122Y008293D02*
X005882Y008293D01*
X006002Y008045D02*
X006002Y007924D01*
X006002Y007796D02*
X005942Y007736D01*
X005942Y007556D01*
X005822Y007556D02*
X006182Y007556D01*
X006182Y007736D01*
X006122Y007796D01*
X006002Y007796D01*
X005822Y007924D02*
X006182Y007924D01*
X005182Y007924D02*
X004822Y007924D01*
X004822Y008165D01*
X004822Y008293D02*
X005182Y008293D01*
X005182Y008533D01*
X005002Y008413D02*
X005002Y008293D01*
X005182Y008165D02*
X005182Y007924D01*
X005122Y007796D02*
X005002Y007796D01*
X004942Y007736D01*
X004942Y007556D01*
X004942Y007676D02*
X004822Y007796D01*
X005002Y007924D02*
X005002Y008045D01*
X005122Y007796D02*
X005182Y007736D01*
X005182Y007556D01*
X004822Y007556D01*
X004182Y007556D02*
X004182Y007736D01*
X004122Y007796D01*
X004002Y007796D01*
X003942Y007736D01*
X003942Y007556D01*
X003942Y007676D02*
X003822Y007796D01*
X003822Y007924D02*
X003822Y008165D01*
X003882Y008293D02*
X003822Y008353D01*
X003822Y008473D01*
X003882Y008533D01*
X003942Y008533D01*
X004002Y008473D01*
X004002Y008353D01*
X004062Y008293D01*
X004122Y008293D01*
X004182Y008353D01*
X004182Y008473D01*
X004122Y008533D01*
X004182Y008165D02*
X004182Y007924D01*
X003822Y007924D01*
X004002Y007924D02*
X004002Y008045D01*
X003822Y007556D02*
X004182Y007556D01*
X003182Y007800D02*
X003182Y007920D01*
X003122Y007981D01*
X003062Y007981D01*
X003002Y007920D01*
X002942Y007981D01*
X002882Y007981D01*
X002822Y007920D01*
X002822Y007800D01*
X002882Y007740D01*
X003002Y007860D02*
X003002Y007920D01*
X003122Y007740D02*
X003182Y007800D01*
X003002Y007612D02*
X003002Y007372D01*
X003122Y007492D02*
X002882Y007492D01*
X002882Y008109D02*
X002822Y008109D01*
X002822Y008169D01*
X002882Y008169D01*
X002882Y008109D01*
X002882Y008293D02*
X002822Y008353D01*
X002822Y008473D01*
X002882Y008533D01*
X002942Y008533D01*
X003002Y008473D01*
X003002Y008413D01*
X003002Y008473D02*
X003062Y008533D01*
X003122Y008533D01*
X003182Y008473D01*
X003182Y008353D01*
X003122Y008293D01*
X002182Y008293D02*
X002002Y008293D01*
X002062Y008413D01*
X002062Y008473D01*
X002002Y008533D01*
X001882Y008533D01*
X001822Y008473D01*
X001822Y008353D01*
X001882Y008293D01*
X002002Y008165D02*
X002002Y007924D01*
X002122Y008045D02*
X001882Y008045D01*
X002182Y008293D02*
X002182Y008533D01*
X001182Y008473D02*
X001182Y008293D01*
X000822Y008293D01*
X000822Y008473D01*
X000882Y008533D01*
X001122Y008533D01*
X001182Y008473D01*
X001182Y008165D02*
X000822Y008165D01*
X001182Y007924D01*
X000822Y007924D01*
X000882Y007796D02*
X001002Y007796D01*
X001002Y007676D01*
X001122Y007556D02*
X000882Y007556D01*
X000822Y007616D01*
X000822Y007736D01*
X000882Y007796D01*
X001122Y007796D02*
X001182Y007736D01*
X001182Y007616D01*
X001122Y007556D01*
X004908Y010974D02*
X005215Y010974D01*
X005062Y010974D02*
X005062Y011434D01*
X005215Y011281D01*
X005829Y011281D02*
X005982Y010974D01*
X006136Y011281D01*
X006289Y011204D02*
X006289Y011127D01*
X006596Y011127D01*
X006596Y011050D02*
X006596Y011204D01*
X006520Y011281D01*
X006366Y011281D01*
X006289Y011204D01*
X006366Y010974D02*
X006520Y010974D01*
X006596Y011050D01*
X006750Y010974D02*
X006903Y011127D01*
X006826Y011127D02*
X007057Y011127D01*
X007057Y010974D02*
X007057Y011434D01*
X006826Y011434D01*
X006750Y011357D01*
X006750Y011204D01*
X006826Y011127D01*
X007822Y008473D02*
X008182Y008473D01*
X008002Y008293D01*
X008002Y008533D01*
X008182Y008165D02*
X008182Y007924D01*
X007822Y007924D01*
X008002Y007924D02*
X008002Y008045D01*
X008002Y007796D02*
X007942Y007736D01*
X007942Y007556D01*
X007822Y007556D02*
X008182Y007556D01*
X008182Y007736D01*
X008122Y007796D01*
X008002Y007796D01*
X008822Y007924D02*
X009182Y007924D01*
X009182Y008165D01*
X009182Y008293D02*
X009002Y008293D01*
X009062Y008413D01*
X009062Y008473D01*
X009002Y008533D01*
X008882Y008533D01*
X008822Y008473D01*
X008822Y008353D01*
X008882Y008293D01*
X009002Y008045D02*
X009002Y007924D01*
X009002Y007796D02*
X008942Y007736D01*
X008942Y007556D01*
X008822Y007556D02*
X009182Y007556D01*
X009182Y007736D01*
X009122Y007796D01*
X009002Y007796D01*
X009182Y008293D02*
X009182Y008533D01*
X009822Y008473D02*
X009882Y008533D01*
X009942Y008533D01*
X010002Y008473D01*
X010002Y008293D01*
X009882Y008293D01*
X009822Y008353D01*
X009822Y008473D01*
X010002Y008293D02*
X010122Y008413D01*
X010182Y008533D01*
X010182Y008165D02*
X010182Y007924D01*
X009822Y007924D01*
X010002Y007924D02*
X010002Y008045D01*
X010002Y007796D02*
X009942Y007736D01*
X009942Y007556D01*
X009822Y007556D02*
X010182Y007556D01*
X010182Y007736D01*
X010122Y007796D01*
X010002Y007796D01*
X010822Y007924D02*
X011182Y007924D01*
X011182Y008165D01*
X011182Y008293D02*
X011182Y008533D01*
X011122Y008533D01*
X010882Y008293D01*
X010822Y008293D01*
X011002Y008045D02*
X011002Y007924D01*
X011002Y007796D02*
X010942Y007736D01*
X010942Y007556D01*
X010822Y007556D02*
X011182Y007556D01*
X011182Y007736D01*
X011122Y007796D01*
X011002Y007796D01*
X011822Y007924D02*
X011822Y008165D01*
X011822Y008293D02*
X012062Y008533D01*
X012122Y008533D01*
X012182Y008473D01*
X012182Y008353D01*
X012122Y008293D01*
X012182Y008165D02*
X012182Y007924D01*
X011822Y007924D01*
X012002Y007924D02*
X012002Y008045D01*
X012002Y007796D02*
X011942Y007736D01*
X011942Y007556D01*
X011822Y007556D02*
X012182Y007556D01*
X012182Y007736D01*
X012122Y007796D01*
X012002Y007796D01*
X011822Y008293D02*
X011822Y008533D01*
X012822Y008473D02*
X012882Y008533D01*
X012942Y008533D01*
X013002Y008473D01*
X013002Y008293D01*
X012882Y008293D01*
X012822Y008353D01*
X012822Y008473D01*
X013002Y008293D02*
X013122Y008413D01*
X013182Y008533D01*
X013182Y008165D02*
X013182Y007924D01*
X012822Y007924D01*
X012822Y008165D01*
X013002Y008045D02*
X013002Y007924D01*
X013002Y007796D02*
X012942Y007736D01*
X012942Y007556D01*
X012822Y007556D02*
X013182Y007556D01*
X013182Y007736D01*
X013122Y007796D01*
X013002Y007796D01*
X013822Y007924D02*
X013822Y008105D01*
X013882Y008165D01*
X014122Y008165D01*
X014182Y008105D01*
X014182Y007924D01*
X013822Y007924D01*
X014002Y007796D02*
X013942Y007736D01*
X013942Y007556D01*
X013822Y007556D02*
X014182Y007556D01*
X014182Y007736D01*
X014122Y007796D01*
X014002Y007796D01*
X013882Y008293D02*
X014122Y008293D01*
X014182Y008353D01*
X014182Y008473D01*
X014122Y008533D01*
X013882Y008293D01*
X013822Y008353D01*
X013822Y008473D01*
X013882Y008533D01*
X014122Y008533D01*
X014822Y008533D02*
X014822Y008293D01*
X014822Y008413D02*
X015182Y008413D01*
X015062Y008293D01*
X015122Y008165D02*
X015182Y008105D01*
X015182Y007924D01*
X014822Y007924D01*
X014822Y008105D01*
X014882Y008165D01*
X015122Y008165D01*
X015122Y007796D02*
X015002Y007796D01*
X014942Y007736D01*
X014942Y007556D01*
X014822Y007556D02*
X015182Y007556D01*
X015182Y007736D01*
X015122Y007796D01*
X015822Y007924D02*
X015822Y008105D01*
X015882Y008165D01*
X016122Y008165D01*
X016182Y008105D01*
X016182Y007924D01*
X015822Y007924D01*
X016002Y007796D02*
X015942Y007736D01*
X015942Y007556D01*
X015822Y007556D02*
X016182Y007556D01*
X016182Y007736D01*
X016122Y007796D01*
X016002Y007796D01*
X016122Y008293D02*
X016182Y008353D01*
X016182Y008473D01*
X016122Y008533D01*
X016062Y008533D01*
X015822Y008293D01*
X015822Y008533D01*
X016822Y008473D02*
X016822Y008353D01*
X016882Y008293D01*
X016882Y008165D02*
X017122Y008165D01*
X017182Y008105D01*
X017182Y007924D01*
X016822Y007924D01*
X016822Y008105D01*
X016882Y008165D01*
X017122Y008293D02*
X017182Y008353D01*
X017182Y008473D01*
X017122Y008533D01*
X017062Y008533D01*
X017002Y008473D01*
X016942Y008533D01*
X016882Y008533D01*
X016822Y008473D01*
X017002Y008473D02*
X017002Y008413D01*
X017002Y007796D02*
X016942Y007736D01*
X016942Y007556D01*
X016822Y007556D02*
X017182Y007556D01*
X017182Y007736D01*
X017122Y007796D01*
X017002Y007796D01*
X017822Y007924D02*
X017822Y008105D01*
X017882Y008165D01*
X018122Y008165D01*
X018182Y008105D01*
X018182Y007924D01*
X017822Y007924D01*
X018002Y007796D02*
X017942Y007736D01*
X017942Y007556D01*
X017822Y007556D02*
X018182Y007556D01*
X018182Y007736D01*
X018122Y007796D01*
X018002Y007796D01*
X018002Y008293D02*
X018002Y008533D01*
X018182Y008473D02*
X018002Y008293D01*
X017822Y008473D02*
X018182Y008473D01*
X018822Y008473D02*
X018822Y008353D01*
X018882Y008293D01*
X019002Y008293D02*
X019062Y008413D01*
X019062Y008473D01*
X019002Y008533D01*
X018882Y008533D01*
X018822Y008473D01*
X019002Y008293D02*
X019182Y008293D01*
X019182Y008533D01*
X019122Y008165D02*
X019182Y008105D01*
X019182Y007924D01*
X018822Y007924D01*
X018822Y008105D01*
X018882Y008165D01*
X019122Y008165D01*
X019122Y007796D02*
X019002Y007796D01*
X018942Y007736D01*
X018942Y007556D01*
X018822Y007556D02*
X019182Y007556D01*
X019182Y007736D01*
X019122Y007796D01*
X019822Y007924D02*
X019822Y008105D01*
X019882Y008165D01*
X020122Y008165D01*
X020182Y008105D01*
X020182Y007924D01*
X019822Y007924D01*
X020002Y007796D02*
X019942Y007736D01*
X019942Y007556D01*
X019822Y007556D02*
X020182Y007556D01*
X020182Y007736D01*
X020122Y007796D01*
X020002Y007796D01*
X020002Y008293D02*
X020002Y008473D01*
X019942Y008533D01*
X019882Y008533D01*
X019822Y008473D01*
X019822Y008353D01*
X019882Y008293D01*
X020002Y008293D01*
X020122Y008413D01*
X020182Y008533D01*
X020822Y008293D02*
X020882Y008293D01*
X021122Y008533D01*
X021182Y008533D01*
X021182Y008293D01*
X021122Y008165D02*
X021182Y008105D01*
X021182Y007924D01*
X020822Y007924D01*
X020822Y008105D01*
X020882Y008165D01*
X021122Y008165D01*
X021122Y007796D02*
X021002Y007796D01*
X020942Y007736D01*
X020942Y007556D01*
X020822Y007556D02*
X021182Y007556D01*
X021182Y007736D01*
X021122Y007796D01*
X021822Y007985D02*
X021822Y008105D01*
X021882Y008165D01*
X021882Y008293D02*
X021822Y008353D01*
X021822Y008473D01*
X021882Y008533D01*
X021942Y008533D01*
X022002Y008473D01*
X022002Y008293D01*
X021882Y008293D01*
X022002Y008293D02*
X022122Y008413D01*
X022182Y008533D01*
X022122Y008165D02*
X022182Y008105D01*
X022182Y007985D01*
X022122Y007924D01*
X021882Y007924D01*
X021822Y007985D01*
X022002Y007796D02*
X021942Y007736D01*
X021942Y007556D01*
X021822Y007556D02*
X022182Y007556D01*
X022182Y007736D01*
X022122Y007796D01*
X022002Y007796D01*
X022822Y007985D02*
X022822Y008105D01*
X022882Y008165D01*
X022882Y008293D02*
X022822Y008293D01*
X022882Y008293D02*
X023122Y008533D01*
X023182Y008533D01*
X023182Y008293D01*
X023122Y008165D02*
X023182Y008105D01*
X023182Y007985D01*
X023122Y007924D01*
X022882Y007924D01*
X022822Y007985D01*
X023002Y007796D02*
X022942Y007736D01*
X022942Y007556D01*
X022822Y007556D02*
X023182Y007556D01*
X023182Y007736D01*
X023122Y007796D01*
X023002Y007796D01*
X023822Y007924D02*
X023822Y008105D01*
X023882Y008165D01*
X023942Y008165D01*
X024002Y008105D01*
X024002Y007924D01*
X024002Y007796D02*
X023942Y007736D01*
X023942Y007556D01*
X023822Y007556D02*
X024182Y007556D01*
X024182Y007736D01*
X024122Y007796D01*
X024002Y007796D01*
X024182Y007924D02*
X024182Y008105D01*
X024122Y008165D01*
X024062Y008165D01*
X024002Y008105D01*
X023882Y008293D02*
X024122Y008293D01*
X024182Y008353D01*
X024182Y008473D01*
X024122Y008533D01*
X023882Y008293D01*
X023822Y008353D01*
X023822Y008473D01*
X023882Y008533D01*
X024122Y008533D01*
X024182Y007924D02*
X023822Y007924D01*
X024822Y007924D02*
X024822Y008105D01*
X024882Y008165D01*
X024942Y008165D01*
X025002Y008105D01*
X025002Y007924D01*
X025002Y007796D02*
X024942Y007736D01*
X024942Y007556D01*
X024822Y007556D02*
X025182Y007556D01*
X025182Y007736D01*
X025122Y007796D01*
X025002Y007796D01*
X024822Y007924D02*
X025182Y007924D01*
X025182Y008105D01*
X025122Y008165D01*
X025062Y008165D01*
X025002Y008105D01*
X025062Y008293D02*
X025182Y008413D01*
X024822Y008413D01*
X024822Y008293D02*
X024822Y008533D01*
X025822Y008533D02*
X025822Y008293D01*
X026062Y008533D01*
X026122Y008533D01*
X026182Y008473D01*
X026182Y008353D01*
X026122Y008293D01*
X026122Y008165D02*
X026062Y008165D01*
X026002Y008105D01*
X026002Y007924D01*
X026002Y007796D02*
X025942Y007736D01*
X025942Y007556D01*
X025822Y007556D02*
X026182Y007556D01*
X026182Y007736D01*
X026122Y007796D01*
X026002Y007796D01*
X025822Y007924D02*
X026182Y007924D01*
X026182Y008105D01*
X026122Y008165D01*
X026002Y008105D02*
X025942Y008165D01*
X025882Y008165D01*
X025822Y008105D01*
X025822Y007924D01*
X026822Y007924D02*
X026822Y008105D01*
X026882Y008165D01*
X026942Y008165D01*
X027002Y008105D01*
X027002Y007924D01*
X027002Y007796D02*
X026942Y007736D01*
X026942Y007556D01*
X026822Y007556D02*
X027182Y007556D01*
X027182Y007736D01*
X027122Y007796D01*
X027002Y007796D01*
X026822Y007924D02*
X027182Y007924D01*
X027182Y008105D01*
X027122Y008165D01*
X027062Y008165D01*
X027002Y008105D01*
X027122Y008293D02*
X027182Y008353D01*
X027182Y008473D01*
X027122Y008533D01*
X027062Y008533D01*
X027002Y008473D01*
X026942Y008533D01*
X026882Y008533D01*
X026822Y008473D01*
X026822Y008353D01*
X026882Y008293D01*
X027002Y008413D02*
X027002Y008473D01*
X027822Y008473D02*
X028182Y008473D01*
X028002Y008293D01*
X028002Y008533D01*
X028062Y008165D02*
X028002Y008105D01*
X028002Y007924D01*
X028002Y007796D02*
X027942Y007736D01*
X027942Y007556D01*
X027822Y007556D02*
X028182Y007556D01*
X028182Y007736D01*
X028122Y007796D01*
X028002Y007796D01*
X027822Y007924D02*
X028182Y007924D01*
X028182Y008105D01*
X028122Y008165D01*
X028062Y008165D01*
X028002Y008105D02*
X027942Y008165D01*
X027882Y008165D01*
X027822Y008105D01*
X027822Y007924D01*
X028822Y007924D02*
X028822Y008105D01*
X028882Y008165D01*
X028942Y008165D01*
X029002Y008105D01*
X029002Y007924D01*
X029002Y007796D02*
X028942Y007736D01*
X028942Y007556D01*
X028822Y007556D02*
X029182Y007556D01*
X029182Y007736D01*
X029122Y007796D01*
X029002Y007796D01*
X029182Y007924D02*
X029182Y008105D01*
X029122Y008165D01*
X029062Y008165D01*
X029002Y008105D01*
X029002Y008293D02*
X029062Y008413D01*
X029062Y008473D01*
X029002Y008533D01*
X028882Y008533D01*
X028822Y008473D01*
X028822Y008353D01*
X028882Y008293D01*
X029002Y008293D02*
X029182Y008293D01*
X029182Y008533D01*
X029182Y007924D02*
X028822Y007924D01*
X029822Y007924D02*
X029822Y008105D01*
X029882Y008165D01*
X029942Y008165D01*
X030002Y008105D01*
X030002Y007924D01*
X030002Y007796D02*
X029942Y007736D01*
X029942Y007556D01*
X029822Y007556D02*
X030182Y007556D01*
X030182Y007736D01*
X030122Y007796D01*
X030002Y007796D01*
X030182Y007924D02*
X030182Y008105D01*
X030122Y008165D01*
X030062Y008165D01*
X030002Y008105D01*
X030002Y008293D02*
X029882Y008293D01*
X029822Y008353D01*
X029822Y008473D01*
X029882Y008533D01*
X029942Y008533D01*
X030002Y008473D01*
X030002Y008293D01*
X030122Y008413D01*
X030182Y008533D01*
X030182Y007924D02*
X029822Y007924D01*
X030822Y007924D02*
X030822Y008105D01*
X030882Y008165D01*
X030942Y008165D01*
X031002Y008105D01*
X031002Y007924D01*
X031002Y007796D02*
X030942Y007736D01*
X030942Y007556D01*
X030822Y007556D02*
X031182Y007556D01*
X031182Y007736D01*
X031122Y007796D01*
X031002Y007796D01*
X031182Y007924D02*
X031182Y008105D01*
X031122Y008165D01*
X031062Y008165D01*
X031002Y008105D01*
X030882Y008293D02*
X030822Y008293D01*
X030882Y008293D02*
X031122Y008533D01*
X031182Y008533D01*
X031182Y008293D01*
X031182Y007924D02*
X030822Y007924D01*
X030822Y017369D02*
X031182Y017369D01*
X031182Y017549D01*
X031122Y017609D01*
X031002Y017609D01*
X030942Y017549D01*
X030942Y017369D01*
X031002Y017737D02*
X031002Y017917D01*
X030942Y017977D01*
X030882Y017977D01*
X030822Y017917D01*
X030822Y017737D01*
X031182Y017737D01*
X031182Y017917D01*
X031122Y017977D01*
X031062Y017977D01*
X031002Y017917D01*
X030882Y018105D02*
X031122Y018346D01*
X031182Y018346D01*
X031182Y018105D01*
X030882Y018105D02*
X030822Y018105D01*
X030182Y017917D02*
X030182Y017737D01*
X029822Y017737D01*
X029822Y017917D01*
X029882Y017977D01*
X029942Y017977D01*
X030002Y017917D01*
X030002Y017737D01*
X030002Y017609D02*
X029942Y017549D01*
X029942Y017369D01*
X029822Y017369D02*
X030182Y017369D01*
X030182Y017549D01*
X030122Y017609D01*
X030002Y017609D01*
X030002Y017917D02*
X030062Y017977D01*
X030122Y017977D01*
X030182Y017917D01*
X030002Y018105D02*
X030002Y018285D01*
X029942Y018346D01*
X029882Y018346D01*
X029822Y018285D01*
X029822Y018165D01*
X029882Y018105D01*
X030002Y018105D01*
X030122Y018225D01*
X030182Y018346D01*
X029182Y018346D02*
X029182Y018105D01*
X029002Y018105D01*
X029062Y018225D01*
X029062Y018285D01*
X029002Y018346D01*
X028882Y018346D01*
X028822Y018285D01*
X028822Y018165D01*
X028882Y018105D01*
X028882Y017977D02*
X028822Y017917D01*
X028822Y017737D01*
X029182Y017737D01*
X029182Y017917D01*
X029122Y017977D01*
X029062Y017977D01*
X029002Y017917D01*
X029002Y017737D01*
X029002Y017609D02*
X028942Y017549D01*
X028942Y017369D01*
X028822Y017369D02*
X029182Y017369D01*
X029182Y017549D01*
X029122Y017609D01*
X029002Y017609D01*
X029002Y017917D02*
X028942Y017977D01*
X028882Y017977D01*
X028182Y017917D02*
X028182Y017737D01*
X027822Y017737D01*
X027822Y017917D01*
X027882Y017977D01*
X027942Y017977D01*
X028002Y017917D01*
X028002Y017737D01*
X028002Y017609D02*
X027942Y017549D01*
X027942Y017369D01*
X027822Y017369D02*
X028182Y017369D01*
X028182Y017549D01*
X028122Y017609D01*
X028002Y017609D01*
X028002Y017917D02*
X028062Y017977D01*
X028122Y017977D01*
X028182Y017917D01*
X028002Y018105D02*
X028182Y018285D01*
X027822Y018285D01*
X028002Y018346D02*
X028002Y018105D01*
X027182Y018165D02*
X027182Y018285D01*
X027122Y018346D01*
X027062Y018346D01*
X027002Y018285D01*
X026942Y018346D01*
X026882Y018346D01*
X026822Y018285D01*
X026822Y018165D01*
X026882Y018105D01*
X026882Y017977D02*
X026822Y017917D01*
X026822Y017737D01*
X027182Y017737D01*
X027182Y017917D01*
X027122Y017977D01*
X027062Y017977D01*
X027002Y017917D01*
X027002Y017737D01*
X027002Y017609D02*
X026942Y017549D01*
X026942Y017369D01*
X026822Y017369D02*
X027182Y017369D01*
X027182Y017549D01*
X027122Y017609D01*
X027002Y017609D01*
X027002Y017917D02*
X026942Y017977D01*
X026882Y017977D01*
X027122Y018105D02*
X027182Y018165D01*
X027002Y018225D02*
X027002Y018285D01*
X026182Y018285D02*
X026182Y018165D01*
X026122Y018105D01*
X026122Y017977D02*
X026062Y017977D01*
X026002Y017917D01*
X026002Y017737D01*
X026002Y017609D02*
X025942Y017549D01*
X025942Y017369D01*
X025822Y017369D02*
X026182Y017369D01*
X026182Y017549D01*
X026122Y017609D01*
X026002Y017609D01*
X025822Y017737D02*
X026182Y017737D01*
X026182Y017917D01*
X026122Y017977D01*
X026002Y017917D02*
X025942Y017977D01*
X025882Y017977D01*
X025822Y017917D01*
X025822Y017737D01*
X025822Y018105D02*
X026062Y018346D01*
X026122Y018346D01*
X026182Y018285D01*
X025822Y018346D02*
X025822Y018105D01*
X025182Y018225D02*
X024822Y018225D01*
X024822Y018105D02*
X024822Y018346D01*
X025062Y018105D02*
X025182Y018225D01*
X025122Y017977D02*
X025182Y017917D01*
X025182Y017737D01*
X024822Y017737D01*
X024822Y017917D01*
X024882Y017977D01*
X024942Y017977D01*
X025002Y017917D01*
X025002Y017737D01*
X025002Y017609D02*
X024942Y017549D01*
X024942Y017369D01*
X024822Y017369D02*
X025182Y017369D01*
X025182Y017549D01*
X025122Y017609D01*
X025002Y017609D01*
X025002Y017917D02*
X025062Y017977D01*
X025122Y017977D01*
X024182Y017917D02*
X024182Y017737D01*
X023822Y017737D01*
X023822Y017917D01*
X023882Y017977D01*
X023942Y017977D01*
X024002Y017917D01*
X024002Y017737D01*
X024002Y017609D02*
X023942Y017549D01*
X023942Y017369D01*
X023822Y017369D02*
X024182Y017369D01*
X024182Y017549D01*
X024122Y017609D01*
X024002Y017609D01*
X024002Y017917D02*
X024062Y017977D01*
X024122Y017977D01*
X024182Y017917D01*
X024122Y018105D02*
X024182Y018165D01*
X024182Y018285D01*
X024122Y018346D01*
X023882Y018105D01*
X023822Y018165D01*
X023822Y018285D01*
X023882Y018346D01*
X024122Y018346D01*
X024122Y018105D02*
X023882Y018105D01*
X023182Y018105D02*
X023182Y018346D01*
X023122Y018346D01*
X022882Y018105D01*
X022822Y018105D01*
X022882Y017977D02*
X022822Y017917D01*
X022822Y017797D01*
X022882Y017737D01*
X023122Y017737D01*
X023182Y017797D01*
X023182Y017917D01*
X023122Y017977D01*
X023122Y017609D02*
X023002Y017609D01*
X022942Y017549D01*
X022942Y017369D01*
X022822Y017369D02*
X023182Y017369D01*
X023182Y017549D01*
X023122Y017609D01*
X022182Y017549D02*
X022182Y017369D01*
X021822Y017369D01*
X021942Y017369D02*
X021942Y017549D01*
X022002Y017609D01*
X022122Y017609D01*
X022182Y017549D01*
X022122Y017737D02*
X021882Y017737D01*
X021822Y017797D01*
X021822Y017917D01*
X021882Y017977D01*
X021882Y018105D02*
X021822Y018165D01*
X021822Y018285D01*
X021882Y018346D01*
X021942Y018346D01*
X022002Y018285D01*
X022002Y018105D01*
X021882Y018105D01*
X022002Y018105D02*
X022122Y018225D01*
X022182Y018346D01*
X022122Y017977D02*
X022182Y017917D01*
X022182Y017797D01*
X022122Y017737D01*
X021182Y017737D02*
X021182Y017917D01*
X021122Y017977D01*
X020882Y017977D01*
X020822Y017917D01*
X020822Y017737D01*
X021182Y017737D01*
X021122Y017609D02*
X021002Y017609D01*
X020942Y017549D01*
X020942Y017369D01*
X020822Y017369D02*
X021182Y017369D01*
X021182Y017549D01*
X021122Y017609D01*
X021182Y018105D02*
X021182Y018346D01*
X021122Y018346D01*
X020882Y018105D01*
X020822Y018105D01*
X020182Y017917D02*
X020182Y017737D01*
X019822Y017737D01*
X019822Y017917D01*
X019882Y017977D01*
X020122Y017977D01*
X020182Y017917D01*
X020002Y018105D02*
X020122Y018225D01*
X020182Y018346D01*
X020002Y018285D02*
X020002Y018105D01*
X019882Y018105D01*
X019822Y018165D01*
X019822Y018285D01*
X019882Y018346D01*
X019942Y018346D01*
X020002Y018285D01*
X020002Y017609D02*
X019942Y017549D01*
X019942Y017369D01*
X019822Y017369D02*
X020182Y017369D01*
X020182Y017549D01*
X020122Y017609D01*
X020002Y017609D01*
X019182Y017549D02*
X019182Y017369D01*
X018822Y017369D01*
X018942Y017369D02*
X018942Y017549D01*
X019002Y017609D01*
X019122Y017609D01*
X019182Y017549D01*
X019182Y017737D02*
X019182Y017917D01*
X019122Y017977D01*
X018882Y017977D01*
X018822Y017917D01*
X018822Y017737D01*
X019182Y017737D01*
X019182Y018105D02*
X019002Y018105D01*
X019062Y018225D01*
X019062Y018285D01*
X019002Y018346D01*
X018882Y018346D01*
X018822Y018285D01*
X018822Y018165D01*
X018882Y018105D01*
X019182Y018105D02*
X019182Y018346D01*
X018182Y018285D02*
X018002Y018105D01*
X018002Y018346D01*
X017822Y018285D02*
X018182Y018285D01*
X018122Y017977D02*
X018182Y017917D01*
X018182Y017737D01*
X017822Y017737D01*
X017822Y017917D01*
X017882Y017977D01*
X018122Y017977D01*
X018122Y017609D02*
X018002Y017609D01*
X017942Y017549D01*
X017942Y017369D01*
X017822Y017369D02*
X018182Y017369D01*
X018182Y017549D01*
X018122Y017609D01*
X017182Y017549D02*
X017182Y017369D01*
X016822Y017369D01*
X016942Y017369D02*
X016942Y017549D01*
X017002Y017609D01*
X017122Y017609D01*
X017182Y017549D01*
X017182Y017737D02*
X017182Y017917D01*
X017122Y017977D01*
X016882Y017977D01*
X016822Y017917D01*
X016822Y017737D01*
X017182Y017737D01*
X017122Y018105D02*
X017182Y018165D01*
X017182Y018285D01*
X017122Y018346D01*
X017062Y018346D01*
X017002Y018285D01*
X016942Y018346D01*
X016882Y018346D01*
X016822Y018285D01*
X016822Y018165D01*
X016882Y018105D01*
X017002Y018225D02*
X017002Y018285D01*
X016182Y018285D02*
X016182Y018165D01*
X016122Y018105D01*
X016122Y017977D02*
X016182Y017917D01*
X016182Y017737D01*
X015822Y017737D01*
X015822Y017917D01*
X015882Y017977D01*
X016122Y017977D01*
X016182Y018285D02*
X016122Y018346D01*
X016062Y018346D01*
X015822Y018105D01*
X015822Y018346D01*
X015182Y018225D02*
X014822Y018225D01*
X014822Y018105D02*
X014822Y018346D01*
X015062Y018105D02*
X015182Y018225D01*
X015122Y017977D02*
X015182Y017917D01*
X015182Y017737D01*
X014822Y017737D01*
X014822Y017917D01*
X014882Y017977D01*
X015122Y017977D01*
X015122Y017609D02*
X015002Y017609D01*
X014942Y017549D01*
X014942Y017369D01*
X014822Y017369D02*
X015182Y017369D01*
X015182Y017549D01*
X015122Y017609D01*
X015822Y017369D02*
X016182Y017369D01*
X016182Y017549D01*
X016122Y017609D01*
X016002Y017609D01*
X015942Y017549D01*
X015942Y017369D01*
X014182Y017369D02*
X014182Y017549D01*
X014122Y017609D01*
X014002Y017609D01*
X013942Y017549D01*
X013942Y017369D01*
X013822Y017369D02*
X014182Y017369D01*
X014182Y017737D02*
X013822Y017737D01*
X013822Y017917D01*
X013882Y017977D01*
X014122Y017977D01*
X014182Y017917D01*
X014182Y017737D01*
X014122Y018105D02*
X013882Y018105D01*
X014122Y018346D01*
X013882Y018346D01*
X013822Y018285D01*
X013822Y018165D01*
X013882Y018105D01*
X014122Y018105D02*
X014182Y018165D01*
X014182Y018285D01*
X014122Y018346D01*
X013182Y018346D02*
X013122Y018225D01*
X013002Y018105D01*
X013002Y018285D01*
X012942Y018346D01*
X012882Y018346D01*
X012822Y018285D01*
X012822Y018165D01*
X012882Y018105D01*
X013002Y018105D01*
X013182Y017977D02*
X013182Y017737D01*
X012822Y017737D01*
X012822Y017977D01*
X013002Y017857D02*
X013002Y017737D01*
X013002Y017609D02*
X012942Y017549D01*
X012942Y017369D01*
X012822Y017369D02*
X013182Y017369D01*
X013182Y017549D01*
X013122Y017609D01*
X013002Y017609D01*
X012182Y017549D02*
X012182Y017369D01*
X011822Y017369D01*
X011942Y017369D02*
X011942Y017549D01*
X012002Y017609D01*
X012122Y017609D01*
X012182Y017549D01*
X012182Y017737D02*
X011822Y017737D01*
X011822Y017977D01*
X011822Y018105D02*
X012062Y018346D01*
X012122Y018346D01*
X012182Y018285D01*
X012182Y018165D01*
X012122Y018105D01*
X012182Y017977D02*
X012182Y017737D01*
X012002Y017737D02*
X012002Y017857D01*
X011822Y018105D02*
X011822Y018346D01*
X011182Y018346D02*
X011182Y018105D01*
X011182Y017977D02*
X011182Y017737D01*
X010822Y017737D01*
X011002Y017737D02*
X011002Y017857D01*
X011002Y017609D02*
X010942Y017549D01*
X010942Y017369D01*
X010822Y017369D02*
X011182Y017369D01*
X011182Y017549D01*
X011122Y017609D01*
X011002Y017609D01*
X010882Y018105D02*
X010822Y018105D01*
X010882Y018105D02*
X011122Y018346D01*
X011182Y018346D01*
X010182Y018346D02*
X010122Y018225D01*
X010002Y018105D01*
X010002Y018285D01*
X009942Y018346D01*
X009882Y018346D01*
X009822Y018285D01*
X009822Y018165D01*
X009882Y018105D01*
X010002Y018105D01*
X010182Y017977D02*
X010182Y017737D01*
X009822Y017737D01*
X010002Y017737D02*
X010002Y017857D01*
X010002Y017609D02*
X009942Y017549D01*
X009942Y017369D01*
X009822Y017369D02*
X010182Y017369D01*
X010182Y017549D01*
X010122Y017609D01*
X010002Y017609D01*
X009182Y017549D02*
X009182Y017369D01*
X008822Y017369D01*
X008942Y017369D02*
X008942Y017549D01*
X009002Y017609D01*
X009122Y017609D01*
X009182Y017549D01*
X009182Y017737D02*
X009182Y017977D01*
X009182Y018105D02*
X009002Y018105D01*
X009062Y018225D01*
X009062Y018285D01*
X009002Y018346D01*
X008882Y018346D01*
X008822Y018285D01*
X008822Y018165D01*
X008882Y018105D01*
X009002Y017857D02*
X009002Y017737D01*
X008822Y017737D02*
X009182Y017737D01*
X009182Y018105D02*
X009182Y018346D01*
X008182Y018285D02*
X008002Y018105D01*
X008002Y018346D01*
X007822Y018285D02*
X008182Y018285D01*
X008182Y017977D02*
X008182Y017737D01*
X007822Y017737D01*
X008002Y017737D02*
X008002Y017857D01*
X008002Y017609D02*
X007942Y017549D01*
X007942Y017369D01*
X007822Y017369D02*
X008182Y017369D01*
X008182Y017549D01*
X008122Y017609D01*
X008002Y017609D01*
X007182Y017549D02*
X007182Y017369D01*
X006822Y017369D01*
X006942Y017369D02*
X006942Y017549D01*
X007002Y017609D01*
X007122Y017609D01*
X007182Y017549D01*
X007182Y017737D02*
X007182Y017977D01*
X007062Y018105D02*
X007182Y018225D01*
X006822Y018225D01*
X006822Y018105D02*
X006822Y018346D01*
X007002Y017857D02*
X007002Y017737D01*
X006822Y017737D02*
X007182Y017737D01*
X006182Y017737D02*
X006182Y017977D01*
X006122Y018105D02*
X006182Y018165D01*
X006182Y018285D01*
X006122Y018346D01*
X005882Y018105D01*
X005822Y018165D01*
X005822Y018285D01*
X005882Y018346D01*
X006122Y018346D01*
X006122Y018105D02*
X005882Y018105D01*
X006002Y017857D02*
X006002Y017737D01*
X006002Y017609D02*
X005942Y017549D01*
X005942Y017369D01*
X005822Y017369D02*
X006182Y017369D01*
X006182Y017549D01*
X006122Y017609D01*
X006002Y017609D01*
X005822Y017737D02*
X006182Y017737D01*
X005182Y017737D02*
X004822Y017737D01*
X004822Y017977D01*
X004822Y018105D02*
X005182Y018105D01*
X005182Y018346D01*
X005002Y018225D02*
X005002Y018105D01*
X005182Y017977D02*
X005182Y017737D01*
X005122Y017609D02*
X005002Y017609D01*
X004942Y017549D01*
X004942Y017369D01*
X004942Y017489D02*
X004822Y017609D01*
X005002Y017737D02*
X005002Y017857D01*
X005122Y017609D02*
X005182Y017549D01*
X005182Y017369D01*
X004822Y017369D01*
X004182Y017369D02*
X004182Y017549D01*
X004122Y017609D01*
X004002Y017609D01*
X003942Y017549D01*
X003942Y017369D01*
X003942Y017489D02*
X003822Y017609D01*
X003822Y017737D02*
X003822Y017977D01*
X003882Y018105D02*
X003822Y018165D01*
X003822Y018285D01*
X003882Y018346D01*
X003942Y018346D01*
X004002Y018285D01*
X004002Y018165D01*
X004062Y018105D01*
X004122Y018105D01*
X004182Y018165D01*
X004182Y018285D01*
X004122Y018346D01*
X004182Y017977D02*
X004182Y017737D01*
X003822Y017737D01*
X004002Y017737D02*
X004002Y017857D01*
X003822Y017369D02*
X004182Y017369D01*
X003182Y017613D02*
X003182Y017733D01*
X003122Y017793D01*
X003062Y017793D01*
X003002Y017733D01*
X002942Y017793D01*
X002882Y017793D01*
X002822Y017733D01*
X002822Y017613D01*
X002882Y017553D01*
X003002Y017673D02*
X003002Y017733D01*
X003122Y017553D02*
X003182Y017613D01*
X003002Y017425D02*
X003002Y017185D01*
X003122Y017305D02*
X002882Y017305D01*
X002882Y017921D02*
X002822Y017921D01*
X002822Y017981D01*
X002882Y017981D01*
X002882Y017921D01*
X002882Y018105D02*
X002822Y018165D01*
X002822Y018285D01*
X002882Y018345D01*
X002942Y018345D01*
X003002Y018285D01*
X003002Y018225D01*
X003002Y018285D02*
X003062Y018345D01*
X003122Y018345D01*
X003182Y018285D01*
X003182Y018165D01*
X003122Y018105D01*
X002182Y018105D02*
X002002Y018105D01*
X002062Y018225D01*
X002062Y018285D01*
X002002Y018346D01*
X001882Y018346D01*
X001822Y018285D01*
X001822Y018165D01*
X001882Y018105D01*
X002002Y017977D02*
X002002Y017737D01*
X002122Y017857D02*
X001882Y017857D01*
X002182Y018105D02*
X002182Y018346D01*
X001182Y018285D02*
X001182Y018105D01*
X000822Y018105D01*
X000822Y018285D01*
X000882Y018346D01*
X001122Y018346D01*
X001182Y018285D01*
X001182Y017977D02*
X000822Y017977D01*
X001182Y017737D01*
X000822Y017737D01*
X000882Y017609D02*
X001002Y017609D01*
X001002Y017489D01*
X001122Y017609D02*
X001182Y017549D01*
X001182Y017429D01*
X001122Y017369D01*
X000882Y017369D01*
X000822Y017429D01*
X000822Y017549D01*
X000882Y017609D01*
X004908Y020786D02*
X005215Y020786D01*
X005062Y020786D02*
X005062Y021246D01*
X005215Y021093D01*
X005829Y021093D02*
X005982Y020786D01*
X006136Y021093D01*
X006289Y021016D02*
X006289Y020940D01*
X006596Y020940D01*
X006596Y021016D02*
X006520Y021093D01*
X006366Y021093D01*
X006289Y021016D01*
X006366Y020786D02*
X006520Y020786D01*
X006596Y020863D01*
X006596Y021016D01*
X006750Y021016D02*
X006750Y021170D01*
X006826Y021246D01*
X007057Y021246D01*
X007057Y020786D01*
X007057Y020940D02*
X006826Y020940D01*
X006750Y021016D01*
X006903Y020940D02*
X006750Y020786D01*
X006822Y027181D02*
X007182Y027181D01*
X007182Y027361D01*
X007122Y027421D01*
X007002Y027421D01*
X006942Y027361D01*
X006942Y027181D01*
X007002Y027549D02*
X007002Y027670D01*
X007182Y027549D02*
X007182Y027790D01*
X007062Y027918D02*
X007182Y028038D01*
X006822Y028038D01*
X006822Y027918D02*
X006822Y028158D01*
X006822Y027549D02*
X007182Y027549D01*
X007822Y027549D02*
X008182Y027549D01*
X008182Y027790D01*
X008002Y027670D02*
X008002Y027549D01*
X008002Y027421D02*
X007942Y027361D01*
X007942Y027181D01*
X007822Y027181D02*
X008182Y027181D01*
X008182Y027361D01*
X008122Y027421D01*
X008002Y027421D01*
X008002Y027918D02*
X008002Y028158D01*
X008182Y028098D02*
X008002Y027918D01*
X007822Y028098D02*
X008182Y028098D01*
X008822Y028098D02*
X008822Y027978D01*
X008882Y027918D01*
X009002Y027918D02*
X009062Y028038D01*
X009062Y028098D01*
X009002Y028158D01*
X008882Y028158D01*
X008822Y028098D01*
X009002Y027918D02*
X009182Y027918D01*
X009182Y028158D01*
X009182Y027790D02*
X009182Y027549D01*
X008822Y027549D01*
X009002Y027549D02*
X009002Y027670D01*
X009002Y027421D02*
X008942Y027361D01*
X008942Y027181D01*
X008822Y027181D02*
X009182Y027181D01*
X009182Y027361D01*
X009122Y027421D01*
X009002Y027421D01*
X009822Y027549D02*
X010182Y027549D01*
X010182Y027790D01*
X010002Y027670D02*
X010002Y027549D01*
X010002Y027421D02*
X009942Y027361D01*
X009942Y027181D01*
X009822Y027181D02*
X010182Y027181D01*
X010182Y027361D01*
X010122Y027421D01*
X010002Y027421D01*
X010002Y027918D02*
X010002Y028098D01*
X009942Y028158D01*
X009882Y028158D01*
X009822Y028098D01*
X009822Y027978D01*
X009882Y027918D01*
X010002Y027918D01*
X010122Y028038D01*
X010182Y028158D01*
X010822Y027918D02*
X010882Y027918D01*
X011122Y028158D01*
X011182Y028158D01*
X011182Y027918D01*
X011182Y027790D02*
X011182Y027549D01*
X010822Y027549D01*
X011002Y027549D02*
X011002Y027670D01*
X011002Y027421D02*
X010942Y027361D01*
X010942Y027181D01*
X010822Y027181D02*
X011182Y027181D01*
X011182Y027361D01*
X011122Y027421D01*
X011002Y027421D01*
X011822Y027549D02*
X011822Y027790D01*
X011822Y027918D02*
X012062Y028158D01*
X012122Y028158D01*
X012182Y028098D01*
X012182Y027978D01*
X012122Y027918D01*
X012182Y027790D02*
X012182Y027549D01*
X011822Y027549D01*
X012002Y027549D02*
X012002Y027670D01*
X012002Y027421D02*
X011942Y027361D01*
X011942Y027181D01*
X011822Y027181D02*
X012182Y027181D01*
X012182Y027361D01*
X012122Y027421D01*
X012002Y027421D01*
X011822Y027918D02*
X011822Y028158D01*
X012822Y028098D02*
X012822Y027978D01*
X012882Y027918D01*
X013002Y027918D01*
X013002Y028098D01*
X012942Y028158D01*
X012882Y028158D01*
X012822Y028098D01*
X013002Y027918D02*
X013122Y028038D01*
X013182Y028158D01*
X013182Y027790D02*
X013182Y027549D01*
X012822Y027549D01*
X012822Y027790D01*
X013002Y027670D02*
X013002Y027549D01*
X013002Y027421D02*
X012942Y027361D01*
X012942Y027181D01*
X012822Y027181D02*
X013182Y027181D01*
X013182Y027361D01*
X013122Y027421D01*
X013002Y027421D01*
X013822Y027549D02*
X013822Y027730D01*
X013882Y027790D01*
X014122Y027790D01*
X014182Y027730D01*
X014182Y027549D01*
X013822Y027549D01*
X014002Y027421D02*
X013942Y027361D01*
X013942Y027181D01*
X013822Y027181D02*
X014182Y027181D01*
X014182Y027361D01*
X014122Y027421D01*
X014002Y027421D01*
X013882Y027918D02*
X014122Y027918D01*
X014182Y027978D01*
X014182Y028098D01*
X014122Y028158D01*
X013882Y027918D01*
X013822Y027978D01*
X013822Y028098D01*
X013882Y028158D01*
X014122Y028158D01*
X014822Y028158D02*
X014822Y027918D01*
X014822Y028038D02*
X015182Y028038D01*
X015062Y027918D01*
X015122Y027790D02*
X015182Y027730D01*
X015182Y027549D01*
X014822Y027549D01*
X014822Y027730D01*
X014882Y027790D01*
X015122Y027790D01*
X015122Y027421D02*
X015002Y027421D01*
X014942Y027361D01*
X014942Y027181D01*
X014822Y027181D02*
X015182Y027181D01*
X015182Y027361D01*
X015122Y027421D01*
X015822Y027549D02*
X015822Y027730D01*
X015882Y027790D01*
X016122Y027790D01*
X016182Y027730D01*
X016182Y027549D01*
X015822Y027549D01*
X016002Y027421D02*
X015942Y027361D01*
X015942Y027181D01*
X015822Y027181D02*
X016182Y027181D01*
X016182Y027361D01*
X016122Y027421D01*
X016002Y027421D01*
X016122Y027918D02*
X016182Y027978D01*
X016182Y028098D01*
X016122Y028158D01*
X016062Y028158D01*
X015822Y027918D01*
X015822Y028158D01*
X016822Y028098D02*
X016822Y027978D01*
X016882Y027918D01*
X016882Y027790D02*
X017122Y027790D01*
X017182Y027730D01*
X017182Y027549D01*
X016822Y027549D01*
X016822Y027730D01*
X016882Y027790D01*
X017122Y027918D02*
X017182Y027978D01*
X017182Y028098D01*
X017122Y028158D01*
X017062Y028158D01*
X017002Y028098D01*
X016942Y028158D01*
X016882Y028158D01*
X016822Y028098D01*
X017002Y028098D02*
X017002Y028038D01*
X017002Y027421D02*
X016942Y027361D01*
X016942Y027181D01*
X016822Y027181D02*
X017182Y027181D01*
X017182Y027361D01*
X017122Y027421D01*
X017002Y027421D01*
X017822Y027549D02*
X017822Y027730D01*
X017882Y027790D01*
X018122Y027790D01*
X018182Y027730D01*
X018182Y027549D01*
X017822Y027549D01*
X018002Y027421D02*
X017942Y027361D01*
X017942Y027181D01*
X017822Y027181D02*
X018182Y027181D01*
X018182Y027361D01*
X018122Y027421D01*
X018002Y027421D01*
X018002Y027918D02*
X018002Y028158D01*
X018182Y028098D02*
X018002Y027918D01*
X017822Y028098D02*
X018182Y028098D01*
X018822Y028098D02*
X018822Y027978D01*
X018882Y027918D01*
X019002Y027918D02*
X019062Y028038D01*
X019062Y028098D01*
X019002Y028158D01*
X018882Y028158D01*
X018822Y028098D01*
X019002Y027918D02*
X019182Y027918D01*
X019182Y028158D01*
X019122Y027790D02*
X018882Y027790D01*
X018822Y027730D01*
X018822Y027549D01*
X019182Y027549D01*
X019182Y027730D01*
X019122Y027790D01*
X019122Y027421D02*
X019002Y027421D01*
X018942Y027361D01*
X018942Y027181D01*
X018822Y027181D02*
X019182Y027181D01*
X019182Y027361D01*
X019122Y027421D01*
X019822Y027549D02*
X019822Y027730D01*
X019882Y027790D01*
X020122Y027790D01*
X020182Y027730D01*
X020182Y027549D01*
X019822Y027549D01*
X020002Y027421D02*
X019942Y027361D01*
X019942Y027181D01*
X019822Y027181D02*
X020182Y027181D01*
X020182Y027361D01*
X020122Y027421D01*
X020002Y027421D01*
X020002Y027918D02*
X020002Y028098D01*
X019942Y028158D01*
X019882Y028158D01*
X019822Y028098D01*
X019822Y027978D01*
X019882Y027918D01*
X020002Y027918D01*
X020122Y028038D01*
X020182Y028158D01*
X020822Y027918D02*
X020882Y027918D01*
X021122Y028158D01*
X021182Y028158D01*
X021182Y027918D01*
X021122Y027790D02*
X021182Y027730D01*
X021182Y027549D01*
X020822Y027549D01*
X020822Y027730D01*
X020882Y027790D01*
X021122Y027790D01*
X021122Y027421D02*
X021002Y027421D01*
X020942Y027361D01*
X020942Y027181D01*
X020822Y027181D02*
X021182Y027181D01*
X021182Y027361D01*
X021122Y027421D01*
X021822Y027610D02*
X021822Y027730D01*
X021882Y027790D01*
X021882Y027918D02*
X021822Y027978D01*
X021822Y028098D01*
X021882Y028158D01*
X021942Y028158D01*
X022002Y028098D01*
X022002Y027918D01*
X021882Y027918D01*
X022002Y027918D02*
X022122Y028038D01*
X022182Y028158D01*
X022122Y027790D02*
X022182Y027730D01*
X022182Y027610D01*
X022122Y027549D01*
X021882Y027549D01*
X021822Y027610D01*
X022002Y027421D02*
X021942Y027361D01*
X021942Y027181D01*
X021822Y027181D02*
X022182Y027181D01*
X022182Y027361D01*
X022122Y027421D01*
X022002Y027421D01*
X022822Y027610D02*
X022822Y027730D01*
X022882Y027790D01*
X022882Y027918D02*
X022822Y027918D01*
X022882Y027918D02*
X023122Y028158D01*
X023182Y028158D01*
X023182Y027918D01*
X023122Y027790D02*
X023182Y027730D01*
X023182Y027610D01*
X023122Y027549D01*
X022882Y027549D01*
X022822Y027610D01*
X023002Y027421D02*
X022942Y027361D01*
X022942Y027181D01*
X022822Y027181D02*
X023182Y027181D01*
X023182Y027361D01*
X023122Y027421D01*
X023002Y027421D01*
X023822Y027549D02*
X023822Y027730D01*
X023882Y027790D01*
X023942Y027790D01*
X024002Y027730D01*
X024002Y027549D01*
X024002Y027421D02*
X023942Y027361D01*
X023942Y027181D01*
X023822Y027181D02*
X024182Y027181D01*
X024182Y027361D01*
X024122Y027421D01*
X024002Y027421D01*
X024182Y027549D02*
X024182Y027730D01*
X024122Y027790D01*
X024062Y027790D01*
X024002Y027730D01*
X024122Y027918D02*
X024182Y027978D01*
X024182Y028098D01*
X024122Y028158D01*
X023882Y027918D01*
X023822Y027978D01*
X023822Y028098D01*
X023882Y028158D01*
X024122Y028158D01*
X024122Y027918D02*
X023882Y027918D01*
X023822Y027549D02*
X024182Y027549D01*
X024822Y027549D02*
X024822Y027730D01*
X024882Y027790D01*
X024942Y027790D01*
X025002Y027730D01*
X025002Y027549D01*
X025002Y027421D02*
X024942Y027361D01*
X024942Y027181D01*
X024822Y027181D02*
X025182Y027181D01*
X025182Y027361D01*
X025122Y027421D01*
X025002Y027421D01*
X025182Y027549D02*
X025182Y027730D01*
X025122Y027790D01*
X025062Y027790D01*
X025002Y027730D01*
X025062Y027918D02*
X025182Y028038D01*
X024822Y028038D01*
X024822Y027918D02*
X024822Y028158D01*
X024822Y027549D02*
X025182Y027549D01*
X025822Y027549D02*
X025822Y027730D01*
X025882Y027790D01*
X025942Y027790D01*
X026002Y027730D01*
X026002Y027549D01*
X026002Y027421D02*
X025942Y027361D01*
X025942Y027181D01*
X025822Y027181D02*
X026182Y027181D01*
X026182Y027361D01*
X026122Y027421D01*
X026002Y027421D01*
X025822Y027549D02*
X026182Y027549D01*
X026182Y027730D01*
X026122Y027790D01*
X026062Y027790D01*
X026002Y027730D01*
X026122Y027918D02*
X026182Y027978D01*
X026182Y028098D01*
X026122Y028158D01*
X026062Y028158D01*
X025822Y027918D01*
X025822Y028158D01*
X026822Y028098D02*
X026822Y027978D01*
X026882Y027918D01*
X026882Y027790D02*
X026822Y027730D01*
X026822Y027549D01*
X027182Y027549D01*
X027182Y027730D01*
X027122Y027790D01*
X027062Y027790D01*
X027002Y027730D01*
X027002Y027549D01*
X027002Y027421D02*
X026942Y027361D01*
X026942Y027181D01*
X026822Y027181D02*
X027182Y027181D01*
X027182Y027361D01*
X027122Y027421D01*
X027002Y027421D01*
X027002Y027730D02*
X026942Y027790D01*
X026882Y027790D01*
X027122Y027918D02*
X027182Y027978D01*
X027182Y028098D01*
X027122Y028158D01*
X027062Y028158D01*
X027002Y028098D01*
X026942Y028158D01*
X026882Y028158D01*
X026822Y028098D01*
X027002Y028098D02*
X027002Y028038D01*
X027822Y028098D02*
X028182Y028098D01*
X028002Y027918D01*
X028002Y028158D01*
X028062Y027790D02*
X028002Y027730D01*
X028002Y027549D01*
X028002Y027421D02*
X027942Y027361D01*
X027942Y027181D01*
X027822Y027181D02*
X028182Y027181D01*
X028182Y027361D01*
X028122Y027421D01*
X028002Y027421D01*
X027822Y027549D02*
X028182Y027549D01*
X028182Y027730D01*
X028122Y027790D01*
X028062Y027790D01*
X028002Y027730D02*
X027942Y027790D01*
X027882Y027790D01*
X027822Y027730D01*
X027822Y027549D01*
X028822Y027549D02*
X028822Y027730D01*
X028882Y027790D01*
X028942Y027790D01*
X029002Y027730D01*
X029002Y027549D01*
X029002Y027421D02*
X028942Y027361D01*
X028942Y027181D01*
X028822Y027181D02*
X029182Y027181D01*
X029182Y027361D01*
X029122Y027421D01*
X029002Y027421D01*
X029182Y027549D02*
X029182Y027730D01*
X029122Y027790D01*
X029062Y027790D01*
X029002Y027730D01*
X029002Y027918D02*
X029062Y028038D01*
X029062Y028098D01*
X029002Y028158D01*
X028882Y028158D01*
X028822Y028098D01*
X028822Y027978D01*
X028882Y027918D01*
X029002Y027918D02*
X029182Y027918D01*
X029182Y028158D01*
X029182Y027549D02*
X028822Y027549D01*
X029822Y027549D02*
X029822Y027730D01*
X029882Y027790D01*
X029942Y027790D01*
X030002Y027730D01*
X030002Y027549D01*
X030002Y027421D02*
X029942Y027361D01*
X029942Y027181D01*
X029822Y027181D02*
X030182Y027181D01*
X030182Y027361D01*
X030122Y027421D01*
X030002Y027421D01*
X030182Y027549D02*
X030182Y027730D01*
X030122Y027790D01*
X030062Y027790D01*
X030002Y027730D01*
X030002Y027918D02*
X030002Y028098D01*
X029942Y028158D01*
X029882Y028158D01*
X029822Y028098D01*
X029822Y027978D01*
X029882Y027918D01*
X030002Y027918D01*
X030122Y028038D01*
X030182Y028158D01*
X030182Y027549D02*
X029822Y027549D01*
X030822Y027549D02*
X030822Y027730D01*
X030882Y027790D01*
X030942Y027790D01*
X031002Y027730D01*
X031002Y027549D01*
X031002Y027421D02*
X030942Y027361D01*
X030942Y027181D01*
X030822Y027181D02*
X031182Y027181D01*
X031182Y027361D01*
X031122Y027421D01*
X031002Y027421D01*
X031182Y027549D02*
X031182Y027730D01*
X031122Y027790D01*
X031062Y027790D01*
X031002Y027730D01*
X030882Y027918D02*
X031122Y028158D01*
X031182Y028158D01*
X031182Y027918D01*
X030882Y027918D02*
X030822Y027918D01*
X030822Y027549D02*
X031182Y027549D01*
X031182Y036994D02*
X030822Y036994D01*
X030942Y036994D02*
X030942Y037174D01*
X031002Y037234D01*
X031122Y037234D01*
X031182Y037174D01*
X031182Y036994D01*
X031182Y037362D02*
X030822Y037362D01*
X030822Y037542D01*
X030882Y037602D01*
X030942Y037602D01*
X031002Y037542D01*
X031002Y037362D01*
X031182Y037362D02*
X031182Y037542D01*
X031122Y037602D01*
X031062Y037602D01*
X031002Y037542D01*
X030882Y037730D02*
X031122Y037971D01*
X031182Y037971D01*
X031182Y037730D01*
X030882Y037730D02*
X030822Y037730D01*
X030182Y037542D02*
X030182Y037362D01*
X029822Y037362D01*
X029822Y037542D01*
X029882Y037602D01*
X029942Y037602D01*
X030002Y037542D01*
X030002Y037362D01*
X030002Y037234D02*
X029942Y037174D01*
X029942Y036994D01*
X029822Y036994D02*
X030182Y036994D01*
X030182Y037174D01*
X030122Y037234D01*
X030002Y037234D01*
X030002Y037542D02*
X030062Y037602D01*
X030122Y037602D01*
X030182Y037542D01*
X030002Y037730D02*
X030002Y037910D01*
X029942Y037971D01*
X029882Y037971D01*
X029822Y037910D01*
X029822Y037790D01*
X029882Y037730D01*
X030002Y037730D01*
X030122Y037850D01*
X030182Y037971D01*
X029182Y037971D02*
X029182Y037730D01*
X029002Y037730D01*
X029062Y037850D01*
X029062Y037910D01*
X029002Y037971D01*
X028882Y037971D01*
X028822Y037910D01*
X028822Y037790D01*
X028882Y037730D01*
X028882Y037602D02*
X028822Y037542D01*
X028822Y037362D01*
X029182Y037362D01*
X029182Y037542D01*
X029122Y037602D01*
X029062Y037602D01*
X029002Y037542D01*
X029002Y037362D01*
X029002Y037234D02*
X028942Y037174D01*
X028942Y036994D01*
X028822Y036994D02*
X029182Y036994D01*
X029182Y037174D01*
X029122Y037234D01*
X029002Y037234D01*
X029002Y037542D02*
X028942Y037602D01*
X028882Y037602D01*
X028182Y037542D02*
X028182Y037362D01*
X027822Y037362D01*
X027822Y037542D01*
X027882Y037602D01*
X027942Y037602D01*
X028002Y037542D01*
X028002Y037362D01*
X028002Y037234D02*
X027942Y037174D01*
X027942Y036994D01*
X027822Y036994D02*
X028182Y036994D01*
X028182Y037174D01*
X028122Y037234D01*
X028002Y037234D01*
X028002Y037542D02*
X028062Y037602D01*
X028122Y037602D01*
X028182Y037542D01*
X028002Y037730D02*
X028002Y037971D01*
X027822Y037910D02*
X028182Y037910D01*
X028002Y037730D01*
X027182Y037790D02*
X027182Y037910D01*
X027122Y037971D01*
X027062Y037971D01*
X027002Y037910D01*
X026942Y037971D01*
X026882Y037971D01*
X026822Y037910D01*
X026822Y037790D01*
X026882Y037730D01*
X026882Y037602D02*
X026822Y037542D01*
X026822Y037362D01*
X027182Y037362D01*
X027182Y037542D01*
X027122Y037602D01*
X027062Y037602D01*
X027002Y037542D01*
X027002Y037362D01*
X027002Y037234D02*
X026942Y037174D01*
X026942Y036994D01*
X026822Y036994D02*
X027182Y036994D01*
X027182Y037174D01*
X027122Y037234D01*
X027002Y037234D01*
X027002Y037542D02*
X026942Y037602D01*
X026882Y037602D01*
X027122Y037730D02*
X027182Y037790D01*
X027002Y037850D02*
X027002Y037910D01*
X026182Y037910D02*
X026182Y037790D01*
X026122Y037730D01*
X026122Y037602D02*
X026062Y037602D01*
X026002Y037542D01*
X026002Y037362D01*
X026002Y037234D02*
X025942Y037174D01*
X025942Y036994D01*
X025822Y036994D02*
X026182Y036994D01*
X026182Y037174D01*
X026122Y037234D01*
X026002Y037234D01*
X025822Y037362D02*
X026182Y037362D01*
X026182Y037542D01*
X026122Y037602D01*
X026002Y037542D02*
X025942Y037602D01*
X025882Y037602D01*
X025822Y037542D01*
X025822Y037362D01*
X025822Y037730D02*
X026062Y037971D01*
X026122Y037971D01*
X026182Y037910D01*
X025822Y037971D02*
X025822Y037730D01*
X025182Y037850D02*
X024822Y037850D01*
X024822Y037730D02*
X024822Y037971D01*
X025062Y037730D02*
X025182Y037850D01*
X025122Y037602D02*
X025182Y037542D01*
X025182Y037362D01*
X024822Y037362D01*
X024822Y037542D01*
X024882Y037602D01*
X024942Y037602D01*
X025002Y037542D01*
X025002Y037362D01*
X025002Y037234D02*
X024942Y037174D01*
X024942Y036994D01*
X024822Y036994D02*
X025182Y036994D01*
X025182Y037174D01*
X025122Y037234D01*
X025002Y037234D01*
X025002Y037542D02*
X025062Y037602D01*
X025122Y037602D01*
X024182Y037542D02*
X024182Y037362D01*
X023822Y037362D01*
X023822Y037542D01*
X023882Y037602D01*
X023942Y037602D01*
X024002Y037542D01*
X024002Y037362D01*
X024002Y037234D02*
X023942Y037174D01*
X023942Y036994D01*
X023822Y036994D02*
X024182Y036994D01*
X024182Y037174D01*
X024122Y037234D01*
X024002Y037234D01*
X024002Y037542D02*
X024062Y037602D01*
X024122Y037602D01*
X024182Y037542D01*
X024122Y037730D02*
X024182Y037790D01*
X024182Y037910D01*
X024122Y037971D01*
X023882Y037730D01*
X023822Y037790D01*
X023822Y037910D01*
X023882Y037971D01*
X024122Y037971D01*
X024122Y037730D02*
X023882Y037730D01*
X023182Y037730D02*
X023182Y037971D01*
X023122Y037971D01*
X022882Y037730D01*
X022822Y037730D01*
X022882Y037602D02*
X022822Y037542D01*
X022822Y037422D01*
X022882Y037362D01*
X023122Y037362D01*
X023182Y037422D01*
X023182Y037542D01*
X023122Y037602D01*
X023122Y037234D02*
X023002Y037234D01*
X022942Y037174D01*
X022942Y036994D01*
X022822Y036994D02*
X023182Y036994D01*
X023182Y037174D01*
X023122Y037234D01*
X022182Y037174D02*
X022182Y036994D01*
X021822Y036994D01*
X021942Y036994D02*
X021942Y037174D01*
X022002Y037234D01*
X022122Y037234D01*
X022182Y037174D01*
X022122Y037362D02*
X021882Y037362D01*
X021822Y037422D01*
X021822Y037542D01*
X021882Y037602D01*
X021882Y037730D02*
X021822Y037790D01*
X021822Y037910D01*
X021882Y037971D01*
X021942Y037971D01*
X022002Y037910D01*
X022002Y037730D01*
X021882Y037730D01*
X022002Y037730D02*
X022122Y037850D01*
X022182Y037971D01*
X022122Y037602D02*
X022182Y037542D01*
X022182Y037422D01*
X022122Y037362D01*
X021182Y037362D02*
X021182Y037542D01*
X021122Y037602D01*
X020882Y037602D01*
X020822Y037542D01*
X020822Y037362D01*
X021182Y037362D01*
X021122Y037234D02*
X021002Y037234D01*
X020942Y037174D01*
X020942Y036994D01*
X020822Y036994D02*
X021182Y036994D01*
X021182Y037174D01*
X021122Y037234D01*
X021182Y037730D02*
X021182Y037971D01*
X021122Y037971D01*
X020882Y037730D01*
X020822Y037730D01*
X020182Y037542D02*
X020182Y037362D01*
X019822Y037362D01*
X019822Y037542D01*
X019882Y037602D01*
X020122Y037602D01*
X020182Y037542D01*
X020002Y037730D02*
X020122Y037850D01*
X020182Y037971D01*
X020002Y037910D02*
X020002Y037730D01*
X019882Y037730D01*
X019822Y037790D01*
X019822Y037910D01*
X019882Y037971D01*
X019942Y037971D01*
X020002Y037910D01*
X020002Y037234D02*
X019942Y037174D01*
X019942Y036994D01*
X019822Y036994D02*
X020182Y036994D01*
X020182Y037174D01*
X020122Y037234D01*
X020002Y037234D01*
X019182Y037174D02*
X019182Y036994D01*
X018822Y036994D01*
X018942Y036994D02*
X018942Y037174D01*
X019002Y037234D01*
X019122Y037234D01*
X019182Y037174D01*
X019182Y037362D02*
X019182Y037542D01*
X019122Y037602D01*
X018882Y037602D01*
X018822Y037542D01*
X018822Y037362D01*
X019182Y037362D01*
X019182Y037730D02*
X019002Y037730D01*
X019062Y037850D01*
X019062Y037910D01*
X019002Y037971D01*
X018882Y037971D01*
X018822Y037910D01*
X018822Y037790D01*
X018882Y037730D01*
X019182Y037730D02*
X019182Y037971D01*
X018182Y037910D02*
X018002Y037730D01*
X018002Y037971D01*
X017822Y037910D02*
X018182Y037910D01*
X018122Y037602D02*
X018182Y037542D01*
X018182Y037362D01*
X017822Y037362D01*
X017822Y037542D01*
X017882Y037602D01*
X018122Y037602D01*
X018122Y037234D02*
X018002Y037234D01*
X017942Y037174D01*
X017942Y036994D01*
X017822Y036994D02*
X018182Y036994D01*
X018182Y037174D01*
X018122Y037234D01*
X017182Y037174D02*
X017182Y036994D01*
X016822Y036994D01*
X016942Y036994D02*
X016942Y037174D01*
X017002Y037234D01*
X017122Y037234D01*
X017182Y037174D01*
X017182Y037362D02*
X017182Y037542D01*
X017122Y037602D01*
X016882Y037602D01*
X016822Y037542D01*
X016822Y037362D01*
X017182Y037362D01*
X017122Y037730D02*
X017182Y037790D01*
X017182Y037910D01*
X017122Y037971D01*
X017062Y037971D01*
X017002Y037910D01*
X016942Y037971D01*
X016882Y037971D01*
X016822Y037910D01*
X016822Y037790D01*
X016882Y037730D01*
X017002Y037850D02*
X017002Y037910D01*
X016182Y037910D02*
X016182Y037790D01*
X016122Y037730D01*
X016122Y037602D02*
X016182Y037542D01*
X016182Y037362D01*
X015822Y037362D01*
X015822Y037542D01*
X015882Y037602D01*
X016122Y037602D01*
X016182Y037910D02*
X016122Y037971D01*
X016062Y037971D01*
X015822Y037730D01*
X015822Y037971D01*
X015182Y037850D02*
X014822Y037850D01*
X014822Y037730D02*
X014822Y037971D01*
X015062Y037730D02*
X015182Y037850D01*
X015122Y037602D02*
X015182Y037542D01*
X015182Y037362D01*
X014822Y037362D01*
X014822Y037542D01*
X014882Y037602D01*
X015122Y037602D01*
X015122Y037234D02*
X015002Y037234D01*
X014942Y037174D01*
X014942Y036994D01*
X014822Y036994D02*
X015182Y036994D01*
X015182Y037174D01*
X015122Y037234D01*
X015822Y036994D02*
X016182Y036994D01*
X016182Y037174D01*
X016122Y037234D01*
X016002Y037234D01*
X015942Y037174D01*
X015942Y036994D01*
X014182Y036994D02*
X014182Y037174D01*
X014122Y037234D01*
X014002Y037234D01*
X013942Y037174D01*
X013942Y036994D01*
X013822Y036994D02*
X014182Y036994D01*
X014182Y037362D02*
X013822Y037362D01*
X013822Y037542D01*
X013882Y037602D01*
X014122Y037602D01*
X014182Y037542D01*
X014182Y037362D01*
X014122Y037730D02*
X013882Y037730D01*
X014122Y037971D01*
X013882Y037971D01*
X013822Y037910D01*
X013822Y037790D01*
X013882Y037730D01*
X014122Y037730D02*
X014182Y037790D01*
X014182Y037910D01*
X014122Y037971D01*
X013182Y037971D02*
X013122Y037850D01*
X013002Y037730D01*
X013002Y037910D01*
X012942Y037971D01*
X012882Y037971D01*
X012822Y037910D01*
X012822Y037790D01*
X012882Y037730D01*
X013002Y037730D01*
X013182Y037602D02*
X013182Y037362D01*
X012822Y037362D01*
X012822Y037602D01*
X013002Y037482D02*
X013002Y037362D01*
X013002Y037234D02*
X012942Y037174D01*
X012942Y036994D01*
X012822Y036994D02*
X013182Y036994D01*
X013182Y037174D01*
X013122Y037234D01*
X013002Y037234D01*
X012182Y037174D02*
X012182Y036994D01*
X011822Y036994D01*
X011942Y036994D02*
X011942Y037174D01*
X012002Y037234D01*
X012122Y037234D01*
X012182Y037174D01*
X012182Y037362D02*
X011822Y037362D01*
X011822Y037602D01*
X011822Y037730D02*
X012062Y037971D01*
X012122Y037971D01*
X012182Y037910D01*
X012182Y037790D01*
X012122Y037730D01*
X012182Y037602D02*
X012182Y037362D01*
X012002Y037362D02*
X012002Y037482D01*
X011822Y037730D02*
X011822Y037971D01*
X011182Y037971D02*
X011182Y037730D01*
X011182Y037602D02*
X011182Y037362D01*
X010822Y037362D01*
X011002Y037362D02*
X011002Y037482D01*
X011002Y037234D02*
X010942Y037174D01*
X010942Y036994D01*
X010822Y036994D02*
X011182Y036994D01*
X011182Y037174D01*
X011122Y037234D01*
X011002Y037234D01*
X010882Y037730D02*
X010822Y037730D01*
X010882Y037730D02*
X011122Y037971D01*
X011182Y037971D01*
X010182Y037971D02*
X010122Y037850D01*
X010002Y037730D01*
X010002Y037910D01*
X009942Y037971D01*
X009882Y037971D01*
X009822Y037910D01*
X009822Y037790D01*
X009882Y037730D01*
X010002Y037730D01*
X010182Y037602D02*
X010182Y037362D01*
X009822Y037362D01*
X010002Y037362D02*
X010002Y037482D01*
X010002Y037234D02*
X009942Y037174D01*
X009942Y036994D01*
X009822Y036994D02*
X010182Y036994D01*
X010182Y037174D01*
X010122Y037234D01*
X010002Y037234D01*
X009182Y037174D02*
X009182Y036994D01*
X008822Y036994D01*
X008942Y036994D02*
X008942Y037174D01*
X009002Y037234D01*
X009122Y037234D01*
X009182Y037174D01*
X009182Y037362D02*
X009182Y037602D01*
X009182Y037730D02*
X009002Y037730D01*
X009062Y037850D01*
X009062Y037910D01*
X009002Y037971D01*
X008882Y037971D01*
X008822Y037910D01*
X008822Y037790D01*
X008882Y037730D01*
X009002Y037482D02*
X009002Y037362D01*
X008822Y037362D02*
X009182Y037362D01*
X009182Y037730D02*
X009182Y037971D01*
X008182Y037910D02*
X008002Y037730D01*
X008002Y037971D01*
X007822Y037910D02*
X008182Y037910D01*
X008182Y037602D02*
X008182Y037362D01*
X007822Y037362D01*
X008002Y037362D02*
X008002Y037482D01*
X008002Y037234D02*
X007942Y037174D01*
X007942Y036994D01*
X007822Y036994D02*
X008182Y036994D01*
X008182Y037174D01*
X008122Y037234D01*
X008002Y037234D01*
X007182Y037174D02*
X007182Y036994D01*
X006822Y036994D01*
X006942Y036994D02*
X006942Y037174D01*
X007002Y037234D01*
X007122Y037234D01*
X007182Y037174D01*
X007182Y037362D02*
X007182Y037602D01*
X007062Y037730D02*
X007182Y037850D01*
X006822Y037850D01*
X006822Y037730D02*
X006822Y037971D01*
X007002Y037482D02*
X007002Y037362D01*
X006822Y037362D02*
X007182Y037362D01*
X006182Y037362D02*
X006182Y037602D01*
X006122Y037730D02*
X006182Y037790D01*
X006182Y037910D01*
X006122Y037971D01*
X005882Y037730D01*
X005822Y037790D01*
X005822Y037910D01*
X005882Y037971D01*
X006122Y037971D01*
X006122Y037730D02*
X005882Y037730D01*
X006002Y037482D02*
X006002Y037362D01*
X006002Y037234D02*
X005942Y037174D01*
X005942Y036994D01*
X005822Y036994D02*
X006182Y036994D01*
X006182Y037174D01*
X006122Y037234D01*
X006002Y037234D01*
X005822Y037362D02*
X006182Y037362D01*
X005182Y037362D02*
X004822Y037362D01*
X004822Y037602D01*
X004822Y037730D02*
X005182Y037730D01*
X005182Y037971D01*
X005002Y037850D02*
X005002Y037730D01*
X005182Y037602D02*
X005182Y037362D01*
X005122Y037234D02*
X005002Y037234D01*
X004942Y037174D01*
X004942Y036994D01*
X004942Y037114D02*
X004822Y037234D01*
X005002Y037362D02*
X005002Y037482D01*
X005122Y037234D02*
X005182Y037174D01*
X005182Y036994D01*
X004822Y036994D01*
X004182Y036994D02*
X004182Y037174D01*
X004122Y037234D01*
X004002Y037234D01*
X003942Y037174D01*
X003942Y036994D01*
X003942Y037114D02*
X003822Y037234D01*
X003822Y037362D02*
X003822Y037602D01*
X003882Y037730D02*
X003822Y037790D01*
X003822Y037910D01*
X003882Y037971D01*
X003942Y037971D01*
X004002Y037910D01*
X004002Y037790D01*
X004062Y037730D01*
X004122Y037730D01*
X004182Y037790D01*
X004182Y037910D01*
X004122Y037971D01*
X004182Y037602D02*
X004182Y037362D01*
X003822Y037362D01*
X004002Y037362D02*
X004002Y037482D01*
X003822Y036994D02*
X004182Y036994D01*
X003182Y037238D02*
X003182Y037358D01*
X003122Y037418D01*
X003062Y037418D01*
X003002Y037358D01*
X002942Y037418D01*
X002882Y037418D01*
X002822Y037358D01*
X002822Y037238D01*
X002882Y037178D01*
X003002Y037298D02*
X003002Y037358D01*
X003122Y037178D02*
X003182Y037238D01*
X003002Y037050D02*
X003002Y036810D01*
X003122Y036930D02*
X002882Y036930D01*
X002882Y037546D02*
X002822Y037546D01*
X002822Y037606D01*
X002882Y037606D01*
X002882Y037546D01*
X002882Y037730D02*
X002822Y037790D01*
X002822Y037910D01*
X002882Y037970D01*
X002942Y037970D01*
X003002Y037910D01*
X003002Y037850D01*
X003002Y037910D02*
X003062Y037970D01*
X003122Y037970D01*
X003182Y037910D01*
X003182Y037790D01*
X003122Y037730D01*
X002182Y037730D02*
X002002Y037730D01*
X002062Y037850D01*
X002062Y037910D01*
X002002Y037971D01*
X001882Y037971D01*
X001822Y037910D01*
X001822Y037790D01*
X001882Y037730D01*
X002002Y037602D02*
X002002Y037362D01*
X002122Y037482D02*
X001882Y037482D01*
X002182Y037730D02*
X002182Y037971D01*
X001182Y037910D02*
X001182Y037730D01*
X000822Y037730D01*
X000822Y037910D01*
X000882Y037971D01*
X001122Y037971D01*
X001182Y037910D01*
X001182Y037602D02*
X000822Y037602D01*
X001182Y037362D01*
X000822Y037362D01*
X000882Y037234D02*
X001002Y037234D01*
X001002Y037114D01*
X001122Y037234D02*
X001182Y037174D01*
X001182Y037054D01*
X001122Y036994D01*
X000882Y036994D01*
X000822Y037054D01*
X000822Y037174D01*
X000882Y037234D01*
X005062Y031059D02*
X005062Y030599D01*
X005215Y030599D02*
X004908Y030599D01*
X005215Y030906D02*
X005062Y031059D01*
X005829Y030906D02*
X005982Y030599D01*
X006136Y030906D01*
X006289Y030829D02*
X006289Y030752D01*
X006596Y030752D01*
X006596Y030675D02*
X006596Y030829D01*
X006520Y030906D01*
X006366Y030906D01*
X006289Y030829D01*
X006366Y030599D02*
X006520Y030599D01*
X006596Y030675D01*
X006750Y030599D02*
X006903Y030752D01*
X006826Y030752D02*
X007057Y030752D01*
X007057Y030599D02*
X007057Y031059D01*
X006826Y031059D01*
X006750Y030982D01*
X006750Y030829D01*
X006826Y030752D01*
X006122Y028158D02*
X005882Y028158D01*
X005822Y028098D01*
X005822Y027978D01*
X005882Y027918D01*
X006122Y028158D01*
X006182Y028098D01*
X006182Y027978D01*
X006122Y027918D01*
X005882Y027918D01*
X006002Y027670D02*
X006002Y027549D01*
X006002Y027421D02*
X005942Y027361D01*
X005942Y027181D01*
X005822Y027181D02*
X006182Y027181D01*
X006182Y027361D01*
X006122Y027421D01*
X006002Y027421D01*
X005822Y027549D02*
X006182Y027549D01*
X006182Y027790D01*
X005182Y027790D02*
X005182Y027549D01*
X004822Y027549D01*
X004822Y027790D01*
X004822Y027918D02*
X005182Y027918D01*
X005182Y028158D01*
X005002Y028038D02*
X005002Y027918D01*
X005002Y027670D02*
X005002Y027549D01*
X005002Y027421D02*
X004942Y027361D01*
X004942Y027181D01*
X004942Y027301D02*
X004822Y027421D01*
X005002Y027421D02*
X005122Y027421D01*
X005182Y027361D01*
X005182Y027181D01*
X004822Y027181D01*
X004182Y027181D02*
X004182Y027361D01*
X004122Y027421D01*
X004002Y027421D01*
X003942Y027361D01*
X003942Y027181D01*
X003942Y027301D02*
X003822Y027421D01*
X003822Y027549D02*
X003822Y027790D01*
X003882Y027918D02*
X003822Y027978D01*
X003822Y028098D01*
X003882Y028158D01*
X003942Y028158D01*
X004002Y028098D01*
X004002Y027978D01*
X004062Y027918D01*
X004122Y027918D01*
X004182Y027978D01*
X004182Y028098D01*
X004122Y028158D01*
X004182Y027790D02*
X004182Y027549D01*
X003822Y027549D01*
X004002Y027549D02*
X004002Y027670D01*
X003822Y027181D02*
X004182Y027181D01*
X003182Y027425D02*
X003182Y027545D01*
X003122Y027606D01*
X003062Y027606D01*
X003002Y027545D01*
X002942Y027606D01*
X002882Y027606D01*
X002822Y027545D01*
X002822Y027425D01*
X002882Y027365D01*
X003002Y027485D02*
X003002Y027545D01*
X003122Y027365D02*
X003182Y027425D01*
X003002Y027237D02*
X003002Y026997D01*
X003122Y027117D02*
X002882Y027117D01*
X002882Y027734D02*
X002822Y027734D01*
X002822Y027794D01*
X002882Y027794D01*
X002882Y027734D01*
X002882Y027918D02*
X002822Y027978D01*
X002822Y028098D01*
X002882Y028158D01*
X002942Y028158D01*
X003002Y028098D01*
X003002Y028038D01*
X003002Y028098D02*
X003062Y028158D01*
X003122Y028158D01*
X003182Y028098D01*
X003182Y027978D01*
X003122Y027918D01*
X002182Y027918D02*
X002002Y027918D01*
X002062Y028038D01*
X002062Y028098D01*
X002002Y028158D01*
X001882Y028158D01*
X001822Y028098D01*
X001822Y027978D01*
X001882Y027918D01*
X002002Y027790D02*
X002002Y027549D01*
X002122Y027670D02*
X001882Y027670D01*
X002182Y027918D02*
X002182Y028158D01*
X001182Y028098D02*
X001182Y027918D01*
X000822Y027918D01*
X000822Y028098D01*
X000882Y028158D01*
X001122Y028158D01*
X001182Y028098D01*
X001182Y027790D02*
X000822Y027790D01*
X001182Y027549D01*
X000822Y027549D01*
X000882Y027421D02*
X001002Y027421D01*
X001002Y027301D01*
X001122Y027181D02*
X000882Y027181D01*
X000822Y027241D01*
X000822Y027361D01*
X000882Y027421D01*
X001122Y027421D02*
X001182Y027361D01*
X001182Y027241D01*
X001122Y027181D01*
D11*
X016880Y029869D02*
X016880Y030229D01*
X017000Y030349D01*
X017120Y030229D01*
X017120Y029869D01*
X017360Y029869D02*
X017360Y030349D01*
X017240Y030349D01*
X017120Y030229D01*
X017616Y030229D02*
X017616Y029989D01*
X017736Y029869D01*
X017977Y029869D01*
X018097Y029989D01*
X018097Y030229D01*
X017977Y030349D01*
X017736Y030349D01*
X017616Y030229D01*
X018353Y030349D02*
X018713Y030349D01*
X018833Y030229D01*
X018833Y029989D01*
X018713Y029869D01*
X018353Y029869D01*
X019082Y029869D02*
X019202Y029869D01*
X019202Y029989D01*
X019082Y029989D01*
X019082Y029869D01*
X019458Y029989D02*
X019578Y030109D01*
X019818Y030109D01*
X019938Y030229D01*
X019818Y030349D01*
X019458Y030349D01*
X019458Y029989D02*
X019578Y029869D01*
X019938Y029869D01*
X020195Y029989D02*
X020195Y030229D01*
X020315Y030349D01*
X020675Y030349D01*
X020675Y030589D02*
X020675Y029869D01*
X020315Y029869D01*
X020195Y029989D01*
X020931Y030109D02*
X021291Y030109D01*
X021412Y029989D01*
X021291Y029869D01*
X020931Y029869D01*
X020931Y030229D01*
X021051Y030349D01*
X021291Y030349D01*
X021668Y029869D02*
X022148Y029869D01*
X022148Y030589D01*
X022404Y030229D02*
X022404Y029869D01*
X022645Y029869D02*
X022645Y030229D01*
X022524Y030349D01*
X022404Y030229D01*
X022645Y030229D02*
X022765Y030349D01*
X022885Y030349D01*
X022885Y029869D01*
X023141Y029989D02*
X023141Y030229D01*
X023261Y030349D01*
X023501Y030349D01*
X023621Y030229D01*
X023621Y029989D01*
X023501Y029869D01*
X023261Y029869D01*
X023141Y029989D01*
X023878Y029989D02*
X023878Y030229D01*
X023998Y030349D01*
X024238Y030349D01*
X024358Y030229D01*
X024358Y029989D01*
X024238Y029869D01*
X023998Y029869D01*
X023878Y029989D01*
X024614Y029869D02*
X024854Y030109D01*
X024734Y030109D02*
X025095Y030109D01*
X025095Y029869D02*
X025095Y030589D01*
X024734Y030589D01*
X024614Y030469D01*
X024614Y030229D01*
X024734Y030109D01*
X025345Y029869D02*
X025586Y029869D01*
X025466Y029869D02*
X025466Y030589D01*
X025586Y030589D01*
X025957Y030589D02*
X025957Y029869D01*
X026077Y029869D02*
X025837Y029869D01*
X026333Y029869D02*
X026333Y030229D01*
X026453Y030349D01*
X026693Y030349D01*
X026693Y030109D02*
X026333Y030109D01*
X026333Y029869D02*
X026693Y029869D01*
X026813Y029989D01*
X026693Y030109D01*
X027070Y030229D02*
X027070Y029869D01*
X027310Y029869D02*
X027310Y030229D01*
X027190Y030349D01*
X027070Y030229D01*
X027310Y030229D02*
X027430Y030349D01*
X027550Y030349D01*
X027550Y029869D01*
X027806Y029989D02*
X027926Y029869D01*
X028166Y029869D01*
X028287Y029989D01*
X028166Y030229D02*
X027926Y030229D01*
X027806Y030109D01*
X027806Y029989D01*
X028166Y030229D02*
X028287Y030349D01*
X028287Y030469D01*
X028166Y030589D01*
X027926Y030589D01*
X027806Y030469D01*
X026077Y030589D02*
X025957Y030589D01*
X025957Y020777D02*
X025957Y020056D01*
X026077Y020056D02*
X025837Y020056D01*
X025586Y020056D02*
X025345Y020056D01*
X025466Y020056D02*
X025466Y020777D01*
X025586Y020777D01*
X025957Y020777D02*
X026077Y020777D01*
X026333Y020416D02*
X026333Y020056D01*
X026693Y020056D01*
X026813Y020176D01*
X026693Y020296D01*
X026333Y020296D01*
X026333Y020416D02*
X026453Y020536D01*
X026693Y020536D01*
X027070Y020416D02*
X027070Y020056D01*
X027310Y020056D02*
X027310Y020416D01*
X027190Y020536D01*
X027070Y020416D01*
X027310Y020416D02*
X027430Y020536D01*
X027550Y020536D01*
X027550Y020056D01*
X027806Y020176D02*
X027926Y020056D01*
X028166Y020056D01*
X028287Y020176D01*
X028166Y020416D02*
X027926Y020416D01*
X027806Y020296D01*
X027806Y020176D01*
X028166Y020416D02*
X028287Y020536D01*
X028287Y020657D01*
X028166Y020777D01*
X027926Y020777D01*
X027806Y020657D01*
X025095Y020777D02*
X025095Y020056D01*
X025095Y020296D02*
X024734Y020296D01*
X024614Y020416D01*
X024614Y020657D01*
X024734Y020777D01*
X025095Y020777D01*
X024854Y020296D02*
X024614Y020056D01*
X024358Y020176D02*
X024358Y020416D01*
X024238Y020536D01*
X023998Y020536D01*
X023878Y020416D01*
X023878Y020176D01*
X023998Y020056D01*
X024238Y020056D01*
X024358Y020176D01*
X023621Y020176D02*
X023501Y020056D01*
X023261Y020056D01*
X023141Y020176D01*
X023141Y020416D01*
X023261Y020536D01*
X023501Y020536D01*
X023621Y020416D01*
X023621Y020176D01*
X022885Y020056D02*
X022885Y020536D01*
X022765Y020536D01*
X022645Y020416D01*
X022524Y020536D01*
X022404Y020416D01*
X022404Y020056D01*
X022645Y020056D02*
X022645Y020416D01*
X022148Y020056D02*
X021668Y020056D01*
X021412Y020176D02*
X021291Y020296D01*
X020931Y020296D01*
X020931Y020416D02*
X020931Y020056D01*
X021291Y020056D01*
X021412Y020176D01*
X021291Y020536D02*
X021051Y020536D01*
X020931Y020416D01*
X020675Y020536D02*
X020315Y020536D01*
X020195Y020416D01*
X020195Y020176D01*
X020315Y020056D01*
X020675Y020056D01*
X020675Y020777D01*
X019938Y020416D02*
X019818Y020296D01*
X019578Y020296D01*
X019458Y020176D01*
X019578Y020056D01*
X019938Y020056D01*
X019938Y020416D02*
X019818Y020536D01*
X019458Y020536D01*
X019202Y020176D02*
X019082Y020176D01*
X019082Y020056D01*
X019202Y020056D01*
X019202Y020176D01*
X018833Y020176D02*
X018833Y020416D01*
X018713Y020536D01*
X018353Y020536D01*
X018097Y020416D02*
X018097Y020176D01*
X017977Y020056D01*
X017736Y020056D01*
X017616Y020176D01*
X017616Y020416D01*
X017736Y020536D01*
X017977Y020536D01*
X018097Y020416D01*
X018353Y020056D02*
X018713Y020056D01*
X018833Y020176D01*
X017360Y020056D02*
X017360Y020536D01*
X017240Y020536D01*
X017120Y020416D01*
X017000Y020536D01*
X016880Y020416D01*
X016880Y020056D01*
X017120Y020056D02*
X017120Y020416D01*
X022148Y020777D02*
X022148Y020056D01*
X022148Y010964D02*
X022148Y010244D01*
X021668Y010244D01*
X021412Y010364D02*
X021291Y010484D01*
X020931Y010484D01*
X020931Y010604D02*
X020931Y010244D01*
X021291Y010244D01*
X021412Y010364D01*
X021291Y010724D02*
X021051Y010724D01*
X020931Y010604D01*
X020675Y010724D02*
X020315Y010724D01*
X020195Y010604D01*
X020195Y010364D01*
X020315Y010244D01*
X020675Y010244D01*
X020675Y010964D01*
X019938Y010604D02*
X019818Y010484D01*
X019578Y010484D01*
X019458Y010364D01*
X019578Y010244D01*
X019938Y010244D01*
X019938Y010604D02*
X019818Y010724D01*
X019458Y010724D01*
X019202Y010364D02*
X019082Y010364D01*
X019082Y010244D01*
X019202Y010244D01*
X019202Y010364D01*
X018833Y010364D02*
X018833Y010604D01*
X018713Y010724D01*
X018353Y010724D01*
X018097Y010604D02*
X018097Y010364D01*
X017977Y010244D01*
X017736Y010244D01*
X017616Y010364D01*
X017616Y010604D01*
X017736Y010724D01*
X017977Y010724D01*
X018097Y010604D01*
X018353Y010244D02*
X018713Y010244D01*
X018833Y010364D01*
X017360Y010244D02*
X017360Y010724D01*
X017240Y010724D01*
X017120Y010604D01*
X017000Y010724D01*
X016880Y010604D01*
X016880Y010244D01*
X017120Y010244D02*
X017120Y010604D01*
X022404Y010604D02*
X022404Y010244D01*
X022645Y010244D02*
X022645Y010604D01*
X022524Y010724D01*
X022404Y010604D01*
X022645Y010604D02*
X022765Y010724D01*
X022885Y010724D01*
X022885Y010244D01*
X023141Y010364D02*
X023141Y010604D01*
X023261Y010724D01*
X023501Y010724D01*
X023621Y010604D01*
X023621Y010364D01*
X023501Y010244D01*
X023261Y010244D01*
X023141Y010364D01*
X023878Y010364D02*
X023878Y010604D01*
X023998Y010724D01*
X024238Y010724D01*
X024358Y010604D01*
X024358Y010364D01*
X024238Y010244D01*
X023998Y010244D01*
X023878Y010364D01*
X024614Y010244D02*
X024854Y010484D01*
X024734Y010484D02*
X025095Y010484D01*
X025095Y010244D02*
X025095Y010964D01*
X024734Y010964D01*
X024614Y010844D01*
X024614Y010604D01*
X024734Y010484D01*
X025345Y010244D02*
X025586Y010244D01*
X025466Y010244D02*
X025466Y010964D01*
X025586Y010964D01*
X025957Y010964D02*
X025957Y010244D01*
X026077Y010244D02*
X025837Y010244D01*
X026333Y010244D02*
X026333Y010604D01*
X026453Y010724D01*
X026693Y010724D01*
X026693Y010484D02*
X026333Y010484D01*
X026333Y010244D02*
X026693Y010244D01*
X026813Y010364D01*
X026693Y010484D01*
X027070Y010604D02*
X027070Y010244D01*
X027310Y010244D02*
X027310Y010604D01*
X027190Y010724D01*
X027070Y010604D01*
X027310Y010604D02*
X027430Y010724D01*
X027550Y010724D01*
X027550Y010244D01*
X027806Y010364D02*
X027926Y010244D01*
X028166Y010244D01*
X028287Y010364D01*
X028166Y010604D02*
X027926Y010604D01*
X027806Y010484D01*
X027806Y010364D01*
X028166Y010604D02*
X028287Y010724D01*
X028287Y010844D01*
X028166Y010964D01*
X027926Y010964D01*
X027806Y010844D01*
X026077Y010964D02*
X025957Y010964D01*
X025957Y001152D02*
X025957Y000431D01*
X026077Y000431D02*
X025837Y000431D01*
X025586Y000431D02*
X025345Y000431D01*
X025466Y000431D02*
X025466Y001152D01*
X025586Y001152D01*
X025957Y001152D02*
X026077Y001152D01*
X026333Y000791D02*
X026333Y000431D01*
X026693Y000431D01*
X026813Y000551D01*
X026693Y000671D01*
X026333Y000671D01*
X026333Y000791D02*
X026453Y000911D01*
X026693Y000911D01*
X027070Y000791D02*
X027070Y000431D01*
X027310Y000431D02*
X027310Y000791D01*
X027190Y000911D01*
X027070Y000791D01*
X027310Y000791D02*
X027430Y000911D01*
X027550Y000911D01*
X027550Y000431D01*
X027806Y000551D02*
X027926Y000431D01*
X028166Y000431D01*
X028287Y000551D01*
X028166Y000791D02*
X027926Y000791D01*
X027806Y000671D01*
X027806Y000551D01*
X028166Y000791D02*
X028287Y000911D01*
X028287Y001032D01*
X028166Y001152D01*
X027926Y001152D01*
X027806Y001032D01*
X025095Y001152D02*
X025095Y000431D01*
X025095Y000671D02*
X024734Y000671D01*
X024614Y000791D01*
X024614Y001032D01*
X024734Y001152D01*
X025095Y001152D01*
X024854Y000671D02*
X024614Y000431D01*
X024358Y000551D02*
X024238Y000431D01*
X023998Y000431D01*
X023878Y000551D01*
X023878Y000791D01*
X023998Y000911D01*
X024238Y000911D01*
X024358Y000791D01*
X024358Y000551D01*
X023621Y000551D02*
X023501Y000431D01*
X023261Y000431D01*
X023141Y000551D01*
X023141Y000791D01*
X023261Y000911D01*
X023501Y000911D01*
X023621Y000791D01*
X023621Y000551D01*
X022885Y000431D02*
X022885Y000911D01*
X022765Y000911D01*
X022645Y000791D01*
X022524Y000911D01*
X022404Y000791D01*
X022404Y000431D01*
X022645Y000431D02*
X022645Y000791D01*
X022148Y000431D02*
X021668Y000431D01*
X021412Y000551D02*
X021291Y000671D01*
X020931Y000671D01*
X020931Y000791D02*
X020931Y000431D01*
X021291Y000431D01*
X021412Y000551D01*
X021291Y000911D02*
X021051Y000911D01*
X020931Y000791D01*
X020675Y000911D02*
X020315Y000911D01*
X020195Y000791D01*
X020195Y000551D01*
X020315Y000431D01*
X020675Y000431D01*
X020675Y001152D01*
X019938Y000791D02*
X019818Y000911D01*
X019458Y000911D01*
X019578Y000671D02*
X019818Y000671D01*
X019938Y000791D01*
X019938Y000431D02*
X019578Y000431D01*
X019458Y000551D01*
X019578Y000671D01*
X019202Y000551D02*
X019082Y000551D01*
X019082Y000431D01*
X019202Y000431D01*
X019202Y000551D01*
X018833Y000551D02*
X018713Y000431D01*
X018353Y000431D01*
X018097Y000551D02*
X017977Y000431D01*
X017736Y000431D01*
X017616Y000551D01*
X017616Y000791D01*
X017736Y000911D01*
X017977Y000911D01*
X018097Y000791D01*
X018097Y000551D01*
X018353Y000911D02*
X018713Y000911D01*
X018833Y000791D01*
X018833Y000551D01*
X017360Y000431D02*
X017360Y000911D01*
X017240Y000911D01*
X017120Y000791D01*
X017000Y000911D01*
X016880Y000791D01*
X016880Y000431D01*
X017120Y000431D02*
X017120Y000791D01*
X022148Y001152D02*
X022148Y000431D01*
D12*
X007047Y002046D02*
X007047Y002787D01*
X006800Y002540D01*
X006553Y002787D01*
X006553Y002046D01*
X006310Y002170D02*
X006310Y002416D01*
X006187Y002540D01*
X005940Y002540D01*
X005816Y002416D01*
X005816Y002293D01*
X006310Y002293D01*
X006310Y002170D02*
X006187Y002046D01*
X005940Y002046D01*
X005573Y002170D02*
X005450Y002046D01*
X005080Y002046D01*
X005080Y001923D02*
X005080Y002540D01*
X005450Y002540D01*
X005573Y002416D01*
X005573Y002170D01*
X005326Y001799D02*
X005203Y001799D01*
X005080Y001923D01*
X004837Y002170D02*
X004713Y002293D01*
X004343Y002293D01*
X004343Y002416D02*
X004343Y002046D01*
X004713Y002046D01*
X004837Y002170D01*
X004713Y002540D02*
X004466Y002540D01*
X004343Y002416D01*
X004100Y002170D02*
X004100Y002787D01*
X003606Y002787D02*
X003606Y002170D01*
X003730Y002046D01*
X003977Y002046D01*
X004100Y002170D01*
X003364Y002416D02*
X002870Y002416D01*
X002993Y002046D02*
X002993Y002787D01*
X003364Y002416D01*
X002627Y002046D02*
X002257Y002046D01*
X002133Y002170D01*
X002133Y002663D01*
X002257Y002787D01*
X002627Y002787D01*
X002627Y002046D01*
X001890Y002170D02*
X001890Y002416D01*
X001767Y002540D01*
X001520Y002540D01*
X001397Y002416D01*
X001397Y002293D01*
X001890Y002293D01*
X001890Y002170D02*
X001767Y002046D01*
X001520Y002046D01*
X000907Y002046D02*
X001154Y002540D01*
X000660Y002540D02*
X000907Y002046D01*
X005203Y011612D02*
X005080Y011735D01*
X005080Y012352D01*
X005450Y012352D01*
X005573Y012229D01*
X005573Y011982D01*
X005450Y011859D01*
X005080Y011859D01*
X004837Y011982D02*
X004713Y012105D01*
X004343Y012105D01*
X004343Y012229D02*
X004343Y011859D01*
X004713Y011859D01*
X004837Y011982D01*
X004713Y012352D02*
X004466Y012352D01*
X004343Y012229D01*
X004100Y011982D02*
X003977Y011859D01*
X003730Y011859D01*
X003606Y011982D01*
X003606Y012599D01*
X003364Y012229D02*
X002870Y012229D01*
X002993Y012599D02*
X003364Y012229D01*
X002993Y011859D02*
X002993Y012599D01*
X002627Y012599D02*
X002627Y011859D01*
X002257Y011859D01*
X002133Y011982D01*
X002133Y012476D01*
X002257Y012599D01*
X002627Y012599D01*
X001890Y012229D02*
X001890Y011982D01*
X001767Y011859D01*
X001520Y011859D01*
X001397Y012105D02*
X001890Y012105D01*
X001890Y012229D02*
X001767Y012352D01*
X001520Y012352D01*
X001397Y012229D01*
X001397Y012105D01*
X001154Y012352D02*
X000907Y011859D01*
X000660Y012352D01*
X004100Y012599D02*
X004100Y011982D01*
X005203Y011612D02*
X005326Y011612D01*
X005940Y011859D02*
X006187Y011859D01*
X006310Y011982D01*
X006310Y012229D01*
X006187Y012352D01*
X005940Y012352D01*
X005816Y012229D01*
X005816Y012105D01*
X006310Y012105D01*
X006553Y011859D02*
X006553Y012599D01*
X006800Y012352D01*
X007047Y012599D01*
X007047Y011859D01*
X005326Y021424D02*
X005203Y021424D01*
X005080Y021548D01*
X005080Y022165D01*
X005450Y022165D01*
X005573Y022041D01*
X005573Y021795D01*
X005450Y021671D01*
X005080Y021671D01*
X004837Y021795D02*
X004713Y021918D01*
X004343Y021918D01*
X004343Y022041D02*
X004343Y021671D01*
X004713Y021671D01*
X004837Y021795D01*
X004713Y022165D02*
X004466Y022165D01*
X004343Y022041D01*
X004100Y021795D02*
X003977Y021671D01*
X003730Y021671D01*
X003606Y021795D01*
X003606Y022412D01*
X003364Y022041D02*
X002870Y022041D01*
X002993Y021671D02*
X002993Y022412D01*
X003364Y022041D01*
X004100Y021795D02*
X004100Y022412D01*
X002627Y022412D02*
X002627Y021671D01*
X002257Y021671D01*
X002133Y021795D01*
X002133Y022288D01*
X002257Y022412D01*
X002627Y022412D01*
X001890Y022041D02*
X001890Y021795D01*
X001767Y021671D01*
X001520Y021671D01*
X001397Y021918D02*
X001890Y021918D01*
X001890Y022041D02*
X001767Y022165D01*
X001520Y022165D01*
X001397Y022041D01*
X001397Y021918D01*
X001154Y022165D02*
X000907Y021671D01*
X000660Y022165D01*
X005816Y022041D02*
X005816Y021918D01*
X006310Y021918D01*
X006310Y021795D02*
X006310Y022041D01*
X006187Y022165D01*
X005940Y022165D01*
X005816Y022041D01*
X005940Y021671D02*
X006187Y021671D01*
X006310Y021795D01*
X006553Y021671D02*
X006553Y022412D01*
X006800Y022165D01*
X007047Y022412D01*
X007047Y021671D01*
X005326Y031237D02*
X005203Y031237D01*
X005080Y031360D01*
X005080Y031977D01*
X005450Y031977D01*
X005573Y031854D01*
X005573Y031607D01*
X005450Y031484D01*
X005080Y031484D01*
X004837Y031607D02*
X004713Y031730D01*
X004343Y031730D01*
X004343Y031854D02*
X004343Y031484D01*
X004713Y031484D01*
X004837Y031607D01*
X004713Y031977D02*
X004466Y031977D01*
X004343Y031854D01*
X004100Y031607D02*
X003977Y031484D01*
X003730Y031484D01*
X003606Y031607D01*
X003606Y032224D01*
X003364Y031854D02*
X002870Y031854D01*
X002993Y031484D02*
X002993Y032224D01*
X003364Y031854D01*
X004100Y031607D02*
X004100Y032224D01*
X002627Y032224D02*
X002627Y031484D01*
X002257Y031484D01*
X002133Y031607D01*
X002133Y032101D01*
X002257Y032224D01*
X002627Y032224D01*
X001890Y031854D02*
X001890Y031607D01*
X001767Y031484D01*
X001520Y031484D01*
X001397Y031730D02*
X001890Y031730D01*
X001890Y031854D02*
X001767Y031977D01*
X001520Y031977D01*
X001397Y031854D01*
X001397Y031730D01*
X001154Y031977D02*
X000907Y031484D01*
X000660Y031977D01*
X005816Y031854D02*
X005816Y031730D01*
X006310Y031730D01*
X006310Y031607D02*
X006310Y031854D01*
X006187Y031977D01*
X005940Y031977D01*
X005816Y031854D01*
X005940Y031484D02*
X006187Y031484D01*
X006310Y031607D01*
X006553Y031484D02*
X006553Y032224D01*
X006800Y031977D01*
X007047Y032224D01*
X007047Y031484D01*
D13*
X012264Y034907D02*
X012264Y035215D01*
X012449Y035215D01*
X012510Y035154D01*
X012510Y035030D01*
X012449Y034969D01*
X012264Y034969D01*
X012264Y034907D02*
X012325Y034845D01*
X012387Y034845D01*
X012694Y034969D02*
X012817Y034969D01*
X012879Y035030D01*
X012879Y035154D01*
X012817Y035215D01*
X012694Y035215D01*
X012632Y035154D01*
X012632Y035092D01*
X012879Y035092D01*
X013000Y035215D02*
X013062Y035215D01*
X013186Y035092D01*
X013307Y035092D02*
X013307Y035339D01*
X013186Y035215D02*
X013186Y034969D01*
X013307Y035092D02*
X013430Y034969D01*
X013554Y035092D01*
X013554Y035339D01*
X014044Y035277D02*
X014044Y035215D01*
X014105Y035154D01*
X014044Y035092D01*
X014044Y035030D01*
X014105Y034969D01*
X014229Y034969D01*
X014290Y035030D01*
X014413Y035030D02*
X014413Y034969D01*
X014475Y034969D01*
X014475Y035030D01*
X014413Y035030D01*
X014596Y035030D02*
X014658Y034969D01*
X014781Y034969D01*
X014843Y035030D01*
X014719Y035154D02*
X014658Y035154D01*
X014596Y035092D01*
X014596Y035030D01*
X014658Y035154D02*
X014596Y035215D01*
X014596Y035277D01*
X014658Y035339D01*
X014781Y035339D01*
X014843Y035277D01*
X014290Y035277D02*
X014229Y035339D01*
X014105Y035339D01*
X014044Y035277D01*
X014105Y035154D02*
X014167Y035154D01*
X014106Y035969D02*
X014106Y036215D01*
X014106Y036092D02*
X013983Y036215D01*
X013921Y036215D01*
X013799Y036215D02*
X013676Y036215D01*
X013738Y036277D02*
X013738Y036030D01*
X013676Y035969D01*
X014228Y036030D02*
X014228Y036154D01*
X014289Y036215D01*
X014413Y036215D01*
X014475Y036154D01*
X014475Y036030D01*
X014413Y035969D01*
X014289Y035969D01*
X014228Y036030D01*
X014596Y036030D02*
X014658Y035969D01*
X014843Y035969D01*
X014843Y035845D02*
X014843Y036215D01*
X014658Y036215D01*
X014596Y036154D01*
X014596Y036030D01*
X015333Y036030D02*
X015394Y035969D01*
X015579Y035969D01*
X015579Y036339D01*
X015394Y036339D01*
X015333Y036277D01*
X015333Y036215D01*
X015394Y036154D01*
X015579Y036154D01*
X015701Y036092D02*
X015701Y036030D01*
X015763Y035969D01*
X015886Y035969D01*
X015948Y036030D01*
X016069Y036030D02*
X016069Y036339D01*
X015948Y036277D02*
X015948Y036215D01*
X015886Y036154D01*
X015763Y036154D01*
X015701Y036092D01*
X015701Y036277D02*
X015763Y036339D01*
X015886Y036339D01*
X015948Y036277D01*
X016069Y036030D02*
X016131Y035969D01*
X016254Y035969D01*
X016316Y036030D01*
X016316Y036339D01*
X016806Y036154D02*
X016806Y035969D01*
X016929Y035969D02*
X016929Y036154D01*
X016868Y036215D01*
X016806Y036154D01*
X016929Y036154D02*
X016991Y036215D01*
X017053Y036215D01*
X017053Y035969D01*
X017174Y036030D02*
X017174Y036154D01*
X017236Y036215D01*
X017359Y036215D01*
X017421Y036154D01*
X017421Y036030D01*
X017359Y035969D01*
X017236Y035969D01*
X017174Y036030D01*
X017543Y036215D02*
X017604Y036215D01*
X017728Y036092D01*
X017728Y035969D02*
X017728Y036215D01*
X017850Y036154D02*
X017973Y036154D01*
X017912Y036277D02*
X017912Y035969D01*
X017912Y036277D02*
X017850Y036339D01*
X018463Y036277D02*
X018525Y036339D01*
X018648Y036339D01*
X018710Y036277D01*
X018710Y036030D01*
X018648Y035969D01*
X018525Y035969D01*
X018463Y036030D01*
X018831Y036030D02*
X018893Y035969D01*
X019017Y035969D01*
X019078Y036030D01*
X019078Y036277D01*
X019017Y036339D01*
X018893Y036339D01*
X018831Y036277D01*
X019200Y036339D02*
X019200Y036092D01*
X019323Y035969D01*
X019447Y036092D01*
X019447Y036339D01*
X019936Y036154D02*
X019936Y036092D01*
X020183Y036092D01*
X020183Y036030D02*
X020183Y036154D01*
X020122Y036215D01*
X019998Y036215D01*
X019936Y036154D01*
X019998Y035969D02*
X020122Y035969D01*
X020183Y036030D01*
X020305Y035969D02*
X020490Y036092D01*
X020305Y036215D01*
X020490Y036339D02*
X020490Y035969D01*
X020612Y035969D02*
X020797Y035969D01*
X020858Y036030D01*
X020797Y036092D01*
X020612Y036092D01*
X020612Y036154D02*
X020612Y035969D01*
X020612Y036154D02*
X020673Y036215D01*
X020797Y036215D01*
X020980Y036339D02*
X021227Y036339D01*
X021103Y036339D02*
X021103Y035969D01*
X021716Y036092D02*
X021963Y036092D01*
X021963Y036215D02*
X021716Y036215D01*
X022453Y036215D02*
X022515Y036154D01*
X022700Y036154D01*
X022821Y036092D02*
X022821Y036030D01*
X022883Y035969D01*
X023007Y035969D01*
X023068Y036030D01*
X023190Y036030D02*
X023190Y036339D01*
X023068Y036277D02*
X023068Y036215D01*
X023007Y036154D01*
X022883Y036154D01*
X022821Y036092D01*
X022700Y035969D02*
X022515Y035969D01*
X022453Y036030D01*
X022453Y036092D01*
X022515Y036154D01*
X022453Y036215D02*
X022453Y036277D01*
X022515Y036339D01*
X022700Y036339D01*
X022700Y035969D01*
X022821Y036277D02*
X022883Y036339D01*
X023007Y036339D01*
X023068Y036277D01*
X023190Y036030D02*
X023251Y035969D01*
X023375Y035969D01*
X023437Y036030D01*
X023437Y036339D01*
X023375Y035339D02*
X023251Y035339D01*
X023190Y035277D01*
X023190Y035215D01*
X023251Y035154D01*
X023190Y035092D01*
X023190Y035030D01*
X023251Y034969D01*
X023375Y034969D01*
X023437Y035030D01*
X023313Y035154D02*
X023251Y035154D01*
X023068Y035092D02*
X022945Y034969D01*
X022821Y035092D01*
X022821Y035339D01*
X022700Y035215D02*
X022700Y034969D01*
X022700Y035092D02*
X022577Y035215D01*
X022515Y035215D01*
X022393Y035154D02*
X022331Y035215D01*
X022208Y035215D01*
X022146Y035154D01*
X022146Y035092D01*
X022393Y035092D01*
X022393Y035030D02*
X022393Y035154D01*
X022393Y035030D02*
X022331Y034969D01*
X022208Y034969D01*
X022025Y035030D02*
X021963Y034969D01*
X021778Y034969D01*
X021778Y034907D02*
X021778Y035215D01*
X021963Y035215D01*
X022025Y035154D01*
X022025Y035030D01*
X021901Y034845D02*
X021840Y034845D01*
X021778Y034907D01*
X021716Y034215D02*
X021963Y034215D01*
X021963Y034092D02*
X021716Y034092D01*
X021227Y034092D02*
X021103Y033969D01*
X020980Y034092D01*
X020980Y034339D01*
X020858Y034277D02*
X020858Y034030D01*
X020797Y033969D01*
X020673Y033969D01*
X020612Y034030D01*
X020490Y034030D02*
X020428Y033969D01*
X020305Y033969D01*
X020243Y034030D01*
X020490Y034030D02*
X020490Y034277D01*
X020428Y034339D01*
X020305Y034339D01*
X020243Y034277D01*
X020612Y034277D02*
X020673Y034339D01*
X020797Y034339D01*
X020858Y034277D01*
X021227Y034339D02*
X021227Y034092D01*
X020490Y034969D02*
X020366Y034969D01*
X020305Y035030D01*
X020183Y035030D02*
X020122Y034969D01*
X019998Y034969D01*
X019936Y035030D01*
X019936Y035154D01*
X019998Y035215D01*
X020122Y035215D01*
X020183Y035154D01*
X020183Y035030D01*
X020305Y035277D02*
X020366Y035339D01*
X020490Y035339D01*
X020552Y035277D01*
X020552Y035030D01*
X020490Y034969D01*
X021041Y035092D02*
X021288Y035092D01*
X021288Y035215D02*
X021041Y035215D01*
X019815Y035215D02*
X019815Y034969D01*
X019815Y035215D02*
X019630Y035215D01*
X019568Y035154D01*
X019568Y034969D01*
X019447Y034969D02*
X019447Y035215D01*
X019261Y035215D01*
X019200Y035154D01*
X019200Y034969D01*
X019078Y035030D02*
X019078Y035154D01*
X019017Y035215D01*
X018893Y035215D01*
X018831Y035154D01*
X018831Y035092D01*
X019078Y035092D01*
X019078Y035030D02*
X019017Y034969D01*
X018893Y034969D01*
X018710Y035030D02*
X018648Y034969D01*
X018463Y034969D01*
X018280Y035030D02*
X018218Y034969D01*
X018280Y035030D02*
X018280Y035277D01*
X018342Y035215D02*
X018218Y035215D01*
X018463Y035215D02*
X018648Y035215D01*
X018710Y035154D01*
X018710Y035030D01*
X018280Y034339D02*
X018219Y034339D01*
X018219Y033969D01*
X018280Y033969D02*
X018157Y033969D01*
X017973Y034030D02*
X017973Y034277D01*
X018035Y034215D02*
X017911Y034215D01*
X017973Y034030D02*
X017911Y033969D01*
X018402Y034030D02*
X018402Y034154D01*
X018463Y034215D01*
X018587Y034215D01*
X018649Y034154D01*
X018649Y034030D01*
X018587Y033969D01*
X018463Y033969D01*
X018402Y034030D01*
X018770Y034215D02*
X018893Y033969D01*
X019017Y034215D01*
X019507Y034154D02*
X019507Y034030D01*
X019568Y033969D01*
X019692Y033969D01*
X019754Y034030D01*
X019754Y034154D02*
X019630Y034215D01*
X019568Y034215D01*
X019507Y034154D01*
X019507Y034339D02*
X019754Y034339D01*
X019754Y034154D01*
X017728Y034969D02*
X017604Y034969D01*
X017666Y034969D02*
X017666Y035215D01*
X017728Y035215D01*
X017666Y035339D02*
X017666Y035401D01*
X017482Y035215D02*
X017482Y034969D01*
X017482Y035215D02*
X017297Y035215D01*
X017236Y035154D01*
X017236Y034969D01*
X017052Y035030D02*
X016991Y034969D01*
X017052Y035030D02*
X017052Y035277D01*
X016991Y035215D02*
X017114Y035215D01*
X016869Y035154D02*
X016807Y035215D01*
X016683Y035215D01*
X016622Y035154D01*
X016622Y035092D01*
X016869Y035092D01*
X016869Y035030D02*
X016869Y035154D01*
X016869Y035030D02*
X016807Y034969D01*
X016683Y034969D01*
X016500Y034969D02*
X016500Y035215D01*
X016500Y035092D02*
X016377Y035215D01*
X016315Y035215D01*
X016193Y035215D02*
X016193Y034969D01*
X016193Y035215D02*
X016008Y035215D01*
X015946Y035154D01*
X015946Y034969D01*
X015825Y035030D02*
X015763Y035092D01*
X015578Y035092D01*
X015578Y035154D02*
X015578Y034969D01*
X015763Y034969D01*
X015825Y035030D01*
X015763Y035215D02*
X015640Y035215D01*
X015578Y035154D01*
X015457Y035339D02*
X015395Y035339D01*
X015395Y034969D01*
X015457Y034969D02*
X015333Y034969D01*
X015640Y034339D02*
X015578Y034277D01*
X015578Y034215D01*
X015640Y034154D01*
X015578Y034092D01*
X015578Y034030D01*
X015640Y033969D01*
X015763Y033969D01*
X015825Y034030D01*
X015947Y034030D02*
X015947Y033969D01*
X016009Y033969D01*
X016009Y034030D01*
X015947Y034030D01*
X016131Y034030D02*
X016192Y033969D01*
X016316Y033969D01*
X016377Y034030D01*
X016254Y034154D02*
X016192Y034154D01*
X016131Y034092D01*
X016131Y034030D01*
X016192Y034154D02*
X016131Y034215D01*
X016131Y034277D01*
X016192Y034339D01*
X016316Y034339D01*
X016377Y034277D01*
X016867Y034215D02*
X016929Y034215D01*
X017053Y034092D01*
X017053Y033969D02*
X017053Y034215D01*
X017174Y034154D02*
X017236Y034215D01*
X017359Y034215D01*
X017421Y034154D01*
X017421Y034030D01*
X017359Y033969D01*
X017236Y033969D01*
X017174Y034030D01*
X017174Y034154D01*
X015825Y034277D02*
X015763Y034339D01*
X015640Y034339D01*
X015640Y034154D02*
X015702Y034154D01*
X015088Y034215D02*
X014965Y033969D01*
X014842Y034215D01*
X014720Y034154D02*
X014658Y034215D01*
X014535Y034215D01*
X014473Y034154D01*
X014473Y034030D01*
X014535Y033969D01*
X014658Y033969D01*
X014720Y034030D01*
X014720Y034154D01*
X014352Y034339D02*
X014290Y034339D01*
X014290Y033969D01*
X014352Y033969D02*
X014228Y033969D01*
X014045Y034030D02*
X013983Y033969D01*
X014045Y034030D02*
X014045Y034277D01*
X014106Y034215D02*
X013983Y034215D01*
X015333Y036030D02*
X015333Y036092D01*
X015394Y036154D01*
X022453Y034277D02*
X022453Y034215D01*
X022515Y034154D01*
X022453Y034092D01*
X022453Y034030D01*
X022515Y033969D01*
X022638Y033969D01*
X022700Y034030D01*
X022577Y034154D02*
X022515Y034154D01*
X022453Y034277D02*
X022515Y034339D01*
X022638Y034339D01*
X022700Y034277D01*
X022821Y034339D02*
X023068Y033969D01*
X023190Y034030D02*
X023251Y033969D01*
X023375Y033969D01*
X023437Y034030D01*
X023437Y034154D02*
X023313Y034215D01*
X023251Y034215D01*
X023190Y034154D01*
X023190Y034030D01*
X023437Y034154D02*
X023437Y034339D01*
X023190Y034339D01*
X023068Y035092D02*
X023068Y035339D01*
X023375Y035339D02*
X023437Y035277D01*
X023437Y026526D02*
X023437Y026218D01*
X023375Y026156D01*
X023251Y026156D01*
X023190Y026218D01*
X023190Y026526D01*
X023068Y026465D02*
X023068Y026403D01*
X023007Y026341D01*
X022883Y026341D01*
X022821Y026280D01*
X022821Y026218D01*
X022883Y026156D01*
X023007Y026156D01*
X023068Y026218D01*
X023068Y026465D02*
X023007Y026526D01*
X022883Y026526D01*
X022821Y026465D01*
X022700Y026526D02*
X022515Y026526D01*
X022453Y026465D01*
X022453Y026403D01*
X022515Y026341D01*
X022700Y026341D01*
X022700Y026156D02*
X022515Y026156D01*
X022453Y026218D01*
X022453Y026280D01*
X022515Y026341D01*
X022700Y026156D02*
X022700Y026526D01*
X021963Y026403D02*
X021716Y026403D01*
X021716Y026280D02*
X021963Y026280D01*
X021227Y026526D02*
X020980Y026526D01*
X021103Y026526D02*
X021103Y026156D01*
X020858Y026218D02*
X020797Y026280D01*
X020612Y026280D01*
X020612Y026341D02*
X020612Y026156D01*
X020797Y026156D01*
X020858Y026218D01*
X020797Y026403D02*
X020673Y026403D01*
X020612Y026341D01*
X020490Y026280D02*
X020305Y026403D01*
X020183Y026341D02*
X020122Y026403D01*
X019998Y026403D01*
X019936Y026341D01*
X019936Y026280D01*
X020183Y026280D01*
X020183Y026341D02*
X020183Y026218D01*
X020122Y026156D01*
X019998Y026156D01*
X020305Y026156D02*
X020490Y026280D01*
X020490Y026156D02*
X020490Y026526D01*
X020490Y025526D02*
X020366Y025526D01*
X020305Y025465D01*
X020183Y025341D02*
X020183Y025218D01*
X020122Y025156D01*
X019998Y025156D01*
X019936Y025218D01*
X019936Y025341D01*
X019998Y025403D01*
X020122Y025403D01*
X020183Y025341D01*
X020305Y025218D02*
X020366Y025156D01*
X020490Y025156D01*
X020552Y025218D01*
X020552Y025465D01*
X020490Y025526D01*
X021041Y025403D02*
X021288Y025403D01*
X021288Y025280D02*
X021041Y025280D01*
X021778Y025403D02*
X021778Y025094D01*
X021840Y025033D01*
X021901Y025033D01*
X021963Y025156D02*
X021778Y025156D01*
X021963Y025156D02*
X022025Y025218D01*
X022025Y025341D01*
X021963Y025403D01*
X021778Y025403D01*
X022146Y025341D02*
X022146Y025280D01*
X022393Y025280D01*
X022393Y025341D02*
X022331Y025403D01*
X022208Y025403D01*
X022146Y025341D01*
X022208Y025156D02*
X022331Y025156D01*
X022393Y025218D01*
X022393Y025341D01*
X022515Y025403D02*
X022577Y025403D01*
X022700Y025280D01*
X022821Y025280D02*
X022821Y025526D01*
X022700Y025403D02*
X022700Y025156D01*
X022821Y025280D02*
X022945Y025156D01*
X023068Y025280D01*
X023068Y025526D01*
X023190Y025465D02*
X023190Y025403D01*
X023251Y025341D01*
X023190Y025280D01*
X023190Y025218D01*
X023251Y025156D01*
X023375Y025156D01*
X023437Y025218D01*
X023313Y025341D02*
X023251Y025341D01*
X023190Y025465D02*
X023251Y025526D01*
X023375Y025526D01*
X023437Y025465D01*
X023437Y024526D02*
X023190Y024526D01*
X023251Y024403D02*
X023190Y024341D01*
X023190Y024218D01*
X023251Y024156D01*
X023375Y024156D01*
X023437Y024218D01*
X023437Y024341D02*
X023313Y024403D01*
X023251Y024403D01*
X023437Y024341D02*
X023437Y024526D01*
X023068Y024156D02*
X022821Y024526D01*
X022700Y024465D02*
X022638Y024526D01*
X022515Y024526D01*
X022453Y024465D01*
X022453Y024403D01*
X022515Y024341D01*
X022453Y024280D01*
X022453Y024218D01*
X022515Y024156D01*
X022638Y024156D01*
X022700Y024218D01*
X022577Y024341D02*
X022515Y024341D01*
X021963Y024280D02*
X021716Y024280D01*
X021716Y024403D02*
X021963Y024403D01*
X021227Y024526D02*
X021227Y024280D01*
X021103Y024156D01*
X020980Y024280D01*
X020980Y024526D01*
X020858Y024465D02*
X020858Y024218D01*
X020797Y024156D01*
X020673Y024156D01*
X020612Y024218D01*
X020490Y024218D02*
X020428Y024156D01*
X020305Y024156D01*
X020243Y024218D01*
X020243Y024465D02*
X020305Y024526D01*
X020428Y024526D01*
X020490Y024465D01*
X020490Y024218D01*
X020612Y024465D02*
X020673Y024526D01*
X020797Y024526D01*
X020858Y024465D01*
X019754Y024526D02*
X019754Y024341D01*
X019630Y024403D01*
X019568Y024403D01*
X019507Y024341D01*
X019507Y024218D01*
X019568Y024156D01*
X019692Y024156D01*
X019754Y024218D01*
X019754Y024526D02*
X019507Y024526D01*
X019447Y025156D02*
X019447Y025403D01*
X019261Y025403D01*
X019200Y025341D01*
X019200Y025156D01*
X019078Y025218D02*
X019078Y025341D01*
X019017Y025403D01*
X018893Y025403D01*
X018831Y025341D01*
X018831Y025280D01*
X019078Y025280D01*
X019078Y025218D02*
X019017Y025156D01*
X018893Y025156D01*
X018710Y025218D02*
X018710Y025341D01*
X018648Y025403D01*
X018463Y025403D01*
X018342Y025403D02*
X018218Y025403D01*
X018280Y025465D02*
X018280Y025218D01*
X018218Y025156D01*
X018463Y025156D02*
X018648Y025156D01*
X018710Y025218D01*
X018280Y024526D02*
X018219Y024526D01*
X018219Y024156D01*
X018280Y024156D02*
X018157Y024156D01*
X017973Y024218D02*
X017973Y024465D01*
X018035Y024403D02*
X017911Y024403D01*
X017973Y024218D02*
X017911Y024156D01*
X018402Y024218D02*
X018402Y024341D01*
X018463Y024403D01*
X018587Y024403D01*
X018649Y024341D01*
X018649Y024218D01*
X018587Y024156D01*
X018463Y024156D01*
X018402Y024218D01*
X018770Y024403D02*
X018893Y024156D01*
X019017Y024403D01*
X019568Y025156D02*
X019568Y025341D01*
X019630Y025403D01*
X019815Y025403D01*
X019815Y025156D01*
X019323Y026156D02*
X019200Y026280D01*
X019200Y026526D01*
X019078Y026465D02*
X019078Y026218D01*
X019017Y026156D01*
X018893Y026156D01*
X018831Y026218D01*
X018710Y026218D02*
X018710Y026465D01*
X018648Y026526D01*
X018525Y026526D01*
X018463Y026465D01*
X018463Y026218D02*
X018525Y026156D01*
X018648Y026156D01*
X018710Y026218D01*
X018831Y026465D02*
X018893Y026526D01*
X019017Y026526D01*
X019078Y026465D01*
X019323Y026156D02*
X019447Y026280D01*
X019447Y026526D01*
X017973Y026341D02*
X017850Y026341D01*
X017728Y026280D02*
X017604Y026403D01*
X017543Y026403D01*
X017421Y026341D02*
X017421Y026218D01*
X017359Y026156D01*
X017236Y026156D01*
X017174Y026218D01*
X017174Y026341D01*
X017236Y026403D01*
X017359Y026403D01*
X017421Y026341D01*
X017728Y026403D02*
X017728Y026156D01*
X017912Y026156D02*
X017912Y026465D01*
X017850Y026526D01*
X017053Y026403D02*
X016991Y026403D01*
X016929Y026341D01*
X016868Y026403D01*
X016806Y026341D01*
X016806Y026156D01*
X016929Y026156D02*
X016929Y026341D01*
X017053Y026403D02*
X017053Y026156D01*
X017052Y025465D02*
X017052Y025218D01*
X016991Y025156D01*
X016869Y025218D02*
X016869Y025341D01*
X016807Y025403D01*
X016683Y025403D01*
X016622Y025341D01*
X016622Y025280D01*
X016869Y025280D01*
X016869Y025218D02*
X016807Y025156D01*
X016683Y025156D01*
X016500Y025156D02*
X016500Y025403D01*
X016377Y025403D02*
X016315Y025403D01*
X016377Y025403D02*
X016500Y025280D01*
X016193Y025403D02*
X016193Y025156D01*
X015946Y025156D02*
X015946Y025341D01*
X016008Y025403D01*
X016193Y025403D01*
X015825Y025218D02*
X015763Y025280D01*
X015578Y025280D01*
X015578Y025341D02*
X015578Y025156D01*
X015763Y025156D01*
X015825Y025218D01*
X015763Y025403D02*
X015640Y025403D01*
X015578Y025341D01*
X015457Y025156D02*
X015333Y025156D01*
X015395Y025156D02*
X015395Y025526D01*
X015457Y025526D01*
X014843Y025465D02*
X014781Y025526D01*
X014658Y025526D01*
X014596Y025465D01*
X014596Y025403D01*
X014658Y025341D01*
X014596Y025280D01*
X014596Y025218D01*
X014658Y025156D01*
X014781Y025156D01*
X014843Y025218D01*
X014719Y025341D02*
X014658Y025341D01*
X014475Y025218D02*
X014413Y025218D01*
X014413Y025156D01*
X014475Y025156D01*
X014475Y025218D01*
X014290Y025218D02*
X014229Y025156D01*
X014105Y025156D01*
X014044Y025218D01*
X014044Y025280D01*
X014105Y025341D01*
X014167Y025341D01*
X014105Y025341D02*
X014044Y025403D01*
X014044Y025465D01*
X014105Y025526D01*
X014229Y025526D01*
X014290Y025465D01*
X014289Y026156D02*
X014228Y026218D01*
X014228Y026341D01*
X014289Y026403D01*
X014413Y026403D01*
X014475Y026341D01*
X014475Y026218D01*
X014413Y026156D01*
X014289Y026156D01*
X014106Y026156D02*
X014106Y026403D01*
X014106Y026280D02*
X013983Y026403D01*
X013921Y026403D01*
X013799Y026403D02*
X013676Y026403D01*
X013738Y026465D02*
X013738Y026218D01*
X013676Y026156D01*
X013554Y025526D02*
X013554Y025280D01*
X013430Y025156D01*
X013307Y025280D01*
X013307Y025526D01*
X013186Y025403D02*
X013186Y025156D01*
X013186Y025280D02*
X013062Y025403D01*
X013000Y025403D01*
X012879Y025341D02*
X012817Y025403D01*
X012694Y025403D01*
X012632Y025341D01*
X012632Y025280D01*
X012879Y025280D01*
X012879Y025341D02*
X012879Y025218D01*
X012817Y025156D01*
X012694Y025156D01*
X012510Y025218D02*
X012449Y025156D01*
X012264Y025156D01*
X012264Y025094D02*
X012264Y025403D01*
X012449Y025403D01*
X012510Y025341D01*
X012510Y025218D01*
X012387Y025033D02*
X012325Y025033D01*
X012264Y025094D01*
X013983Y024403D02*
X014106Y024403D01*
X014045Y024465D02*
X014045Y024218D01*
X013983Y024156D01*
X014228Y024156D02*
X014352Y024156D01*
X014290Y024156D02*
X014290Y024526D01*
X014352Y024526D01*
X014535Y024403D02*
X014658Y024403D01*
X014720Y024341D01*
X014720Y024218D01*
X014658Y024156D01*
X014535Y024156D01*
X014473Y024218D01*
X014473Y024341D01*
X014535Y024403D01*
X014842Y024403D02*
X014965Y024156D01*
X015088Y024403D01*
X015578Y024403D02*
X015578Y024465D01*
X015640Y024526D01*
X015763Y024526D01*
X015825Y024465D01*
X015702Y024341D02*
X015640Y024341D01*
X015578Y024280D01*
X015578Y024218D01*
X015640Y024156D01*
X015763Y024156D01*
X015825Y024218D01*
X015947Y024218D02*
X015947Y024156D01*
X016009Y024156D01*
X016009Y024218D01*
X015947Y024218D01*
X016131Y024218D02*
X016192Y024156D01*
X016316Y024156D01*
X016377Y024218D01*
X016254Y024341D02*
X016192Y024341D01*
X016131Y024280D01*
X016131Y024218D01*
X016192Y024341D02*
X016131Y024403D01*
X016131Y024465D01*
X016192Y024526D01*
X016316Y024526D01*
X016377Y024465D01*
X016867Y024403D02*
X016929Y024403D01*
X017053Y024280D01*
X017053Y024403D02*
X017053Y024156D01*
X017174Y024218D02*
X017174Y024341D01*
X017236Y024403D01*
X017359Y024403D01*
X017421Y024341D01*
X017421Y024218D01*
X017359Y024156D01*
X017236Y024156D01*
X017174Y024218D01*
X017236Y025156D02*
X017236Y025341D01*
X017297Y025403D01*
X017482Y025403D01*
X017482Y025156D01*
X017604Y025156D02*
X017728Y025156D01*
X017666Y025156D02*
X017666Y025403D01*
X017728Y025403D01*
X017666Y025526D02*
X017666Y025588D01*
X017114Y025403D02*
X016991Y025403D01*
X016254Y026156D02*
X016131Y026156D01*
X016069Y026218D01*
X016069Y026526D01*
X015948Y026465D02*
X015948Y026403D01*
X015886Y026341D01*
X015763Y026341D01*
X015701Y026280D01*
X015701Y026218D01*
X015763Y026156D01*
X015886Y026156D01*
X015948Y026218D01*
X015948Y026465D02*
X015886Y026526D01*
X015763Y026526D01*
X015701Y026465D01*
X015579Y026526D02*
X015579Y026156D01*
X015394Y026156D01*
X015333Y026218D01*
X015333Y026280D01*
X015394Y026341D01*
X015579Y026341D01*
X015394Y026341D02*
X015333Y026403D01*
X015333Y026465D01*
X015394Y026526D01*
X015579Y026526D01*
X014843Y026403D02*
X014843Y026033D01*
X014843Y026156D02*
X014658Y026156D01*
X014596Y026218D01*
X014596Y026341D01*
X014658Y026403D01*
X014843Y026403D01*
X016254Y026156D02*
X016316Y026218D01*
X016316Y026526D01*
X015578Y024403D02*
X015640Y024341D01*
X015579Y016714D02*
X015394Y016714D01*
X015333Y016652D01*
X015333Y016590D01*
X015394Y016529D01*
X015579Y016529D01*
X015701Y016467D02*
X015701Y016405D01*
X015763Y016344D01*
X015886Y016344D01*
X015948Y016405D01*
X016069Y016405D02*
X016069Y016714D01*
X015948Y016652D02*
X015948Y016590D01*
X015886Y016529D01*
X015763Y016529D01*
X015701Y016467D01*
X015579Y016344D02*
X015579Y016714D01*
X015701Y016652D02*
X015763Y016714D01*
X015886Y016714D01*
X015948Y016652D01*
X016069Y016405D02*
X016131Y016344D01*
X016254Y016344D01*
X016316Y016405D01*
X016316Y016714D01*
X016806Y016529D02*
X016806Y016344D01*
X016929Y016344D02*
X016929Y016529D01*
X016868Y016590D01*
X016806Y016529D01*
X016929Y016529D02*
X016991Y016590D01*
X017053Y016590D01*
X017053Y016344D01*
X017174Y016405D02*
X017174Y016529D01*
X017236Y016590D01*
X017359Y016590D01*
X017421Y016529D01*
X017421Y016405D01*
X017359Y016344D01*
X017236Y016344D01*
X017174Y016405D01*
X017543Y016590D02*
X017604Y016590D01*
X017728Y016467D01*
X017728Y016344D02*
X017728Y016590D01*
X017850Y016529D02*
X017973Y016529D01*
X017912Y016652D02*
X017850Y016714D01*
X017912Y016652D02*
X017912Y016344D01*
X018463Y016405D02*
X018525Y016344D01*
X018648Y016344D01*
X018710Y016405D01*
X018710Y016652D01*
X018648Y016714D01*
X018525Y016714D01*
X018463Y016652D01*
X018831Y016652D02*
X018893Y016714D01*
X019017Y016714D01*
X019078Y016652D01*
X019078Y016405D01*
X019017Y016344D01*
X018893Y016344D01*
X018831Y016405D01*
X019200Y016467D02*
X019200Y016714D01*
X019447Y016714D02*
X019447Y016467D01*
X019323Y016344D01*
X019200Y016467D01*
X019936Y016467D02*
X020183Y016467D01*
X020183Y016405D02*
X020183Y016529D01*
X020122Y016590D01*
X019998Y016590D01*
X019936Y016529D01*
X019936Y016467D01*
X019998Y016344D02*
X020122Y016344D01*
X020183Y016405D01*
X020305Y016344D02*
X020490Y016467D01*
X020305Y016590D01*
X020490Y016714D02*
X020490Y016344D01*
X020612Y016344D02*
X020797Y016344D01*
X020858Y016405D01*
X020797Y016467D01*
X020612Y016467D01*
X020612Y016529D02*
X020612Y016344D01*
X020612Y016529D02*
X020673Y016590D01*
X020797Y016590D01*
X020980Y016714D02*
X021227Y016714D01*
X021103Y016714D02*
X021103Y016344D01*
X021716Y016467D02*
X021963Y016467D01*
X021963Y016590D02*
X021716Y016590D01*
X022453Y016590D02*
X022515Y016529D01*
X022700Y016529D01*
X022821Y016467D02*
X022821Y016405D01*
X022883Y016344D01*
X023007Y016344D01*
X023068Y016405D01*
X023190Y016405D02*
X023190Y016714D01*
X023068Y016652D02*
X023007Y016714D01*
X022883Y016714D01*
X022821Y016652D01*
X022700Y016714D02*
X022700Y016344D01*
X022515Y016344D01*
X022453Y016405D01*
X022453Y016467D01*
X022515Y016529D01*
X022453Y016590D02*
X022453Y016652D01*
X022515Y016714D01*
X022700Y016714D01*
X022883Y016529D02*
X022821Y016467D01*
X022883Y016529D02*
X023007Y016529D01*
X023068Y016590D01*
X023068Y016652D01*
X023190Y016405D02*
X023251Y016344D01*
X023375Y016344D01*
X023437Y016405D01*
X023437Y016714D01*
X023375Y015714D02*
X023251Y015714D01*
X023190Y015652D01*
X023190Y015590D01*
X023251Y015529D01*
X023190Y015467D01*
X023190Y015405D01*
X023251Y015344D01*
X023375Y015344D01*
X023437Y015405D01*
X023313Y015529D02*
X023251Y015529D01*
X023068Y015467D02*
X022945Y015344D01*
X022821Y015467D01*
X022821Y015714D01*
X022700Y015590D02*
X022700Y015344D01*
X022700Y015467D02*
X022577Y015590D01*
X022515Y015590D01*
X022393Y015529D02*
X022331Y015590D01*
X022208Y015590D01*
X022146Y015529D01*
X022146Y015467D01*
X022393Y015467D01*
X022393Y015405D02*
X022393Y015529D01*
X022393Y015405D02*
X022331Y015344D01*
X022208Y015344D01*
X022025Y015405D02*
X021963Y015344D01*
X021778Y015344D01*
X021778Y015282D02*
X021778Y015590D01*
X021963Y015590D01*
X022025Y015529D01*
X022025Y015405D01*
X021901Y015220D02*
X021840Y015220D01*
X021778Y015282D01*
X021288Y015467D02*
X021041Y015467D01*
X021041Y015590D02*
X021288Y015590D01*
X020552Y015652D02*
X020552Y015405D01*
X020490Y015344D01*
X020366Y015344D01*
X020305Y015405D01*
X020183Y015405D02*
X020122Y015344D01*
X019998Y015344D01*
X019936Y015405D01*
X019936Y015529D01*
X019998Y015590D01*
X020122Y015590D01*
X020183Y015529D01*
X020183Y015405D01*
X020305Y015652D02*
X020366Y015714D01*
X020490Y015714D01*
X020552Y015652D01*
X019815Y015590D02*
X019815Y015344D01*
X019815Y015590D02*
X019630Y015590D01*
X019568Y015529D01*
X019568Y015344D01*
X019447Y015344D02*
X019447Y015590D01*
X019261Y015590D01*
X019200Y015529D01*
X019200Y015344D01*
X019078Y015405D02*
X019078Y015529D01*
X019017Y015590D01*
X018893Y015590D01*
X018831Y015529D01*
X018831Y015467D01*
X019078Y015467D01*
X019078Y015405D02*
X019017Y015344D01*
X018893Y015344D01*
X018710Y015405D02*
X018710Y015529D01*
X018648Y015590D01*
X018463Y015590D01*
X018342Y015590D02*
X018218Y015590D01*
X018280Y015652D02*
X018280Y015405D01*
X018218Y015344D01*
X018463Y015344D02*
X018648Y015344D01*
X018710Y015405D01*
X018280Y014714D02*
X018219Y014714D01*
X018219Y014344D01*
X018280Y014344D02*
X018157Y014344D01*
X017973Y014405D02*
X017911Y014344D01*
X017973Y014405D02*
X017973Y014652D01*
X018035Y014590D02*
X017911Y014590D01*
X018402Y014529D02*
X018463Y014590D01*
X018587Y014590D01*
X018649Y014529D01*
X018649Y014405D01*
X018587Y014344D01*
X018463Y014344D01*
X018402Y014405D01*
X018402Y014529D01*
X018770Y014590D02*
X018893Y014344D01*
X019017Y014590D01*
X019507Y014529D02*
X019507Y014405D01*
X019568Y014344D01*
X019692Y014344D01*
X019754Y014405D01*
X019754Y014529D02*
X019630Y014590D01*
X019568Y014590D01*
X019507Y014529D01*
X019507Y014714D02*
X019754Y014714D01*
X019754Y014529D01*
X020243Y014652D02*
X020305Y014714D01*
X020428Y014714D01*
X020490Y014652D01*
X020490Y014405D01*
X020428Y014344D01*
X020305Y014344D01*
X020243Y014405D01*
X020612Y014405D02*
X020673Y014344D01*
X020797Y014344D01*
X020858Y014405D01*
X020858Y014652D01*
X020797Y014714D01*
X020673Y014714D01*
X020612Y014652D01*
X020980Y014714D02*
X020980Y014467D01*
X021103Y014344D01*
X021227Y014467D01*
X021227Y014714D01*
X021716Y014590D02*
X021963Y014590D01*
X021963Y014467D02*
X021716Y014467D01*
X022453Y014467D02*
X022453Y014405D01*
X022515Y014344D01*
X022638Y014344D01*
X022700Y014405D01*
X022577Y014529D02*
X022515Y014529D01*
X022453Y014467D01*
X022515Y014529D02*
X022453Y014590D01*
X022453Y014652D01*
X022515Y014714D01*
X022638Y014714D01*
X022700Y014652D01*
X022821Y014714D02*
X023068Y014344D01*
X023190Y014405D02*
X023251Y014344D01*
X023375Y014344D01*
X023437Y014405D01*
X023437Y014529D02*
X023313Y014590D01*
X023251Y014590D01*
X023190Y014529D01*
X023190Y014405D01*
X023437Y014529D02*
X023437Y014714D01*
X023190Y014714D01*
X023068Y015467D02*
X023068Y015714D01*
X023375Y015714D02*
X023437Y015652D01*
X017728Y015590D02*
X017666Y015590D01*
X017666Y015344D01*
X017728Y015344D02*
X017604Y015344D01*
X017482Y015344D02*
X017482Y015590D01*
X017297Y015590D01*
X017236Y015529D01*
X017236Y015344D01*
X017052Y015405D02*
X017052Y015652D01*
X016991Y015590D02*
X017114Y015590D01*
X017052Y015405D02*
X016991Y015344D01*
X016869Y015405D02*
X016869Y015529D01*
X016807Y015590D01*
X016683Y015590D01*
X016622Y015529D01*
X016622Y015467D01*
X016869Y015467D01*
X016869Y015405D02*
X016807Y015344D01*
X016683Y015344D01*
X016500Y015344D02*
X016500Y015590D01*
X016500Y015467D02*
X016377Y015590D01*
X016315Y015590D01*
X016193Y015590D02*
X016193Y015344D01*
X016193Y015590D02*
X016008Y015590D01*
X015946Y015529D01*
X015946Y015344D01*
X015825Y015405D02*
X015763Y015467D01*
X015578Y015467D01*
X015578Y015529D02*
X015578Y015344D01*
X015763Y015344D01*
X015825Y015405D01*
X015763Y015590D02*
X015640Y015590D01*
X015578Y015529D01*
X015457Y015714D02*
X015395Y015714D01*
X015395Y015344D01*
X015457Y015344D02*
X015333Y015344D01*
X015640Y014714D02*
X015578Y014652D01*
X015578Y014590D01*
X015640Y014529D01*
X015578Y014467D01*
X015578Y014405D01*
X015640Y014344D01*
X015763Y014344D01*
X015825Y014405D01*
X015947Y014405D02*
X015947Y014344D01*
X016009Y014344D01*
X016009Y014405D01*
X015947Y014405D01*
X016131Y014405D02*
X016192Y014344D01*
X016316Y014344D01*
X016377Y014405D01*
X016254Y014529D02*
X016192Y014529D01*
X016131Y014467D01*
X016131Y014405D01*
X016192Y014529D02*
X016131Y014590D01*
X016131Y014652D01*
X016192Y014714D01*
X016316Y014714D01*
X016377Y014652D01*
X016867Y014590D02*
X016929Y014590D01*
X017053Y014467D01*
X017053Y014344D02*
X017053Y014590D01*
X017174Y014529D02*
X017236Y014590D01*
X017359Y014590D01*
X017421Y014529D01*
X017421Y014405D01*
X017359Y014344D01*
X017236Y014344D01*
X017174Y014405D01*
X017174Y014529D01*
X017666Y015714D02*
X017666Y015776D01*
X015825Y014652D02*
X015763Y014714D01*
X015640Y014714D01*
X015640Y014529D02*
X015702Y014529D01*
X015088Y014590D02*
X014965Y014344D01*
X014842Y014590D01*
X014720Y014529D02*
X014720Y014405D01*
X014658Y014344D01*
X014535Y014344D01*
X014473Y014405D01*
X014473Y014529D01*
X014535Y014590D01*
X014658Y014590D01*
X014720Y014529D01*
X014352Y014714D02*
X014290Y014714D01*
X014290Y014344D01*
X014352Y014344D02*
X014228Y014344D01*
X014045Y014405D02*
X013983Y014344D01*
X014045Y014405D02*
X014045Y014652D01*
X014106Y014590D02*
X013983Y014590D01*
X014105Y015344D02*
X014229Y015344D01*
X014290Y015405D01*
X014413Y015405D02*
X014413Y015344D01*
X014475Y015344D01*
X014475Y015405D01*
X014413Y015405D01*
X014596Y015405D02*
X014658Y015344D01*
X014781Y015344D01*
X014843Y015405D01*
X014719Y015529D02*
X014658Y015529D01*
X014596Y015467D01*
X014596Y015405D01*
X014658Y015529D02*
X014596Y015590D01*
X014596Y015652D01*
X014658Y015714D01*
X014781Y015714D01*
X014843Y015652D01*
X014843Y016220D02*
X014843Y016590D01*
X014658Y016590D01*
X014596Y016529D01*
X014596Y016405D01*
X014658Y016344D01*
X014843Y016344D01*
X014475Y016405D02*
X014413Y016344D01*
X014289Y016344D01*
X014228Y016405D01*
X014228Y016529D01*
X014289Y016590D01*
X014413Y016590D01*
X014475Y016529D01*
X014475Y016405D01*
X014106Y016344D02*
X014106Y016590D01*
X014106Y016467D02*
X013983Y016590D01*
X013921Y016590D01*
X013799Y016590D02*
X013676Y016590D01*
X013738Y016652D02*
X013738Y016405D01*
X013676Y016344D01*
X013554Y015714D02*
X013554Y015467D01*
X013430Y015344D01*
X013307Y015467D01*
X013307Y015714D01*
X013186Y015590D02*
X013186Y015344D01*
X013186Y015467D02*
X013062Y015590D01*
X013000Y015590D01*
X012879Y015529D02*
X012817Y015590D01*
X012694Y015590D01*
X012632Y015529D01*
X012632Y015467D01*
X012879Y015467D01*
X012879Y015405D02*
X012879Y015529D01*
X012879Y015405D02*
X012817Y015344D01*
X012694Y015344D01*
X012510Y015405D02*
X012449Y015344D01*
X012264Y015344D01*
X012264Y015282D02*
X012264Y015590D01*
X012449Y015590D01*
X012510Y015529D01*
X012510Y015405D01*
X012387Y015220D02*
X012325Y015220D01*
X012264Y015282D01*
X014044Y015405D02*
X014105Y015344D01*
X014044Y015405D02*
X014044Y015467D01*
X014105Y015529D01*
X014167Y015529D01*
X014105Y015529D02*
X014044Y015590D01*
X014044Y015652D01*
X014105Y015714D01*
X014229Y015714D01*
X014290Y015652D01*
X015333Y016405D02*
X015394Y016344D01*
X015579Y016344D01*
X015333Y016405D02*
X015333Y016467D01*
X015394Y016529D01*
X015394Y006901D02*
X015333Y006840D01*
X015333Y006778D01*
X015394Y006716D01*
X015579Y006716D01*
X015701Y006655D02*
X015701Y006593D01*
X015763Y006531D01*
X015886Y006531D01*
X015948Y006593D01*
X016069Y006593D02*
X016069Y006901D01*
X015948Y006840D02*
X015948Y006778D01*
X015886Y006716D01*
X015763Y006716D01*
X015701Y006655D01*
X015579Y006531D02*
X015394Y006531D01*
X015333Y006593D01*
X015333Y006655D01*
X015394Y006716D01*
X015394Y006901D02*
X015579Y006901D01*
X015579Y006531D01*
X015701Y006840D02*
X015763Y006901D01*
X015886Y006901D01*
X015948Y006840D01*
X016069Y006593D02*
X016131Y006531D01*
X016254Y006531D01*
X016316Y006593D01*
X016316Y006901D01*
X016806Y006716D02*
X016806Y006531D01*
X016929Y006531D02*
X016929Y006716D01*
X016868Y006778D01*
X016806Y006716D01*
X016929Y006716D02*
X016991Y006778D01*
X017053Y006778D01*
X017053Y006531D01*
X017174Y006593D02*
X017174Y006716D01*
X017236Y006778D01*
X017359Y006778D01*
X017421Y006716D01*
X017421Y006593D01*
X017359Y006531D01*
X017236Y006531D01*
X017174Y006593D01*
X017543Y006778D02*
X017604Y006778D01*
X017728Y006655D01*
X017728Y006778D02*
X017728Y006531D01*
X017912Y006531D02*
X017912Y006840D01*
X017850Y006901D01*
X017850Y006716D02*
X017973Y006716D01*
X018463Y006593D02*
X018525Y006531D01*
X018648Y006531D01*
X018710Y006593D01*
X018710Y006840D01*
X018648Y006901D01*
X018525Y006901D01*
X018463Y006840D01*
X018831Y006840D02*
X018893Y006901D01*
X019017Y006901D01*
X019078Y006840D01*
X019078Y006593D01*
X019017Y006531D01*
X018893Y006531D01*
X018831Y006593D01*
X019200Y006655D02*
X019200Y006901D01*
X019200Y006655D02*
X019323Y006531D01*
X019447Y006655D01*
X019447Y006901D01*
X019936Y006716D02*
X019936Y006655D01*
X020183Y006655D01*
X020183Y006716D02*
X020122Y006778D01*
X019998Y006778D01*
X019936Y006716D01*
X019998Y006531D02*
X020122Y006531D01*
X020183Y006593D01*
X020183Y006716D01*
X020305Y006778D02*
X020490Y006655D01*
X020305Y006531D01*
X020490Y006531D02*
X020490Y006901D01*
X020673Y006778D02*
X020612Y006716D01*
X020612Y006531D01*
X020797Y006531D01*
X020858Y006593D01*
X020797Y006655D01*
X020612Y006655D01*
X020673Y006778D02*
X020797Y006778D01*
X020980Y006901D02*
X021227Y006901D01*
X021103Y006901D02*
X021103Y006531D01*
X021716Y006655D02*
X021963Y006655D01*
X021963Y006778D02*
X021716Y006778D01*
X022453Y006778D02*
X022515Y006716D01*
X022700Y006716D01*
X022821Y006655D02*
X022821Y006593D01*
X022883Y006531D01*
X023007Y006531D01*
X023068Y006593D01*
X023190Y006593D02*
X023190Y006901D01*
X023068Y006840D02*
X023068Y006778D01*
X023007Y006716D01*
X022883Y006716D01*
X022821Y006655D01*
X022700Y006531D02*
X022515Y006531D01*
X022453Y006593D01*
X022453Y006655D01*
X022515Y006716D01*
X022453Y006778D02*
X022453Y006840D01*
X022515Y006901D01*
X022700Y006901D01*
X022700Y006531D01*
X022821Y006840D02*
X022883Y006901D01*
X023007Y006901D01*
X023068Y006840D01*
X023190Y006593D02*
X023251Y006531D01*
X023375Y006531D01*
X023437Y006593D01*
X023437Y006901D01*
X023375Y005901D02*
X023251Y005901D01*
X023190Y005840D01*
X023190Y005778D01*
X023251Y005716D01*
X023190Y005655D01*
X023190Y005593D01*
X023251Y005531D01*
X023375Y005531D01*
X023437Y005593D01*
X023313Y005716D02*
X023251Y005716D01*
X023068Y005655D02*
X022945Y005531D01*
X022821Y005655D01*
X022821Y005901D01*
X022700Y005778D02*
X022700Y005531D01*
X022700Y005655D02*
X022577Y005778D01*
X022515Y005778D01*
X022393Y005716D02*
X022331Y005778D01*
X022208Y005778D01*
X022146Y005716D01*
X022146Y005655D01*
X022393Y005655D01*
X022393Y005716D02*
X022393Y005593D01*
X022331Y005531D01*
X022208Y005531D01*
X022025Y005593D02*
X021963Y005531D01*
X021778Y005531D01*
X021778Y005469D02*
X021778Y005778D01*
X021963Y005778D01*
X022025Y005716D01*
X022025Y005593D01*
X021901Y005408D02*
X021840Y005408D01*
X021778Y005469D01*
X021288Y005655D02*
X021041Y005655D01*
X021041Y005778D02*
X021288Y005778D01*
X020552Y005840D02*
X020552Y005593D01*
X020490Y005531D01*
X020366Y005531D01*
X020305Y005593D01*
X020183Y005593D02*
X020122Y005531D01*
X019998Y005531D01*
X019936Y005593D01*
X019936Y005716D01*
X019998Y005778D01*
X020122Y005778D01*
X020183Y005716D01*
X020183Y005593D01*
X020305Y005840D02*
X020366Y005901D01*
X020490Y005901D01*
X020552Y005840D01*
X019815Y005778D02*
X019815Y005531D01*
X019568Y005531D02*
X019568Y005716D01*
X019630Y005778D01*
X019815Y005778D01*
X019447Y005778D02*
X019447Y005531D01*
X019447Y005778D02*
X019261Y005778D01*
X019200Y005716D01*
X019200Y005531D01*
X019078Y005593D02*
X019078Y005716D01*
X019017Y005778D01*
X018893Y005778D01*
X018831Y005716D01*
X018831Y005655D01*
X019078Y005655D01*
X019078Y005593D02*
X019017Y005531D01*
X018893Y005531D01*
X018710Y005593D02*
X018710Y005716D01*
X018648Y005778D01*
X018463Y005778D01*
X018342Y005778D02*
X018218Y005778D01*
X018280Y005840D02*
X018280Y005593D01*
X018218Y005531D01*
X018463Y005531D02*
X018648Y005531D01*
X018710Y005593D01*
X018280Y004901D02*
X018219Y004901D01*
X018219Y004531D01*
X018280Y004531D02*
X018157Y004531D01*
X017973Y004593D02*
X017911Y004531D01*
X017973Y004593D02*
X017973Y004840D01*
X018035Y004778D02*
X017911Y004778D01*
X018402Y004716D02*
X018463Y004778D01*
X018587Y004778D01*
X018649Y004716D01*
X018649Y004593D01*
X018587Y004531D01*
X018463Y004531D01*
X018402Y004593D01*
X018402Y004716D01*
X018770Y004778D02*
X018893Y004531D01*
X019017Y004778D01*
X019507Y004716D02*
X019507Y004593D01*
X019568Y004531D01*
X019692Y004531D01*
X019754Y004593D01*
X019754Y004716D02*
X019630Y004778D01*
X019568Y004778D01*
X019507Y004716D01*
X019507Y004901D02*
X019754Y004901D01*
X019754Y004716D01*
X020243Y004593D02*
X020305Y004531D01*
X020428Y004531D01*
X020490Y004593D01*
X020490Y004840D01*
X020428Y004901D01*
X020305Y004901D01*
X020243Y004840D01*
X020612Y004840D02*
X020673Y004901D01*
X020797Y004901D01*
X020858Y004840D01*
X020858Y004593D01*
X020797Y004531D01*
X020673Y004531D01*
X020612Y004593D01*
X020980Y004655D02*
X020980Y004901D01*
X020980Y004655D02*
X021103Y004531D01*
X021227Y004655D01*
X021227Y004901D01*
X021716Y004778D02*
X021963Y004778D01*
X021963Y004655D02*
X021716Y004655D01*
X022453Y004655D02*
X022453Y004593D01*
X022515Y004531D01*
X022638Y004531D01*
X022700Y004593D01*
X022577Y004716D02*
X022515Y004716D01*
X022453Y004655D01*
X022515Y004716D02*
X022453Y004778D01*
X022453Y004840D01*
X022515Y004901D01*
X022638Y004901D01*
X022700Y004840D01*
X022821Y004901D02*
X023068Y004531D01*
X023190Y004593D02*
X023251Y004531D01*
X023375Y004531D01*
X023437Y004593D01*
X023437Y004716D02*
X023313Y004778D01*
X023251Y004778D01*
X023190Y004716D01*
X023190Y004593D01*
X023437Y004716D02*
X023437Y004901D01*
X023190Y004901D01*
X023068Y005655D02*
X023068Y005901D01*
X023375Y005901D02*
X023437Y005840D01*
X017728Y005778D02*
X017666Y005778D01*
X017666Y005531D01*
X017728Y005531D02*
X017604Y005531D01*
X017482Y005531D02*
X017482Y005778D01*
X017297Y005778D01*
X017236Y005716D01*
X017236Y005531D01*
X017052Y005593D02*
X017052Y005840D01*
X016991Y005778D02*
X017114Y005778D01*
X017052Y005593D02*
X016991Y005531D01*
X016869Y005593D02*
X016869Y005716D01*
X016807Y005778D01*
X016683Y005778D01*
X016622Y005716D01*
X016622Y005655D01*
X016869Y005655D01*
X016869Y005593D02*
X016807Y005531D01*
X016683Y005531D01*
X016500Y005531D02*
X016500Y005778D01*
X016377Y005778D02*
X016315Y005778D01*
X016377Y005778D02*
X016500Y005655D01*
X016193Y005778D02*
X016008Y005778D01*
X015946Y005716D01*
X015946Y005531D01*
X015825Y005593D02*
X015763Y005655D01*
X015578Y005655D01*
X015578Y005716D02*
X015578Y005531D01*
X015763Y005531D01*
X015825Y005593D01*
X015763Y005778D02*
X015640Y005778D01*
X015578Y005716D01*
X015457Y005531D02*
X015333Y005531D01*
X015395Y005531D02*
X015395Y005901D01*
X015457Y005901D01*
X014843Y005840D02*
X014781Y005901D01*
X014658Y005901D01*
X014596Y005840D01*
X014596Y005778D01*
X014658Y005716D01*
X014596Y005655D01*
X014596Y005593D01*
X014658Y005531D01*
X014781Y005531D01*
X014843Y005593D01*
X014719Y005716D02*
X014658Y005716D01*
X014475Y005593D02*
X014413Y005593D01*
X014413Y005531D01*
X014475Y005531D01*
X014475Y005593D01*
X014290Y005593D02*
X014229Y005531D01*
X014105Y005531D01*
X014044Y005593D01*
X014044Y005655D01*
X014105Y005716D01*
X014167Y005716D01*
X014105Y005716D02*
X014044Y005778D01*
X014044Y005840D01*
X014105Y005901D01*
X014229Y005901D01*
X014290Y005840D01*
X014289Y006531D02*
X014228Y006593D01*
X014228Y006716D01*
X014289Y006778D01*
X014413Y006778D01*
X014475Y006716D01*
X014475Y006593D01*
X014413Y006531D01*
X014289Y006531D01*
X014106Y006531D02*
X014106Y006778D01*
X014106Y006655D02*
X013983Y006778D01*
X013921Y006778D01*
X013799Y006778D02*
X013676Y006778D01*
X013738Y006840D02*
X013738Y006593D01*
X013676Y006531D01*
X013554Y005901D02*
X013554Y005655D01*
X013430Y005531D01*
X013307Y005655D01*
X013307Y005901D01*
X013186Y005778D02*
X013186Y005531D01*
X013186Y005655D02*
X013062Y005778D01*
X013000Y005778D01*
X012879Y005716D02*
X012817Y005778D01*
X012694Y005778D01*
X012632Y005716D01*
X012632Y005655D01*
X012879Y005655D01*
X012879Y005716D02*
X012879Y005593D01*
X012817Y005531D01*
X012694Y005531D01*
X012510Y005593D02*
X012449Y005531D01*
X012264Y005531D01*
X012264Y005469D02*
X012264Y005778D01*
X012449Y005778D01*
X012510Y005716D01*
X012510Y005593D01*
X012387Y005408D02*
X012325Y005408D01*
X012264Y005469D01*
X013983Y004778D02*
X014106Y004778D01*
X014045Y004840D02*
X014045Y004593D01*
X013983Y004531D01*
X014228Y004531D02*
X014352Y004531D01*
X014290Y004531D02*
X014290Y004901D01*
X014352Y004901D01*
X014535Y004778D02*
X014658Y004778D01*
X014720Y004716D01*
X014720Y004593D01*
X014658Y004531D01*
X014535Y004531D01*
X014473Y004593D01*
X014473Y004716D01*
X014535Y004778D01*
X014842Y004778D02*
X014965Y004531D01*
X015088Y004778D01*
X015578Y004778D02*
X015640Y004716D01*
X015578Y004655D01*
X015578Y004593D01*
X015640Y004531D01*
X015763Y004531D01*
X015825Y004593D01*
X015947Y004593D02*
X015947Y004531D01*
X016009Y004531D01*
X016009Y004593D01*
X015947Y004593D01*
X016131Y004593D02*
X016192Y004531D01*
X016316Y004531D01*
X016377Y004593D01*
X016254Y004716D02*
X016192Y004716D01*
X016131Y004655D01*
X016131Y004593D01*
X016192Y004716D02*
X016131Y004778D01*
X016131Y004840D01*
X016192Y004901D01*
X016316Y004901D01*
X016377Y004840D01*
X016867Y004778D02*
X016929Y004778D01*
X017053Y004655D01*
X017053Y004778D02*
X017053Y004531D01*
X017174Y004593D02*
X017174Y004716D01*
X017236Y004778D01*
X017359Y004778D01*
X017421Y004716D01*
X017421Y004593D01*
X017359Y004531D01*
X017236Y004531D01*
X017174Y004593D01*
X016193Y005531D02*
X016193Y005778D01*
X015763Y004901D02*
X015640Y004901D01*
X015578Y004840D01*
X015578Y004778D01*
X015640Y004716D02*
X015702Y004716D01*
X015825Y004840D02*
X015763Y004901D01*
X014843Y006408D02*
X014843Y006778D01*
X014658Y006778D01*
X014596Y006716D01*
X014596Y006593D01*
X014658Y006531D01*
X014843Y006531D01*
X017666Y005963D02*
X017666Y005901D01*
D14*
X000202Y000141D02*
X000202Y039324D01*
X031698Y039324D01*
X031698Y000141D01*
X000202Y000141D01*
X002148Y001525D02*
X002150Y001552D01*
X002156Y001579D01*
X002165Y001605D01*
X002178Y001629D01*
X002194Y001652D01*
X002213Y001671D01*
X002235Y001688D01*
X002259Y001702D01*
X002284Y001712D01*
X002311Y001719D01*
X002338Y001722D01*
X002366Y001721D01*
X002393Y001716D01*
X002419Y001708D01*
X002443Y001696D01*
X002466Y001680D01*
X002487Y001662D01*
X002504Y001641D01*
X002519Y001617D01*
X002530Y001592D01*
X002538Y001566D01*
X002542Y001539D01*
X002542Y001511D01*
X002538Y001484D01*
X002530Y001458D01*
X002519Y001433D01*
X002504Y001409D01*
X002487Y001388D01*
X002466Y001370D01*
X002444Y001354D01*
X002419Y001342D01*
X002393Y001334D01*
X002366Y001329D01*
X002338Y001328D01*
X002311Y001331D01*
X002284Y001338D01*
X002259Y001348D01*
X002235Y001362D01*
X002213Y001379D01*
X002194Y001398D01*
X002178Y001421D01*
X002165Y001445D01*
X002156Y001471D01*
X002150Y001498D01*
X002148Y001525D01*
X002148Y003257D02*
X002150Y003284D01*
X002156Y003311D01*
X002165Y003337D01*
X002178Y003361D01*
X002194Y003384D01*
X002213Y003403D01*
X002235Y003420D01*
X002259Y003434D01*
X002284Y003444D01*
X002311Y003451D01*
X002338Y003454D01*
X002366Y003453D01*
X002393Y003448D01*
X002419Y003440D01*
X002443Y003428D01*
X002466Y003412D01*
X002487Y003394D01*
X002504Y003373D01*
X002519Y003349D01*
X002530Y003324D01*
X002538Y003298D01*
X002542Y003271D01*
X002542Y003243D01*
X002538Y003216D01*
X002530Y003190D01*
X002519Y003165D01*
X002504Y003141D01*
X002487Y003120D01*
X002466Y003102D01*
X002444Y003086D01*
X002419Y003074D01*
X002393Y003066D01*
X002366Y003061D01*
X002338Y003060D01*
X002311Y003063D01*
X002284Y003070D01*
X002259Y003080D01*
X002235Y003094D01*
X002213Y003111D01*
X002194Y003130D01*
X002178Y003153D01*
X002165Y003177D01*
X002156Y003203D01*
X002150Y003230D01*
X002148Y003257D01*
X002148Y011337D02*
X002150Y011364D01*
X002156Y011391D01*
X002165Y011417D01*
X002178Y011441D01*
X002194Y011464D01*
X002213Y011483D01*
X002235Y011500D01*
X002259Y011514D01*
X002284Y011524D01*
X002311Y011531D01*
X002338Y011534D01*
X002366Y011533D01*
X002393Y011528D01*
X002419Y011520D01*
X002443Y011508D01*
X002466Y011492D01*
X002487Y011474D01*
X002504Y011453D01*
X002519Y011429D01*
X002530Y011404D01*
X002538Y011378D01*
X002542Y011351D01*
X002542Y011323D01*
X002538Y011296D01*
X002530Y011270D01*
X002519Y011245D01*
X002504Y011221D01*
X002487Y011200D01*
X002466Y011182D01*
X002444Y011166D01*
X002419Y011154D01*
X002393Y011146D01*
X002366Y011141D01*
X002338Y011140D01*
X002311Y011143D01*
X002284Y011150D01*
X002259Y011160D01*
X002235Y011174D01*
X002213Y011191D01*
X002194Y011210D01*
X002178Y011233D01*
X002165Y011257D01*
X002156Y011283D01*
X002150Y011310D01*
X002148Y011337D01*
X002148Y013070D02*
X002150Y013097D01*
X002156Y013124D01*
X002165Y013150D01*
X002178Y013174D01*
X002194Y013197D01*
X002213Y013216D01*
X002235Y013233D01*
X002259Y013247D01*
X002284Y013257D01*
X002311Y013264D01*
X002338Y013267D01*
X002366Y013266D01*
X002393Y013261D01*
X002419Y013253D01*
X002443Y013241D01*
X002466Y013225D01*
X002487Y013207D01*
X002504Y013186D01*
X002519Y013162D01*
X002530Y013137D01*
X002538Y013111D01*
X002542Y013084D01*
X002542Y013056D01*
X002538Y013029D01*
X002530Y013003D01*
X002519Y012978D01*
X002504Y012954D01*
X002487Y012933D01*
X002466Y012915D01*
X002444Y012899D01*
X002419Y012887D01*
X002393Y012879D01*
X002366Y012874D01*
X002338Y012873D01*
X002311Y012876D01*
X002284Y012883D01*
X002259Y012893D01*
X002235Y012907D01*
X002213Y012924D01*
X002194Y012943D01*
X002178Y012966D01*
X002165Y012990D01*
X002156Y013016D01*
X002150Y013043D01*
X002148Y013070D01*
X002148Y021150D02*
X002150Y021177D01*
X002156Y021204D01*
X002165Y021230D01*
X002178Y021254D01*
X002194Y021277D01*
X002213Y021296D01*
X002235Y021313D01*
X002259Y021327D01*
X002284Y021337D01*
X002311Y021344D01*
X002338Y021347D01*
X002366Y021346D01*
X002393Y021341D01*
X002419Y021333D01*
X002443Y021321D01*
X002466Y021305D01*
X002487Y021287D01*
X002504Y021266D01*
X002519Y021242D01*
X002530Y021217D01*
X002538Y021191D01*
X002542Y021164D01*
X002542Y021136D01*
X002538Y021109D01*
X002530Y021083D01*
X002519Y021058D01*
X002504Y021034D01*
X002487Y021013D01*
X002466Y020995D01*
X002444Y020979D01*
X002419Y020967D01*
X002393Y020959D01*
X002366Y020954D01*
X002338Y020953D01*
X002311Y020956D01*
X002284Y020963D01*
X002259Y020973D01*
X002235Y020987D01*
X002213Y021004D01*
X002194Y021023D01*
X002178Y021046D01*
X002165Y021070D01*
X002156Y021096D01*
X002150Y021123D01*
X002148Y021150D01*
X002148Y022882D02*
X002150Y022909D01*
X002156Y022936D01*
X002165Y022962D01*
X002178Y022986D01*
X002194Y023009D01*
X002213Y023028D01*
X002235Y023045D01*
X002259Y023059D01*
X002284Y023069D01*
X002311Y023076D01*
X002338Y023079D01*
X002366Y023078D01*
X002393Y023073D01*
X002419Y023065D01*
X002443Y023053D01*
X002466Y023037D01*
X002487Y023019D01*
X002504Y022998D01*
X002519Y022974D01*
X002530Y022949D01*
X002538Y022923D01*
X002542Y022896D01*
X002542Y022868D01*
X002538Y022841D01*
X002530Y022815D01*
X002519Y022790D01*
X002504Y022766D01*
X002487Y022745D01*
X002466Y022727D01*
X002444Y022711D01*
X002419Y022699D01*
X002393Y022691D01*
X002366Y022686D01*
X002338Y022685D01*
X002311Y022688D01*
X002284Y022695D01*
X002259Y022705D01*
X002235Y022719D01*
X002213Y022736D01*
X002194Y022755D01*
X002178Y022778D01*
X002165Y022802D01*
X002156Y022828D01*
X002150Y022855D01*
X002148Y022882D01*
X002148Y030962D02*
X002150Y030989D01*
X002156Y031016D01*
X002165Y031042D01*
X002178Y031066D01*
X002194Y031089D01*
X002213Y031108D01*
X002235Y031125D01*
X002259Y031139D01*
X002284Y031149D01*
X002311Y031156D01*
X002338Y031159D01*
X002366Y031158D01*
X002393Y031153D01*
X002419Y031145D01*
X002443Y031133D01*
X002466Y031117D01*
X002487Y031099D01*
X002504Y031078D01*
X002519Y031054D01*
X002530Y031029D01*
X002538Y031003D01*
X002542Y030976D01*
X002542Y030948D01*
X002538Y030921D01*
X002530Y030895D01*
X002519Y030870D01*
X002504Y030846D01*
X002487Y030825D01*
X002466Y030807D01*
X002444Y030791D01*
X002419Y030779D01*
X002393Y030771D01*
X002366Y030766D01*
X002338Y030765D01*
X002311Y030768D01*
X002284Y030775D01*
X002259Y030785D01*
X002235Y030799D01*
X002213Y030816D01*
X002194Y030835D01*
X002178Y030858D01*
X002165Y030882D01*
X002156Y030908D01*
X002150Y030935D01*
X002148Y030962D01*
X002148Y032695D02*
X002150Y032722D01*
X002156Y032749D01*
X002165Y032775D01*
X002178Y032799D01*
X002194Y032822D01*
X002213Y032841D01*
X002235Y032858D01*
X002259Y032872D01*
X002284Y032882D01*
X002311Y032889D01*
X002338Y032892D01*
X002366Y032891D01*
X002393Y032886D01*
X002419Y032878D01*
X002443Y032866D01*
X002466Y032850D01*
X002487Y032832D01*
X002504Y032811D01*
X002519Y032787D01*
X002530Y032762D01*
X002538Y032736D01*
X002542Y032709D01*
X002542Y032681D01*
X002538Y032654D01*
X002530Y032628D01*
X002519Y032603D01*
X002504Y032579D01*
X002487Y032558D01*
X002466Y032540D01*
X002444Y032524D01*
X002419Y032512D01*
X002393Y032504D01*
X002366Y032499D01*
X002338Y032498D01*
X002311Y032501D01*
X002284Y032508D01*
X002259Y032518D01*
X002235Y032532D01*
X002213Y032549D01*
X002194Y032568D01*
X002178Y032591D01*
X002165Y032615D01*
X002156Y032641D01*
X002150Y032668D01*
X002148Y032695D01*
M02*
