G75*
G70*
%OFA0B0*%
%FSLAX24Y24*%
%IPPOS*%
%LPD*%
%AMOC8*
5,1,8,0,0,1.08239X$1,22.5*
%
%ADD10C,0.0000*%
%ADD11R,0.0740X0.0740*%
%ADD12OC8,0.0740*%
%ADD13C,0.0600*%
%ADD14C,0.0740*%
%ADD15OC8,0.0760*%
%ADD16C,0.0560*%
%ADD17OC8,0.0240*%
%ADD18C,0.0160*%
%ADD19C,0.0080*%
D10*
X000202Y000242D02*
X000202Y009992D01*
X031702Y009992D01*
X031702Y000242D01*
X000202Y000242D01*
X002148Y001626D02*
X002150Y001653D01*
X002156Y001680D01*
X002165Y001706D01*
X002178Y001730D01*
X002194Y001753D01*
X002213Y001772D01*
X002235Y001789D01*
X002259Y001803D01*
X002284Y001813D01*
X002311Y001820D01*
X002338Y001823D01*
X002366Y001822D01*
X002393Y001817D01*
X002419Y001809D01*
X002443Y001797D01*
X002466Y001781D01*
X002487Y001763D01*
X002504Y001742D01*
X002519Y001718D01*
X002530Y001693D01*
X002538Y001667D01*
X002542Y001640D01*
X002542Y001612D01*
X002538Y001585D01*
X002530Y001559D01*
X002519Y001534D01*
X002504Y001510D01*
X002487Y001489D01*
X002466Y001471D01*
X002444Y001455D01*
X002419Y001443D01*
X002393Y001435D01*
X002366Y001430D01*
X002338Y001429D01*
X002311Y001432D01*
X002284Y001439D01*
X002259Y001449D01*
X002235Y001463D01*
X002213Y001480D01*
X002194Y001499D01*
X002178Y001522D01*
X002165Y001546D01*
X002156Y001572D01*
X002150Y001599D01*
X002148Y001626D01*
X002148Y003358D02*
X002150Y003385D01*
X002156Y003412D01*
X002165Y003438D01*
X002178Y003462D01*
X002194Y003485D01*
X002213Y003504D01*
X002235Y003521D01*
X002259Y003535D01*
X002284Y003545D01*
X002311Y003552D01*
X002338Y003555D01*
X002366Y003554D01*
X002393Y003549D01*
X002419Y003541D01*
X002443Y003529D01*
X002466Y003513D01*
X002487Y003495D01*
X002504Y003474D01*
X002519Y003450D01*
X002530Y003425D01*
X002538Y003399D01*
X002542Y003372D01*
X002542Y003344D01*
X002538Y003317D01*
X002530Y003291D01*
X002519Y003266D01*
X002504Y003242D01*
X002487Y003221D01*
X002466Y003203D01*
X002444Y003187D01*
X002419Y003175D01*
X002393Y003167D01*
X002366Y003162D01*
X002338Y003161D01*
X002311Y003164D01*
X002284Y003171D01*
X002259Y003181D01*
X002235Y003195D01*
X002213Y003212D01*
X002194Y003231D01*
X002178Y003254D01*
X002165Y003278D01*
X002156Y003304D01*
X002150Y003331D01*
X002148Y003358D01*
D11*
X009902Y002232D03*
D12*
X008902Y002232D03*
X007902Y002232D03*
X007902Y001232D03*
X008902Y001232D03*
X009902Y001232D03*
D13*
X028812Y001412D02*
X028812Y002012D01*
X030592Y002012D02*
X030592Y001412D01*
X030592Y003972D02*
X030592Y004572D01*
X028812Y004572D02*
X028812Y003972D01*
D14*
X029202Y005742D03*
X030202Y005742D03*
D15*
X029952Y009242D03*
X030952Y009242D03*
X028952Y009242D03*
X027952Y009242D03*
X026952Y009242D03*
X025952Y009242D03*
X024952Y009242D03*
X023952Y009242D03*
X022952Y009242D03*
X021952Y009242D03*
X020952Y009242D03*
X019952Y009242D03*
X018952Y009242D03*
X017952Y009242D03*
X016952Y009242D03*
X015952Y009242D03*
X014952Y009242D03*
X013952Y009242D03*
X012952Y009242D03*
X011952Y009242D03*
X010952Y009242D03*
X009952Y009242D03*
X008952Y009242D03*
X007952Y009242D03*
X006952Y009242D03*
X005952Y009242D03*
X004952Y009242D03*
X003952Y009242D03*
X002952Y009242D03*
X001952Y009242D03*
X000952Y009242D03*
D16*
X007312Y007017D02*
X007312Y006457D01*
X008312Y006457D02*
X008312Y007017D01*
X009312Y007017D02*
X009312Y006457D01*
X009322Y004617D02*
X009322Y004057D01*
X008322Y004057D02*
X008322Y004617D01*
X002077Y005337D02*
X002077Y005897D01*
X001077Y005897D02*
X001077Y005337D01*
D17*
X000702Y004867D03*
X003562Y003472D03*
X005202Y004992D03*
X009827Y005242D03*
X012762Y004192D03*
X012442Y003632D03*
X011882Y003392D03*
X014842Y002672D03*
X015082Y002432D03*
X015322Y002192D03*
X015562Y001952D03*
X016827Y001367D03*
X015317Y000912D03*
X016327Y000867D03*
X013882Y001552D03*
X013162Y000912D03*
X011802Y001232D03*
X010602Y000912D03*
X011882Y002192D03*
X016922Y003072D03*
X017162Y003312D03*
X017402Y003552D03*
X017642Y003792D03*
X018282Y003952D03*
X017322Y004592D03*
X015882Y004352D03*
X014602Y004592D03*
X018762Y005472D03*
X018762Y005952D03*
X019642Y006272D03*
X020442Y006512D03*
X022452Y006242D03*
X027242Y007552D03*
X027562Y007152D03*
X027452Y008117D03*
X021482Y008032D03*
X012842Y006912D03*
X011962Y006912D03*
X011482Y007392D03*
X019202Y002742D03*
D18*
X017827Y001367D01*
X016827Y001367D01*
X009322Y004337D02*
X009322Y006727D01*
X009312Y006737D01*
X008567Y005742D01*
X003577Y005742D01*
X002952Y006367D01*
X002952Y009242D01*
X001952Y009242D02*
X001952Y005742D01*
X002077Y005617D01*
X000702Y004867D02*
X005077Y004867D01*
X005202Y004992D01*
X008312Y006737D02*
X008967Y007552D01*
X009642Y007552D01*
X011322Y007552D01*
X011482Y007392D01*
D19*
X011722Y007389D02*
X011802Y007389D01*
X011802Y007311D02*
X011722Y007311D01*
X011722Y007292D02*
X011722Y007491D01*
X011581Y007632D01*
X011524Y007632D01*
X011522Y007635D01*
X011404Y007752D01*
X009559Y007752D01*
X009037Y007752D01*
X009027Y007760D01*
X008956Y007752D01*
X008884Y007752D01*
X008875Y007743D01*
X008863Y007742D01*
X008817Y007686D01*
X008767Y007635D01*
X008767Y007622D01*
X008546Y007348D01*
X008538Y007356D01*
X008391Y007417D01*
X008232Y007417D01*
X008085Y007356D01*
X007972Y007243D01*
X007912Y007096D01*
X007912Y006377D01*
X007972Y006230D01*
X008085Y006118D01*
X008232Y006057D01*
X008391Y006057D01*
X008538Y006118D01*
X008651Y006230D01*
X008712Y006377D01*
X008712Y006915D01*
X008970Y007236D01*
X008912Y007096D01*
X008912Y006536D01*
X008466Y005942D01*
X003659Y005942D01*
X003152Y006450D01*
X003152Y008742D01*
X003159Y008742D01*
X003452Y009035D01*
X003744Y008742D01*
X004159Y008742D01*
X004192Y008775D01*
X004692Y008276D01*
X004785Y008182D01*
X011335Y008182D01*
X011745Y008182D01*
X011802Y008126D01*
X011802Y007091D01*
X011722Y007011D01*
X011722Y006812D01*
X011802Y006732D01*
X011802Y005538D01*
X009655Y003392D01*
X008855Y003392D01*
X008762Y003298D01*
X008145Y002681D01*
X008104Y002722D01*
X007699Y002722D01*
X007412Y002435D01*
X007412Y002029D01*
X007699Y001742D01*
X008104Y001742D01*
X008392Y002029D01*
X008392Y002435D01*
X008371Y002455D01*
X008988Y003072D01*
X009655Y003072D01*
X009788Y003072D01*
X012028Y005312D01*
X012122Y005406D01*
X012122Y006732D01*
X012202Y006812D01*
X012202Y007011D01*
X012122Y007091D01*
X012122Y008126D01*
X012122Y008258D01*
X011972Y008408D01*
X011878Y008502D01*
X011335Y008502D01*
X004918Y008502D01*
X004418Y009001D01*
X004452Y009035D01*
X004744Y008742D01*
X005159Y008742D01*
X005452Y009035D01*
X005744Y008742D01*
X006159Y008742D01*
X006452Y009035D01*
X006744Y008742D01*
X007159Y008742D01*
X007452Y009035D01*
X007744Y008742D01*
X008159Y008742D01*
X008452Y009035D01*
X008744Y008742D01*
X009159Y008742D01*
X009452Y009035D01*
X009744Y008742D01*
X010159Y008742D01*
X010452Y009035D01*
X010744Y008742D01*
X011159Y008742D01*
X011452Y009035D01*
X011744Y008742D01*
X012159Y008742D01*
X012452Y009035D01*
X012485Y009001D01*
X012375Y008892D01*
X012282Y008798D01*
X012282Y003811D01*
X012202Y003731D01*
X012202Y003532D01*
X012342Y003392D01*
X012541Y003392D01*
X012682Y003532D01*
X012682Y003731D01*
X012602Y003811D01*
X012602Y004013D01*
X012662Y003952D01*
X012861Y003952D01*
X013002Y004092D01*
X013002Y004192D01*
X015702Y004192D01*
X015782Y004112D01*
X015981Y004112D01*
X016122Y004252D01*
X016122Y004451D01*
X015981Y004592D01*
X015782Y004592D01*
X015702Y004512D01*
X014842Y004512D01*
X014842Y004691D01*
X014701Y004832D01*
X014588Y004832D01*
X013002Y006418D01*
X013002Y006732D01*
X013082Y006812D01*
X013082Y007011D01*
X012941Y007152D01*
X012742Y007152D01*
X012602Y007011D01*
X012602Y006812D01*
X012682Y006732D01*
X012682Y006286D01*
X012775Y006192D01*
X014362Y004606D01*
X014362Y004512D01*
X012988Y004512D01*
X012855Y004512D01*
X012775Y004432D01*
X012662Y004432D01*
X012602Y004371D01*
X012602Y008666D01*
X012711Y008775D01*
X012744Y008742D01*
X013159Y008742D01*
X013452Y009035D01*
X013744Y008742D01*
X014159Y008742D01*
X014192Y008775D01*
X014602Y008366D01*
X014695Y008272D01*
X015255Y008272D01*
X016122Y007406D01*
X016122Y003778D01*
X016122Y003646D01*
X016682Y003086D01*
X016682Y002972D01*
X016822Y002832D01*
X017021Y002832D01*
X017162Y002972D01*
X017162Y003072D01*
X017261Y003072D01*
X017402Y003212D01*
X017402Y003312D01*
X017501Y003312D01*
X017642Y003452D01*
X017642Y003552D01*
X017741Y003552D01*
X017882Y003692D01*
X017882Y003891D01*
X017741Y004032D01*
X017628Y004032D01*
X017308Y004352D01*
X017421Y004352D01*
X017501Y004432D01*
X017815Y004432D01*
X017948Y004432D01*
X018748Y005232D01*
X018861Y005232D01*
X019002Y005372D01*
X019002Y005571D01*
X018861Y005712D01*
X019002Y005852D01*
X019002Y005886D01*
X019002Y004898D01*
X018295Y004192D01*
X018182Y004192D01*
X018042Y004051D01*
X018042Y003852D01*
X018182Y003712D01*
X018195Y003712D01*
X017315Y002832D01*
X015021Y002832D01*
X014941Y002912D01*
X014742Y002912D01*
X014602Y002771D01*
X014602Y002592D01*
X013895Y002592D01*
X013802Y002498D01*
X013195Y001892D01*
X010392Y001892D01*
X010392Y002652D01*
X010321Y002722D01*
X009482Y002722D01*
X009412Y002652D01*
X009412Y001963D01*
X009371Y002009D01*
X009392Y002029D01*
X009392Y002435D01*
X009104Y002722D01*
X008699Y002722D01*
X008412Y002435D01*
X008412Y002029D01*
X008699Y001742D01*
X009104Y001742D01*
X009144Y001782D01*
X009242Y001671D01*
X009242Y001666D01*
X009285Y001622D01*
X009325Y001576D01*
X009331Y001576D01*
X009335Y001572D01*
X009396Y001572D01*
X009458Y001568D01*
X009462Y001572D01*
X009549Y001572D01*
X009412Y001435D01*
X009412Y001048D01*
X009392Y001068D01*
X009392Y001435D01*
X009104Y001722D01*
X008699Y001722D01*
X008412Y001435D01*
X008412Y001029D01*
X008699Y000742D01*
X009104Y000742D01*
X009185Y000822D01*
X009402Y000606D01*
X009415Y000592D01*
X003722Y000592D01*
X003722Y003292D01*
X003802Y003372D01*
X003802Y003571D01*
X003661Y003712D01*
X003462Y003712D01*
X003322Y003571D01*
X003322Y003372D01*
X003402Y003292D01*
X003402Y000446D01*
X003465Y000382D01*
X000342Y000382D01*
X000342Y009852D01*
X031562Y009852D01*
X031562Y008858D01*
X031418Y009001D01*
X031452Y009035D01*
X031452Y009449D01*
X031159Y009742D01*
X030744Y009742D01*
X030452Y009449D01*
X030452Y009035D01*
X030744Y008742D01*
X031159Y008742D01*
X031192Y008775D01*
X031322Y008646D01*
X031322Y001058D01*
X031015Y000752D01*
X028668Y000752D01*
X028331Y000752D01*
X028339Y000763D01*
X028377Y000801D01*
X028377Y000816D01*
X028557Y001073D01*
X028574Y001056D01*
X028728Y000992D01*
X028895Y000992D01*
X029049Y001056D01*
X029168Y001174D01*
X029232Y001328D01*
X029232Y002095D01*
X029168Y002250D01*
X029049Y002368D01*
X028895Y002432D01*
X028728Y002432D01*
X028574Y002368D01*
X028456Y002250D01*
X028392Y002095D01*
X028392Y001393D01*
X028134Y001027D01*
X016505Y001027D01*
X016506Y001027D02*
X016426Y001107D01*
X016227Y001107D01*
X016087Y000966D01*
X016087Y000767D01*
X016102Y000752D01*
X015703Y000752D01*
X015557Y000898D01*
X015557Y001011D01*
X015416Y001152D01*
X015217Y001152D01*
X015077Y001011D01*
X015077Y000812D01*
X015217Y000672D01*
X015330Y000672D01*
X015570Y000432D01*
X015703Y000432D01*
X028668Y000432D01*
X031015Y000432D01*
X031148Y000432D01*
X031548Y000832D01*
X031562Y000846D01*
X031562Y000382D01*
X013738Y000382D01*
X014042Y000686D01*
X014042Y000818D01*
X014042Y001372D01*
X014122Y001452D01*
X014122Y001651D01*
X013981Y001792D01*
X013868Y001792D01*
X014028Y001952D01*
X015175Y001952D01*
X015308Y001952D01*
X015322Y001952D01*
X015322Y001852D01*
X015462Y001712D01*
X015661Y001712D01*
X015741Y001792D01*
X017595Y001792D01*
X017728Y001792D01*
X022212Y006276D01*
X022212Y006142D01*
X022352Y006002D01*
X022551Y006002D01*
X022692Y006142D01*
X022692Y006341D01*
X022672Y006361D01*
X023893Y007582D01*
X025885Y007582D01*
X026018Y007582D01*
X026393Y007957D01*
X027272Y007957D01*
X027352Y007877D01*
X027551Y007877D01*
X027692Y008017D01*
X027692Y008216D01*
X027551Y008357D01*
X027352Y008357D01*
X027272Y008277D01*
X026260Y008277D01*
X026167Y008183D01*
X025885Y007902D01*
X025838Y007902D01*
X026711Y008775D01*
X026744Y008742D01*
X027159Y008742D01*
X027452Y009035D01*
X027744Y008742D01*
X028159Y008742D01*
X028452Y009035D01*
X028744Y008742D01*
X028762Y008742D01*
X028762Y007378D01*
X028695Y007312D01*
X027741Y007312D01*
X027661Y007392D01*
X027462Y007392D01*
X027402Y007331D01*
X027402Y007372D01*
X027482Y007452D01*
X027482Y007651D01*
X027341Y007792D01*
X027142Y007792D01*
X027002Y007651D01*
X027002Y007452D01*
X027082Y007372D01*
X027082Y006898D01*
X027082Y006766D01*
X027242Y006606D01*
X027335Y006512D01*
X029735Y006512D01*
X029868Y006512D01*
X030028Y006672D01*
X030122Y006766D01*
X030122Y008742D01*
X030159Y008742D01*
X030452Y009035D01*
X030452Y009449D01*
X030159Y009742D01*
X029744Y009742D01*
X029452Y009449D01*
X029452Y009035D01*
X029744Y008742D01*
X029802Y008742D01*
X029802Y006898D01*
X029735Y006832D01*
X027468Y006832D01*
X027402Y006898D01*
X027402Y006973D01*
X027462Y006912D01*
X027661Y006912D01*
X027741Y006992D01*
X028695Y006992D01*
X028828Y006992D01*
X028988Y007152D01*
X029082Y007246D01*
X029082Y008742D01*
X029159Y008742D01*
X029452Y009035D01*
X029452Y009449D01*
X029159Y009742D01*
X028744Y009742D01*
X028452Y009449D01*
X028452Y009035D01*
X028452Y009449D01*
X028159Y009742D01*
X027744Y009742D01*
X027452Y009449D01*
X027452Y009035D01*
X027452Y009449D01*
X027159Y009742D01*
X026744Y009742D01*
X026452Y009449D01*
X026452Y009035D01*
X026485Y009001D01*
X025635Y008152D01*
X025088Y008152D01*
X025711Y008775D01*
X025744Y008742D01*
X026159Y008742D01*
X026452Y009035D01*
X026452Y009449D01*
X026159Y009742D01*
X025744Y009742D01*
X025452Y009449D01*
X025452Y009035D01*
X025485Y009001D01*
X024885Y008402D01*
X024385Y008402D01*
X024338Y008402D01*
X024711Y008775D01*
X024744Y008742D01*
X025159Y008742D01*
X025452Y009035D01*
X025452Y009449D01*
X025159Y009742D01*
X024744Y009742D01*
X024452Y009449D01*
X024452Y009035D01*
X024485Y009001D01*
X024135Y008652D01*
X023635Y008652D01*
X023542Y008558D01*
X017575Y002592D01*
X017528Y002592D01*
X023711Y008775D01*
X023744Y008742D01*
X024159Y008742D01*
X024452Y009035D01*
X024452Y009449D01*
X024159Y009742D01*
X023744Y009742D01*
X023452Y009449D01*
X023452Y009035D01*
X023485Y009001D01*
X019322Y004838D01*
X019322Y004898D01*
X019322Y006018D01*
X019228Y006112D01*
X019112Y006228D01*
X019112Y008742D01*
X019159Y008742D01*
X019452Y009035D01*
X019744Y008742D01*
X019802Y008742D01*
X019802Y006498D01*
X019778Y006475D01*
X019741Y006512D01*
X019542Y006512D01*
X019402Y006371D01*
X019402Y006172D01*
X019542Y006032D01*
X019741Y006032D01*
X019821Y006112D01*
X019868Y006112D01*
X020028Y006272D01*
X020122Y006366D01*
X020122Y008742D01*
X020159Y008742D01*
X020452Y009035D01*
X020744Y008742D01*
X020762Y008742D01*
X020762Y006738D01*
X020695Y006672D01*
X020621Y006672D01*
X020541Y006752D01*
X020342Y006752D01*
X020202Y006611D01*
X020202Y006412D01*
X020342Y006272D01*
X020541Y006272D01*
X020621Y006352D01*
X020695Y006352D01*
X020828Y006352D01*
X020988Y006512D01*
X021082Y006606D01*
X021082Y008742D01*
X021159Y008742D01*
X021452Y009035D01*
X021744Y008742D01*
X022159Y008742D01*
X022452Y009035D01*
X022744Y008742D01*
X022762Y008742D01*
X022762Y008738D01*
X022215Y008192D01*
X021661Y008192D01*
X021581Y008272D01*
X021382Y008272D01*
X021242Y008131D01*
X021242Y007932D01*
X021382Y007792D01*
X021581Y007792D01*
X021661Y007872D01*
X022215Y007872D01*
X022348Y007872D01*
X022988Y008512D01*
X023082Y008606D01*
X023082Y008742D01*
X023159Y008742D01*
X023452Y009035D01*
X023452Y009449D01*
X023159Y009742D01*
X022744Y009742D01*
X022452Y009449D01*
X022452Y009035D01*
X022452Y009449D01*
X022159Y009742D01*
X021744Y009742D01*
X021452Y009449D01*
X021452Y009035D01*
X021452Y009449D01*
X021159Y009742D01*
X020744Y009742D01*
X020452Y009449D01*
X020452Y009035D01*
X020452Y009449D01*
X020159Y009742D01*
X019744Y009742D01*
X019452Y009449D01*
X019452Y009035D01*
X019452Y009449D01*
X019159Y009742D01*
X018744Y009742D01*
X018452Y009449D01*
X018452Y009035D01*
X018744Y008742D01*
X018792Y008742D01*
X018792Y008068D01*
X018122Y008738D01*
X018122Y008742D01*
X018159Y008742D01*
X018452Y009035D01*
X018452Y009449D01*
X018159Y009742D01*
X017744Y009742D01*
X017452Y009449D01*
X017452Y009035D01*
X017744Y008742D01*
X017802Y008742D01*
X017802Y008606D01*
X017895Y008512D01*
X018602Y007806D01*
X018602Y006131D01*
X018522Y006051D01*
X018522Y005852D01*
X018662Y005712D01*
X018522Y005571D01*
X018522Y005458D01*
X017815Y004752D01*
X017501Y004752D01*
X017421Y004832D01*
X017222Y004832D01*
X017162Y004771D01*
X017162Y008745D01*
X017452Y009035D01*
X017452Y009449D01*
X017159Y009742D01*
X016744Y009742D01*
X016452Y009449D01*
X016452Y009035D01*
X016744Y008742D01*
X016842Y008742D01*
X016842Y007938D01*
X016828Y007952D01*
X016112Y008668D01*
X016112Y008742D01*
X016159Y008742D01*
X016452Y009035D01*
X016452Y009449D01*
X016159Y009742D01*
X015744Y009742D01*
X015452Y009449D01*
X015452Y009035D01*
X015744Y008742D01*
X015792Y008742D01*
X015792Y008668D01*
X015792Y008588D01*
X015398Y008981D01*
X015452Y009035D01*
X015452Y009449D01*
X015159Y009742D01*
X014744Y009742D01*
X014452Y009449D01*
X014452Y009035D01*
X014744Y008742D01*
X015159Y008742D01*
X015172Y008755D01*
X015335Y008592D01*
X015255Y008592D01*
X014828Y008592D01*
X014418Y009001D01*
X014452Y009035D01*
X014452Y009449D01*
X014159Y009742D01*
X013744Y009742D01*
X013452Y009449D01*
X013452Y009035D01*
X013452Y009449D01*
X013159Y009742D01*
X012744Y009742D01*
X012452Y009449D01*
X012452Y009035D01*
X012452Y009449D01*
X012159Y009742D01*
X011744Y009742D01*
X011452Y009449D01*
X011452Y009035D01*
X011452Y009449D01*
X011159Y009742D01*
X010744Y009742D01*
X010452Y009449D01*
X010452Y009035D01*
X010452Y009449D01*
X010159Y009742D01*
X009744Y009742D01*
X009452Y009449D01*
X009452Y009035D01*
X009452Y009449D01*
X009159Y009742D01*
X008744Y009742D01*
X008452Y009449D01*
X008452Y009035D01*
X008452Y009449D01*
X008159Y009742D01*
X007744Y009742D01*
X007452Y009449D01*
X007452Y009035D01*
X007452Y009449D01*
X007159Y009742D01*
X006744Y009742D01*
X006452Y009449D01*
X006452Y009035D01*
X006452Y009449D01*
X006159Y009742D01*
X005744Y009742D01*
X005452Y009449D01*
X005452Y009035D01*
X005452Y009449D01*
X005159Y009742D01*
X004744Y009742D01*
X004452Y009449D01*
X004452Y009035D01*
X004452Y009449D01*
X004159Y009742D01*
X003744Y009742D01*
X003452Y009449D01*
X003452Y009035D01*
X003452Y009449D01*
X003159Y009742D01*
X002744Y009742D01*
X002452Y009449D01*
X002452Y009035D01*
X002744Y008742D01*
X002752Y008742D01*
X002752Y006450D01*
X002752Y006284D01*
X003377Y005659D01*
X003494Y005542D01*
X008500Y005542D01*
X008513Y005532D01*
X008581Y005542D01*
X008649Y005542D01*
X008661Y005553D01*
X008677Y005556D01*
X008718Y005611D01*
X008767Y005659D01*
X008767Y005675D01*
X009095Y006114D01*
X009122Y006103D01*
X009122Y004967D01*
X009095Y004956D01*
X008982Y004843D01*
X008922Y004696D01*
X008922Y003977D01*
X008982Y003830D01*
X009095Y003718D01*
X009242Y003657D01*
X009401Y003657D01*
X009548Y003718D01*
X009661Y003830D01*
X009722Y003977D01*
X009722Y004696D01*
X009661Y004843D01*
X009548Y004956D01*
X009522Y004967D01*
X009522Y006111D01*
X009538Y006118D01*
X009651Y006230D01*
X009712Y006377D01*
X009712Y007096D01*
X009651Y007243D01*
X009542Y007352D01*
X009559Y007352D01*
X011239Y007352D01*
X011242Y007349D01*
X011242Y007292D01*
X011382Y007152D01*
X011581Y007152D01*
X011722Y007292D01*
X011661Y007232D02*
X011802Y007232D01*
X011802Y007154D02*
X011583Y007154D01*
X011380Y007154D02*
X009688Y007154D01*
X009712Y007075D02*
X011785Y007075D01*
X011722Y006997D02*
X009712Y006997D01*
X009712Y006918D02*
X011722Y006918D01*
X011722Y006840D02*
X009712Y006840D01*
X009712Y006761D02*
X011773Y006761D01*
X011802Y006682D02*
X009712Y006682D01*
X009712Y006604D02*
X011802Y006604D01*
X011802Y006525D02*
X009712Y006525D01*
X009712Y006447D02*
X011802Y006447D01*
X011802Y006368D02*
X009708Y006368D01*
X009675Y006290D02*
X011802Y006290D01*
X011802Y006211D02*
X009632Y006211D01*
X009553Y006133D02*
X011802Y006133D01*
X011802Y006054D02*
X009522Y006054D01*
X009522Y005976D02*
X011802Y005976D01*
X011802Y005897D02*
X009522Y005897D01*
X009522Y005818D02*
X011802Y005818D01*
X011802Y005740D02*
X009522Y005740D01*
X009522Y005661D02*
X011802Y005661D01*
X011802Y005583D02*
X009522Y005583D01*
X009522Y005504D02*
X011768Y005504D01*
X011689Y005426D02*
X009522Y005426D01*
X009522Y005347D02*
X011611Y005347D01*
X011532Y005269D02*
X009522Y005269D01*
X009522Y005190D02*
X011454Y005190D01*
X011375Y005112D02*
X009522Y005112D01*
X009522Y005033D02*
X011296Y005033D01*
X011218Y004954D02*
X009550Y004954D01*
X009628Y004876D02*
X011139Y004876D01*
X011061Y004797D02*
X009680Y004797D01*
X009712Y004719D02*
X010982Y004719D01*
X010904Y004640D02*
X009722Y004640D01*
X009722Y004562D02*
X010825Y004562D01*
X010747Y004483D02*
X009722Y004483D01*
X009722Y004405D02*
X010668Y004405D01*
X010590Y004326D02*
X009722Y004326D01*
X009722Y004248D02*
X010511Y004248D01*
X010432Y004169D02*
X009722Y004169D01*
X009722Y004091D02*
X010354Y004091D01*
X010275Y004012D02*
X009722Y004012D01*
X009703Y003933D02*
X010197Y003933D01*
X010118Y003855D02*
X009671Y003855D01*
X009607Y003776D02*
X010040Y003776D01*
X009961Y003698D02*
X009500Y003698D01*
X009804Y003541D02*
X003802Y003541D01*
X003802Y003462D02*
X009726Y003462D01*
X009883Y003619D02*
X003754Y003619D01*
X003675Y003698D02*
X008143Y003698D01*
X008095Y003718D02*
X008242Y003657D01*
X008401Y003657D01*
X008548Y003718D01*
X008661Y003830D01*
X008722Y003977D01*
X008722Y004696D01*
X008661Y004843D01*
X008548Y004956D01*
X008401Y005017D01*
X008242Y005017D01*
X008095Y004956D01*
X007982Y004843D01*
X007922Y004696D01*
X007922Y003977D01*
X007982Y003830D01*
X008095Y003718D01*
X008036Y003776D02*
X000342Y003776D01*
X000342Y003698D02*
X003448Y003698D01*
X003370Y003619D02*
X002560Y003619D01*
X002536Y003644D02*
X002631Y003549D01*
X002682Y003425D01*
X002682Y003291D01*
X002631Y003167D01*
X002536Y003072D01*
X002412Y003021D01*
X002278Y003021D01*
X002154Y003072D01*
X002060Y003167D01*
X002008Y003291D01*
X002008Y003425D01*
X002060Y003549D01*
X002154Y003644D01*
X002278Y003695D01*
X002412Y003695D01*
X002536Y003644D01*
X002634Y003541D02*
X003322Y003541D01*
X003322Y003462D02*
X002667Y003462D01*
X002682Y003384D02*
X003322Y003384D01*
X003389Y003305D02*
X002682Y003305D01*
X002655Y003227D02*
X003402Y003227D01*
X003402Y003148D02*
X002612Y003148D01*
X002529Y003069D02*
X003402Y003069D01*
X003402Y002991D02*
X000342Y002991D01*
X000342Y003069D02*
X002162Y003069D01*
X002079Y003148D02*
X000342Y003148D01*
X000342Y003227D02*
X002035Y003227D01*
X002008Y003305D02*
X000342Y003305D01*
X000342Y003384D02*
X002008Y003384D01*
X002024Y003462D02*
X000342Y003462D01*
X000342Y003541D02*
X002056Y003541D01*
X002130Y003619D02*
X000342Y003619D01*
X000342Y003855D02*
X007972Y003855D01*
X007940Y003933D02*
X000342Y003933D01*
X000342Y004012D02*
X007922Y004012D01*
X007922Y004091D02*
X000342Y004091D01*
X000342Y004169D02*
X007922Y004169D01*
X007922Y004248D02*
X000342Y004248D01*
X000342Y004326D02*
X007922Y004326D01*
X007922Y004405D02*
X000342Y004405D01*
X000342Y004483D02*
X007922Y004483D01*
X007922Y004562D02*
X000342Y004562D01*
X000342Y004640D02*
X007922Y004640D01*
X007931Y004719D02*
X000342Y004719D01*
X000342Y004797D02*
X007963Y004797D01*
X008015Y004876D02*
X000342Y004876D01*
X000342Y004954D02*
X000954Y004954D01*
X000997Y004937D02*
X000850Y004998D01*
X000737Y005110D01*
X000677Y005257D01*
X000677Y005976D01*
X000342Y005976D01*
X000342Y006054D02*
X000709Y006054D01*
X000737Y006123D02*
X000677Y005976D01*
X000677Y005897D02*
X000342Y005897D01*
X000342Y005818D02*
X000677Y005818D01*
X000677Y005740D02*
X000342Y005740D01*
X000342Y005661D02*
X000677Y005661D01*
X000677Y005583D02*
X000342Y005583D01*
X000342Y005504D02*
X000677Y005504D01*
X000677Y005426D02*
X000342Y005426D01*
X000342Y005347D02*
X000677Y005347D01*
X000677Y005269D02*
X000342Y005269D01*
X000342Y005190D02*
X000704Y005190D01*
X000737Y005112D02*
X000342Y005112D01*
X000342Y005033D02*
X000815Y005033D01*
X000997Y004937D02*
X001156Y004937D01*
X001303Y004998D01*
X001416Y005110D01*
X001477Y005257D01*
X001477Y005976D01*
X001677Y005976D01*
X001677Y005257D01*
X001737Y005110D01*
X001850Y004998D01*
X001997Y004937D01*
X002156Y004937D01*
X002303Y004998D01*
X002416Y005110D01*
X002477Y005257D01*
X002477Y005976D01*
X003060Y005976D01*
X002981Y006054D02*
X002444Y006054D01*
X002416Y006123D02*
X002303Y006236D01*
X002156Y006297D01*
X002152Y006297D01*
X002152Y008742D01*
X002159Y008742D01*
X002452Y009035D01*
X002452Y009449D01*
X002159Y009742D01*
X001744Y009742D01*
X001466Y009463D01*
X001167Y009762D01*
X000991Y009762D01*
X000991Y009282D01*
X000912Y009282D01*
X000912Y009762D01*
X000736Y009762D01*
X000432Y009457D01*
X000432Y009282D01*
X000911Y009282D01*
X000911Y009202D01*
X000432Y009202D01*
X000432Y009026D01*
X000736Y008722D01*
X000912Y008722D01*
X000912Y009202D01*
X000991Y009202D01*
X000991Y008722D01*
X001167Y008722D01*
X001466Y009021D01*
X001744Y008742D01*
X001752Y008742D01*
X001752Y006138D01*
X001737Y006123D01*
X001677Y005976D01*
X001677Y005897D02*
X001477Y005897D01*
X001477Y005818D02*
X001677Y005818D01*
X001677Y005740D02*
X001477Y005740D01*
X001477Y005661D02*
X001677Y005661D01*
X001677Y005583D02*
X001477Y005583D01*
X001477Y005504D02*
X001677Y005504D01*
X001677Y005426D02*
X001477Y005426D01*
X001477Y005347D02*
X001677Y005347D01*
X001677Y005269D02*
X001477Y005269D01*
X001449Y005190D02*
X001704Y005190D01*
X001737Y005112D02*
X001416Y005112D01*
X001338Y005033D02*
X001815Y005033D01*
X001954Y004954D02*
X001199Y004954D01*
X002199Y004954D02*
X008094Y004954D01*
X008550Y004954D02*
X009094Y004954D01*
X009122Y005033D02*
X002338Y005033D01*
X002416Y005112D02*
X009122Y005112D01*
X009122Y005190D02*
X002449Y005190D01*
X002477Y005269D02*
X009122Y005269D01*
X009122Y005347D02*
X002477Y005347D01*
X002477Y005426D02*
X009122Y005426D01*
X009122Y005504D02*
X002477Y005504D01*
X002477Y005583D02*
X003453Y005583D01*
X003374Y005661D02*
X002477Y005661D01*
X002477Y005740D02*
X003296Y005740D01*
X003217Y005818D02*
X002477Y005818D01*
X002477Y005897D02*
X003139Y005897D01*
X002903Y006133D02*
X002406Y006133D01*
X002416Y006123D02*
X002477Y005976D01*
X002328Y006211D02*
X002824Y006211D01*
X002752Y006290D02*
X002173Y006290D01*
X002152Y006368D02*
X002752Y006368D01*
X002752Y006447D02*
X002152Y006447D01*
X002152Y006525D02*
X002752Y006525D01*
X002752Y006604D02*
X002152Y006604D01*
X002152Y006682D02*
X002752Y006682D01*
X002752Y006761D02*
X002152Y006761D01*
X002152Y006840D02*
X002752Y006840D01*
X002752Y006918D02*
X002152Y006918D01*
X002152Y006997D02*
X002752Y006997D01*
X002752Y007075D02*
X002152Y007075D01*
X002152Y007154D02*
X002752Y007154D01*
X002752Y007232D02*
X002152Y007232D01*
X002152Y007311D02*
X002752Y007311D01*
X002752Y007389D02*
X002152Y007389D01*
X002152Y007468D02*
X002752Y007468D01*
X002752Y007546D02*
X002152Y007546D01*
X002152Y007625D02*
X002752Y007625D01*
X002752Y007704D02*
X002152Y007704D01*
X002152Y007782D02*
X002752Y007782D01*
X002752Y007861D02*
X002152Y007861D01*
X002152Y007939D02*
X002752Y007939D01*
X002752Y008018D02*
X002152Y008018D01*
X002152Y008096D02*
X002752Y008096D01*
X002752Y008175D02*
X002152Y008175D01*
X002152Y008253D02*
X002752Y008253D01*
X002752Y008332D02*
X002152Y008332D01*
X002152Y008410D02*
X002752Y008410D01*
X002752Y008489D02*
X002152Y008489D01*
X002152Y008567D02*
X002752Y008567D01*
X002752Y008646D02*
X002152Y008646D01*
X002152Y008725D02*
X002752Y008725D01*
X002683Y008803D02*
X002220Y008803D01*
X002298Y008882D02*
X002605Y008882D01*
X002526Y008960D02*
X002377Y008960D01*
X002452Y009039D02*
X002452Y009039D01*
X002452Y009117D02*
X002452Y009117D01*
X002452Y009196D02*
X002452Y009196D01*
X002452Y009274D02*
X002452Y009274D01*
X002452Y009353D02*
X002452Y009353D01*
X002452Y009431D02*
X002452Y009431D01*
X002391Y009510D02*
X002513Y009510D01*
X002591Y009589D02*
X002312Y009589D01*
X002233Y009667D02*
X002670Y009667D01*
X003233Y009667D02*
X003670Y009667D01*
X003591Y009589D02*
X003312Y009589D01*
X003391Y009510D02*
X003513Y009510D01*
X003452Y009431D02*
X003452Y009431D01*
X003452Y009353D02*
X003452Y009353D01*
X003452Y009274D02*
X003452Y009274D01*
X003452Y009196D02*
X003452Y009196D01*
X003452Y009117D02*
X003452Y009117D01*
X003452Y009039D02*
X003452Y009039D01*
X003377Y008960D02*
X003526Y008960D01*
X003605Y008882D02*
X003298Y008882D01*
X003220Y008803D02*
X003683Y008803D01*
X003152Y008725D02*
X004243Y008725D01*
X004321Y008646D02*
X003152Y008646D01*
X003152Y008567D02*
X004400Y008567D01*
X004478Y008489D02*
X003152Y008489D01*
X003152Y008410D02*
X004557Y008410D01*
X004635Y008332D02*
X003152Y008332D01*
X003152Y008253D02*
X004714Y008253D01*
X004852Y008342D02*
X011402Y008342D01*
X011812Y008342D01*
X011962Y008192D01*
X011962Y006912D01*
X011962Y005472D01*
X009722Y003232D01*
X008922Y003232D01*
X007922Y002232D01*
X007902Y002232D01*
X007412Y002205D02*
X003722Y002205D01*
X003722Y002127D02*
X007412Y002127D01*
X007412Y002048D02*
X003722Y002048D01*
X003722Y001970D02*
X007471Y001970D01*
X007549Y001891D02*
X003722Y001891D01*
X003722Y001813D02*
X007628Y001813D01*
X007690Y001742D02*
X007392Y001443D01*
X007392Y001272D01*
X007861Y001272D01*
X007861Y001192D01*
X007392Y001192D01*
X007392Y001021D01*
X007690Y000722D01*
X007862Y000722D01*
X007862Y001192D01*
X007941Y001192D01*
X007941Y000722D01*
X008113Y000722D01*
X008412Y001021D01*
X008412Y001192D01*
X007942Y001192D01*
X007942Y001272D01*
X008412Y001272D01*
X008412Y001443D01*
X008113Y001742D01*
X007941Y001742D01*
X007941Y001272D01*
X007862Y001272D01*
X007862Y001742D01*
X007690Y001742D01*
X007683Y001734D02*
X003722Y001734D01*
X003722Y001656D02*
X007604Y001656D01*
X007526Y001577D02*
X003722Y001577D01*
X003722Y001499D02*
X007447Y001499D01*
X007392Y001420D02*
X003722Y001420D01*
X003722Y001341D02*
X007392Y001341D01*
X007392Y001184D02*
X003722Y001184D01*
X003722Y001106D02*
X007392Y001106D01*
X007392Y001027D02*
X003722Y001027D01*
X003722Y000949D02*
X007463Y000949D01*
X007542Y000870D02*
X003722Y000870D01*
X003722Y000792D02*
X007621Y000792D01*
X007862Y000792D02*
X007941Y000792D01*
X007941Y000870D02*
X007862Y000870D01*
X007862Y000949D02*
X007941Y000949D01*
X007941Y001027D02*
X007862Y001027D01*
X007862Y001106D02*
X007941Y001106D01*
X007941Y001184D02*
X007862Y001184D01*
X007861Y001263D02*
X003722Y001263D01*
X003402Y001263D02*
X000342Y001263D01*
X000342Y001341D02*
X002153Y001341D01*
X002154Y001340D02*
X002278Y001289D01*
X002412Y001289D01*
X002536Y001340D01*
X002631Y001435D01*
X002682Y001559D01*
X002682Y001693D01*
X002631Y001817D01*
X002536Y001911D01*
X002412Y001963D01*
X002278Y001963D01*
X002154Y001911D01*
X002060Y001817D01*
X002008Y001693D01*
X002008Y001559D01*
X002060Y001435D01*
X002154Y001340D01*
X002075Y001420D02*
X000342Y001420D01*
X000342Y001499D02*
X002033Y001499D01*
X002008Y001577D02*
X000342Y001577D01*
X000342Y001656D02*
X002008Y001656D01*
X002026Y001734D02*
X000342Y001734D01*
X000342Y001813D02*
X002058Y001813D01*
X002134Y001891D02*
X000342Y001891D01*
X000342Y001970D02*
X003402Y001970D01*
X003402Y002048D02*
X000342Y002048D01*
X000342Y002127D02*
X003402Y002127D01*
X003402Y002205D02*
X000342Y002205D01*
X000342Y002284D02*
X003402Y002284D01*
X003402Y002363D02*
X000342Y002363D01*
X000342Y002441D02*
X003402Y002441D01*
X003402Y002520D02*
X000342Y002520D01*
X000342Y002598D02*
X003402Y002598D01*
X003402Y002677D02*
X000342Y002677D01*
X000342Y002755D02*
X003402Y002755D01*
X003402Y002834D02*
X000342Y002834D01*
X000342Y002912D02*
X003402Y002912D01*
X003722Y002912D02*
X008376Y002912D01*
X008297Y002834D02*
X003722Y002834D01*
X003722Y002755D02*
X008219Y002755D01*
X008593Y002677D02*
X008654Y002677D01*
X008671Y002755D02*
X011722Y002755D01*
X011722Y002677D02*
X010366Y002677D01*
X010392Y002598D02*
X011722Y002598D01*
X011722Y002520D02*
X010392Y002520D01*
X010392Y002441D02*
X011722Y002441D01*
X011722Y002371D02*
X011642Y002291D01*
X011642Y002092D01*
X011782Y001952D01*
X011981Y001952D01*
X012122Y002092D01*
X012122Y002291D01*
X012042Y002371D01*
X012042Y003212D01*
X012122Y003292D01*
X012122Y003491D01*
X011981Y003632D01*
X011782Y003632D01*
X011642Y003491D01*
X011642Y003292D01*
X011722Y003212D01*
X011722Y002371D01*
X011713Y002363D02*
X010392Y002363D01*
X010392Y002284D02*
X011642Y002284D01*
X011642Y002205D02*
X010392Y002205D01*
X010392Y002127D02*
X011642Y002127D01*
X011686Y002048D02*
X010392Y002048D01*
X010392Y001970D02*
X011764Y001970D01*
X011999Y001970D02*
X013273Y001970D01*
X013352Y002048D02*
X012077Y002048D01*
X012122Y002127D02*
X013430Y002127D01*
X013509Y002205D02*
X012122Y002205D01*
X012122Y002284D02*
X013587Y002284D01*
X013666Y002363D02*
X012050Y002363D01*
X012042Y002441D02*
X013745Y002441D01*
X013823Y002520D02*
X012042Y002520D01*
X012042Y002598D02*
X014602Y002598D01*
X014602Y002677D02*
X012042Y002677D01*
X012042Y002755D02*
X014602Y002755D01*
X014664Y002834D02*
X012042Y002834D01*
X012042Y002912D02*
X016742Y002912D01*
X016682Y002991D02*
X012042Y002991D01*
X012042Y003069D02*
X016682Y003069D01*
X016619Y003148D02*
X012042Y003148D01*
X012056Y003227D02*
X016541Y003227D01*
X016462Y003305D02*
X012122Y003305D01*
X012122Y003384D02*
X016384Y003384D01*
X016305Y003462D02*
X012611Y003462D01*
X012682Y003541D02*
X016226Y003541D01*
X016148Y003619D02*
X012682Y003619D01*
X012682Y003698D02*
X016122Y003698D01*
X016122Y003776D02*
X012636Y003776D01*
X012602Y003855D02*
X016122Y003855D01*
X016122Y003933D02*
X012602Y003933D01*
X012602Y004012D02*
X012602Y004012D01*
X012762Y004192D02*
X012922Y004352D01*
X015882Y004352D01*
X016122Y004326D02*
X016122Y004326D01*
X016117Y004248D02*
X016122Y004248D01*
X016122Y004169D02*
X016038Y004169D01*
X016122Y004091D02*
X013000Y004091D01*
X013002Y004169D02*
X015725Y004169D01*
X016122Y004012D02*
X012921Y004012D01*
X012282Y004012D02*
X010728Y004012D01*
X010806Y004091D02*
X012282Y004091D01*
X012282Y004169D02*
X010885Y004169D01*
X010964Y004248D02*
X012282Y004248D01*
X012282Y004326D02*
X011042Y004326D01*
X011121Y004405D02*
X012282Y004405D01*
X012282Y004483D02*
X011199Y004483D01*
X011278Y004562D02*
X012282Y004562D01*
X012282Y004640D02*
X011356Y004640D01*
X011435Y004719D02*
X012282Y004719D01*
X012282Y004797D02*
X011513Y004797D01*
X011592Y004876D02*
X012282Y004876D01*
X012282Y004954D02*
X011670Y004954D01*
X011749Y005033D02*
X012282Y005033D01*
X012282Y005112D02*
X011828Y005112D01*
X011906Y005190D02*
X012282Y005190D01*
X012282Y005269D02*
X011985Y005269D01*
X012063Y005347D02*
X012282Y005347D01*
X012282Y005426D02*
X012122Y005426D01*
X012122Y005504D02*
X012282Y005504D01*
X012282Y005583D02*
X012122Y005583D01*
X012122Y005661D02*
X012282Y005661D01*
X012282Y005740D02*
X012122Y005740D01*
X012122Y005818D02*
X012282Y005818D01*
X012282Y005897D02*
X012122Y005897D01*
X012122Y005976D02*
X012282Y005976D01*
X012282Y006054D02*
X012122Y006054D01*
X012122Y006133D02*
X012282Y006133D01*
X012282Y006211D02*
X012122Y006211D01*
X012122Y006290D02*
X012282Y006290D01*
X012282Y006368D02*
X012122Y006368D01*
X012122Y006447D02*
X012282Y006447D01*
X012282Y006525D02*
X012122Y006525D01*
X012122Y006604D02*
X012282Y006604D01*
X012282Y006682D02*
X012122Y006682D01*
X012150Y006761D02*
X012282Y006761D01*
X012282Y006840D02*
X012202Y006840D01*
X012202Y006918D02*
X012282Y006918D01*
X012282Y006997D02*
X012202Y006997D01*
X012138Y007075D02*
X012282Y007075D01*
X012282Y007154D02*
X012122Y007154D01*
X012122Y007232D02*
X012282Y007232D01*
X012282Y007311D02*
X012122Y007311D01*
X012122Y007389D02*
X012282Y007389D01*
X012282Y007468D02*
X012122Y007468D01*
X012122Y007546D02*
X012282Y007546D01*
X012282Y007625D02*
X012122Y007625D01*
X012122Y007704D02*
X012282Y007704D01*
X012282Y007782D02*
X012122Y007782D01*
X012122Y007861D02*
X012282Y007861D01*
X012282Y007939D02*
X012122Y007939D01*
X012122Y008018D02*
X012282Y008018D01*
X012282Y008096D02*
X012122Y008096D01*
X012122Y008175D02*
X012282Y008175D01*
X012282Y008253D02*
X012122Y008253D01*
X012048Y008332D02*
X012282Y008332D01*
X012282Y008410D02*
X011969Y008410D01*
X011891Y008489D02*
X012282Y008489D01*
X012282Y008567D02*
X004852Y008567D01*
X004774Y008646D02*
X012282Y008646D01*
X012282Y008725D02*
X004695Y008725D01*
X004683Y008803D02*
X004617Y008803D01*
X004605Y008882D02*
X004538Y008882D01*
X004526Y008960D02*
X004459Y008960D01*
X004452Y009039D02*
X004452Y009039D01*
X004452Y009117D02*
X004452Y009117D01*
X004452Y009196D02*
X004452Y009196D01*
X004452Y009274D02*
X004452Y009274D01*
X004452Y009353D02*
X004452Y009353D01*
X004452Y009431D02*
X004452Y009431D01*
X004391Y009510D02*
X004513Y009510D01*
X004591Y009589D02*
X004312Y009589D01*
X004233Y009667D02*
X004670Y009667D01*
X005233Y009667D02*
X005670Y009667D01*
X005591Y009589D02*
X005312Y009589D01*
X005391Y009510D02*
X005513Y009510D01*
X005452Y009431D02*
X005452Y009431D01*
X005452Y009353D02*
X005452Y009353D01*
X005452Y009274D02*
X005452Y009274D01*
X005452Y009196D02*
X005452Y009196D01*
X005452Y009117D02*
X005452Y009117D01*
X005452Y009039D02*
X005452Y009039D01*
X005377Y008960D02*
X005526Y008960D01*
X005605Y008882D02*
X005298Y008882D01*
X005220Y008803D02*
X005683Y008803D01*
X006220Y008803D02*
X006683Y008803D01*
X006605Y008882D02*
X006298Y008882D01*
X006377Y008960D02*
X006526Y008960D01*
X006452Y009039D02*
X006452Y009039D01*
X006452Y009117D02*
X006452Y009117D01*
X006452Y009196D02*
X006452Y009196D01*
X006452Y009274D02*
X006452Y009274D01*
X006452Y009353D02*
X006452Y009353D01*
X006452Y009431D02*
X006452Y009431D01*
X006391Y009510D02*
X006513Y009510D01*
X006591Y009589D02*
X006312Y009589D01*
X006233Y009667D02*
X006670Y009667D01*
X007233Y009667D02*
X007670Y009667D01*
X007591Y009589D02*
X007312Y009589D01*
X007391Y009510D02*
X007513Y009510D01*
X007452Y009431D02*
X007452Y009431D01*
X007452Y009353D02*
X007452Y009353D01*
X007452Y009274D02*
X007452Y009274D01*
X007452Y009196D02*
X007452Y009196D01*
X007452Y009117D02*
X007452Y009117D01*
X007452Y009039D02*
X007452Y009039D01*
X007377Y008960D02*
X007526Y008960D01*
X007605Y008882D02*
X007298Y008882D01*
X007220Y008803D02*
X007683Y008803D01*
X008220Y008803D02*
X008683Y008803D01*
X008605Y008882D02*
X008298Y008882D01*
X008377Y008960D02*
X008526Y008960D01*
X008452Y009039D02*
X008452Y009039D01*
X008452Y009117D02*
X008452Y009117D01*
X008452Y009196D02*
X008452Y009196D01*
X008452Y009274D02*
X008452Y009274D01*
X008452Y009353D02*
X008452Y009353D01*
X008452Y009431D02*
X008452Y009431D01*
X008391Y009510D02*
X008513Y009510D01*
X008591Y009589D02*
X008312Y009589D01*
X008233Y009667D02*
X008670Y009667D01*
X009233Y009667D02*
X009670Y009667D01*
X009591Y009589D02*
X009312Y009589D01*
X009391Y009510D02*
X009513Y009510D01*
X009452Y009431D02*
X009452Y009431D01*
X009452Y009353D02*
X009452Y009353D01*
X009452Y009274D02*
X009452Y009274D01*
X009452Y009196D02*
X009452Y009196D01*
X009452Y009117D02*
X009452Y009117D01*
X009452Y009039D02*
X009452Y009039D01*
X009377Y008960D02*
X009526Y008960D01*
X009605Y008882D02*
X009298Y008882D01*
X009220Y008803D02*
X009683Y008803D01*
X010220Y008803D02*
X010683Y008803D01*
X010605Y008882D02*
X010298Y008882D01*
X010377Y008960D02*
X010526Y008960D01*
X010452Y009039D02*
X010452Y009039D01*
X010452Y009117D02*
X010452Y009117D01*
X010452Y009196D02*
X010452Y009196D01*
X010452Y009274D02*
X010452Y009274D01*
X010452Y009353D02*
X010452Y009353D01*
X010452Y009431D02*
X010452Y009431D01*
X010391Y009510D02*
X010513Y009510D01*
X010591Y009589D02*
X010312Y009589D01*
X010233Y009667D02*
X010670Y009667D01*
X011233Y009667D02*
X011670Y009667D01*
X011591Y009589D02*
X011312Y009589D01*
X011391Y009510D02*
X011513Y009510D01*
X011452Y009431D02*
X011452Y009431D01*
X011452Y009353D02*
X011452Y009353D01*
X011452Y009274D02*
X011452Y009274D01*
X011452Y009196D02*
X011452Y009196D01*
X011452Y009117D02*
X011452Y009117D01*
X011452Y009039D02*
X011452Y009039D01*
X011377Y008960D02*
X011526Y008960D01*
X011605Y008882D02*
X011298Y008882D01*
X011220Y008803D02*
X011683Y008803D01*
X012220Y008803D02*
X012287Y008803D01*
X012298Y008882D02*
X012365Y008882D01*
X012377Y008960D02*
X012444Y008960D01*
X012452Y009039D02*
X012452Y009039D01*
X012452Y009117D02*
X012452Y009117D01*
X012452Y009196D02*
X012452Y009196D01*
X012452Y009274D02*
X012452Y009274D01*
X012452Y009353D02*
X012452Y009353D01*
X012452Y009431D02*
X012452Y009431D01*
X012391Y009510D02*
X012513Y009510D01*
X012591Y009589D02*
X012312Y009589D01*
X012233Y009667D02*
X012670Y009667D01*
X013233Y009667D02*
X013670Y009667D01*
X013591Y009589D02*
X013312Y009589D01*
X013391Y009510D02*
X013513Y009510D01*
X013452Y009431D02*
X013452Y009431D01*
X013452Y009353D02*
X013452Y009353D01*
X013452Y009274D02*
X013452Y009274D01*
X013452Y009196D02*
X013452Y009196D01*
X013452Y009117D02*
X013452Y009117D01*
X013452Y009039D02*
X013452Y009039D01*
X013377Y008960D02*
X013526Y008960D01*
X013605Y008882D02*
X013298Y008882D01*
X013220Y008803D02*
X013683Y008803D01*
X014243Y008725D02*
X012660Y008725D01*
X012602Y008646D02*
X014321Y008646D01*
X014400Y008567D02*
X012602Y008567D01*
X012602Y008489D02*
X014478Y008489D01*
X014557Y008410D02*
X012602Y008410D01*
X012602Y008332D02*
X014635Y008332D01*
X014762Y008432D02*
X015322Y008432D01*
X016282Y007472D01*
X016282Y003712D01*
X016922Y003072D01*
X017162Y003069D02*
X017553Y003069D01*
X017474Y002991D02*
X017162Y002991D01*
X017101Y002912D02*
X017396Y002912D01*
X017317Y002834D02*
X017023Y002834D01*
X016820Y002834D02*
X015019Y002834D01*
X014842Y002672D02*
X017382Y002672D01*
X023952Y009242D01*
X024452Y009274D02*
X024452Y009274D01*
X024452Y009196D02*
X024452Y009196D01*
X024452Y009117D02*
X024452Y009117D01*
X024452Y009039D02*
X024452Y009039D01*
X024444Y008960D02*
X024377Y008960D01*
X024365Y008882D02*
X024298Y008882D01*
X024287Y008803D02*
X024220Y008803D01*
X024208Y008725D02*
X023660Y008725D01*
X023629Y008646D02*
X023582Y008646D01*
X023551Y008567D02*
X023503Y008567D01*
X023472Y008489D02*
X023425Y008489D01*
X023394Y008410D02*
X023346Y008410D01*
X023315Y008332D02*
X023268Y008332D01*
X023237Y008253D02*
X023189Y008253D01*
X023158Y008175D02*
X023111Y008175D01*
X023080Y008096D02*
X023032Y008096D01*
X023001Y008018D02*
X022954Y008018D01*
X022923Y007939D02*
X022875Y007939D01*
X022844Y007861D02*
X022796Y007861D01*
X022765Y007782D02*
X022718Y007782D01*
X022687Y007704D02*
X022639Y007704D01*
X022608Y007625D02*
X022561Y007625D01*
X022530Y007546D02*
X022482Y007546D01*
X022451Y007468D02*
X022404Y007468D01*
X022373Y007389D02*
X022325Y007389D01*
X022294Y007311D02*
X022247Y007311D01*
X022216Y007232D02*
X022168Y007232D01*
X022137Y007154D02*
X022090Y007154D01*
X022059Y007075D02*
X022011Y007075D01*
X021980Y006997D02*
X021933Y006997D01*
X021901Y006918D02*
X021854Y006918D01*
X021823Y006840D02*
X021775Y006840D01*
X021744Y006761D02*
X021697Y006761D01*
X021666Y006682D02*
X021618Y006682D01*
X021587Y006604D02*
X021540Y006604D01*
X021509Y006525D02*
X021461Y006525D01*
X021430Y006447D02*
X021383Y006447D01*
X021352Y006368D02*
X021304Y006368D01*
X021273Y006290D02*
X021226Y006290D01*
X021195Y006211D02*
X021147Y006211D01*
X021116Y006133D02*
X021069Y006133D01*
X021038Y006054D02*
X020990Y006054D01*
X020959Y005976D02*
X020911Y005976D01*
X020880Y005897D02*
X020833Y005897D01*
X020802Y005818D02*
X020754Y005818D01*
X020723Y005740D02*
X020676Y005740D01*
X020645Y005661D02*
X020597Y005661D01*
X020566Y005583D02*
X020519Y005583D01*
X020488Y005504D02*
X020440Y005504D01*
X020409Y005426D02*
X020362Y005426D01*
X020331Y005347D02*
X020283Y005347D01*
X020252Y005269D02*
X020205Y005269D01*
X020174Y005190D02*
X020126Y005190D01*
X020095Y005112D02*
X020047Y005112D01*
X020016Y005033D02*
X019969Y005033D01*
X019938Y004954D02*
X019890Y004954D01*
X019859Y004876D02*
X019812Y004876D01*
X019781Y004797D02*
X019733Y004797D01*
X019702Y004719D02*
X019655Y004719D01*
X019624Y004640D02*
X019576Y004640D01*
X019545Y004562D02*
X019498Y004562D01*
X019467Y004483D02*
X019419Y004483D01*
X019388Y004405D02*
X019341Y004405D01*
X019310Y004326D02*
X019262Y004326D01*
X019231Y004248D02*
X019184Y004248D01*
X019152Y004169D02*
X019105Y004169D01*
X019074Y004091D02*
X019026Y004091D01*
X018995Y004012D02*
X018948Y004012D01*
X018917Y003933D02*
X018869Y003933D01*
X018838Y003855D02*
X018791Y003855D01*
X018760Y003776D02*
X018712Y003776D01*
X018681Y003698D02*
X018634Y003698D01*
X018603Y003619D02*
X018555Y003619D01*
X018524Y003541D02*
X018477Y003541D01*
X018446Y003462D02*
X018398Y003462D01*
X018367Y003384D02*
X018320Y003384D01*
X018289Y003305D02*
X018241Y003305D01*
X018210Y003227D02*
X018162Y003227D01*
X018131Y003148D02*
X018084Y003148D01*
X018053Y003069D02*
X018005Y003069D01*
X017974Y002991D02*
X017927Y002991D01*
X017896Y002912D02*
X017848Y002912D01*
X017817Y002834D02*
X017770Y002834D01*
X017739Y002755D02*
X017691Y002755D01*
X017660Y002677D02*
X017613Y002677D01*
X017582Y002598D02*
X017534Y002598D01*
X017642Y002432D02*
X023702Y008492D01*
X024202Y008492D01*
X024952Y009242D01*
X025452Y009274D02*
X025452Y009274D01*
X025452Y009196D02*
X025452Y009196D01*
X025452Y009117D02*
X025452Y009117D01*
X025452Y009039D02*
X025452Y009039D01*
X025444Y008960D02*
X025377Y008960D01*
X025365Y008882D02*
X025298Y008882D01*
X025287Y008803D02*
X025220Y008803D01*
X025208Y008725D02*
X024660Y008725D01*
X024582Y008646D02*
X025129Y008646D01*
X025051Y008567D02*
X024503Y008567D01*
X024425Y008489D02*
X024972Y008489D01*
X024894Y008410D02*
X024346Y008410D01*
X024452Y008242D02*
X024952Y008242D01*
X025952Y009242D01*
X026452Y009274D02*
X026452Y009274D01*
X026452Y009196D02*
X026452Y009196D01*
X026452Y009117D02*
X026452Y009117D01*
X026452Y009039D02*
X026452Y009039D01*
X026444Y008960D02*
X026377Y008960D01*
X026365Y008882D02*
X026298Y008882D01*
X026287Y008803D02*
X026220Y008803D01*
X026208Y008725D02*
X025660Y008725D01*
X025582Y008646D02*
X026129Y008646D01*
X026051Y008567D02*
X025503Y008567D01*
X025425Y008489D02*
X025972Y008489D01*
X025894Y008410D02*
X025346Y008410D01*
X025268Y008332D02*
X025815Y008332D01*
X025737Y008253D02*
X025189Y008253D01*
X025111Y008175D02*
X025658Y008175D01*
X025702Y007992D02*
X026952Y009242D01*
X026452Y009353D02*
X026452Y009353D01*
X026452Y009431D02*
X026452Y009431D01*
X026391Y009510D02*
X026513Y009510D01*
X026591Y009589D02*
X026312Y009589D01*
X026233Y009667D02*
X026670Y009667D01*
X027233Y009667D02*
X027670Y009667D01*
X027591Y009589D02*
X027312Y009589D01*
X027391Y009510D02*
X027513Y009510D01*
X027452Y009431D02*
X027452Y009431D01*
X027452Y009353D02*
X027452Y009353D01*
X027452Y009274D02*
X027452Y009274D01*
X027452Y009196D02*
X027452Y009196D01*
X027452Y009117D02*
X027452Y009117D01*
X027452Y009039D02*
X027452Y009039D01*
X027377Y008960D02*
X027526Y008960D01*
X027605Y008882D02*
X027298Y008882D01*
X027220Y008803D02*
X027683Y008803D01*
X028220Y008803D02*
X028683Y008803D01*
X028605Y008882D02*
X028298Y008882D01*
X028377Y008960D02*
X028526Y008960D01*
X028452Y009039D02*
X028452Y009039D01*
X028452Y009117D02*
X028452Y009117D01*
X028452Y009196D02*
X028452Y009196D01*
X028452Y009274D02*
X028452Y009274D01*
X028452Y009353D02*
X028452Y009353D01*
X028452Y009431D02*
X028452Y009431D01*
X028391Y009510D02*
X028513Y009510D01*
X028591Y009589D02*
X028312Y009589D01*
X028233Y009667D02*
X028670Y009667D01*
X029233Y009667D02*
X029670Y009667D01*
X029591Y009589D02*
X029312Y009589D01*
X029391Y009510D02*
X029513Y009510D01*
X029452Y009431D02*
X029452Y009431D01*
X029452Y009353D02*
X029452Y009353D01*
X029452Y009274D02*
X029452Y009274D01*
X029452Y009196D02*
X029452Y009196D01*
X029452Y009117D02*
X029452Y009117D01*
X029452Y009039D02*
X029452Y009039D01*
X029377Y008960D02*
X029526Y008960D01*
X029605Y008882D02*
X029298Y008882D01*
X029220Y008803D02*
X029683Y008803D01*
X029802Y008725D02*
X029082Y008725D01*
X029082Y008646D02*
X029802Y008646D01*
X029802Y008567D02*
X029082Y008567D01*
X029082Y008489D02*
X029802Y008489D01*
X029802Y008410D02*
X029082Y008410D01*
X029082Y008332D02*
X029802Y008332D01*
X029802Y008253D02*
X029082Y008253D01*
X029082Y008175D02*
X029802Y008175D01*
X029802Y008096D02*
X029082Y008096D01*
X029082Y008018D02*
X029802Y008018D01*
X029802Y007939D02*
X029082Y007939D01*
X029082Y007861D02*
X029802Y007861D01*
X029802Y007782D02*
X029082Y007782D01*
X029082Y007704D02*
X029802Y007704D01*
X029802Y007625D02*
X029082Y007625D01*
X029082Y007546D02*
X029802Y007546D01*
X029802Y007468D02*
X029082Y007468D01*
X029082Y007389D02*
X029802Y007389D01*
X029802Y007311D02*
X029082Y007311D01*
X029068Y007232D02*
X029802Y007232D01*
X029802Y007154D02*
X028990Y007154D01*
X028911Y007075D02*
X029802Y007075D01*
X029802Y006997D02*
X028833Y006997D01*
X028762Y007152D02*
X028922Y007312D01*
X028922Y009212D01*
X028952Y009242D01*
X029952Y009242D02*
X029962Y009232D01*
X029962Y006832D01*
X029802Y006672D01*
X027402Y006672D01*
X027242Y006832D01*
X027242Y007552D01*
X027482Y007546D02*
X028762Y007546D01*
X028762Y007468D02*
X027482Y007468D01*
X027460Y007389D02*
X027418Y007389D01*
X027663Y007389D02*
X028762Y007389D01*
X028762Y007152D02*
X027562Y007152D01*
X027082Y007154D02*
X023465Y007154D01*
X023543Y007232D02*
X027082Y007232D01*
X027082Y007311D02*
X023622Y007311D01*
X023700Y007389D02*
X027065Y007389D01*
X027002Y007468D02*
X023779Y007468D01*
X023857Y007546D02*
X027002Y007546D01*
X027002Y007625D02*
X026061Y007625D01*
X026139Y007704D02*
X027054Y007704D01*
X027132Y007782D02*
X026218Y007782D01*
X026297Y007861D02*
X028762Y007861D01*
X028762Y007939D02*
X027613Y007939D01*
X027692Y008018D02*
X028762Y008018D01*
X028762Y008096D02*
X027692Y008096D01*
X027692Y008175D02*
X028762Y008175D01*
X028762Y008253D02*
X027654Y008253D01*
X027576Y008332D02*
X028762Y008332D01*
X028762Y008410D02*
X026346Y008410D01*
X026268Y008332D02*
X027327Y008332D01*
X027452Y008117D02*
X026327Y008117D01*
X025952Y007742D01*
X023827Y007742D01*
X022452Y006367D01*
X022452Y006242D01*
X022603Y006054D02*
X028821Y006054D01*
X028786Y006019D02*
X028712Y005839D01*
X028712Y005644D01*
X028786Y005464D01*
X028924Y005326D01*
X029104Y005252D01*
X029299Y005252D01*
X029479Y005326D01*
X029617Y005464D01*
X029692Y005644D01*
X029692Y005839D01*
X029617Y006019D01*
X029479Y006157D01*
X029299Y006232D01*
X029104Y006232D01*
X028924Y006157D01*
X028786Y006019D01*
X028768Y005976D02*
X021911Y005976D01*
X021833Y005897D02*
X028735Y005897D01*
X028712Y005818D02*
X021754Y005818D01*
X021676Y005740D02*
X028712Y005740D01*
X028712Y005661D02*
X021597Y005661D01*
X021519Y005583D02*
X028737Y005583D01*
X028770Y005504D02*
X021440Y005504D01*
X021362Y005426D02*
X028825Y005426D01*
X028903Y005347D02*
X021283Y005347D01*
X021205Y005269D02*
X029064Y005269D01*
X029339Y005269D02*
X030008Y005269D01*
X030006Y005269D02*
X030082Y005244D01*
X030161Y005232D01*
X030162Y005232D01*
X030162Y005702D01*
X030241Y005702D01*
X030241Y005232D01*
X030242Y005232D01*
X030321Y005244D01*
X030397Y005269D01*
X030469Y005306D01*
X030534Y005353D01*
X030591Y005410D01*
X030638Y005475D01*
X030674Y005546D01*
X030699Y005622D01*
X030712Y005702D01*
X030242Y005702D01*
X030242Y005782D01*
X030712Y005782D01*
X030699Y005861D01*
X030674Y005938D01*
X030638Y006009D01*
X030591Y006074D01*
X030534Y006131D01*
X030469Y006178D01*
X030397Y006214D01*
X030321Y006239D01*
X030242Y006252D01*
X030241Y006252D01*
X030241Y005782D01*
X030162Y005782D01*
X030162Y006252D01*
X030161Y006252D01*
X030082Y006239D01*
X030006Y006214D01*
X029934Y006178D01*
X029869Y006131D01*
X029813Y006074D01*
X029765Y006009D01*
X029729Y005938D01*
X029704Y005861D01*
X029692Y005782D01*
X029692Y005782D01*
X030161Y005782D01*
X030161Y005702D01*
X029692Y005702D01*
X029692Y005702D01*
X029704Y005622D01*
X029729Y005546D01*
X029765Y005475D01*
X029813Y005410D01*
X029869Y005353D01*
X029934Y005306D01*
X030006Y005269D01*
X029877Y005347D02*
X029500Y005347D01*
X029578Y005426D02*
X029801Y005426D01*
X029750Y005504D02*
X029633Y005504D01*
X029666Y005583D02*
X029717Y005583D01*
X029698Y005661D02*
X029692Y005661D01*
X029692Y005740D02*
X030161Y005740D01*
X030162Y005818D02*
X030241Y005818D01*
X030242Y005740D02*
X031322Y005740D01*
X031322Y005818D02*
X030706Y005818D01*
X030712Y005782D02*
X030712Y005782D01*
X030712Y005702D02*
X030712Y005702D01*
X030705Y005661D02*
X031322Y005661D01*
X031322Y005583D02*
X030686Y005583D01*
X030653Y005504D02*
X031322Y005504D01*
X031322Y005426D02*
X030602Y005426D01*
X030526Y005347D02*
X031322Y005347D01*
X031322Y005269D02*
X030395Y005269D01*
X030241Y005269D02*
X030162Y005269D01*
X030162Y005347D02*
X030241Y005347D01*
X030241Y005426D02*
X030162Y005426D01*
X030162Y005504D02*
X030241Y005504D01*
X030241Y005583D02*
X030162Y005583D01*
X030162Y005661D02*
X030241Y005661D01*
X030241Y005897D02*
X030162Y005897D01*
X030162Y005976D02*
X030241Y005976D01*
X030241Y006054D02*
X030162Y006054D01*
X030162Y006133D02*
X030241Y006133D01*
X030241Y006211D02*
X030162Y006211D01*
X029999Y006211D02*
X029349Y006211D01*
X029504Y006133D02*
X029872Y006133D01*
X029798Y006054D02*
X029582Y006054D01*
X029635Y005976D02*
X029748Y005976D01*
X029716Y005897D02*
X029668Y005897D01*
X029692Y005818D02*
X029697Y005818D01*
X030531Y006133D02*
X031322Y006133D01*
X031322Y006211D02*
X030404Y006211D01*
X030605Y006054D02*
X031322Y006054D01*
X031322Y005976D02*
X030655Y005976D01*
X030687Y005897D02*
X031322Y005897D01*
X031322Y006290D02*
X022692Y006290D01*
X022692Y006211D02*
X029054Y006211D01*
X028899Y006133D02*
X022682Y006133D01*
X022300Y006054D02*
X021990Y006054D01*
X022069Y006133D02*
X022221Y006133D01*
X022212Y006211D02*
X022147Y006211D01*
X022679Y006368D02*
X031322Y006368D01*
X031322Y006447D02*
X022758Y006447D01*
X022836Y006525D02*
X027322Y006525D01*
X027243Y006604D02*
X022915Y006604D01*
X022993Y006682D02*
X027165Y006682D01*
X027086Y006761D02*
X023072Y006761D01*
X023150Y006840D02*
X027082Y006840D01*
X027082Y006918D02*
X023229Y006918D01*
X023308Y006997D02*
X027082Y006997D01*
X027082Y007075D02*
X023386Y007075D01*
X022030Y007546D02*
X021082Y007546D01*
X021082Y007468D02*
X021951Y007468D01*
X021873Y007389D02*
X021082Y007389D01*
X021082Y007311D02*
X021794Y007311D01*
X021716Y007232D02*
X021082Y007232D01*
X021082Y007154D02*
X021637Y007154D01*
X021559Y007075D02*
X021082Y007075D01*
X021082Y006997D02*
X021480Y006997D01*
X021402Y006918D02*
X021082Y006918D01*
X021082Y006840D02*
X021323Y006840D01*
X021244Y006761D02*
X021082Y006761D01*
X021082Y006682D02*
X021166Y006682D01*
X021087Y006604D02*
X021080Y006604D01*
X021009Y006525D02*
X021001Y006525D01*
X020930Y006447D02*
X020923Y006447D01*
X020852Y006368D02*
X020844Y006368D01*
X020773Y006290D02*
X020559Y006290D01*
X020695Y006211D02*
X019967Y006211D01*
X019889Y006133D02*
X020616Y006133D01*
X020538Y006054D02*
X019763Y006054D01*
X019520Y006054D02*
X019286Y006054D01*
X019322Y005976D02*
X020459Y005976D01*
X020380Y005897D02*
X019322Y005897D01*
X019322Y005818D02*
X020302Y005818D01*
X020223Y005740D02*
X019322Y005740D01*
X019322Y005661D02*
X020145Y005661D01*
X020066Y005583D02*
X019322Y005583D01*
X019322Y005504D02*
X019988Y005504D01*
X019909Y005426D02*
X019322Y005426D01*
X019322Y005347D02*
X019831Y005347D01*
X019752Y005269D02*
X019322Y005269D01*
X019322Y005190D02*
X019674Y005190D01*
X019595Y005112D02*
X019322Y005112D01*
X019322Y005033D02*
X019516Y005033D01*
X019438Y004954D02*
X019322Y004954D01*
X019322Y004876D02*
X019359Y004876D01*
X019162Y004832D02*
X018282Y003952D01*
X018118Y003776D02*
X017882Y003776D01*
X017882Y003698D02*
X018181Y003698D01*
X018103Y003619D02*
X017808Y003619D01*
X017642Y003541D02*
X018024Y003541D01*
X017946Y003462D02*
X017642Y003462D01*
X017573Y003384D02*
X017867Y003384D01*
X017789Y003305D02*
X017402Y003305D01*
X017402Y003227D02*
X017710Y003227D01*
X017631Y003148D02*
X017337Y003148D01*
X017162Y003312D02*
X016522Y003952D01*
X016522Y007632D01*
X014952Y009202D01*
X014952Y009242D01*
X014452Y009274D02*
X014452Y009274D01*
X014452Y009196D02*
X014452Y009196D01*
X014452Y009117D02*
X014452Y009117D01*
X014452Y009039D02*
X014452Y009039D01*
X014459Y008960D02*
X014526Y008960D01*
X014538Y008882D02*
X014605Y008882D01*
X014617Y008803D02*
X014683Y008803D01*
X014695Y008725D02*
X015203Y008725D01*
X015281Y008646D02*
X014774Y008646D01*
X014762Y008432D02*
X013952Y009242D01*
X014452Y009353D02*
X014452Y009353D01*
X014452Y009431D02*
X014452Y009431D01*
X014391Y009510D02*
X014513Y009510D01*
X014591Y009589D02*
X014312Y009589D01*
X014233Y009667D02*
X014670Y009667D01*
X015233Y009667D02*
X015670Y009667D01*
X015591Y009589D02*
X015312Y009589D01*
X015391Y009510D02*
X015513Y009510D01*
X015452Y009431D02*
X015452Y009431D01*
X015452Y009353D02*
X015452Y009353D01*
X015452Y009274D02*
X015452Y009274D01*
X015452Y009196D02*
X015452Y009196D01*
X015452Y009117D02*
X015452Y009117D01*
X015452Y009039D02*
X015452Y009039D01*
X015419Y008960D02*
X015526Y008960D01*
X015498Y008882D02*
X015605Y008882D01*
X015577Y008803D02*
X015683Y008803D01*
X015655Y008725D02*
X015792Y008725D01*
X015792Y008646D02*
X015734Y008646D01*
X015952Y008602D02*
X016762Y007792D01*
X016762Y004192D01*
X017402Y003552D01*
X017162Y003566D02*
X017162Y003552D01*
X017148Y003552D01*
X016682Y004018D01*
X016682Y004046D01*
X017162Y003566D01*
X017108Y003619D02*
X017080Y003619D01*
X017029Y003698D02*
X017002Y003698D01*
X016951Y003776D02*
X016923Y003776D01*
X016872Y003855D02*
X016845Y003855D01*
X016794Y003933D02*
X016766Y003933D01*
X016715Y004012D02*
X016688Y004012D01*
X017011Y004169D02*
X017038Y004169D01*
X017089Y004091D02*
X017117Y004091D01*
X017168Y004012D02*
X017195Y004012D01*
X017246Y003933D02*
X017274Y003933D01*
X017325Y003855D02*
X017352Y003855D01*
X017402Y003806D02*
X016922Y004286D01*
X016922Y004258D01*
X017388Y003792D01*
X017402Y003792D01*
X017402Y003806D01*
X017642Y003792D02*
X017002Y004432D01*
X017002Y004512D01*
X017002Y009192D01*
X016952Y009242D01*
X017452Y009274D02*
X017452Y009274D01*
X017452Y009196D02*
X017452Y009196D01*
X017452Y009117D02*
X017452Y009117D01*
X017452Y009039D02*
X017452Y009039D01*
X017377Y008960D02*
X017526Y008960D01*
X017605Y008882D02*
X017298Y008882D01*
X017220Y008803D02*
X017683Y008803D01*
X017802Y008725D02*
X017162Y008725D01*
X017162Y008646D02*
X017802Y008646D01*
X017840Y008567D02*
X017162Y008567D01*
X017162Y008489D02*
X017918Y008489D01*
X017997Y008410D02*
X017162Y008410D01*
X017162Y008332D02*
X018075Y008332D01*
X018154Y008253D02*
X017162Y008253D01*
X017162Y008175D02*
X018232Y008175D01*
X018311Y008096D02*
X017162Y008096D01*
X017162Y008018D02*
X018389Y008018D01*
X018468Y007939D02*
X017162Y007939D01*
X017162Y007861D02*
X018547Y007861D01*
X018602Y007782D02*
X017162Y007782D01*
X017162Y007704D02*
X018602Y007704D01*
X018602Y007625D02*
X017162Y007625D01*
X017162Y007546D02*
X018602Y007546D01*
X018602Y007468D02*
X017162Y007468D01*
X017162Y007389D02*
X018602Y007389D01*
X018602Y007311D02*
X017162Y007311D01*
X017162Y007232D02*
X018602Y007232D01*
X018602Y007154D02*
X017162Y007154D01*
X017162Y007075D02*
X018602Y007075D01*
X018602Y006997D02*
X017162Y006997D01*
X017162Y006918D02*
X018602Y006918D01*
X018602Y006840D02*
X017162Y006840D01*
X017162Y006761D02*
X018602Y006761D01*
X018602Y006682D02*
X017162Y006682D01*
X017162Y006604D02*
X018602Y006604D01*
X018602Y006525D02*
X017162Y006525D01*
X017162Y006447D02*
X018602Y006447D01*
X018602Y006368D02*
X017162Y006368D01*
X017162Y006290D02*
X018602Y006290D01*
X018602Y006211D02*
X017162Y006211D01*
X017162Y006133D02*
X018602Y006133D01*
X018524Y006054D02*
X017162Y006054D01*
X017162Y005976D02*
X018522Y005976D01*
X018522Y005897D02*
X017162Y005897D01*
X017162Y005818D02*
X018556Y005818D01*
X018634Y005740D02*
X017162Y005740D01*
X017162Y005661D02*
X018612Y005661D01*
X018662Y005712D02*
X018861Y005712D01*
X018662Y005712D01*
X018533Y005583D02*
X017162Y005583D01*
X017162Y005504D02*
X018522Y005504D01*
X018489Y005426D02*
X017162Y005426D01*
X017162Y005347D02*
X018411Y005347D01*
X018332Y005269D02*
X017162Y005269D01*
X017162Y005190D02*
X018254Y005190D01*
X018175Y005112D02*
X017162Y005112D01*
X017162Y005033D02*
X018096Y005033D01*
X018018Y004954D02*
X017162Y004954D01*
X017162Y004876D02*
X017939Y004876D01*
X017861Y004797D02*
X017455Y004797D01*
X017188Y004797D02*
X017162Y004797D01*
X017322Y004592D02*
X017882Y004592D01*
X018762Y005472D01*
X018911Y005661D02*
X019002Y005661D01*
X018990Y005583D02*
X019002Y005583D01*
X019002Y005504D02*
X019002Y005504D01*
X019002Y005426D02*
X019002Y005426D01*
X019002Y005347D02*
X018976Y005347D01*
X019002Y005269D02*
X018898Y005269D01*
X019002Y005190D02*
X018706Y005190D01*
X018628Y005112D02*
X019002Y005112D01*
X019002Y005033D02*
X018549Y005033D01*
X018470Y004954D02*
X019002Y004954D01*
X018979Y004876D02*
X018392Y004876D01*
X018313Y004797D02*
X018901Y004797D01*
X018822Y004719D02*
X018235Y004719D01*
X018156Y004640D02*
X018744Y004640D01*
X018665Y004562D02*
X018078Y004562D01*
X017999Y004483D02*
X018587Y004483D01*
X018508Y004405D02*
X017474Y004405D01*
X017334Y004326D02*
X018430Y004326D01*
X018351Y004248D02*
X017412Y004248D01*
X017491Y004169D02*
X018159Y004169D01*
X018081Y004091D02*
X017569Y004091D01*
X017761Y004012D02*
X018042Y004012D01*
X018042Y003933D02*
X017839Y003933D01*
X017882Y003855D02*
X018042Y003855D01*
X016960Y004248D02*
X016932Y004248D01*
X016122Y004405D02*
X016122Y004405D01*
X016122Y004483D02*
X016090Y004483D01*
X016122Y004562D02*
X016011Y004562D01*
X016122Y004640D02*
X014842Y004640D01*
X014842Y004562D02*
X015752Y004562D01*
X016122Y004719D02*
X014814Y004719D01*
X014735Y004797D02*
X016122Y004797D01*
X016122Y004876D02*
X014544Y004876D01*
X014465Y004954D02*
X016122Y004954D01*
X016122Y005033D02*
X014387Y005033D01*
X014308Y005112D02*
X016122Y005112D01*
X016122Y005190D02*
X014230Y005190D01*
X014151Y005269D02*
X016122Y005269D01*
X016122Y005347D02*
X014072Y005347D01*
X013994Y005426D02*
X016122Y005426D01*
X016122Y005504D02*
X013915Y005504D01*
X013837Y005583D02*
X016122Y005583D01*
X016122Y005661D02*
X013758Y005661D01*
X013680Y005740D02*
X016122Y005740D01*
X016122Y005818D02*
X013601Y005818D01*
X013523Y005897D02*
X016122Y005897D01*
X016122Y005976D02*
X013444Y005976D01*
X013366Y006054D02*
X016122Y006054D01*
X016122Y006133D02*
X013287Y006133D01*
X013209Y006211D02*
X016122Y006211D01*
X016122Y006290D02*
X013130Y006290D01*
X013051Y006368D02*
X016122Y006368D01*
X016122Y006447D02*
X013002Y006447D01*
X013002Y006525D02*
X016122Y006525D01*
X016122Y006604D02*
X013002Y006604D01*
X013002Y006682D02*
X016122Y006682D01*
X016122Y006761D02*
X013030Y006761D01*
X013082Y006840D02*
X016122Y006840D01*
X016122Y006918D02*
X013082Y006918D01*
X013082Y006997D02*
X016122Y006997D01*
X016122Y007075D02*
X013018Y007075D01*
X012665Y007075D02*
X012602Y007075D01*
X012602Y006997D02*
X012602Y006997D01*
X012602Y006918D02*
X012602Y006918D01*
X012602Y006840D02*
X012602Y006840D01*
X012602Y006761D02*
X012653Y006761D01*
X012682Y006682D02*
X012602Y006682D01*
X012602Y006604D02*
X012682Y006604D01*
X012682Y006525D02*
X012602Y006525D01*
X012602Y006447D02*
X012682Y006447D01*
X012682Y006368D02*
X012602Y006368D01*
X012602Y006290D02*
X012682Y006290D01*
X012756Y006211D02*
X012602Y006211D01*
X012602Y006133D02*
X012835Y006133D01*
X012913Y006054D02*
X012602Y006054D01*
X012602Y005976D02*
X012992Y005976D01*
X013070Y005897D02*
X012602Y005897D01*
X012602Y005818D02*
X013149Y005818D01*
X013227Y005740D02*
X012602Y005740D01*
X012602Y005661D02*
X013306Y005661D01*
X013384Y005583D02*
X012602Y005583D01*
X012602Y005504D02*
X013463Y005504D01*
X013541Y005426D02*
X012602Y005426D01*
X012602Y005347D02*
X013620Y005347D01*
X013699Y005269D02*
X012602Y005269D01*
X012602Y005190D02*
X013777Y005190D01*
X013856Y005112D02*
X012602Y005112D01*
X012602Y005033D02*
X013934Y005033D01*
X014013Y004954D02*
X012602Y004954D01*
X012602Y004876D02*
X014091Y004876D01*
X014170Y004797D02*
X012602Y004797D01*
X012602Y004719D02*
X014248Y004719D01*
X014327Y004640D02*
X012602Y004640D01*
X012602Y004562D02*
X014362Y004562D01*
X014602Y004592D02*
X012842Y006352D01*
X012842Y006912D01*
X012602Y007154D02*
X016122Y007154D01*
X016122Y007232D02*
X012602Y007232D01*
X012602Y007311D02*
X016122Y007311D01*
X016122Y007389D02*
X012602Y007389D01*
X012602Y007468D02*
X016059Y007468D01*
X015981Y007546D02*
X012602Y007546D01*
X012602Y007625D02*
X015902Y007625D01*
X015824Y007704D02*
X012602Y007704D01*
X012602Y007782D02*
X015745Y007782D01*
X015667Y007861D02*
X012602Y007861D01*
X012602Y007939D02*
X015588Y007939D01*
X015509Y008018D02*
X012602Y008018D01*
X012602Y008096D02*
X015431Y008096D01*
X015352Y008175D02*
X012602Y008175D01*
X012602Y008253D02*
X015274Y008253D01*
X015952Y008602D02*
X015952Y009242D01*
X016452Y009274D02*
X016452Y009274D01*
X016452Y009196D02*
X016452Y009196D01*
X016452Y009117D02*
X016452Y009117D01*
X016452Y009039D02*
X016452Y009039D01*
X016377Y008960D02*
X016526Y008960D01*
X016605Y008882D02*
X016298Y008882D01*
X016220Y008803D02*
X016683Y008803D01*
X016842Y008725D02*
X016112Y008725D01*
X016134Y008646D02*
X016842Y008646D01*
X016842Y008567D02*
X016212Y008567D01*
X016291Y008489D02*
X016842Y008489D01*
X016842Y008410D02*
X016369Y008410D01*
X016448Y008332D02*
X016842Y008332D01*
X016842Y008253D02*
X016526Y008253D01*
X016605Y008175D02*
X016842Y008175D01*
X016842Y008096D02*
X016683Y008096D01*
X016762Y008018D02*
X016842Y008018D01*
X016841Y007939D02*
X016842Y007939D01*
X018371Y008489D02*
X018792Y008489D01*
X018792Y008567D02*
X018292Y008567D01*
X018214Y008646D02*
X018792Y008646D01*
X018792Y008725D02*
X018135Y008725D01*
X018220Y008803D02*
X018683Y008803D01*
X018605Y008882D02*
X018298Y008882D01*
X018377Y008960D02*
X018526Y008960D01*
X018452Y009039D02*
X018452Y009039D01*
X018452Y009117D02*
X018452Y009117D01*
X018452Y009196D02*
X018452Y009196D01*
X018452Y009274D02*
X018452Y009274D01*
X018452Y009353D02*
X018452Y009353D01*
X018452Y009431D02*
X018452Y009431D01*
X018391Y009510D02*
X018513Y009510D01*
X018591Y009589D02*
X018312Y009589D01*
X018233Y009667D02*
X018670Y009667D01*
X019233Y009667D02*
X019670Y009667D01*
X019591Y009589D02*
X019312Y009589D01*
X019391Y009510D02*
X019513Y009510D01*
X019452Y009431D02*
X019452Y009431D01*
X019452Y009353D02*
X019452Y009353D01*
X019452Y009274D02*
X019452Y009274D01*
X019452Y009196D02*
X019452Y009196D01*
X019452Y009117D02*
X019452Y009117D01*
X019452Y009039D02*
X019452Y009039D01*
X019377Y008960D02*
X019526Y008960D01*
X019605Y008882D02*
X019298Y008882D01*
X019220Y008803D02*
X019683Y008803D01*
X019802Y008725D02*
X019112Y008725D01*
X019112Y008646D02*
X019802Y008646D01*
X019802Y008567D02*
X019112Y008567D01*
X019112Y008489D02*
X019802Y008489D01*
X019802Y008410D02*
X019112Y008410D01*
X019112Y008332D02*
X019802Y008332D01*
X019802Y008253D02*
X019112Y008253D01*
X019112Y008175D02*
X019802Y008175D01*
X019802Y008096D02*
X019112Y008096D01*
X019112Y008018D02*
X019802Y008018D01*
X019802Y007939D02*
X019112Y007939D01*
X019112Y007861D02*
X019802Y007861D01*
X019802Y007782D02*
X019112Y007782D01*
X019112Y007704D02*
X019802Y007704D01*
X019802Y007625D02*
X019112Y007625D01*
X019112Y007546D02*
X019802Y007546D01*
X019802Y007468D02*
X019112Y007468D01*
X019112Y007389D02*
X019802Y007389D01*
X019802Y007311D02*
X019112Y007311D01*
X019112Y007232D02*
X019802Y007232D01*
X019802Y007154D02*
X019112Y007154D01*
X019112Y007075D02*
X019802Y007075D01*
X019802Y006997D02*
X019112Y006997D01*
X019112Y006918D02*
X019802Y006918D01*
X019802Y006840D02*
X019112Y006840D01*
X019112Y006761D02*
X019802Y006761D01*
X019802Y006682D02*
X019112Y006682D01*
X019112Y006604D02*
X019802Y006604D01*
X019802Y006525D02*
X019112Y006525D01*
X019112Y006447D02*
X019477Y006447D01*
X019402Y006368D02*
X019112Y006368D01*
X019112Y006290D02*
X019402Y006290D01*
X019402Y006211D02*
X019129Y006211D01*
X019207Y006133D02*
X019441Y006133D01*
X019162Y005952D02*
X019162Y004832D01*
X020262Y004326D02*
X028392Y004326D01*
X028392Y004248D02*
X020184Y004248D01*
X020105Y004169D02*
X028392Y004169D01*
X028392Y004091D02*
X020026Y004091D01*
X019948Y004012D02*
X028392Y004012D01*
X028392Y003933D02*
X019869Y003933D01*
X019791Y003855D02*
X028405Y003855D01*
X028392Y003888D02*
X028456Y003734D01*
X028574Y003616D01*
X028728Y003552D01*
X028895Y003552D01*
X029049Y003616D01*
X029168Y003734D01*
X029232Y003888D01*
X029232Y004655D01*
X029168Y004810D01*
X029049Y004928D01*
X028895Y004992D01*
X028728Y004992D01*
X028574Y004928D01*
X028456Y004810D01*
X028392Y004655D01*
X028392Y003888D01*
X028438Y003776D02*
X019712Y003776D01*
X019634Y003698D02*
X028492Y003698D01*
X028570Y003619D02*
X019555Y003619D01*
X019477Y003541D02*
X030501Y003541D01*
X030489Y003543D02*
X030423Y003564D01*
X030361Y003596D01*
X030305Y003636D01*
X030256Y003685D01*
X030215Y003741D01*
X030184Y003803D01*
X030162Y003869D01*
X030152Y003937D01*
X030152Y004232D01*
X030551Y004232D01*
X030551Y004312D01*
X030152Y004312D01*
X030152Y004606D01*
X030162Y004675D01*
X030184Y004741D01*
X030215Y004802D01*
X030256Y004859D01*
X030305Y004907D01*
X030361Y004948D01*
X030423Y004980D01*
X030489Y005001D01*
X030552Y005011D01*
X030552Y004312D01*
X030631Y004312D01*
X030631Y005011D01*
X030695Y005001D01*
X030760Y004980D01*
X030822Y004948D01*
X030878Y004907D01*
X030927Y004859D01*
X030968Y004802D01*
X030999Y004741D01*
X031021Y004675D01*
X031032Y004606D01*
X031032Y004312D01*
X030632Y004312D01*
X030632Y004232D01*
X031032Y004232D01*
X031032Y003937D01*
X031021Y003869D01*
X030999Y003803D01*
X030968Y003741D01*
X030927Y003685D01*
X030878Y003636D01*
X030822Y003596D01*
X030760Y003564D01*
X030695Y003543D01*
X030631Y003533D01*
X030631Y004232D01*
X030552Y004232D01*
X030552Y003533D01*
X030489Y003543D01*
X030552Y003541D02*
X030631Y003541D01*
X030682Y003541D02*
X031322Y003541D01*
X031322Y003619D02*
X030855Y003619D01*
X030936Y003698D02*
X031322Y003698D01*
X031322Y003776D02*
X030986Y003776D01*
X031016Y003855D02*
X031322Y003855D01*
X031322Y003933D02*
X031031Y003933D01*
X031032Y004012D02*
X031322Y004012D01*
X031322Y004091D02*
X031032Y004091D01*
X031032Y004169D02*
X031322Y004169D01*
X031322Y004248D02*
X030632Y004248D01*
X030631Y004326D02*
X030552Y004326D01*
X030551Y004248D02*
X029232Y004248D01*
X029232Y004326D02*
X030152Y004326D01*
X030152Y004405D02*
X029232Y004405D01*
X029232Y004483D02*
X030152Y004483D01*
X030152Y004562D02*
X029232Y004562D01*
X029232Y004640D02*
X030157Y004640D01*
X030177Y004719D02*
X029205Y004719D01*
X029173Y004797D02*
X030213Y004797D01*
X030273Y004876D02*
X029101Y004876D01*
X028985Y004954D02*
X030373Y004954D01*
X030552Y004954D02*
X030631Y004954D01*
X030631Y004876D02*
X030552Y004876D01*
X030552Y004797D02*
X030631Y004797D01*
X030631Y004719D02*
X030552Y004719D01*
X030552Y004640D02*
X030631Y004640D01*
X030631Y004562D02*
X030552Y004562D01*
X030552Y004483D02*
X030631Y004483D01*
X030631Y004405D02*
X030552Y004405D01*
X030552Y004169D02*
X030631Y004169D01*
X030631Y004091D02*
X030552Y004091D01*
X030552Y004012D02*
X030631Y004012D01*
X030631Y003933D02*
X030552Y003933D01*
X030552Y003855D02*
X030631Y003855D01*
X030631Y003776D02*
X030552Y003776D01*
X030552Y003698D02*
X030631Y003698D01*
X030631Y003619D02*
X030552Y003619D01*
X030328Y003619D02*
X029053Y003619D01*
X029131Y003698D02*
X030247Y003698D01*
X030197Y003776D02*
X029185Y003776D01*
X029218Y003855D02*
X030167Y003855D01*
X030152Y003933D02*
X029232Y003933D01*
X029232Y004012D02*
X030152Y004012D01*
X030152Y004091D02*
X029232Y004091D01*
X029232Y004169D02*
X030152Y004169D01*
X031032Y004326D02*
X031322Y004326D01*
X031322Y004405D02*
X031032Y004405D01*
X031032Y004483D02*
X031322Y004483D01*
X031322Y004562D02*
X031032Y004562D01*
X031026Y004640D02*
X031322Y004640D01*
X031322Y004719D02*
X031006Y004719D01*
X030970Y004797D02*
X031322Y004797D01*
X031322Y004876D02*
X030910Y004876D01*
X030810Y004954D02*
X031322Y004954D01*
X031322Y005033D02*
X020969Y005033D01*
X021047Y005112D02*
X031322Y005112D01*
X031322Y005190D02*
X021126Y005190D01*
X020890Y004954D02*
X028638Y004954D01*
X028522Y004876D02*
X020812Y004876D01*
X020733Y004797D02*
X028450Y004797D01*
X028418Y004719D02*
X020655Y004719D01*
X020576Y004640D02*
X028392Y004640D01*
X028392Y004562D02*
X020498Y004562D01*
X020419Y004483D02*
X028392Y004483D01*
X028392Y004405D02*
X020341Y004405D01*
X019398Y003462D02*
X031322Y003462D01*
X031322Y003384D02*
X019320Y003384D01*
X019241Y003305D02*
X031322Y003305D01*
X031322Y003227D02*
X019162Y003227D01*
X019084Y003148D02*
X031322Y003148D01*
X031322Y003069D02*
X019005Y003069D01*
X018927Y002991D02*
X031322Y002991D01*
X031322Y002912D02*
X019370Y002912D01*
X019301Y002982D02*
X019102Y002982D01*
X018962Y002841D01*
X018962Y002785D01*
X017744Y001567D01*
X016966Y001567D01*
X016926Y001607D01*
X016727Y001607D01*
X016587Y001466D01*
X016587Y001267D01*
X016727Y001127D01*
X016926Y001127D01*
X016966Y001167D01*
X017909Y001167D01*
X018027Y001284D01*
X019244Y002502D01*
X019301Y002502D01*
X019442Y002642D01*
X019442Y002841D01*
X019301Y002982D01*
X019033Y002912D02*
X018848Y002912D01*
X018770Y002834D02*
X018962Y002834D01*
X018932Y002755D02*
X018691Y002755D01*
X018613Y002677D02*
X018854Y002677D01*
X018775Y002598D02*
X018534Y002598D01*
X018456Y002520D02*
X018696Y002520D01*
X018618Y002441D02*
X018377Y002441D01*
X018298Y002363D02*
X018539Y002363D01*
X018461Y002284D02*
X018220Y002284D01*
X018141Y002205D02*
X018382Y002205D01*
X018304Y002127D02*
X018063Y002127D01*
X017984Y002048D02*
X018225Y002048D01*
X018147Y001970D02*
X017906Y001970D01*
X017827Y001891D02*
X018068Y001891D01*
X017990Y001813D02*
X017749Y001813D01*
X017833Y001656D02*
X014117Y001656D01*
X014122Y001577D02*
X016697Y001577D01*
X016619Y001499D02*
X014122Y001499D01*
X014089Y001420D02*
X016587Y001420D01*
X016587Y001341D02*
X014042Y001341D01*
X014042Y001263D02*
X016591Y001263D01*
X016670Y001184D02*
X014042Y001184D01*
X014042Y001106D02*
X015171Y001106D01*
X015093Y001027D02*
X014042Y001027D01*
X014042Y000949D02*
X015077Y000949D01*
X015077Y000870D02*
X014042Y000870D01*
X014042Y000792D02*
X015097Y000792D01*
X015176Y000713D02*
X014042Y000713D01*
X013991Y000635D02*
X015368Y000635D01*
X015446Y000556D02*
X013912Y000556D01*
X013833Y000478D02*
X015525Y000478D01*
X015637Y000592D02*
X015317Y000912D01*
X015462Y001106D02*
X016226Y001106D01*
X016148Y001027D02*
X015540Y001027D01*
X015557Y000949D02*
X016087Y000949D01*
X016087Y000870D02*
X015584Y000870D01*
X015663Y000792D02*
X016087Y000792D01*
X016327Y000867D02*
X028217Y000867D01*
X028812Y001712D01*
X029232Y001734D02*
X030551Y001734D01*
X030551Y001752D02*
X030551Y001672D01*
X030152Y001672D01*
X030152Y001377D01*
X030162Y001309D01*
X030184Y001243D01*
X030215Y001181D01*
X030256Y001125D01*
X030305Y001076D01*
X030361Y001036D01*
X030423Y001004D01*
X030489Y000983D01*
X030552Y000973D01*
X030552Y001672D01*
X030631Y001672D01*
X030631Y000973D01*
X030695Y000983D01*
X030760Y001004D01*
X030822Y001036D01*
X030878Y001076D01*
X030927Y001125D01*
X030968Y001181D01*
X030999Y001243D01*
X031021Y001309D01*
X031032Y001377D01*
X031032Y001672D01*
X030632Y001672D01*
X030632Y001752D01*
X031032Y001752D01*
X031032Y002046D01*
X031021Y002115D01*
X030999Y002181D01*
X030968Y002242D01*
X030927Y002299D01*
X030878Y002347D01*
X030822Y002388D01*
X030760Y002420D01*
X030695Y002441D01*
X030631Y002451D01*
X030631Y001752D01*
X030552Y001752D01*
X030552Y002451D01*
X030489Y002441D01*
X019184Y002441D01*
X019105Y002363D02*
X028568Y002363D01*
X028490Y002284D02*
X019027Y002284D01*
X018948Y002205D02*
X028437Y002205D01*
X028405Y002127D02*
X018869Y002127D01*
X018791Y002048D02*
X028392Y002048D01*
X028392Y001970D02*
X018712Y001970D01*
X018634Y001891D02*
X028392Y001891D01*
X028392Y001813D02*
X018555Y001813D01*
X018477Y001734D02*
X028392Y001734D01*
X028392Y001656D02*
X018398Y001656D01*
X018320Y001577D02*
X028392Y001577D01*
X028392Y001499D02*
X018241Y001499D01*
X018163Y001420D02*
X028392Y001420D01*
X028355Y001341D02*
X018084Y001341D01*
X018005Y001263D02*
X028300Y001263D01*
X028245Y001184D02*
X017927Y001184D01*
X017754Y001577D02*
X016956Y001577D01*
X017911Y001734D02*
X015683Y001734D01*
X015440Y001734D02*
X014039Y001734D01*
X013889Y001813D02*
X015361Y001813D01*
X015322Y001891D02*
X013967Y001891D01*
X013962Y002112D02*
X013562Y001712D01*
X013562Y000912D01*
X013322Y000672D01*
X009562Y000672D01*
X009002Y001232D01*
X008902Y001232D01*
X008412Y001263D02*
X007942Y001263D01*
X007941Y001341D02*
X007862Y001341D01*
X007862Y001420D02*
X007941Y001420D01*
X007941Y001499D02*
X007862Y001499D01*
X007862Y001577D02*
X007941Y001577D01*
X007941Y001656D02*
X007862Y001656D01*
X007862Y001734D02*
X007941Y001734D01*
X008120Y001734D02*
X009186Y001734D01*
X009171Y001656D02*
X009251Y001656D01*
X009249Y001577D02*
X009325Y001577D01*
X009328Y001499D02*
X009475Y001499D01*
X009412Y001420D02*
X009392Y001420D01*
X009392Y001341D02*
X009412Y001341D01*
X009412Y001263D02*
X009392Y001263D01*
X009392Y001184D02*
X009412Y001184D01*
X009412Y001106D02*
X009392Y001106D01*
X009902Y001232D02*
X011802Y001232D01*
X011981Y001072D02*
X012042Y001132D01*
X012042Y001331D01*
X011901Y001472D01*
X011702Y001472D01*
X011622Y001392D01*
X010392Y001392D01*
X010392Y001435D01*
X010254Y001572D01*
X013195Y001572D01*
X013328Y001572D01*
X013402Y001646D01*
X013402Y001646D01*
X013402Y000978D01*
X013402Y000978D01*
X013402Y001011D01*
X013261Y001152D01*
X013062Y001152D01*
X012982Y001072D01*
X011981Y001072D01*
X012015Y001106D02*
X013016Y001106D01*
X013162Y000912D02*
X010842Y000912D01*
X010602Y000912D01*
X010781Y001072D02*
X011622Y001072D01*
X011622Y001072D01*
X010908Y001072D01*
X010781Y001072D01*
X010781Y001072D01*
X010422Y001072D02*
X010392Y001041D01*
X010392Y001072D01*
X010422Y001072D01*
X010362Y000999D02*
X010194Y000832D01*
X010362Y000832D01*
X010362Y000999D01*
X010362Y000949D02*
X010311Y000949D01*
X010362Y000870D02*
X010233Y000870D01*
X009373Y000635D02*
X003722Y000635D01*
X003722Y000713D02*
X009294Y000713D01*
X009215Y000792D02*
X009154Y000792D01*
X008649Y000792D02*
X008183Y000792D01*
X008261Y000870D02*
X008570Y000870D01*
X008492Y000949D02*
X008340Y000949D01*
X008412Y001027D02*
X008413Y001027D01*
X008412Y001106D02*
X008412Y001106D01*
X008412Y001184D02*
X008412Y001184D01*
X008412Y001341D02*
X008412Y001341D01*
X008412Y001420D02*
X008412Y001420D01*
X008356Y001499D02*
X008475Y001499D01*
X008554Y001577D02*
X008278Y001577D01*
X008199Y001656D02*
X008632Y001656D01*
X008628Y001813D02*
X008175Y001813D01*
X008254Y001891D02*
X008549Y001891D01*
X008471Y001970D02*
X008332Y001970D01*
X008392Y002048D02*
X008412Y002048D01*
X008412Y002127D02*
X008392Y002127D01*
X008392Y002205D02*
X008412Y002205D01*
X008412Y002284D02*
X008392Y002284D01*
X008392Y002363D02*
X008412Y002363D01*
X008418Y002441D02*
X008385Y002441D01*
X008436Y002520D02*
X008496Y002520D01*
X008514Y002598D02*
X008575Y002598D01*
X008750Y002834D02*
X011722Y002834D01*
X011722Y002912D02*
X008828Y002912D01*
X008907Y002991D02*
X011722Y002991D01*
X011722Y003069D02*
X008985Y003069D01*
X008611Y003148D02*
X003722Y003148D01*
X003722Y003069D02*
X008533Y003069D01*
X008454Y002991D02*
X003722Y002991D01*
X003722Y003227D02*
X008690Y003227D01*
X008769Y003305D02*
X003734Y003305D01*
X003802Y003384D02*
X008847Y003384D01*
X009143Y003698D02*
X008500Y003698D01*
X008607Y003776D02*
X009036Y003776D01*
X008972Y003855D02*
X008671Y003855D01*
X008703Y003933D02*
X008940Y003933D01*
X008922Y004012D02*
X008722Y004012D01*
X008722Y004091D02*
X008922Y004091D01*
X008922Y004169D02*
X008722Y004169D01*
X008722Y004248D02*
X008922Y004248D01*
X008922Y004326D02*
X008722Y004326D01*
X008722Y004405D02*
X008922Y004405D01*
X008922Y004483D02*
X008722Y004483D01*
X008722Y004562D02*
X008922Y004562D01*
X008922Y004640D02*
X008722Y004640D01*
X008712Y004719D02*
X008931Y004719D01*
X008963Y004797D02*
X008680Y004797D01*
X008628Y004876D02*
X009015Y004876D01*
X009122Y005583D02*
X008697Y005583D01*
X008767Y005661D02*
X009122Y005661D01*
X009122Y005740D02*
X008815Y005740D01*
X008874Y005818D02*
X009122Y005818D01*
X009122Y005897D02*
X008933Y005897D01*
X008991Y005976D02*
X009122Y005976D01*
X009122Y006054D02*
X009050Y006054D01*
X008668Y006211D02*
X008632Y006211D01*
X008609Y006133D02*
X008553Y006133D01*
X008551Y006054D02*
X003547Y006054D01*
X003469Y006133D02*
X007070Y006133D01*
X007085Y006118D02*
X007232Y006057D01*
X007391Y006057D01*
X007538Y006118D01*
X007651Y006230D01*
X007712Y006377D01*
X007712Y007096D01*
X007651Y007243D01*
X007538Y007356D01*
X007391Y007417D01*
X007232Y007417D01*
X007085Y007356D01*
X006972Y007243D01*
X006912Y007096D01*
X006912Y006377D01*
X006972Y006230D01*
X007085Y006118D01*
X006992Y006211D02*
X003390Y006211D01*
X003312Y006290D02*
X006948Y006290D01*
X006915Y006368D02*
X003233Y006368D01*
X003154Y006447D02*
X006912Y006447D01*
X006912Y006525D02*
X003152Y006525D01*
X003152Y006604D02*
X006912Y006604D01*
X006912Y006682D02*
X003152Y006682D01*
X003152Y006761D02*
X006912Y006761D01*
X006912Y006840D02*
X003152Y006840D01*
X003152Y006918D02*
X006912Y006918D01*
X006912Y006997D02*
X003152Y006997D01*
X003152Y007075D02*
X006912Y007075D01*
X006935Y007154D02*
X003152Y007154D01*
X003152Y007232D02*
X006968Y007232D01*
X007040Y007311D02*
X003152Y007311D01*
X003152Y007389D02*
X007166Y007389D01*
X007458Y007389D02*
X008166Y007389D01*
X008040Y007311D02*
X007583Y007311D01*
X007655Y007232D02*
X007968Y007232D01*
X007935Y007154D02*
X007688Y007154D01*
X007712Y007075D02*
X007912Y007075D01*
X007912Y006997D02*
X007712Y006997D01*
X007712Y006918D02*
X007912Y006918D01*
X007912Y006840D02*
X007712Y006840D01*
X007712Y006761D02*
X007912Y006761D01*
X007912Y006682D02*
X007712Y006682D01*
X007712Y006604D02*
X007912Y006604D01*
X007912Y006525D02*
X007712Y006525D01*
X007712Y006447D02*
X007912Y006447D01*
X007915Y006368D02*
X007708Y006368D01*
X007675Y006290D02*
X007948Y006290D01*
X007992Y006211D02*
X007632Y006211D01*
X007553Y006133D02*
X008070Y006133D01*
X008492Y005976D02*
X003626Y005976D01*
X001747Y006133D02*
X001406Y006133D01*
X001416Y006123D02*
X001303Y006236D01*
X001156Y006297D01*
X000997Y006297D01*
X000850Y006236D01*
X000737Y006123D01*
X000747Y006133D02*
X000342Y006133D01*
X000342Y006211D02*
X000825Y006211D01*
X000980Y006290D02*
X000342Y006290D01*
X000342Y006368D02*
X001752Y006368D01*
X001752Y006290D02*
X001173Y006290D01*
X001328Y006211D02*
X001752Y006211D01*
X001709Y006054D02*
X001444Y006054D01*
X001416Y006123D02*
X001477Y005976D01*
X001752Y006447D02*
X000342Y006447D01*
X000342Y006525D02*
X001752Y006525D01*
X001752Y006604D02*
X000342Y006604D01*
X000342Y006682D02*
X001752Y006682D01*
X001752Y006761D02*
X000342Y006761D01*
X000342Y006840D02*
X001752Y006840D01*
X001752Y006918D02*
X000342Y006918D01*
X000342Y006997D02*
X001752Y006997D01*
X001752Y007075D02*
X000342Y007075D01*
X000342Y007154D02*
X001752Y007154D01*
X001752Y007232D02*
X000342Y007232D01*
X000342Y007311D02*
X001752Y007311D01*
X001752Y007389D02*
X000342Y007389D01*
X000342Y007468D02*
X001752Y007468D01*
X001752Y007546D02*
X000342Y007546D01*
X000342Y007625D02*
X001752Y007625D01*
X001752Y007704D02*
X000342Y007704D01*
X000342Y007782D02*
X001752Y007782D01*
X001752Y007861D02*
X000342Y007861D01*
X000342Y007939D02*
X001752Y007939D01*
X001752Y008018D02*
X000342Y008018D01*
X000342Y008096D02*
X001752Y008096D01*
X001752Y008175D02*
X000342Y008175D01*
X000342Y008253D02*
X001752Y008253D01*
X001752Y008332D02*
X000342Y008332D01*
X000342Y008410D02*
X001752Y008410D01*
X001752Y008489D02*
X000342Y008489D01*
X000342Y008567D02*
X001752Y008567D01*
X001752Y008646D02*
X000342Y008646D01*
X000342Y008725D02*
X000734Y008725D01*
X000655Y008803D02*
X000342Y008803D01*
X000342Y008882D02*
X000576Y008882D01*
X000498Y008960D02*
X000342Y008960D01*
X000342Y009039D02*
X000432Y009039D01*
X000432Y009117D02*
X000342Y009117D01*
X000342Y009196D02*
X000432Y009196D01*
X000342Y009274D02*
X000911Y009274D01*
X000912Y009196D02*
X000991Y009196D01*
X000991Y009117D02*
X000912Y009117D01*
X000912Y009039D02*
X000991Y009039D01*
X000991Y008960D02*
X000912Y008960D01*
X000912Y008882D02*
X000991Y008882D01*
X000991Y008803D02*
X000912Y008803D01*
X000912Y008725D02*
X000991Y008725D01*
X001170Y008725D02*
X001752Y008725D01*
X001683Y008803D02*
X001248Y008803D01*
X001327Y008882D02*
X001605Y008882D01*
X001526Y008960D02*
X001405Y008960D01*
X000991Y009353D02*
X000912Y009353D01*
X000912Y009431D02*
X000991Y009431D01*
X000991Y009510D02*
X000912Y009510D01*
X000912Y009589D02*
X000991Y009589D01*
X000991Y009667D02*
X000912Y009667D01*
X000912Y009746D02*
X000991Y009746D01*
X001183Y009746D02*
X031562Y009746D01*
X031562Y009824D02*
X000342Y009824D01*
X000342Y009746D02*
X000720Y009746D01*
X000641Y009667D02*
X000342Y009667D01*
X000342Y009589D02*
X000563Y009589D01*
X000484Y009510D02*
X000342Y009510D01*
X000342Y009431D02*
X000432Y009431D01*
X000432Y009353D02*
X000342Y009353D01*
X001262Y009667D02*
X001670Y009667D01*
X001591Y009589D02*
X001340Y009589D01*
X001419Y009510D02*
X001513Y009510D01*
X003952Y009242D02*
X004852Y008342D01*
X003152Y008175D02*
X011752Y008175D01*
X011802Y008096D02*
X003152Y008096D01*
X003152Y008018D02*
X011802Y008018D01*
X011802Y007939D02*
X003152Y007939D01*
X003152Y007861D02*
X011802Y007861D01*
X011802Y007782D02*
X003152Y007782D01*
X003152Y007704D02*
X008832Y007704D01*
X008767Y007625D02*
X003152Y007625D01*
X003152Y007546D02*
X008706Y007546D01*
X008642Y007468D02*
X003152Y007468D01*
X008458Y007389D02*
X008579Y007389D01*
X008903Y007154D02*
X008935Y007154D01*
X008912Y007075D02*
X008840Y007075D01*
X008777Y006997D02*
X008912Y006997D01*
X008912Y006918D02*
X008714Y006918D01*
X008712Y006840D02*
X008912Y006840D01*
X008912Y006761D02*
X008712Y006761D01*
X008712Y006682D02*
X008912Y006682D01*
X008912Y006604D02*
X008712Y006604D01*
X008712Y006525D02*
X008903Y006525D01*
X008845Y006447D02*
X008712Y006447D01*
X008708Y006368D02*
X008786Y006368D01*
X008727Y006290D02*
X008675Y006290D01*
X008966Y007232D02*
X008968Y007232D01*
X008986Y007257D02*
X009062Y007352D01*
X009081Y007352D01*
X008986Y007257D01*
X009029Y007311D02*
X009040Y007311D01*
X009583Y007311D02*
X011242Y007311D01*
X011302Y007232D02*
X009655Y007232D01*
X011453Y007704D02*
X011802Y007704D01*
X011802Y007625D02*
X011588Y007625D01*
X011666Y007546D02*
X011802Y007546D01*
X011802Y007468D02*
X011722Y007468D01*
X012442Y008732D02*
X012442Y003632D01*
X012272Y003462D02*
X012122Y003462D01*
X012072Y003541D02*
X012202Y003541D01*
X012202Y003619D02*
X011994Y003619D01*
X012202Y003698D02*
X010414Y003698D01*
X010492Y003776D02*
X012247Y003776D01*
X012282Y003855D02*
X010571Y003855D01*
X010649Y003933D02*
X012282Y003933D01*
X011770Y003619D02*
X010335Y003619D01*
X010257Y003541D02*
X011691Y003541D01*
X011642Y003462D02*
X010178Y003462D01*
X010100Y003384D02*
X011642Y003384D01*
X011642Y003305D02*
X010021Y003305D01*
X009942Y003227D02*
X011708Y003227D01*
X011722Y003148D02*
X009864Y003148D01*
X009437Y002677D02*
X009150Y002677D01*
X009228Y002598D02*
X009412Y002598D01*
X009412Y002520D02*
X009307Y002520D01*
X009385Y002441D02*
X009412Y002441D01*
X009412Y002363D02*
X009392Y002363D01*
X009392Y002284D02*
X009412Y002284D01*
X009412Y002205D02*
X009392Y002205D01*
X009392Y002127D02*
X009412Y002127D01*
X009412Y002048D02*
X009392Y002048D01*
X009405Y001970D02*
X009412Y001970D01*
X009402Y001732D02*
X008962Y002232D01*
X008902Y002232D01*
X009402Y001732D02*
X013262Y001732D01*
X013962Y002432D01*
X015082Y002432D01*
X017642Y002432D01*
X017652Y002192D02*
X023702Y008242D01*
X024452Y008242D01*
X023702Y007992D02*
X025702Y007992D01*
X025875Y007939D02*
X025923Y007939D01*
X025954Y008018D02*
X026001Y008018D01*
X026032Y008096D02*
X026080Y008096D01*
X026111Y008175D02*
X026158Y008175D01*
X026189Y008253D02*
X026237Y008253D01*
X026425Y008489D02*
X028762Y008489D01*
X028762Y008567D02*
X026503Y008567D01*
X026582Y008646D02*
X028762Y008646D01*
X028762Y008725D02*
X026660Y008725D01*
X025452Y009353D02*
X025452Y009353D01*
X025452Y009431D02*
X025452Y009431D01*
X025391Y009510D02*
X025513Y009510D01*
X025591Y009589D02*
X025312Y009589D01*
X025233Y009667D02*
X025670Y009667D01*
X024670Y009667D02*
X024233Y009667D01*
X024312Y009589D02*
X024591Y009589D01*
X024513Y009510D02*
X024391Y009510D01*
X024452Y009431D02*
X024452Y009431D01*
X024452Y009353D02*
X024452Y009353D01*
X023670Y009667D02*
X023233Y009667D01*
X023312Y009589D02*
X023591Y009589D01*
X023513Y009510D02*
X023391Y009510D01*
X023452Y009431D02*
X023452Y009431D01*
X023452Y009353D02*
X023452Y009353D01*
X023452Y009274D02*
X023452Y009274D01*
X023452Y009196D02*
X023452Y009196D01*
X023452Y009117D02*
X023452Y009117D01*
X023452Y009039D02*
X023452Y009039D01*
X023444Y008960D02*
X023377Y008960D01*
X023365Y008882D02*
X023298Y008882D01*
X023287Y008803D02*
X023220Y008803D01*
X023208Y008725D02*
X023082Y008725D01*
X023082Y008646D02*
X023129Y008646D01*
X023051Y008567D02*
X023043Y008567D01*
X022972Y008489D02*
X022965Y008489D01*
X022894Y008410D02*
X022886Y008410D01*
X022815Y008332D02*
X022808Y008332D01*
X022737Y008253D02*
X022729Y008253D01*
X022658Y008175D02*
X022651Y008175D01*
X022580Y008096D02*
X022572Y008096D01*
X022501Y008018D02*
X022494Y008018D01*
X022423Y007939D02*
X022415Y007939D01*
X022344Y007861D02*
X021650Y007861D01*
X021482Y008032D02*
X022282Y008032D01*
X022922Y008672D01*
X022922Y009212D01*
X022952Y009242D01*
X022452Y009274D02*
X022452Y009274D01*
X022452Y009196D02*
X022452Y009196D01*
X022452Y009117D02*
X022452Y009117D01*
X022452Y009039D02*
X022452Y009039D01*
X022377Y008960D02*
X022526Y008960D01*
X022605Y008882D02*
X022298Y008882D01*
X022220Y008803D02*
X022683Y008803D01*
X022748Y008725D02*
X021082Y008725D01*
X021082Y008646D02*
X022669Y008646D01*
X022591Y008567D02*
X021082Y008567D01*
X021082Y008489D02*
X022512Y008489D01*
X022434Y008410D02*
X021082Y008410D01*
X021082Y008332D02*
X022355Y008332D01*
X022277Y008253D02*
X021599Y008253D01*
X021364Y008253D02*
X021082Y008253D01*
X021082Y008175D02*
X021285Y008175D01*
X021242Y008096D02*
X021082Y008096D01*
X021082Y008018D02*
X021242Y008018D01*
X021242Y007939D02*
X021082Y007939D01*
X021082Y007861D02*
X021313Y007861D01*
X021082Y007782D02*
X022266Y007782D01*
X022187Y007704D02*
X021082Y007704D01*
X021082Y007625D02*
X022108Y007625D01*
X020762Y007625D02*
X020122Y007625D01*
X020122Y007704D02*
X020762Y007704D01*
X020762Y007782D02*
X020122Y007782D01*
X020122Y007861D02*
X020762Y007861D01*
X020762Y007939D02*
X020122Y007939D01*
X020122Y008018D02*
X020762Y008018D01*
X020762Y008096D02*
X020122Y008096D01*
X020122Y008175D02*
X020762Y008175D01*
X020762Y008253D02*
X020122Y008253D01*
X020122Y008332D02*
X020762Y008332D01*
X020762Y008410D02*
X020122Y008410D01*
X020122Y008489D02*
X020762Y008489D01*
X020762Y008567D02*
X020122Y008567D01*
X020122Y008646D02*
X020762Y008646D01*
X020762Y008725D02*
X020122Y008725D01*
X020220Y008803D02*
X020683Y008803D01*
X020605Y008882D02*
X020298Y008882D01*
X020377Y008960D02*
X020526Y008960D01*
X020452Y009039D02*
X020452Y009039D01*
X020452Y009117D02*
X020452Y009117D01*
X020452Y009196D02*
X020452Y009196D01*
X020452Y009274D02*
X020452Y009274D01*
X020452Y009353D02*
X020452Y009353D01*
X020452Y009431D02*
X020452Y009431D01*
X020391Y009510D02*
X020513Y009510D01*
X020591Y009589D02*
X020312Y009589D01*
X020233Y009667D02*
X020670Y009667D01*
X021233Y009667D02*
X021670Y009667D01*
X021591Y009589D02*
X021312Y009589D01*
X021391Y009510D02*
X021513Y009510D01*
X021452Y009431D02*
X021452Y009431D01*
X021452Y009353D02*
X021452Y009353D01*
X021452Y009274D02*
X021452Y009274D01*
X021452Y009196D02*
X021452Y009196D01*
X021452Y009117D02*
X021452Y009117D01*
X021452Y009039D02*
X021452Y009039D01*
X021377Y008960D02*
X021526Y008960D01*
X021605Y008882D02*
X021298Y008882D01*
X021220Y008803D02*
X021683Y008803D01*
X020952Y009242D02*
X020922Y009212D01*
X020922Y006672D01*
X020762Y006512D01*
X020442Y006512D01*
X020610Y006682D02*
X020706Y006682D01*
X020762Y006761D02*
X020122Y006761D01*
X020122Y006682D02*
X020273Y006682D01*
X020202Y006604D02*
X020122Y006604D01*
X020122Y006525D02*
X020202Y006525D01*
X020202Y006447D02*
X020122Y006447D01*
X020122Y006368D02*
X020246Y006368D01*
X020324Y006290D02*
X020046Y006290D01*
X019962Y006432D02*
X019802Y006272D01*
X019642Y006272D01*
X019962Y006432D02*
X019962Y009232D01*
X019952Y009242D01*
X018952Y009242D02*
X018952Y006162D01*
X019162Y005952D01*
X019002Y005886D02*
X019002Y005886D01*
X019002Y005818D02*
X018968Y005818D01*
X019002Y005740D02*
X018889Y005740D01*
X018762Y005952D02*
X018762Y007872D01*
X017962Y008672D01*
X017962Y009232D01*
X017952Y009242D01*
X017452Y009353D02*
X017452Y009353D01*
X017452Y009431D02*
X017452Y009431D01*
X017391Y009510D02*
X017513Y009510D01*
X017591Y009589D02*
X017312Y009589D01*
X017233Y009667D02*
X017670Y009667D01*
X016670Y009667D02*
X016233Y009667D01*
X016312Y009589D02*
X016591Y009589D01*
X016513Y009510D02*
X016391Y009510D01*
X016452Y009431D02*
X016452Y009431D01*
X016452Y009353D02*
X016452Y009353D01*
X018449Y008410D02*
X018792Y008410D01*
X018792Y008332D02*
X018528Y008332D01*
X018606Y008253D02*
X018792Y008253D01*
X018792Y008175D02*
X018685Y008175D01*
X018763Y008096D02*
X018792Y008096D01*
X020122Y007546D02*
X020762Y007546D01*
X020762Y007468D02*
X020122Y007468D01*
X020122Y007389D02*
X020762Y007389D01*
X020762Y007311D02*
X020122Y007311D01*
X020122Y007232D02*
X020762Y007232D01*
X020762Y007154D02*
X020122Y007154D01*
X020122Y007075D02*
X020762Y007075D01*
X020762Y006997D02*
X020122Y006997D01*
X020122Y006918D02*
X020762Y006918D01*
X020762Y006840D02*
X020122Y006840D01*
X023702Y007992D02*
X017662Y001952D01*
X015562Y001952D01*
X015322Y002192D02*
X015242Y002112D01*
X013962Y002112D01*
X014028Y002272D02*
X014028Y002272D01*
X014902Y002272D01*
X014902Y002272D01*
X014028Y002272D01*
X015322Y002192D02*
X017652Y002192D01*
X019319Y002520D02*
X031322Y002520D01*
X031322Y002598D02*
X019397Y002598D01*
X019442Y002677D02*
X031322Y002677D01*
X031322Y002755D02*
X019442Y002755D01*
X019442Y002834D02*
X031322Y002834D01*
X031322Y002441D02*
X030694Y002441D01*
X030631Y002441D02*
X030552Y002441D01*
X030489Y002441D02*
X030423Y002420D01*
X030361Y002388D01*
X030305Y002347D01*
X030256Y002299D01*
X030215Y002242D01*
X030184Y002181D01*
X030162Y002115D01*
X030152Y002046D01*
X030152Y001752D01*
X030551Y001752D01*
X030552Y001813D02*
X030631Y001813D01*
X030631Y001891D02*
X030552Y001891D01*
X030552Y001970D02*
X030631Y001970D01*
X030631Y002048D02*
X030552Y002048D01*
X030552Y002127D02*
X030631Y002127D01*
X030631Y002205D02*
X030552Y002205D01*
X030552Y002284D02*
X030631Y002284D01*
X030631Y002363D02*
X030552Y002363D01*
X030326Y002363D02*
X029055Y002363D01*
X029133Y002284D02*
X030245Y002284D01*
X030196Y002205D02*
X029186Y002205D01*
X029219Y002127D02*
X030166Y002127D01*
X030152Y002048D02*
X029232Y002048D01*
X029232Y001970D02*
X030152Y001970D01*
X030152Y001891D02*
X029232Y001891D01*
X029232Y001813D02*
X030152Y001813D01*
X030152Y001656D02*
X029232Y001656D01*
X029232Y001577D02*
X030152Y001577D01*
X030152Y001499D02*
X029232Y001499D01*
X029232Y001420D02*
X030152Y001420D01*
X030157Y001341D02*
X029232Y001341D01*
X029204Y001263D02*
X030177Y001263D01*
X030214Y001184D02*
X029172Y001184D01*
X029099Y001106D02*
X030275Y001106D01*
X030377Y001027D02*
X028981Y001027D01*
X028642Y001027D02*
X028525Y001027D01*
X028470Y000949D02*
X031212Y000949D01*
X031291Y001027D02*
X030806Y001027D01*
X030908Y001106D02*
X031322Y001106D01*
X031322Y001184D02*
X030969Y001184D01*
X031006Y001263D02*
X031322Y001263D01*
X031322Y001341D02*
X031026Y001341D01*
X031032Y001420D02*
X031322Y001420D01*
X031322Y001499D02*
X031032Y001499D01*
X031032Y001577D02*
X031322Y001577D01*
X031322Y001656D02*
X031032Y001656D01*
X031032Y001813D02*
X031322Y001813D01*
X031322Y001891D02*
X031032Y001891D01*
X031032Y001970D02*
X031322Y001970D01*
X031322Y002048D02*
X031031Y002048D01*
X031017Y002127D02*
X031322Y002127D01*
X031322Y002205D02*
X030987Y002205D01*
X030938Y002284D02*
X031322Y002284D01*
X031322Y002363D02*
X030857Y002363D01*
X030632Y001734D02*
X031322Y001734D01*
X030631Y001656D02*
X030552Y001656D01*
X030552Y001577D02*
X030631Y001577D01*
X030631Y001499D02*
X030552Y001499D01*
X030552Y001420D02*
X030631Y001420D01*
X030631Y001341D02*
X030552Y001341D01*
X030552Y001263D02*
X030631Y001263D01*
X030631Y001184D02*
X030552Y001184D01*
X030552Y001106D02*
X030631Y001106D01*
X030631Y001027D02*
X030552Y001027D01*
X031134Y000870D02*
X028415Y000870D01*
X028368Y000792D02*
X031055Y000792D01*
X031082Y000592D02*
X031482Y000992D01*
X031482Y008712D01*
X030952Y009242D01*
X031452Y009274D02*
X031562Y009274D01*
X031562Y009196D02*
X031452Y009196D01*
X031452Y009117D02*
X031562Y009117D01*
X031562Y009039D02*
X031452Y009039D01*
X031459Y008960D02*
X031562Y008960D01*
X031562Y008882D02*
X031538Y008882D01*
X031243Y008725D02*
X030122Y008725D01*
X030122Y008646D02*
X031321Y008646D01*
X031322Y008567D02*
X030122Y008567D01*
X030122Y008489D02*
X031322Y008489D01*
X031322Y008410D02*
X030122Y008410D01*
X030122Y008332D02*
X031322Y008332D01*
X031322Y008253D02*
X030122Y008253D01*
X030122Y008175D02*
X031322Y008175D01*
X031322Y008096D02*
X030122Y008096D01*
X030122Y008018D02*
X031322Y008018D01*
X031322Y007939D02*
X030122Y007939D01*
X030122Y007861D02*
X031322Y007861D01*
X031322Y007782D02*
X030122Y007782D01*
X030122Y007704D02*
X031322Y007704D01*
X031322Y007625D02*
X030122Y007625D01*
X030122Y007546D02*
X031322Y007546D01*
X031322Y007468D02*
X030122Y007468D01*
X030122Y007389D02*
X031322Y007389D01*
X031322Y007311D02*
X030122Y007311D01*
X030122Y007232D02*
X031322Y007232D01*
X031322Y007154D02*
X030122Y007154D01*
X030122Y007075D02*
X031322Y007075D01*
X031322Y006997D02*
X030122Y006997D01*
X030122Y006918D02*
X031322Y006918D01*
X031322Y006840D02*
X030122Y006840D01*
X030117Y006761D02*
X031322Y006761D01*
X031322Y006682D02*
X030038Y006682D01*
X029960Y006604D02*
X031322Y006604D01*
X031322Y006525D02*
X029881Y006525D01*
X029743Y006840D02*
X027460Y006840D01*
X027456Y006918D02*
X027402Y006918D01*
X027667Y006918D02*
X029802Y006918D01*
X028762Y007625D02*
X027482Y007625D01*
X027429Y007704D02*
X028762Y007704D01*
X028762Y007782D02*
X027351Y007782D01*
X027290Y007939D02*
X026375Y007939D01*
X030220Y008803D02*
X030683Y008803D01*
X030605Y008882D02*
X030298Y008882D01*
X030377Y008960D02*
X030526Y008960D01*
X030452Y009039D02*
X030452Y009039D01*
X030452Y009117D02*
X030452Y009117D01*
X030452Y009196D02*
X030452Y009196D01*
X030452Y009274D02*
X030452Y009274D01*
X030452Y009353D02*
X030452Y009353D01*
X030452Y009431D02*
X030452Y009431D01*
X030391Y009510D02*
X030513Y009510D01*
X030591Y009589D02*
X030312Y009589D01*
X030233Y009667D02*
X030670Y009667D01*
X031233Y009667D02*
X031562Y009667D01*
X031562Y009589D02*
X031312Y009589D01*
X031391Y009510D02*
X031562Y009510D01*
X031562Y009431D02*
X031452Y009431D01*
X031452Y009353D02*
X031562Y009353D01*
X022670Y009667D02*
X022233Y009667D01*
X022312Y009589D02*
X022591Y009589D01*
X022513Y009510D02*
X022391Y009510D01*
X022452Y009431D02*
X022452Y009431D01*
X022452Y009353D02*
X022452Y009353D01*
X012952Y009242D02*
X012442Y008732D01*
X012602Y004483D02*
X012827Y004483D01*
X012635Y004405D02*
X012602Y004405D01*
X011882Y003392D02*
X011882Y002192D01*
X013333Y001577D02*
X013402Y001577D01*
X013402Y001499D02*
X010328Y001499D01*
X010392Y001420D02*
X011650Y001420D01*
X011953Y001420D02*
X013402Y001420D01*
X013402Y001341D02*
X012031Y001341D01*
X012042Y001263D02*
X013402Y001263D01*
X013402Y001184D02*
X012042Y001184D01*
X013307Y001106D02*
X013402Y001106D01*
X013402Y001027D02*
X013385Y001027D01*
X013722Y001027D02*
X013722Y001027D01*
X013722Y000949D02*
X013722Y000949D01*
X013722Y000870D02*
X013722Y000870D01*
X013722Y000846D02*
X013722Y001373D01*
X013722Y001372D01*
X013722Y000818D01*
X013495Y000592D01*
X013468Y000592D01*
X013628Y000752D01*
X013722Y000846D01*
X013695Y000792D02*
X013668Y000792D01*
X013617Y000713D02*
X013589Y000713D01*
X013538Y000635D02*
X013511Y000635D01*
X013562Y000432D02*
X013882Y000752D01*
X013882Y001552D01*
X013722Y001341D02*
X013722Y001341D01*
X013722Y001263D02*
X013722Y001263D01*
X013722Y001184D02*
X013722Y001184D01*
X013722Y001106D02*
X013722Y001106D01*
X013562Y000432D02*
X003642Y000432D01*
X003562Y000512D01*
X003562Y003472D01*
X003722Y002677D02*
X007654Y002677D01*
X007575Y002598D02*
X003722Y002598D01*
X003722Y002520D02*
X007496Y002520D01*
X007418Y002441D02*
X003722Y002441D01*
X003722Y002363D02*
X007412Y002363D01*
X007412Y002284D02*
X003722Y002284D01*
X003402Y001891D02*
X002556Y001891D01*
X002632Y001813D02*
X003402Y001813D01*
X003402Y001734D02*
X002665Y001734D01*
X002682Y001656D02*
X003402Y001656D01*
X003402Y001577D02*
X002682Y001577D01*
X002657Y001499D02*
X003402Y001499D01*
X003402Y001420D02*
X002616Y001420D01*
X002537Y001341D02*
X003402Y001341D01*
X003402Y001184D02*
X000342Y001184D01*
X000342Y001106D02*
X003402Y001106D01*
X003402Y001027D02*
X000342Y001027D01*
X000342Y000949D02*
X003402Y000949D01*
X003402Y000870D02*
X000342Y000870D01*
X000342Y000792D02*
X003402Y000792D01*
X003402Y000713D02*
X000342Y000713D01*
X000342Y000635D02*
X003402Y000635D01*
X003402Y000556D02*
X000342Y000556D01*
X000342Y000478D02*
X003402Y000478D01*
X003448Y000399D02*
X000342Y000399D01*
X013755Y000399D02*
X031562Y000399D01*
X031562Y000478D02*
X031193Y000478D01*
X031272Y000556D02*
X031562Y000556D01*
X031562Y000635D02*
X031351Y000635D01*
X031429Y000713D02*
X031562Y000713D01*
X031562Y000792D02*
X031508Y000792D01*
X031082Y000592D02*
X028602Y000592D01*
X015637Y000592D01*
X016427Y001106D02*
X028189Y001106D01*
X028134Y001027D02*
X016506Y001027D01*
X016908Y003312D02*
X016442Y003778D01*
X016442Y003806D01*
X016922Y003326D01*
X016922Y003312D01*
X016908Y003312D01*
X016864Y003384D02*
X016836Y003384D01*
X016785Y003462D02*
X016758Y003462D01*
X016706Y003541D02*
X016679Y003541D01*
X016628Y003619D02*
X016600Y003619D01*
X016549Y003698D02*
X016522Y003698D01*
X016471Y003776D02*
X016443Y003776D01*
M02*
