G75*
G70*
%OFA0B0*%
%FSLAX24Y24*%
%IPPOS*%
%LPD*%
%AMOC8*
5,1,8,0,0,1.08239X$1,22.5*
%
%ADD10C,0.0000*%
%ADD11R,0.0631X0.0237*%
%ADD12R,0.0237X0.0631*%
%ADD13R,0.0552X0.0631*%
%ADD14R,0.0631X0.0552*%
%ADD15R,0.0780X0.0780*%
%ADD16OC8,0.0780*%
%ADD17R,0.0552X0.0670*%
%ADD18C,0.0640*%
%ADD19C,0.0780*%
%ADD20R,0.0985X0.0827*%
%ADD21R,0.0949X0.0237*%
%ADD22C,0.0434*%
%ADD23OC8,0.0800*%
%ADD24R,0.2040X0.0740*%
%ADD25C,0.0600*%
%ADD26R,0.0355X0.0512*%
%ADD27R,0.0640X0.0940*%
%ADD28R,0.0940X0.0940*%
%ADD29R,0.0512X0.0512*%
%ADD30R,0.0591X0.1142*%
%ADD31R,0.0591X0.0512*%
D10*
X000202Y000242D02*
X000202Y009992D01*
X031702Y009992D01*
X031702Y000242D01*
X000202Y000242D01*
X002148Y001626D02*
X002150Y001653D01*
X002156Y001680D01*
X002165Y001706D01*
X002178Y001730D01*
X002194Y001753D01*
X002213Y001772D01*
X002235Y001789D01*
X002259Y001803D01*
X002284Y001813D01*
X002311Y001820D01*
X002338Y001823D01*
X002366Y001822D01*
X002393Y001817D01*
X002419Y001809D01*
X002443Y001797D01*
X002466Y001781D01*
X002487Y001763D01*
X002504Y001742D01*
X002519Y001718D01*
X002530Y001693D01*
X002538Y001667D01*
X002542Y001640D01*
X002542Y001612D01*
X002538Y001585D01*
X002530Y001559D01*
X002519Y001534D01*
X002504Y001510D01*
X002487Y001489D01*
X002466Y001471D01*
X002444Y001455D01*
X002419Y001443D01*
X002393Y001435D01*
X002366Y001430D01*
X002338Y001429D01*
X002311Y001432D01*
X002284Y001439D01*
X002259Y001449D01*
X002235Y001463D01*
X002213Y001480D01*
X002194Y001499D01*
X002178Y001522D01*
X002165Y001546D01*
X002156Y001572D01*
X002150Y001599D01*
X002148Y001626D01*
X002148Y003358D02*
X002150Y003385D01*
X002156Y003412D01*
X002165Y003438D01*
X002178Y003462D01*
X002194Y003485D01*
X002213Y003504D01*
X002235Y003521D01*
X002259Y003535D01*
X002284Y003545D01*
X002311Y003552D01*
X002338Y003555D01*
X002366Y003554D01*
X002393Y003549D01*
X002419Y003541D01*
X002443Y003529D01*
X002466Y003513D01*
X002487Y003495D01*
X002504Y003474D01*
X002519Y003450D01*
X002530Y003425D01*
X002538Y003399D01*
X002542Y003372D01*
X002542Y003344D01*
X002538Y003317D01*
X002530Y003291D01*
X002519Y003266D01*
X002504Y003242D01*
X002487Y003221D01*
X002466Y003203D01*
X002444Y003187D01*
X002419Y003175D01*
X002393Y003167D01*
X002366Y003162D01*
X002338Y003161D01*
X002311Y003164D01*
X002284Y003171D01*
X002259Y003181D01*
X002235Y003195D01*
X002213Y003212D01*
X002194Y003231D01*
X002178Y003254D01*
X002165Y003278D01*
X002156Y003304D01*
X002150Y003331D01*
X002148Y003358D01*
D11*
G36*
X013091Y003693D02*
X012646Y003248D01*
X012479Y003415D01*
X012924Y003860D01*
X013091Y003693D01*
G37*
G36*
X013314Y003470D02*
X012869Y003025D01*
X012702Y003192D01*
X013147Y003637D01*
X013314Y003470D01*
G37*
G36*
X013537Y003248D02*
X013092Y002803D01*
X012925Y002970D01*
X013370Y003415D01*
X013537Y003248D01*
G37*
G36*
X013759Y003025D02*
X013314Y002580D01*
X013147Y002747D01*
X013592Y003192D01*
X013759Y003025D01*
G37*
G36*
X013982Y002802D02*
X013537Y002357D01*
X013370Y002524D01*
X013815Y002969D01*
X013982Y002802D01*
G37*
G36*
X014205Y002579D02*
X013760Y002134D01*
X013593Y002301D01*
X014038Y002746D01*
X014205Y002579D01*
G37*
G36*
X014427Y002357D02*
X013982Y001912D01*
X013815Y002079D01*
X014260Y002524D01*
X014427Y002357D01*
G37*
G36*
X014650Y002134D02*
X014205Y001689D01*
X014038Y001856D01*
X014483Y002301D01*
X014650Y002134D01*
G37*
G36*
X014873Y001911D02*
X014428Y001466D01*
X014261Y001633D01*
X014706Y002078D01*
X014873Y001911D01*
G37*
G36*
X015096Y001689D02*
X014651Y001244D01*
X014484Y001411D01*
X014929Y001856D01*
X015096Y001689D01*
G37*
G36*
X015318Y001466D02*
X014873Y001021D01*
X014706Y001188D01*
X015151Y001633D01*
X015318Y001466D01*
G37*
G36*
X018548Y004695D02*
X018103Y004250D01*
X017936Y004417D01*
X018381Y004862D01*
X018548Y004695D01*
G37*
G36*
X018325Y004918D02*
X017880Y004473D01*
X017713Y004640D01*
X018158Y005085D01*
X018325Y004918D01*
G37*
G36*
X018102Y005141D02*
X017657Y004696D01*
X017490Y004863D01*
X017935Y005308D01*
X018102Y005141D01*
G37*
G36*
X017879Y005363D02*
X017434Y004918D01*
X017267Y005085D01*
X017712Y005530D01*
X017879Y005363D01*
G37*
G36*
X017657Y005586D02*
X017212Y005141D01*
X017045Y005308D01*
X017490Y005753D01*
X017657Y005586D01*
G37*
G36*
X017434Y005809D02*
X016989Y005364D01*
X016822Y005531D01*
X017267Y005976D01*
X017434Y005809D01*
G37*
G36*
X017211Y006031D02*
X016766Y005586D01*
X016599Y005753D01*
X017044Y006198D01*
X017211Y006031D01*
G37*
G36*
X016989Y006254D02*
X016544Y005809D01*
X016377Y005976D01*
X016822Y006421D01*
X016989Y006254D01*
G37*
G36*
X016766Y006477D02*
X016321Y006032D01*
X016154Y006199D01*
X016599Y006644D01*
X016766Y006477D01*
G37*
G36*
X016543Y006700D02*
X016098Y006255D01*
X015931Y006422D01*
X016376Y006867D01*
X016543Y006700D01*
G37*
G36*
X016320Y006922D02*
X015875Y006477D01*
X015708Y006644D01*
X016153Y007089D01*
X016320Y006922D01*
G37*
D12*
G36*
X015318Y006644D02*
X015151Y006477D01*
X014706Y006922D01*
X014873Y007089D01*
X015318Y006644D01*
G37*
G36*
X015096Y006422D02*
X014929Y006255D01*
X014484Y006700D01*
X014651Y006867D01*
X015096Y006422D01*
G37*
G36*
X014873Y006199D02*
X014706Y006032D01*
X014261Y006477D01*
X014428Y006644D01*
X014873Y006199D01*
G37*
G36*
X014650Y005976D02*
X014483Y005809D01*
X014038Y006254D01*
X014205Y006421D01*
X014650Y005976D01*
G37*
G36*
X014427Y005753D02*
X014260Y005586D01*
X013815Y006031D01*
X013982Y006198D01*
X014427Y005753D01*
G37*
G36*
X014205Y005531D02*
X014038Y005364D01*
X013593Y005809D01*
X013760Y005976D01*
X014205Y005531D01*
G37*
G36*
X013982Y005308D02*
X013815Y005141D01*
X013370Y005586D01*
X013537Y005753D01*
X013982Y005308D01*
G37*
G36*
X013759Y005085D02*
X013592Y004918D01*
X013147Y005363D01*
X013314Y005530D01*
X013759Y005085D01*
G37*
G36*
X013537Y004863D02*
X013370Y004696D01*
X012925Y005141D01*
X013092Y005308D01*
X013537Y004863D01*
G37*
G36*
X013314Y004640D02*
X013147Y004473D01*
X012702Y004918D01*
X012869Y005085D01*
X013314Y004640D01*
G37*
G36*
X013091Y004417D02*
X012924Y004250D01*
X012479Y004695D01*
X012646Y004862D01*
X013091Y004417D01*
G37*
G36*
X017879Y002747D02*
X017712Y002580D01*
X017267Y003025D01*
X017434Y003192D01*
X017879Y002747D01*
G37*
G36*
X017657Y002524D02*
X017490Y002357D01*
X017045Y002802D01*
X017212Y002969D01*
X017657Y002524D01*
G37*
G36*
X017434Y002301D02*
X017267Y002134D01*
X016822Y002579D01*
X016989Y002746D01*
X017434Y002301D01*
G37*
G36*
X017211Y002079D02*
X017044Y001912D01*
X016599Y002357D01*
X016766Y002524D01*
X017211Y002079D01*
G37*
G36*
X016989Y001856D02*
X016822Y001689D01*
X016377Y002134D01*
X016544Y002301D01*
X016989Y001856D01*
G37*
G36*
X016766Y001633D02*
X016599Y001466D01*
X016154Y001911D01*
X016321Y002078D01*
X016766Y001633D01*
G37*
G36*
X016543Y001411D02*
X016376Y001244D01*
X015931Y001689D01*
X016098Y001856D01*
X016543Y001411D01*
G37*
G36*
X016320Y001188D02*
X016153Y001021D01*
X015708Y001466D01*
X015875Y001633D01*
X016320Y001188D01*
G37*
G36*
X018102Y002970D02*
X017935Y002803D01*
X017490Y003248D01*
X017657Y003415D01*
X018102Y002970D01*
G37*
G36*
X018325Y003192D02*
X018158Y003025D01*
X017713Y003470D01*
X017880Y003637D01*
X018325Y003192D01*
G37*
G36*
X018548Y003415D02*
X018381Y003248D01*
X017936Y003693D01*
X018103Y003860D01*
X018548Y003415D01*
G37*
D13*
X013351Y001682D03*
X012603Y001682D03*
X011856Y001712D03*
X011108Y001712D03*
X017803Y001062D03*
X018551Y001062D03*
X025133Y001032D03*
X025881Y001032D03*
X011966Y004757D03*
X011218Y004757D03*
X013463Y007107D03*
X014211Y007107D03*
X003576Y006992D03*
X002828Y006992D03*
X001826Y006992D03*
X001078Y006992D03*
D14*
X007147Y004831D03*
X007147Y004083D03*
X010452Y003993D03*
X010452Y004741D03*
X019202Y004366D03*
X019202Y003618D03*
D15*
X009902Y002232D03*
D16*
X008902Y002232D03*
X007902Y002232D03*
X007902Y001232D03*
X008902Y001232D03*
X009902Y001232D03*
D17*
X005826Y001832D03*
X005078Y001832D03*
X005078Y002752D03*
X005826Y002752D03*
X020953Y003367D03*
X021701Y003367D03*
X026078Y004742D03*
X026826Y004742D03*
X026826Y005742D03*
X026078Y005742D03*
X024826Y005742D03*
X024078Y005742D03*
D18*
X028812Y004572D02*
X028812Y003972D01*
X030592Y003972D02*
X030592Y004572D01*
X030592Y002012D02*
X030592Y001412D01*
X028812Y001412D02*
X028812Y002012D01*
D19*
X029202Y005742D03*
X030202Y005742D03*
D20*
X003330Y004224D03*
X001164Y004224D03*
X001164Y000760D03*
X003330Y000760D03*
D21*
X003552Y001862D03*
X003552Y002177D03*
X003552Y002492D03*
X003552Y002807D03*
X003552Y003122D03*
D22*
X002345Y003358D03*
X002345Y001626D03*
D23*
X001952Y009242D03*
X002952Y009242D03*
X003952Y009242D03*
X004952Y009242D03*
X005952Y009242D03*
X006952Y009242D03*
X007952Y009242D03*
X008952Y009242D03*
X009952Y009242D03*
X010952Y009242D03*
X011952Y009242D03*
X012952Y009242D03*
X013952Y009242D03*
X014952Y009242D03*
X015952Y009242D03*
X016952Y009242D03*
X017952Y009242D03*
X018952Y009242D03*
X019952Y009242D03*
X020952Y009242D03*
X021952Y009242D03*
X022952Y009242D03*
X023952Y009242D03*
X024952Y009242D03*
X025952Y009242D03*
X026952Y009242D03*
X027952Y009242D03*
X028952Y009242D03*
X029952Y009242D03*
X030952Y009242D03*
X000952Y009242D03*
D24*
X019927Y001492D03*
X023727Y001492D03*
D25*
X009322Y004057D02*
X009322Y004617D01*
X008322Y004617D02*
X008322Y004057D01*
X002077Y005337D02*
X002077Y005897D01*
X001077Y005897D02*
X001077Y005337D01*
X007312Y006457D02*
X007312Y007017D01*
X008312Y007017D02*
X008312Y006457D01*
X009312Y006457D02*
X009312Y007017D01*
D26*
X011207Y003952D03*
X011916Y003952D03*
D27*
X006175Y004235D03*
X005265Y004235D03*
X004355Y004235D03*
D28*
X005265Y006875D03*
D29*
X025202Y003780D03*
X027014Y003780D03*
X027014Y002954D03*
X025202Y002954D03*
D30*
X024213Y003367D03*
D31*
X023190Y003800D03*
X023190Y002934D03*
M02*
