G04 This is an RS-274x file exported by *
G04 gerbv version 2.5.0 *
G04 More information is available about gerbv at *
G04 http://gerbv.gpleda.org/ *
G04 --End of header info--*
%MOIN*%
%FSLAX23Y23*%
%IPPOS*%
G04 --Define apertures--*
%ADD10C,0.0000*%
%ADD11C,0.0060*%
%ADD12C,0.0050*%
%ADD13C,0.0100*%
%ADD14C,0.0080*%
%ADD15C,0.0030*%
%ADD16C,0.0039*%
%ADD17C,0.0001*%
%ADD18C,0.0040*%
%ADD19C,0.0020*%
G04 --Start main section--*
G54D10*
G01X00020Y00024D02*
G01X00020Y00999D01*
G01X00020Y00999D02*
G01X03170Y00999D01*
G01X03170Y00999D02*
G01X03170Y00024D01*
G01X03170Y00024D02*
G01X00020Y00024D01*
G01X00215Y00163D02*
G01X00215Y00165D01*
G01X00215Y00165D02*
G01X00216Y00168D01*
G01X00216Y00168D02*
G01X00217Y00171D01*
G01X00217Y00171D02*
G01X00218Y00173D01*
G01X00218Y00173D02*
G01X00219Y00175D01*
G01X00219Y00175D02*
G01X00221Y00177D01*
G01X00221Y00177D02*
G01X00224Y00179D01*
G01X00224Y00179D02*
G01X00226Y00180D01*
G01X00226Y00180D02*
G01X00228Y00181D01*
G01X00228Y00181D02*
G01X00231Y00182D01*
G01X00231Y00182D02*
G01X00234Y00182D01*
G01X00234Y00182D02*
G01X00237Y00182D01*
G01X00237Y00182D02*
G01X00239Y00182D01*
G01X00239Y00182D02*
G01X00242Y00181D01*
G01X00242Y00181D02*
G01X00244Y00180D01*
G01X00244Y00180D02*
G01X00247Y00178D01*
G01X00247Y00178D02*
G01X00249Y00176D01*
G01X00249Y00176D02*
G01X00250Y00174D01*
G01X00250Y00174D02*
G01X00252Y00172D01*
G01X00252Y00172D02*
G01X00253Y00169D01*
G01X00253Y00169D02*
G01X00254Y00167D01*
G01X00254Y00167D02*
G01X00254Y00164D01*
G01X00254Y00164D02*
G01X00254Y00161D01*
G01X00254Y00161D02*
G01X00254Y00159D01*
G01X00254Y00159D02*
G01X00253Y00156D01*
G01X00253Y00156D02*
G01X00252Y00153D01*
G01X00252Y00153D02*
G01X00250Y00151D01*
G01X00250Y00151D02*
G01X00249Y00149D01*
G01X00249Y00149D02*
G01X00247Y00147D01*
G01X00247Y00147D02*
G01X00244Y00146D01*
G01X00244Y00146D02*
G01X00242Y00144D01*
G01X00242Y00144D02*
G01X00239Y00144D01*
G01X00239Y00144D02*
G01X00237Y00143D01*
G01X00237Y00143D02*
G01X00234Y00143D01*
G01X00234Y00143D02*
G01X00231Y00143D01*
G01X00231Y00143D02*
G01X00228Y00144D01*
G01X00228Y00144D02*
G01X00226Y00145D01*
G01X00226Y00145D02*
G01X00224Y00146D01*
G01X00224Y00146D02*
G01X00221Y00148D01*
G01X00221Y00148D02*
G01X00219Y00150D01*
G01X00219Y00150D02*
G01X00218Y00152D01*
G01X00218Y00152D02*
G01X00217Y00155D01*
G01X00217Y00155D02*
G01X00216Y00157D01*
G01X00216Y00157D02*
G01X00215Y00160D01*
G01X00215Y00160D02*
G01X00215Y00163D01*
G01X00215Y00336D02*
G01X00215Y00339D01*
G01X00215Y00339D02*
G01X00216Y00341D01*
G01X00216Y00341D02*
G01X00217Y00344D01*
G01X00217Y00344D02*
G01X00218Y00346D01*
G01X00218Y00346D02*
G01X00219Y00349D01*
G01X00219Y00349D02*
G01X00221Y00350D01*
G01X00221Y00350D02*
G01X00224Y00352D01*
G01X00224Y00352D02*
G01X00226Y00354D01*
G01X00226Y00354D02*
G01X00228Y00355D01*
G01X00228Y00355D02*
G01X00231Y00355D01*
G01X00231Y00355D02*
G01X00234Y00356D01*
G01X00234Y00356D02*
G01X00237Y00355D01*
G01X00237Y00355D02*
G01X00239Y00355D01*
G01X00239Y00355D02*
G01X00242Y00354D01*
G01X00242Y00354D02*
G01X00244Y00353D01*
G01X00244Y00353D02*
G01X00247Y00351D01*
G01X00247Y00351D02*
G01X00249Y00350D01*
G01X00249Y00350D02*
G01X00250Y00347D01*
G01X00250Y00347D02*
G01X00252Y00345D01*
G01X00252Y00345D02*
G01X00253Y00343D01*
G01X00253Y00343D02*
G01X00254Y00340D01*
G01X00254Y00340D02*
G01X00254Y00337D01*
G01X00254Y00337D02*
G01X00254Y00334D01*
G01X00254Y00334D02*
G01X00254Y00332D01*
G01X00254Y00332D02*
G01X00253Y00329D01*
G01X00253Y00329D02*
G01X00252Y00327D01*
G01X00252Y00327D02*
G01X00250Y00324D01*
G01X00250Y00324D02*
G01X00249Y00322D01*
G01X00249Y00322D02*
G01X00247Y00320D01*
G01X00247Y00320D02*
G01X00244Y00319D01*
G01X00244Y00319D02*
G01X00242Y00318D01*
G01X00242Y00318D02*
G01X00239Y00317D01*
G01X00239Y00317D02*
G01X00237Y00316D01*
G01X00237Y00316D02*
G01X00234Y00316D01*
G01X00234Y00316D02*
G01X00231Y00316D01*
G01X00231Y00316D02*
G01X00228Y00317D01*
G01X00228Y00317D02*
G01X00226Y00318D01*
G01X00226Y00318D02*
G01X00224Y00320D01*
G01X00224Y00320D02*
G01X00221Y00321D01*
G01X00221Y00321D02*
G01X00219Y00323D01*
G01X00219Y00323D02*
G01X00218Y00325D01*
G01X00218Y00325D02*
G01X00217Y00328D01*
G01X00217Y00328D02*
G01X00216Y00330D01*
G01X00216Y00330D02*
G01X00215Y00333D01*
G01X00215Y00333D02*
G01X00215Y00336D01*
G54D11*
G01X00277Y00486D02*
G01X00314Y00486D01*
G01X00314Y00486D02*
G01X00321Y00494D01*
G01X00321Y00494D02*
G01X00321Y00508D01*
G01X00321Y00508D02*
G01X00314Y00516D01*
G01X00314Y00516D02*
G01X00277Y00516D01*
G01X00285Y00532D02*
G01X00292Y00532D01*
G01X00292Y00532D02*
G01X00299Y00540D01*
G01X00299Y00540D02*
G01X00299Y00554D01*
G01X00299Y00554D02*
G01X00307Y00562D01*
G01X00307Y00562D02*
G01X00314Y00562D01*
G01X00314Y00562D02*
G01X00321Y00554D01*
G01X00321Y00554D02*
G01X00321Y00540D01*
G01X00321Y00540D02*
G01X00314Y00532D01*
G01X00285Y00532D02*
G01X00277Y00540D01*
G01X00277Y00540D02*
G01X00277Y00554D01*
G01X00277Y00554D02*
G01X00285Y00562D01*
G01X00277Y00578D02*
G01X00277Y00600D01*
G01X00277Y00600D02*
G01X00285Y00608D01*
G01X00285Y00608D02*
G01X00292Y00608D01*
G01X00292Y00608D02*
G01X00299Y00600D01*
G01X00299Y00600D02*
G01X00299Y00578D01*
G01X00277Y00578D02*
G01X00321Y00578D01*
G01X00321Y00578D02*
G01X00321Y00600D01*
G01X00321Y00600D02*
G01X00314Y00608D01*
G01X00314Y00608D02*
G01X00307Y00608D01*
G01X00307Y00608D02*
G01X00299Y00600D01*
G01X00258Y00602D02*
G01X00248Y00612D01*
G01X00248Y00612D02*
G01X00168Y00612D01*
G01X00168Y00612D02*
G01X00158Y00602D01*
G01X00158Y00602D02*
G01X00148Y00612D01*
G01X00148Y00612D02*
G01X00068Y00612D01*
G01X00068Y00612D02*
G01X00058Y00602D01*
G01X00058Y00602D02*
G01X00058Y00522D01*
G01X00058Y00522D02*
G01X00068Y00512D01*
G01X00068Y00512D02*
G01X00148Y00512D01*
G01X00148Y00512D02*
G01X00158Y00522D01*
G01X00158Y00522D02*
G01X00168Y00512D01*
G01X00168Y00512D02*
G01X00248Y00512D01*
G01X00248Y00512D02*
G01X00258Y00522D01*
G01X00258Y00522D02*
G01X00258Y00602D01*
G01X00395Y00629D02*
G01X00395Y00483D01*
G01X00395Y00483D02*
G01X00659Y00483D01*
G01X00659Y00483D02*
G01X00659Y00629D01*
G01X00659Y00629D02*
G01X00395Y00629D01*
G01X00395Y00568D02*
G01X00397Y00567D01*
G01X00397Y00567D02*
G01X00399Y00567D01*
G01X00399Y00567D02*
G01X00401Y00566D01*
G01X00401Y00566D02*
G01X00402Y00565D01*
G01X00402Y00565D02*
G01X00404Y00563D01*
G01X00404Y00563D02*
G01X00405Y00562D01*
G01X00405Y00562D02*
G01X00406Y00560D01*
G01X00406Y00560D02*
G01X00406Y00558D01*
G01X00406Y00558D02*
G01X00407Y00556D01*
G01X00407Y00556D02*
G01X00406Y00553D01*
G01X00406Y00553D02*
G01X00406Y00551D01*
G01X00406Y00551D02*
G01X00405Y00550D01*
G01X00405Y00550D02*
G01X00404Y00548D01*
G01X00404Y00548D02*
G01X00402Y00546D01*
G01X00402Y00546D02*
G01X00401Y00545D01*
G01X00401Y00545D02*
G01X00399Y00544D01*
G01X00399Y00544D02*
G01X00397Y00544D01*
G01X00397Y00544D02*
G01X00395Y00544D01*
G01X00681Y00634D02*
G01X00691Y00624D01*
G01X00691Y00624D02*
G01X00771Y00624D01*
G01X00771Y00624D02*
G01X00781Y00634D01*
G01X00781Y00634D02*
G01X00791Y00624D01*
G01X00791Y00624D02*
G01X00871Y00624D01*
G01X00871Y00624D02*
G01X00881Y00634D01*
G01X00881Y00634D02*
G01X00891Y00624D01*
G01X00891Y00624D02*
G01X00971Y00624D01*
G01X00971Y00624D02*
G01X00981Y00634D01*
G01X00981Y00634D02*
G01X00981Y00714D01*
G01X00981Y00714D02*
G01X00971Y00724D01*
G01X00971Y00724D02*
G01X00891Y00724D01*
G01X00891Y00724D02*
G01X00881Y00714D01*
G01X00881Y00714D02*
G01X00871Y00724D01*
G01X00871Y00724D02*
G01X00791Y00724D01*
G01X00791Y00724D02*
G01X00781Y00714D01*
G01X00781Y00714D02*
G01X00771Y00724D01*
G01X00771Y00724D02*
G01X00691Y00724D01*
G01X00691Y00724D02*
G01X00681Y00714D01*
G01X00681Y00714D02*
G01X00681Y00634D01*
G01X00695Y00602D02*
G01X00695Y00580D01*
G01X00695Y00580D02*
G01X00710Y00588D01*
G01X00710Y00588D02*
G01X00717Y00588D01*
G01X00717Y00588D02*
G01X00725Y00580D01*
G01X00725Y00580D02*
G01X00725Y00566D01*
G01X00725Y00566D02*
G01X00717Y00558D01*
G01X00717Y00558D02*
G01X00703Y00558D01*
G01X00703Y00558D02*
G01X00695Y00566D01*
G01X00741Y00588D02*
G01X00756Y00558D01*
G01X00756Y00558D02*
G01X00771Y00588D01*
G01X00725Y00602D02*
G01X00695Y00602D01*
G01X00895Y00595D02*
G01X00903Y00602D01*
G01X00903Y00602D02*
G01X00917Y00602D01*
G01X00917Y00602D02*
G01X00925Y00595D01*
G01X00925Y00595D02*
G01X00925Y00588D01*
G01X00925Y00588D02*
G01X00917Y00580D01*
G01X00917Y00580D02*
G01X00925Y00573D01*
G01X00925Y00573D02*
G01X00925Y00566D01*
G01X00925Y00566D02*
G01X00917Y00558D01*
G01X00917Y00558D02*
G01X00903Y00558D01*
G01X00903Y00558D02*
G01X00895Y00566D01*
G01X00910Y00580D02*
G01X00917Y00580D01*
G01X00941Y00588D02*
G01X00956Y00558D01*
G01X00956Y00558D02*
G01X00971Y00588D01*
G01X00972Y00484D02*
G01X00892Y00484D01*
G01X00892Y00484D02*
G01X00882Y00474D01*
G01X00882Y00474D02*
G01X00872Y00484D01*
G01X00872Y00484D02*
G01X00792Y00484D01*
G01X00792Y00484D02*
G01X00782Y00474D01*
G01X00782Y00474D02*
G01X00782Y00394D01*
G01X00782Y00394D02*
G01X00792Y00384D01*
G01X00792Y00384D02*
G01X00872Y00384D01*
G01X00872Y00384D02*
G01X00882Y00394D01*
G01X00882Y00394D02*
G01X00892Y00384D01*
G01X00892Y00384D02*
G01X00972Y00384D01*
G01X00972Y00384D02*
G01X00982Y00394D01*
G01X00982Y00394D02*
G01X00982Y00474D01*
G01X00982Y00474D02*
G01X00972Y00484D01*
G01X01144Y00419D02*
G01X01168Y00419D01*
G01X01168Y00372D02*
G01X01144Y00372D01*
G01X00993Y00348D02*
G01X00971Y00348D01*
G01X00971Y00348D02*
G01X00963Y00340D01*
G01X00963Y00340D02*
G01X00963Y00326D01*
G01X00963Y00326D02*
G01X00971Y00318D01*
G01X00971Y00318D02*
G01X00993Y00318D01*
G01X00993Y00311D02*
G01X00993Y00348D01*
G01X00946Y00340D02*
G01X00946Y00333D01*
G01X00946Y00333D02*
G01X00917Y00333D01*
G01X00917Y00340D02*
G01X00924Y00348D01*
G01X00924Y00348D02*
G01X00939Y00348D01*
G01X00939Y00348D02*
G01X00946Y00340D01*
G01X00917Y00340D02*
G01X00917Y00326D01*
G01X00917Y00326D02*
G01X00924Y00318D01*
G01X00924Y00318D02*
G01X00939Y00318D01*
G01X00978Y00304D02*
G01X00985Y00304D01*
G01X00985Y00304D02*
G01X00993Y00311D01*
G01X01047Y00300D02*
G01X01062Y00314D01*
G01X01062Y00314D02*
G01X01062Y00270D01*
G01X01047Y00270D02*
G01X01077Y00270D01*
G01X00893Y00348D02*
G01X00879Y00333D01*
G01X00879Y00348D02*
G01X00879Y00318D01*
G01X00862Y00333D02*
G01X00847Y00318D01*
G01X00847Y00318D02*
G01X00833Y00333D01*
G01X00833Y00333D02*
G01X00833Y00362D01*
G01X00816Y00355D02*
G01X00816Y00348D01*
G01X00816Y00348D02*
G01X00809Y00340D01*
G01X00809Y00340D02*
G01X00816Y00333D01*
G01X00816Y00333D02*
G01X00816Y00326D01*
G01X00816Y00326D02*
G01X00809Y00318D01*
G01X00809Y00318D02*
G01X00794Y00318D01*
G01X00794Y00318D02*
G01X00787Y00326D01*
G01X00801Y00340D02*
G01X00809Y00340D01*
G01X00816Y00355D02*
G01X00809Y00362D01*
G01X00809Y00362D02*
G01X00794Y00362D01*
G01X00794Y00362D02*
G01X00787Y00355D01*
G01X00862Y00362D02*
G01X00862Y00333D01*
G01X00893Y00348D02*
G01X00901Y00348D01*
G01X00725Y00098D02*
G01X00710Y00091D01*
G01X00710Y00091D02*
G01X00695Y00076D01*
G01X00695Y00076D02*
G01X00717Y00076D01*
G01X00717Y00076D02*
G01X00725Y00069D01*
G01X00725Y00069D02*
G01X00725Y00062D01*
G01X00725Y00062D02*
G01X00717Y00054D01*
G01X00717Y00054D02*
G01X00703Y00054D01*
G01X00703Y00054D02*
G01X00695Y00062D01*
G01X00695Y00062D02*
G01X00695Y00076D01*
G01X01958Y00064D02*
G01X01958Y00104D01*
G01X01958Y00064D02*
G01X01958Y00063D01*
G01X01958Y00063D02*
G01X01958Y00061D01*
G01X01958Y00061D02*
G01X01959Y00059D01*
G01X01959Y00059D02*
G01X01960Y00058D01*
G01X01960Y00058D02*
G01X01961Y00057D01*
G01X01961Y00057D02*
G01X01963Y00056D01*
G01X01963Y00056D02*
G01X01964Y00055D01*
G01X01964Y00055D02*
G01X01966Y00054D01*
G01X01966Y00054D02*
G01X01968Y00054D01*
G01X01968Y00054D02*
G01X02398Y00054D01*
G01X02398Y00054D02*
G01X02399Y00054D01*
G01X02399Y00054D02*
G01X02401Y00055D01*
G01X02401Y00055D02*
G01X02403Y00056D01*
G01X02403Y00056D02*
G01X02404Y00057D01*
G01X02404Y00057D02*
G01X02405Y00058D01*
G01X02405Y00058D02*
G01X02406Y00059D01*
G01X02406Y00059D02*
G01X02407Y00061D01*
G01X02407Y00061D02*
G01X02408Y00063D01*
G01X02408Y00063D02*
G01X02408Y00064D01*
G01X02408Y00064D02*
G01X02408Y00104D01*
G01X02208Y00124D02*
G01X02208Y00149D01*
G01X02208Y00149D02*
G01X02208Y00174D01*
G01X02193Y00174D02*
G01X02173Y00174D01*
G01X02173Y00174D02*
G01X02173Y00124D01*
G01X02173Y00124D02*
G01X02193Y00124D01*
G01X02193Y00124D02*
G01X02193Y00174D01*
G01X02158Y00174D02*
G01X02158Y00149D01*
G01X02158Y00149D02*
G01X02158Y00124D01*
G01X01958Y00194D02*
G01X01958Y00234D01*
G01X01958Y00234D02*
G01X01958Y00236D01*
G01X01958Y00236D02*
G01X01958Y00238D01*
G01X01958Y00238D02*
G01X01959Y00239D01*
G01X01959Y00239D02*
G01X01960Y00241D01*
G01X01960Y00241D02*
G01X01961Y00242D01*
G01X01961Y00242D02*
G01X01963Y00243D01*
G01X01963Y00243D02*
G01X01964Y00244D01*
G01X01964Y00244D02*
G01X01966Y00244D01*
G01X01966Y00244D02*
G01X01968Y00244D01*
G01X01968Y00244D02*
G01X02398Y00244D01*
G01X02398Y00244D02*
G01X02399Y00244D01*
G01X02399Y00244D02*
G01X02401Y00244D01*
G01X02401Y00244D02*
G01X02403Y00243D01*
G01X02403Y00243D02*
G01X02404Y00242D01*
G01X02404Y00242D02*
G01X02405Y00241D01*
G01X02405Y00241D02*
G01X02406Y00239D01*
G01X02406Y00239D02*
G01X02407Y00238D01*
G01X02407Y00238D02*
G01X02408Y00236D01*
G01X02408Y00236D02*
G01X02408Y00234D01*
G01X02408Y00234D02*
G01X02408Y00194D01*
G01X02455Y00208D02*
G01X02455Y00253D01*
G01X02455Y00253D02*
G01X02477Y00253D01*
G01X02477Y00253D02*
G01X02484Y00245D01*
G01X02484Y00245D02*
G01X02484Y00231D01*
G01X02484Y00231D02*
G01X02477Y00223D01*
G01X02477Y00223D02*
G01X02455Y00223D01*
G01X02501Y00231D02*
G01X02516Y00231D01*
G01X02547Y00231D02*
G01X02569Y00231D01*
G01X02569Y00231D02*
G01X02577Y00223D01*
G01X02577Y00223D02*
G01X02577Y00216D01*
G01X02577Y00216D02*
G01X02569Y00208D01*
G01X02569Y00208D02*
G01X02555Y00208D01*
G01X02555Y00208D02*
G01X02547Y00216D01*
G01X02547Y00216D02*
G01X02547Y00231D01*
G01X02547Y00231D02*
G01X02562Y00245D01*
G01X02562Y00245D02*
G01X02577Y00253D01*
G01X02530Y00253D02*
G01X02501Y00253D01*
G01X02501Y00253D02*
G01X02501Y00208D01*
G01X02501Y00208D02*
G01X02530Y00208D01*
G01X02643Y00208D02*
G01X02643Y00253D01*
G01X02643Y00253D02*
G01X02665Y00253D01*
G01X02665Y00253D02*
G01X02672Y00245D01*
G01X02672Y00245D02*
G01X02672Y00231D01*
G01X02672Y00231D02*
G01X02665Y00223D01*
G01X02665Y00223D02*
G01X02643Y00223D01*
G01X02689Y00208D02*
G01X02703Y00223D01*
G01X02703Y00223D02*
G01X02718Y00208D01*
G01X02718Y00208D02*
G01X02718Y00253D01*
G01X02735Y00253D02*
G01X02757Y00253D01*
G01X02757Y00253D02*
G01X02764Y00245D01*
G01X02764Y00245D02*
G01X02764Y00231D01*
G01X02764Y00231D02*
G01X02757Y00223D01*
G01X02757Y00223D02*
G01X02735Y00223D01*
G01X02735Y00208D02*
G01X02735Y00253D01*
G01X02689Y00253D02*
G01X02689Y00208D01*
G01X02749Y00223D02*
G01X02764Y00208D01*
G01X02850Y00214D02*
G01X02850Y00254D01*
G01X02850Y00254D02*
G01X02850Y00349D01*
G01X02850Y00349D02*
G01X02850Y00384D01*
G01X02930Y00419D02*
G01X02940Y00419D01*
G01X02940Y00419D02*
G01X02940Y00429D01*
G01X02940Y00429D02*
G01X03000Y00429D01*
G01X03000Y00429D02*
G01X03000Y00419D01*
G01X03000Y00419D02*
G01X03010Y00419D01*
G01X03090Y00384D02*
G01X03090Y00349D01*
G01X03090Y00349D02*
G01X03090Y00249D01*
G01X03090Y00249D02*
G01X03090Y00214D01*
G01X03010Y00179D02*
G01X03000Y00179D01*
G01X03000Y00179D02*
G01X03000Y00169D01*
G01X03000Y00169D02*
G01X02940Y00169D01*
G01X02940Y00169D02*
G01X02940Y00179D01*
G01X02940Y00179D02*
G01X02930Y00179D01*
G01X02945Y00096D02*
G01X02915Y00096D01*
G01X02915Y00096D02*
G01X02915Y00052D01*
G01X02915Y00052D02*
G01X02945Y00052D01*
G01X02961Y00060D02*
G01X02969Y00052D01*
G01X02969Y00052D02*
G01X02983Y00052D01*
G01X02983Y00052D02*
G01X02991Y00060D01*
G01X02991Y00060D02*
G01X02991Y00067D01*
G01X02991Y00067D02*
G01X02983Y00074D01*
G01X02983Y00074D02*
G01X02969Y00074D01*
G01X02969Y00074D02*
G01X02961Y00082D01*
G01X02961Y00082D02*
G01X02961Y00089D01*
G01X02961Y00089D02*
G01X02969Y00096D01*
G01X02969Y00096D02*
G01X02983Y00096D01*
G01X02983Y00096D02*
G01X02991Y00089D01*
G01X03007Y00096D02*
G01X03007Y00052D01*
G01X03007Y00052D02*
G01X03037Y00052D01*
G01X03068Y00052D02*
G01X03068Y00096D01*
G01X03053Y00096D02*
G01X03083Y00096D01*
G01X03037Y00096D02*
G01X03007Y00096D01*
G01X03007Y00074D02*
G01X03022Y00074D01*
G01X02930Y00074D02*
G01X02915Y00074D01*
G01X02899Y00074D02*
G01X02891Y00067D01*
G01X02891Y00067D02*
G01X02869Y00067D01*
G01X02884Y00067D02*
G01X02899Y00052D01*
G01X02869Y00052D02*
G01X02869Y00096D01*
G01X02869Y00096D02*
G01X02891Y00096D01*
G01X02891Y00096D02*
G01X02899Y00089D01*
G01X02899Y00089D02*
G01X02899Y00074D01*
G01X02396Y00275D02*
G01X02355Y00275D01*
G01X02344Y00325D02*
G01X02344Y00349D01*
G01X02355Y00399D02*
G01X02396Y00399D01*
G01X02960Y00299D02*
G01X02960Y00301D01*
G01X02960Y00301D02*
G01X02961Y00303D01*
G01X02961Y00303D02*
G01X02962Y00305D01*
G01X02962Y00305D02*
G01X02963Y00306D01*
G01X02963Y00306D02*
G01X02965Y00308D01*
G01X02965Y00308D02*
G01X02966Y00308D01*
G01X02966Y00308D02*
G01X02968Y00309D01*
G01X02968Y00309D02*
G01X02970Y00309D01*
G01X02970Y00309D02*
G01X02972Y00309D01*
G01X02972Y00309D02*
G01X02974Y00308D01*
G01X02974Y00308D02*
G01X02976Y00308D01*
G01X02976Y00308D02*
G01X02977Y00306D01*
G01X02977Y00306D02*
G01X02979Y00305D01*
G01X02979Y00305D02*
G01X02979Y00303D01*
G01X02979Y00303D02*
G01X02980Y00301D01*
G01X02980Y00301D02*
G01X02980Y00299D01*
G01X02980Y00299D02*
G01X02980Y00297D01*
G01X02980Y00297D02*
G01X02979Y00295D01*
G01X02979Y00295D02*
G01X02979Y00294D01*
G01X02979Y00294D02*
G01X02977Y00292D01*
G01X02977Y00292D02*
G01X02976Y00291D01*
G01X02976Y00291D02*
G01X02974Y00290D01*
G01X02974Y00290D02*
G01X02972Y00289D01*
G01X02972Y00289D02*
G01X02970Y00289D01*
G01X02970Y00289D02*
G01X02968Y00289D01*
G01X02968Y00289D02*
G01X02966Y00290D01*
G01X02966Y00290D02*
G01X02965Y00291D01*
G01X02965Y00291D02*
G01X02963Y00292D01*
G01X02963Y00292D02*
G01X02962Y00294D01*
G01X02962Y00294D02*
G01X02961Y00295D01*
G01X02961Y00295D02*
G01X02960Y00297D01*
G01X02960Y00297D02*
G01X02960Y00299D01*
G01X02900Y00299D02*
G01X02900Y00304D01*
G01X02900Y00304D02*
G01X02901Y00310D01*
G01X02901Y00310D02*
G01X02902Y00315D01*
G01X02902Y00315D02*
G01X02903Y00320D01*
G01X02903Y00320D02*
G01X02905Y00325D01*
G01X02905Y00325D02*
G01X02907Y00330D01*
G01X02907Y00330D02*
G01X02910Y00334D01*
G01X02910Y00334D02*
G01X02912Y00339D01*
G01X02912Y00339D02*
G01X02916Y00343D01*
G01X02916Y00343D02*
G01X02919Y00347D01*
G01X02919Y00347D02*
G01X02923Y00351D01*
G01X02923Y00351D02*
G01X02927Y00354D01*
G01X02927Y00354D02*
G01X02931Y00357D01*
G01X02931Y00357D02*
G01X02935Y00360D01*
G01X02935Y00360D02*
G01X02940Y00362D01*
G01X02940Y00362D02*
G01X02945Y00364D01*
G01X02945Y00364D02*
G01X02950Y00366D01*
G01X02950Y00366D02*
G01X02955Y00367D01*
G01X02955Y00367D02*
G01X02960Y00368D01*
G01X02960Y00368D02*
G01X02965Y00369D01*
G01X02965Y00369D02*
G01X02970Y00369D01*
G01X02970Y00369D02*
G01X02975Y00369D01*
G01X02975Y00369D02*
G01X02981Y00368D01*
G01X02981Y00368D02*
G01X02986Y00367D01*
G01X02986Y00367D02*
G01X02991Y00366D01*
G01X02991Y00366D02*
G01X02996Y00364D01*
G01X02996Y00364D02*
G01X03001Y00362D01*
G01X03001Y00362D02*
G01X03005Y00360D01*
G01X03005Y00360D02*
G01X03010Y00357D01*
G01X03010Y00357D02*
G01X03014Y00354D01*
G01X03014Y00354D02*
G01X03018Y00351D01*
G01X03018Y00351D02*
G01X03022Y00347D01*
G01X03022Y00347D02*
G01X03025Y00343D01*
G01X03025Y00343D02*
G01X03028Y00339D01*
G01X03028Y00339D02*
G01X03031Y00334D01*
G01X03031Y00334D02*
G01X03033Y00330D01*
G01X03033Y00330D02*
G01X03035Y00325D01*
G01X03035Y00325D02*
G01X03037Y00320D01*
G01X03037Y00320D02*
G01X03038Y00315D01*
G01X03038Y00315D02*
G01X03039Y00310D01*
G01X03039Y00310D02*
G01X03040Y00304D01*
G01X03040Y00304D02*
G01X03040Y00299D01*
G01X03040Y00299D02*
G01X03040Y00294D01*
G01X03040Y00294D02*
G01X03039Y00289D01*
G01X03039Y00289D02*
G01X03038Y00284D01*
G01X03038Y00284D02*
G01X03037Y00279D01*
G01X03037Y00279D02*
G01X03035Y00274D01*
G01X03035Y00274D02*
G01X03033Y00269D01*
G01X03033Y00269D02*
G01X03031Y00264D01*
G01X03031Y00264D02*
G01X03028Y00260D01*
G01X03028Y00260D02*
G01X03025Y00256D01*
G01X03025Y00256D02*
G01X03022Y00252D01*
G01X03022Y00252D02*
G01X03018Y00248D01*
G01X03018Y00248D02*
G01X03014Y00245D01*
G01X03014Y00245D02*
G01X03010Y00241D01*
G01X03010Y00241D02*
G01X03005Y00239D01*
G01X03005Y00239D02*
G01X03001Y00236D01*
G01X03001Y00236D02*
G01X02996Y00234D01*
G01X02996Y00234D02*
G01X02991Y00232D01*
G01X02991Y00232D02*
G01X02986Y00231D01*
G01X02986Y00231D02*
G01X02981Y00230D01*
G01X02981Y00230D02*
G01X02975Y00229D01*
G01X02975Y00229D02*
G01X02970Y00229D01*
G01X02970Y00229D02*
G01X02965Y00229D01*
G01X02965Y00229D02*
G01X02960Y00230D01*
G01X02960Y00230D02*
G01X02955Y00231D01*
G01X02955Y00231D02*
G01X02950Y00232D01*
G01X02950Y00232D02*
G01X02945Y00234D01*
G01X02945Y00234D02*
G01X02940Y00236D01*
G01X02940Y00236D02*
G01X02935Y00239D01*
G01X02935Y00239D02*
G01X02931Y00241D01*
G01X02931Y00241D02*
G01X02927Y00245D01*
G01X02927Y00245D02*
G01X02923Y00248D01*
G01X02923Y00248D02*
G01X02919Y00252D01*
G01X02919Y00252D02*
G01X02916Y00256D01*
G01X02916Y00256D02*
G01X02912Y00260D01*
G01X02912Y00260D02*
G01X02910Y00264D01*
G01X02910Y00264D02*
G01X02907Y00269D01*
G01X02907Y00269D02*
G01X02905Y00274D01*
G01X02905Y00274D02*
G01X02903Y00279D01*
G01X02903Y00279D02*
G01X02902Y00284D01*
G01X02902Y00284D02*
G01X02901Y00289D01*
G01X02901Y00289D02*
G01X02900Y00294D01*
G01X02900Y00294D02*
G01X02900Y00299D01*
G01X02911Y00655D02*
G01X02911Y00699D01*
G01X02941Y00699D02*
G01X02941Y00655D01*
G01X02957Y00655D02*
G01X02972Y00670D01*
G01X02972Y00670D02*
G01X02987Y00655D01*
G01X02987Y00655D02*
G01X02987Y00699D01*
G01X03003Y00699D02*
G01X03025Y00699D01*
G01X03025Y00699D02*
G01X03033Y00692D01*
G01X03033Y00692D02*
G01X03033Y00685D01*
G01X03033Y00685D02*
G01X03025Y00677D01*
G01X03025Y00677D02*
G01X03003Y00677D01*
G01X03025Y00677D02*
G01X03033Y00670D01*
G01X03033Y00670D02*
G01X03033Y00663D01*
G01X03033Y00663D02*
G01X03025Y00655D01*
G01X03025Y00655D02*
G01X03003Y00655D01*
G01X03003Y00655D02*
G01X03003Y00699D01*
G01X02957Y00699D02*
G01X02957Y00655D01*
G01X02941Y00677D02*
G01X02911Y00677D01*
G01X02920Y00874D02*
G01X02870Y00874D01*
G01X02870Y00874D02*
G01X02845Y00899D01*
G01X02845Y00899D02*
G01X02845Y00949D01*
G01X02845Y00949D02*
G01X02820Y00974D01*
G01X02820Y00974D02*
G01X02770Y00974D01*
G01X02770Y00974D02*
G01X02745Y00949D01*
G01X02745Y00949D02*
G01X02745Y00899D01*
G01X02745Y00899D02*
G01X02720Y00874D01*
G01X02720Y00874D02*
G01X02670Y00874D01*
G01X02670Y00874D02*
G01X02645Y00899D01*
G01X02645Y00899D02*
G01X02645Y00949D01*
G01X02645Y00949D02*
G01X02620Y00974D01*
G01X02620Y00974D02*
G01X02570Y00974D01*
G01X02570Y00974D02*
G01X02545Y00949D01*
G01X02545Y00949D02*
G01X02545Y00899D01*
G01X02545Y00899D02*
G01X02520Y00874D01*
G01X02520Y00874D02*
G01X02470Y00874D01*
G01X02470Y00874D02*
G01X02445Y00899D01*
G01X02445Y00899D02*
G01X02445Y00949D01*
G01X02445Y00949D02*
G01X02420Y00974D01*
G01X02420Y00974D02*
G01X02370Y00974D01*
G01X02370Y00974D02*
G01X02345Y00949D01*
G01X02345Y00949D02*
G01X02345Y00899D01*
G01X02345Y00899D02*
G01X02370Y00874D01*
G01X02370Y00874D02*
G01X02420Y00874D01*
G01X02420Y00874D02*
G01X02445Y00899D01*
G01X02445Y00899D02*
G01X02445Y00949D01*
G01X02445Y00949D02*
G01X02470Y00974D01*
G01X02470Y00974D02*
G01X02520Y00974D01*
G01X02520Y00974D02*
G01X02545Y00949D01*
G01X02545Y00949D02*
G01X02545Y00899D01*
G01X02545Y00899D02*
G01X02570Y00874D01*
G01X02570Y00874D02*
G01X02620Y00874D01*
G01X02620Y00874D02*
G01X02645Y00899D01*
G01X02645Y00899D02*
G01X02645Y00949D01*
G01X02645Y00949D02*
G01X02670Y00974D01*
G01X02670Y00974D02*
G01X02720Y00974D01*
G01X02720Y00974D02*
G01X02745Y00949D01*
G01X02745Y00949D02*
G01X02745Y00899D01*
G01X02745Y00899D02*
G01X02770Y00874D01*
G01X02770Y00874D02*
G01X02820Y00874D01*
G01X02820Y00874D02*
G01X02845Y00899D01*
G01X02845Y00899D02*
G01X02845Y00949D01*
G01X02845Y00949D02*
G01X02870Y00974D01*
G01X02870Y00974D02*
G01X02920Y00974D01*
G01X02920Y00974D02*
G01X02945Y00949D01*
G01X02945Y00949D02*
G01X02945Y00899D01*
G01X02945Y00899D02*
G01X02920Y00874D01*
G01X02945Y00899D02*
G01X02970Y00874D01*
G01X02970Y00874D02*
G01X03020Y00874D01*
G01X03020Y00874D02*
G01X03045Y00899D01*
G01X03045Y00899D02*
G01X03045Y00949D01*
G01X03045Y00949D02*
G01X03020Y00974D01*
G01X03020Y00974D02*
G01X02970Y00974D01*
G01X02970Y00974D02*
G01X02945Y00949D01*
G01X02945Y00949D02*
G01X02945Y00899D01*
G01X03045Y00899D02*
G01X03070Y00874D01*
G01X03070Y00874D02*
G01X03120Y00874D01*
G01X03120Y00874D02*
G01X03145Y00899D01*
G01X03145Y00899D02*
G01X03145Y00949D01*
G01X03145Y00949D02*
G01X03120Y00974D01*
G01X03120Y00974D02*
G01X03070Y00974D01*
G01X03070Y00974D02*
G01X03045Y00949D01*
G01X03045Y00949D02*
G01X03045Y00899D01*
G01X02345Y00899D02*
G01X02345Y00949D01*
G01X02345Y00949D02*
G01X02320Y00974D01*
G01X02320Y00974D02*
G01X02270Y00974D01*
G01X02270Y00974D02*
G01X02245Y00949D01*
G01X02245Y00949D02*
G01X02245Y00899D01*
G01X02245Y00899D02*
G01X02220Y00874D01*
G01X02220Y00874D02*
G01X02170Y00874D01*
G01X02170Y00874D02*
G01X02145Y00899D01*
G01X02145Y00899D02*
G01X02145Y00949D01*
G01X02145Y00949D02*
G01X02170Y00974D01*
G01X02170Y00974D02*
G01X02220Y00974D01*
G01X02220Y00974D02*
G01X02245Y00949D01*
G01X02245Y00949D02*
G01X02245Y00899D01*
G01X02245Y00899D02*
G01X02270Y00874D01*
G01X02270Y00874D02*
G01X02320Y00874D01*
G01X02320Y00874D02*
G01X02345Y00899D01*
G01X02145Y00899D02*
G01X02145Y00949D01*
G01X02145Y00949D02*
G01X02120Y00974D01*
G01X02120Y00974D02*
G01X02070Y00974D01*
G01X02070Y00974D02*
G01X02045Y00949D01*
G01X02045Y00949D02*
G01X02045Y00899D01*
G01X02045Y00899D02*
G01X02020Y00874D01*
G01X02020Y00874D02*
G01X01970Y00874D01*
G01X01970Y00874D02*
G01X01945Y00899D01*
G01X01945Y00899D02*
G01X01945Y00949D01*
G01X01945Y00949D02*
G01X01920Y00974D01*
G01X01920Y00974D02*
G01X01870Y00974D01*
G01X01870Y00974D02*
G01X01845Y00949D01*
G01X01845Y00949D02*
G01X01845Y00899D01*
G01X01845Y00899D02*
G01X01820Y00874D01*
G01X01820Y00874D02*
G01X01770Y00874D01*
G01X01770Y00874D02*
G01X01745Y00899D01*
G01X01745Y00899D02*
G01X01745Y00949D01*
G01X01745Y00949D02*
G01X01720Y00974D01*
G01X01720Y00974D02*
G01X01670Y00974D01*
G01X01670Y00974D02*
G01X01645Y00949D01*
G01X01645Y00949D02*
G01X01645Y00899D01*
G01X01645Y00899D02*
G01X01620Y00874D01*
G01X01620Y00874D02*
G01X01570Y00874D01*
G01X01570Y00874D02*
G01X01545Y00899D01*
G01X01545Y00899D02*
G01X01545Y00949D01*
G01X01545Y00949D02*
G01X01520Y00974D01*
G01X01520Y00974D02*
G01X01470Y00974D01*
G01X01470Y00974D02*
G01X01445Y00949D01*
G01X01445Y00949D02*
G01X01445Y00899D01*
G01X01445Y00899D02*
G01X01420Y00874D01*
G01X01420Y00874D02*
G01X01370Y00874D01*
G01X01370Y00874D02*
G01X01345Y00899D01*
G01X01345Y00899D02*
G01X01345Y00949D01*
G01X01345Y00949D02*
G01X01370Y00974D01*
G01X01370Y00974D02*
G01X01420Y00974D01*
G01X01420Y00974D02*
G01X01445Y00949D01*
G01X01445Y00949D02*
G01X01445Y00899D01*
G01X01445Y00899D02*
G01X01470Y00874D01*
G01X01470Y00874D02*
G01X01520Y00874D01*
G01X01520Y00874D02*
G01X01545Y00899D01*
G01X01545Y00899D02*
G01X01545Y00949D01*
G01X01545Y00949D02*
G01X01570Y00974D01*
G01X01570Y00974D02*
G01X01620Y00974D01*
G01X01620Y00974D02*
G01X01645Y00949D01*
G01X01645Y00949D02*
G01X01645Y00899D01*
G01X01645Y00899D02*
G01X01670Y00874D01*
G01X01670Y00874D02*
G01X01720Y00874D01*
G01X01720Y00874D02*
G01X01745Y00899D01*
G01X01745Y00899D02*
G01X01745Y00949D01*
G01X01745Y00949D02*
G01X01770Y00974D01*
G01X01770Y00974D02*
G01X01820Y00974D01*
G01X01820Y00974D02*
G01X01845Y00949D01*
G01X01845Y00949D02*
G01X01845Y00899D01*
G01X01845Y00899D02*
G01X01870Y00874D01*
G01X01870Y00874D02*
G01X01920Y00874D01*
G01X01920Y00874D02*
G01X01945Y00899D01*
G01X01945Y00899D02*
G01X01945Y00949D01*
G01X01945Y00949D02*
G01X01970Y00974D01*
G01X01970Y00974D02*
G01X02020Y00974D01*
G01X02020Y00974D02*
G01X02045Y00949D01*
G01X02045Y00949D02*
G01X02045Y00899D01*
G01X02045Y00899D02*
G01X02070Y00874D01*
G01X02070Y00874D02*
G01X02120Y00874D01*
G01X02120Y00874D02*
G01X02145Y00899D01*
G01X01345Y00899D02*
G01X01345Y00949D01*
G01X01345Y00949D02*
G01X01320Y00974D01*
G01X01320Y00974D02*
G01X01270Y00974D01*
G01X01270Y00974D02*
G01X01245Y00949D01*
G01X01245Y00949D02*
G01X01245Y00899D01*
G01X01245Y00899D02*
G01X01220Y00874D01*
G01X01220Y00874D02*
G01X01170Y00874D01*
G01X01170Y00874D02*
G01X01145Y00899D01*
G01X01145Y00899D02*
G01X01145Y00949D01*
G01X01145Y00949D02*
G01X01170Y00974D01*
G01X01170Y00974D02*
G01X01220Y00974D01*
G01X01220Y00974D02*
G01X01245Y00949D01*
G01X01245Y00949D02*
G01X01245Y00899D01*
G01X01245Y00899D02*
G01X01270Y00874D01*
G01X01270Y00874D02*
G01X01320Y00874D01*
G01X01320Y00874D02*
G01X01345Y00899D01*
G01X01145Y00899D02*
G01X01120Y00874D01*
G01X01120Y00874D02*
G01X01070Y00874D01*
G01X01070Y00874D02*
G01X01045Y00899D01*
G01X01045Y00899D02*
G01X01045Y00949D01*
G01X01045Y00949D02*
G01X01020Y00974D01*
G01X01020Y00974D02*
G01X00970Y00974D01*
G01X00970Y00974D02*
G01X00945Y00949D01*
G01X00945Y00949D02*
G01X00945Y00899D01*
G01X00945Y00899D02*
G01X00920Y00874D01*
G01X00920Y00874D02*
G01X00870Y00874D01*
G01X00870Y00874D02*
G01X00845Y00899D01*
G01X00845Y00899D02*
G01X00845Y00949D01*
G01X00845Y00949D02*
G01X00820Y00974D01*
G01X00820Y00974D02*
G01X00770Y00974D01*
G01X00770Y00974D02*
G01X00745Y00949D01*
G01X00745Y00949D02*
G01X00745Y00899D01*
G01X00745Y00899D02*
G01X00720Y00874D01*
G01X00720Y00874D02*
G01X00670Y00874D01*
G01X00670Y00874D02*
G01X00645Y00899D01*
G01X00645Y00899D02*
G01X00645Y00949D01*
G01X00645Y00949D02*
G01X00620Y00974D01*
G01X00620Y00974D02*
G01X00570Y00974D01*
G01X00570Y00974D02*
G01X00545Y00949D01*
G01X00545Y00949D02*
G01X00545Y00899D01*
G01X00545Y00899D02*
G01X00520Y00874D01*
G01X00520Y00874D02*
G01X00470Y00874D01*
G01X00470Y00874D02*
G01X00445Y00899D01*
G01X00445Y00899D02*
G01X00445Y00949D01*
G01X00445Y00949D02*
G01X00420Y00974D01*
G01X00420Y00974D02*
G01X00370Y00974D01*
G01X00370Y00974D02*
G01X00345Y00949D01*
G01X00345Y00949D02*
G01X00345Y00899D01*
G01X00345Y00899D02*
G01X00320Y00874D01*
G01X00320Y00874D02*
G01X00270Y00874D01*
G01X00270Y00874D02*
G01X00245Y00899D01*
G01X00245Y00899D02*
G01X00245Y00949D01*
G01X00245Y00949D02*
G01X00270Y00974D01*
G01X00270Y00974D02*
G01X00320Y00974D01*
G01X00320Y00974D02*
G01X00345Y00949D01*
G01X00345Y00949D02*
G01X00345Y00899D01*
G01X00345Y00899D02*
G01X00370Y00874D01*
G01X00370Y00874D02*
G01X00420Y00874D01*
G01X00420Y00874D02*
G01X00445Y00899D01*
G01X00445Y00899D02*
G01X00445Y00949D01*
G01X00445Y00949D02*
G01X00470Y00974D01*
G01X00470Y00974D02*
G01X00520Y00974D01*
G01X00520Y00974D02*
G01X00545Y00949D01*
G01X00545Y00949D02*
G01X00545Y00899D01*
G01X00545Y00899D02*
G01X00570Y00874D01*
G01X00570Y00874D02*
G01X00620Y00874D01*
G01X00620Y00874D02*
G01X00645Y00899D01*
G01X00645Y00899D02*
G01X00645Y00949D01*
G01X00645Y00949D02*
G01X00670Y00974D01*
G01X00670Y00974D02*
G01X00720Y00974D01*
G01X00720Y00974D02*
G01X00745Y00949D01*
G01X00745Y00949D02*
G01X00745Y00899D01*
G01X00745Y00899D02*
G01X00770Y00874D01*
G01X00770Y00874D02*
G01X00820Y00874D01*
G01X00820Y00874D02*
G01X00845Y00899D01*
G01X00845Y00899D02*
G01X00845Y00949D01*
G01X00845Y00949D02*
G01X00870Y00974D01*
G01X00870Y00974D02*
G01X00920Y00974D01*
G01X00920Y00974D02*
G01X00945Y00949D01*
G01X00945Y00949D02*
G01X00945Y00899D01*
G01X00945Y00899D02*
G01X00970Y00874D01*
G01X00970Y00874D02*
G01X01020Y00874D01*
G01X01020Y00874D02*
G01X01045Y00899D01*
G01X01045Y00899D02*
G01X01045Y00949D01*
G01X01045Y00949D02*
G01X01070Y00974D01*
G01X01070Y00974D02*
G01X01120Y00974D01*
G01X01120Y00974D02*
G01X01145Y00949D01*
G01X01145Y00949D02*
G01X01145Y00899D01*
G01X00245Y00899D02*
G01X00245Y00949D01*
G01X00245Y00949D02*
G01X00220Y00974D01*
G01X00220Y00974D02*
G01X00170Y00974D01*
G01X00170Y00974D02*
G01X00145Y00949D01*
G01X00145Y00949D02*
G01X00145Y00899D01*
G01X00145Y00899D02*
G01X00120Y00874D01*
G01X00120Y00874D02*
G01X00070Y00874D01*
G01X00070Y00874D02*
G01X00045Y00899D01*
G01X00045Y00899D02*
G01X00045Y00949D01*
G01X00045Y00949D02*
G01X00070Y00974D01*
G01X00070Y00974D02*
G01X00120Y00974D01*
G01X00120Y00974D02*
G01X00145Y00949D01*
G01X00145Y00949D02*
G01X00145Y00899D01*
G01X00145Y00899D02*
G01X00170Y00874D01*
G01X00170Y00874D02*
G01X00220Y00874D01*
G01X00220Y00874D02*
G01X00245Y00899D01*
G54D12*
G01X00376Y00403D02*
G01X00376Y00096D01*
G01X00376Y00123D02*
G01X00376Y00167D01*
G01X00278Y00096D02*
G01X00172Y00096D01*
G01X00172Y00403D02*
G01X00278Y00403D01*
G01X00376Y00375D02*
G01X00376Y00332D01*
G01X00740Y00275D02*
G01X00740Y00075D01*
G01X00740Y00075D02*
G01X01036Y00075D01*
G01X01036Y00075D02*
G01X01036Y00275D01*
G01X01036Y00275D02*
G01X00740Y00275D01*
G01X02504Y00329D02*
G01X02520Y00329D01*
G01X02520Y00329D02*
G01X02504Y00345D01*
G01X02504Y00345D02*
G01X02536Y00345D01*
G01X02536Y00345D02*
G01X02520Y00329D01*
G01X02520Y00329D02*
G01X02536Y00329D01*
G01X02686Y00329D02*
G01X02701Y00329D01*
G01X02701Y00329D02*
G01X02686Y00345D01*
G01X02686Y00345D02*
G01X02717Y00345D01*
G01X02717Y00345D02*
G01X02701Y00329D01*
G01X02701Y00329D02*
G01X02717Y00329D01*
G54D13*
G01X01318Y00406D02*
G01X01318Y00408D01*
G01X01318Y00408D02*
G01X01318Y00410D01*
G01X01318Y00410D02*
G01X01319Y00411D01*
G01X01319Y00411D02*
G01X01320Y00413D01*
G01X01320Y00413D02*
G01X01322Y00414D01*
G01X01322Y00414D02*
G01X01324Y00415D01*
G01X01324Y00415D02*
G01X01326Y00416D01*
G01X01326Y00416D02*
G01X01328Y00417D01*
G01X01328Y00417D02*
G01X01330Y00417D01*
G01X01330Y00417D02*
G01X01332Y00416D01*
G01X01332Y00416D02*
G01X01334Y00415D01*
G01X01334Y00415D02*
G01X01335Y00414D01*
G01X01335Y00414D02*
G01X01337Y00413D01*
G01X01337Y00413D02*
G01X01338Y00411D01*
G01X01338Y00411D02*
G01X01339Y00410D01*
G01X01339Y00410D02*
G01X01340Y00408D01*
G01X01340Y00408D02*
G01X01340Y00406D01*
G01X01340Y00406D02*
G01X01340Y00404D01*
G01X01340Y00404D02*
G01X01339Y00402D01*
G01X01339Y00402D02*
G01X01338Y00400D01*
G01X01338Y00400D02*
G01X01337Y00398D01*
G01X01337Y00398D02*
G01X01335Y00397D01*
G01X01335Y00397D02*
G01X01334Y00396D01*
G01X01334Y00396D02*
G01X01332Y00395D01*
G01X01332Y00395D02*
G01X01330Y00394D01*
G01X01330Y00394D02*
G01X01328Y00394D01*
G01X01328Y00394D02*
G01X01326Y00395D01*
G01X01326Y00395D02*
G01X01324Y00396D01*
G01X01324Y00396D02*
G01X01322Y00397D01*
G01X01322Y00397D02*
G01X01320Y00398D01*
G01X01320Y00398D02*
G01X01319Y00400D01*
G01X01319Y00400D02*
G01X01318Y00402D01*
G01X01318Y00402D02*
G01X01318Y00404D01*
G01X01318Y00404D02*
G01X01318Y00406D01*
G54D14*
G01X01295Y00394D02*
G01X01540Y00149D01*
G01X01540Y00149D02*
G01X01563Y00149D01*
G01X01563Y00149D02*
G01X01807Y00394D01*
G01X01807Y00394D02*
G01X01807Y00417D01*
G01X01807Y00417D02*
G01X01563Y00662D01*
G01X01563Y00662D02*
G01X01540Y00662D01*
G01X01540Y00662D02*
G01X01295Y00417D01*
G01X01295Y00417D02*
G01X01295Y00394D01*
G01X02870Y00549D02*
G01X02895Y00524D01*
G01X02895Y00524D02*
G01X02945Y00524D01*
G01X02945Y00524D02*
G01X02970Y00549D01*
G01X02970Y00549D02*
G01X02995Y00524D01*
G01X02995Y00524D02*
G01X03045Y00524D01*
G01X03045Y00524D02*
G01X03070Y00549D01*
G01X03070Y00549D02*
G01X03070Y00599D01*
G01X03070Y00599D02*
G01X03045Y00624D01*
G01X03045Y00624D02*
G01X02995Y00624D01*
G01X02995Y00624D02*
G01X02970Y00599D01*
G01X02970Y00599D02*
G01X02945Y00624D01*
G01X02945Y00624D02*
G01X02895Y00624D01*
G01X02895Y00624D02*
G01X02870Y00599D01*
G01X02870Y00599D02*
G01X02870Y00549D01*
G54D15*
G01X01677Y00396D02*
G01X01657Y00416D01*
G01X01657Y00416D02*
G01X01657Y00396D01*
G01X01657Y00396D02*
G01X01671Y00409D01*
G01X01650Y00388D02*
G01X01636Y00375D01*
G01X01636Y00375D02*
G01X01636Y00395D01*
G01X01636Y00395D02*
G01X01657Y00375D01*
G01X01608Y00347D02*
G01X01608Y00340D01*
G01X01608Y00340D02*
G01X01598Y00330D01*
G01X01605Y00323D02*
G01X01584Y00343D01*
G01X01584Y00343D02*
G01X01594Y00354D01*
G01X01594Y00354D02*
G01X01601Y00354D01*
G01X01601Y00354D02*
G01X01608Y00347D01*
G01X01577Y00336D02*
G01X01563Y00323D01*
G01X01563Y00323D02*
G01X01584Y00302D01*
G01X01577Y00295D02*
G01X01563Y00295D01*
G01X01573Y00298D02*
G01X01573Y00291D01*
G01X01573Y00291D02*
G01X01566Y00285D01*
G01X01566Y00285D02*
G01X01560Y00285D01*
G01X01560Y00285D02*
G01X01546Y00298D01*
G01X01546Y00298D02*
G01X01546Y00305D01*
G01X01546Y00305D02*
G01X01553Y00312D01*
G01X01553Y00312D02*
G01X01560Y00312D01*
G01X01560Y00312D02*
G01X01573Y00298D01*
G01X01574Y00312D02*
G01X01580Y00319D01*
G01X01535Y00295D02*
G01X01522Y00281D01*
G01X01529Y00288D02*
G01X01549Y00267D01*
G54D16*
G01X01499Y00282D02*
G01X01476Y00282D01*
G01X01480Y00286D02*
G01X01502Y00286D01*
G01X01506Y00290D02*
G01X01484Y00290D01*
G01X01488Y00293D02*
G01X01510Y00293D01*
G01X01514Y00297D02*
G01X01491Y00297D01*
G01X01495Y00301D02*
G01X01518Y00301D01*
G01X01521Y00305D02*
G01X01499Y00305D01*
G01X01503Y00309D02*
G01X01525Y00309D01*
G01X01529Y00312D02*
G01X01507Y00312D01*
G01X01510Y00316D02*
G01X01533Y00316D01*
G01X01537Y00320D02*
G01X01514Y00320D01*
G01X01518Y00324D02*
G01X01540Y00324D01*
G01X01544Y00328D02*
G01X01522Y00328D01*
G01X01526Y00331D02*
G01X01548Y00331D01*
G01X01552Y00335D02*
G01X01529Y00335D01*
G01X01533Y00339D02*
G01X01555Y00339D01*
G01X01559Y00343D02*
G01X01537Y00343D01*
G01X01541Y00347D02*
G01X01563Y00347D01*
G01X01567Y00350D02*
G01X01545Y00350D01*
G01X01548Y00354D02*
G01X01571Y00354D01*
G01X01574Y00358D02*
G01X01552Y00358D01*
G01X01556Y00362D02*
G01X01578Y00362D01*
G01X01582Y00365D02*
G01X01560Y00365D01*
G01X01564Y00369D02*
G01X01586Y00369D01*
G01X01590Y00373D02*
G01X01567Y00373D01*
G01X01571Y00377D02*
G01X01593Y00377D01*
G01X01597Y00381D02*
G01X01575Y00381D01*
G01X01579Y00384D02*
G01X01601Y00384D01*
G01X01605Y00388D02*
G01X01582Y00388D01*
G01X01586Y00392D02*
G01X01609Y00392D01*
G01X01612Y00396D02*
G01X01590Y00396D01*
G01X01594Y00400D02*
G01X01616Y00400D01*
G01X01620Y00403D02*
G01X01598Y00403D01*
G01X01601Y00407D02*
G01X01624Y00407D01*
G01X01627Y00411D02*
G01X01605Y00411D01*
G01X01609Y00415D02*
G01X01631Y00415D01*
G01X01635Y00419D02*
G01X01613Y00419D01*
G01X01617Y00422D02*
G01X01639Y00422D01*
G01X01643Y00426D02*
G01X01620Y00426D01*
G01X01624Y00430D02*
G01X01646Y00430D01*
G01X01650Y00434D02*
G01X01628Y00434D01*
G01X01632Y00437D02*
G01X01654Y00437D01*
G01X01656Y00440D02*
G01X01650Y00456D01*
G01X01650Y00456D02*
G01X01470Y00275D01*
G01X01470Y00275D02*
G01X01481Y00264D01*
G01X01481Y00264D02*
G01X01656Y00440D01*
G01X01655Y00441D02*
G01X01636Y00441D01*
G01X01639Y00445D02*
G01X01654Y00445D01*
G01X01653Y00449D02*
G01X01643Y00449D01*
G01X01647Y00453D02*
G01X01652Y00453D01*
G01X01643Y00460D02*
G01X01619Y00460D01*
G01X01622Y00456D02*
G01X01640Y00456D01*
G01X01636Y00453D02*
G01X01626Y00453D01*
G01X01630Y00449D02*
G01X01632Y00449D01*
G01X01631Y00448D02*
G01X01648Y00465D01*
G01X01648Y00465D02*
G01X01642Y00481D01*
G01X01642Y00481D02*
G01X01631Y00470D01*
G01X01631Y00470D02*
G01X01586Y00515D01*
G01X01586Y00515D02*
G01X01575Y00503D01*
G01X01575Y00503D02*
G01X01631Y00448D01*
G01X01623Y00440D02*
G01X01606Y00456D01*
G01X01606Y00456D02*
G01X01578Y00428D01*
G01X01578Y00428D02*
G01X01573Y00434D01*
G01X01573Y00434D02*
G01X01600Y00462D01*
G01X01600Y00462D02*
G01X01589Y00473D01*
G01X01589Y00473D02*
G01X01561Y00445D01*
G01X01561Y00445D02*
G01X01556Y00451D01*
G01X01556Y00451D02*
G01X01584Y00478D01*
G01X01584Y00478D02*
G01X01567Y00495D01*
G01X01567Y00495D02*
G01X01534Y00462D01*
G01X01534Y00462D02*
G01X01589Y00406D01*
G01X01589Y00406D02*
G01X01623Y00440D01*
G01X01621Y00441D02*
G01X01591Y00441D01*
G01X01587Y00437D02*
G01X01621Y00437D01*
G01X01617Y00434D02*
G01X01583Y00434D01*
G01X01580Y00430D02*
G01X01613Y00430D01*
G01X01609Y00426D02*
G01X01569Y00426D01*
G01X01565Y00430D02*
G01X01577Y00430D01*
G01X01573Y00434D02*
G01X01562Y00434D01*
G01X01558Y00437D02*
G01X01576Y00437D01*
G01X01580Y00441D02*
G01X01554Y00441D01*
G01X01550Y00445D02*
G01X01584Y00445D01*
G01X01587Y00449D02*
G01X01565Y00449D01*
G01X01569Y00453D02*
G01X01591Y00453D01*
G01X01595Y00456D02*
G01X01573Y00456D01*
G01X01577Y00460D02*
G01X01599Y00460D01*
G01X01598Y00464D02*
G01X01580Y00464D01*
G01X01584Y00468D02*
G01X01594Y00468D01*
G01X01591Y00472D02*
G01X01588Y00472D01*
G01X01581Y00475D02*
G01X01547Y00475D01*
G01X01551Y00479D02*
G01X01583Y00479D01*
G01X01579Y00483D02*
G01X01555Y00483D01*
G01X01559Y00487D02*
G01X01575Y00487D01*
G01X01572Y00491D02*
G01X01562Y00491D01*
G01X01566Y00494D02*
G01X01568Y00494D01*
G01X01577Y00502D02*
G01X01599Y00502D01*
G01X01595Y00506D02*
G01X01578Y00506D01*
G01X01581Y00509D02*
G01X01592Y00509D01*
G01X01588Y00513D02*
G01X01585Y00513D01*
G01X01576Y00521D02*
G01X01554Y00521D01*
G01X01557Y00525D02*
G01X01580Y00525D01*
G01X01584Y00528D02*
G01X01561Y00528D01*
G01X01565Y00532D02*
G01X01587Y00532D01*
G01X01591Y00536D02*
G01X01569Y00536D01*
G01X01573Y00540D02*
G01X01589Y00540D01*
G01X01592Y00537D02*
G01X01464Y00409D01*
G01X01464Y00409D02*
G01X01528Y00345D01*
G01X01528Y00345D02*
G01X01517Y00334D01*
G01X01517Y00334D02*
G01X01453Y00398D01*
G01X01453Y00398D02*
G01X01431Y00375D01*
G01X01431Y00375D02*
G01X01425Y00392D01*
G01X01425Y00392D02*
G01X01581Y00548D01*
G01X01581Y00548D02*
G01X01592Y00537D01*
G01X01585Y00544D02*
G01X01576Y00544D01*
G01X01580Y00547D02*
G01X01582Y00547D01*
G01X01572Y00517D02*
G01X01550Y00517D01*
G01X01546Y00513D02*
G01X01568Y00513D01*
G01X01565Y00509D02*
G01X01542Y00509D01*
G01X01539Y00506D02*
G01X01561Y00506D01*
G01X01557Y00502D02*
G01X01535Y00502D01*
G01X01531Y00498D02*
G01X01553Y00498D01*
G01X01549Y00494D02*
G01X01527Y00494D01*
G01X01523Y00491D02*
G01X01546Y00491D01*
G01X01542Y00487D02*
G01X01520Y00487D01*
G01X01516Y00483D02*
G01X01538Y00483D01*
G01X01534Y00479D02*
G01X01512Y00479D01*
G01X01508Y00475D02*
G01X01530Y00475D01*
G01X01527Y00472D02*
G01X01504Y00472D01*
G01X01501Y00468D02*
G01X01523Y00468D01*
G01X01519Y00464D02*
G01X01497Y00464D01*
G01X01493Y00460D02*
G01X01515Y00460D01*
G01X01512Y00456D02*
G01X01489Y00456D01*
G01X01485Y00453D02*
G01X01508Y00453D01*
G01X01504Y00449D02*
G01X01482Y00449D01*
G01X01478Y00445D02*
G01X01500Y00445D01*
G01X01496Y00441D02*
G01X01474Y00441D01*
G01X01470Y00437D02*
G01X01493Y00437D01*
G01X01489Y00434D02*
G01X01467Y00434D01*
G01X01463Y00430D02*
G01X01485Y00430D01*
G01X01481Y00426D02*
G01X01459Y00426D01*
G01X01455Y00422D02*
G01X01477Y00422D01*
G01X01474Y00419D02*
G01X01451Y00419D01*
G01X01448Y00415D02*
G01X01470Y00415D01*
G01X01466Y00411D02*
G01X01444Y00411D01*
G01X01440Y00407D02*
G01X01466Y00407D01*
G01X01469Y00403D02*
G01X01436Y00403D01*
G01X01432Y00400D02*
G01X01473Y00400D01*
G01X01477Y00396D02*
G01X01455Y00396D01*
G01X01451Y00396D02*
G01X01429Y00396D01*
G01X01425Y00392D02*
G01X01447Y00392D01*
G01X01443Y00388D02*
G01X01426Y00388D01*
G01X01428Y00384D02*
G01X01439Y00384D01*
G01X01436Y00381D02*
G01X01429Y00381D01*
G01X01430Y00377D02*
G01X01432Y00377D01*
G01X01441Y00369D02*
G01X01465Y00369D01*
G01X01468Y00365D02*
G01X01437Y00365D01*
G01X01436Y00364D02*
G01X01453Y00381D01*
G01X01453Y00381D02*
G01X01509Y00325D01*
G01X01509Y00325D02*
G01X01497Y00314D01*
G01X01497Y00314D02*
G01X01458Y00353D01*
G01X01458Y00353D02*
G01X01475Y00303D01*
G01X01475Y00303D02*
G01X01481Y00309D01*
G01X01481Y00309D02*
G01X01486Y00303D01*
G01X01486Y00303D02*
G01X01464Y00281D01*
G01X01464Y00281D02*
G01X01436Y00364D01*
G01X01437Y00362D02*
G01X01472Y00362D01*
G01X01476Y00358D02*
G01X01438Y00358D01*
G01X01440Y00354D02*
G01X01480Y00354D01*
G01X01484Y00350D02*
G01X01461Y00350D01*
G01X01459Y00350D02*
G01X01441Y00350D01*
G01X01442Y00347D02*
G01X01461Y00347D01*
G01X01462Y00343D02*
G01X01443Y00343D01*
G01X01445Y00339D02*
G01X01463Y00339D01*
G01X01464Y00335D02*
G01X01446Y00335D01*
G01X01447Y00331D02*
G01X01466Y00331D01*
G01X01467Y00328D02*
G01X01448Y00328D01*
G01X01450Y00324D02*
G01X01468Y00324D01*
G01X01469Y00320D02*
G01X01451Y00320D01*
G01X01452Y00316D02*
G01X01471Y00316D01*
G01X01472Y00312D02*
G01X01453Y00312D01*
G01X01455Y00309D02*
G01X01473Y00309D01*
G01X01475Y00305D02*
G01X01456Y00305D01*
G01X01457Y00301D02*
G01X01484Y00301D01*
G01X01485Y00305D02*
G01X01477Y00305D01*
G01X01481Y00309D02*
G01X01481Y00309D01*
G01X01480Y00297D02*
G01X01459Y00297D01*
G01X01460Y00293D02*
G01X01477Y00293D01*
G01X01473Y00290D02*
G01X01461Y00290D01*
G01X01462Y00286D02*
G01X01469Y00286D01*
G01X01465Y00282D02*
G01X01464Y00282D01*
G01X01473Y00278D02*
G01X01495Y00278D01*
G01X01491Y00274D02*
G01X01470Y00274D01*
G01X01474Y00271D02*
G01X01487Y00271D01*
G01X01483Y00267D02*
G01X01478Y00267D01*
G01X01495Y00316D02*
G01X01499Y00316D01*
G01X01503Y00320D02*
G01X01492Y00320D01*
G01X01488Y00324D02*
G01X01507Y00324D01*
G01X01506Y00328D02*
G01X01484Y00328D01*
G01X01480Y00331D02*
G01X01503Y00331D01*
G01X01499Y00335D02*
G01X01476Y00335D01*
G01X01473Y00339D02*
G01X01495Y00339D01*
G01X01491Y00343D02*
G01X01469Y00343D01*
G01X01465Y00347D02*
G01X01487Y00347D01*
G01X01497Y00354D02*
G01X01519Y00354D01*
G01X01523Y00350D02*
G01X01500Y00350D01*
G01X01504Y00347D02*
G01X01526Y00347D01*
G01X01526Y00343D02*
G01X01508Y00343D01*
G01X01512Y00339D02*
G01X01522Y00339D01*
G01X01518Y00335D02*
G01X01515Y00335D01*
G01X01515Y00358D02*
G01X01493Y00358D01*
G01X01489Y00362D02*
G01X01511Y00362D01*
G01X01507Y00365D02*
G01X01485Y00365D01*
G01X01481Y00369D02*
G01X01504Y00369D01*
G01X01500Y00373D02*
G01X01478Y00373D01*
G01X01474Y00377D02*
G01X01496Y00377D01*
G01X01492Y00381D02*
G01X01470Y00381D01*
G01X01466Y00384D02*
G01X01488Y00384D01*
G01X01485Y00388D02*
G01X01462Y00388D01*
G01X01459Y00392D02*
G01X01481Y00392D01*
G01X01490Y00400D02*
G01X01512Y00400D01*
G01X01516Y00396D02*
G01X01494Y00396D01*
G01X01498Y00392D02*
G01X01520Y00392D01*
G01X01524Y00388D02*
G01X01501Y00388D01*
G01X01505Y00384D02*
G01X01527Y00384D01*
G01X01531Y00381D02*
G01X01509Y00381D01*
G01X01513Y00377D02*
G01X01535Y00377D01*
G01X01539Y00373D02*
G01X01517Y00373D01*
G01X01520Y00369D02*
G01X01543Y00369D01*
G01X01546Y00365D02*
G01X01524Y00365D01*
G01X01528Y00362D02*
G01X01545Y00362D01*
G01X01547Y00364D02*
G01X01536Y00353D01*
G01X01536Y00353D02*
G01X01481Y00409D01*
G01X01481Y00409D02*
G01X01514Y00442D01*
G01X01514Y00442D02*
G01X01522Y00445D01*
G01X01522Y00445D02*
G01X01528Y00445D01*
G01X01528Y00445D02*
G01X01522Y00445D01*
G01X01528Y00445D02*
G01X01536Y00442D01*
G01X01536Y00442D02*
G01X01581Y00398D01*
G01X01581Y00398D02*
G01X01570Y00387D01*
G01X01570Y00387D02*
G01X01520Y00437D01*
G01X01520Y00437D02*
G01X01514Y00431D01*
G01X01514Y00431D02*
G01X01564Y00381D01*
G01X01564Y00381D02*
G01X01553Y00370D01*
G01X01553Y00370D02*
G01X01503Y00420D01*
G01X01503Y00420D02*
G01X01497Y00414D01*
G01X01497Y00414D02*
G01X01547Y00364D01*
G01X01550Y00373D02*
G01X01556Y00373D01*
G01X01560Y00377D02*
G01X01546Y00377D01*
G01X01542Y00381D02*
G01X01564Y00381D01*
G01X01561Y00384D02*
G01X01539Y00384D01*
G01X01535Y00388D02*
G01X01557Y00388D01*
G01X01553Y00392D02*
G01X01531Y00392D01*
G01X01527Y00396D02*
G01X01549Y00396D01*
G01X01546Y00400D02*
G01X01523Y00400D01*
G01X01520Y00403D02*
G01X01542Y00403D01*
G01X01538Y00407D02*
G01X01516Y00407D01*
G01X01512Y00411D02*
G01X01534Y00411D01*
G01X01530Y00415D02*
G01X01508Y00415D01*
G01X01504Y00419D02*
G01X01527Y00419D01*
G01X01523Y00422D02*
G01X01494Y00422D01*
G01X01498Y00426D02*
G01X01519Y00426D01*
G01X01515Y00430D02*
G01X01502Y00430D01*
G01X01505Y00434D02*
G01X01517Y00434D01*
G01X01523Y00434D02*
G01X01545Y00434D01*
G01X01541Y00437D02*
G01X01509Y00437D01*
G01X01513Y00441D02*
G01X01537Y00441D01*
G01X01546Y00449D02*
G01X01558Y00449D01*
G01X01558Y00453D02*
G01X01543Y00453D01*
G01X01539Y00456D02*
G01X01562Y00456D01*
G01X01565Y00460D02*
G01X01535Y00460D01*
G01X01536Y00464D02*
G01X01569Y00464D01*
G01X01573Y00468D02*
G01X01540Y00468D01*
G01X01543Y00472D02*
G01X01577Y00472D01*
G01X01592Y00487D02*
G01X01614Y00487D01*
G01X01618Y00483D02*
G01X01596Y00483D01*
G01X01600Y00479D02*
G01X01622Y00479D01*
G01X01626Y00475D02*
G01X01603Y00475D01*
G01X01607Y00472D02*
G01X01630Y00472D01*
G01X01632Y00472D02*
G01X01645Y00472D01*
G01X01644Y00475D02*
G01X01636Y00475D01*
G01X01640Y00479D02*
G01X01643Y00479D01*
G01X01647Y00468D02*
G01X01611Y00468D01*
G01X01615Y00464D02*
G01X01647Y00464D01*
G01X01617Y00445D02*
G01X01595Y00445D01*
G01X01599Y00449D02*
G01X01613Y00449D01*
G01X01610Y00453D02*
G01X01602Y00453D01*
G01X01605Y00422D02*
G01X01573Y00422D01*
G01X01577Y00419D02*
G01X01602Y00419D01*
G01X01598Y00415D02*
G01X01581Y00415D01*
G01X01584Y00411D02*
G01X01594Y00411D01*
G01X01590Y00407D02*
G01X01588Y00407D01*
G01X01579Y00400D02*
G01X01557Y00400D01*
G01X01561Y00396D02*
G01X01579Y00396D01*
G01X01575Y00392D02*
G01X01564Y00392D01*
G01X01568Y00388D02*
G01X01571Y00388D01*
G01X01575Y00403D02*
G01X01553Y00403D01*
G01X01549Y00407D02*
G01X01571Y00407D01*
G01X01568Y00411D02*
G01X01545Y00411D01*
G01X01542Y00415D02*
G01X01564Y00415D01*
G01X01560Y00419D02*
G01X01538Y00419D01*
G01X01534Y00422D02*
G01X01556Y00422D01*
G01X01553Y00426D02*
G01X01530Y00426D01*
G01X01526Y00430D02*
G01X01549Y00430D01*
G01X01501Y00419D02*
G01X01490Y00419D01*
G01X01487Y00415D02*
G01X01498Y00415D01*
G01X01501Y00411D02*
G01X01483Y00411D01*
G01X01482Y00407D02*
G01X01505Y00407D01*
G01X01508Y00403D02*
G01X01486Y00403D01*
G01X01457Y00377D02*
G01X01449Y00377D01*
G01X01452Y00381D02*
G01X01453Y00381D01*
G01X01461Y00373D02*
G01X01445Y00373D01*
G01X01532Y00358D02*
G01X01541Y00358D01*
G01X01537Y00354D02*
G01X01535Y00354D01*
G01X01588Y00491D02*
G01X01611Y00491D01*
G01X01607Y00494D02*
G01X01585Y00494D01*
G01X01581Y00498D02*
G01X01603Y00498D01*
G54D17*
G01X01538Y00444D02*
G01X01535Y00441D01*
G01X01535Y00441D02*
G01X01533Y00442D01*
G01X01533Y00442D02*
G01X01531Y00443D01*
G01X01531Y00443D02*
G01X01529Y00444D01*
G01X01529Y00444D02*
G01X01527Y00445D01*
G01X01527Y00445D02*
G01X01525Y00445D01*
G01X01525Y00445D02*
G01X01523Y00445D01*
G01X01523Y00445D02*
G01X01521Y00444D01*
G01X01521Y00444D02*
G01X01519Y00443D01*
G01X01519Y00443D02*
G01X01517Y00442D01*
G01X01517Y00442D02*
G01X01516Y00441D01*
G01X01516Y00441D02*
G01X01513Y00444D01*
G01X01513Y00444D02*
G01X01513Y00444D01*
G01X01513Y00444D02*
G01X01515Y00445D01*
G01X01515Y00445D02*
G01X01517Y00447D01*
G01X01517Y00447D02*
G01X01519Y00448D01*
G01X01519Y00448D02*
G01X01522Y00448D01*
G01X01522Y00448D02*
G01X01524Y00449D01*
G01X01524Y00449D02*
G01X01527Y00449D01*
G01X01527Y00449D02*
G01X01529Y00448D01*
G01X01529Y00448D02*
G01X01531Y00448D01*
G01X01531Y00448D02*
G01X01534Y00447D01*
G01X01534Y00447D02*
G01X01536Y00445D01*
G01X01536Y00445D02*
G01X01538Y00444D01*
G01X01538Y00444D02*
G01X01538Y00444D01*
G01X01538Y00444D02*
G01X01536Y00445D01*
G01X01536Y00445D02*
G01X01534Y00447D01*
G01X01534Y00447D02*
G01X01531Y00448D01*
G01X01531Y00448D02*
G01X01529Y00448D01*
G01X01529Y00448D02*
G01X01527Y00449D01*
G01X01527Y00449D02*
G01X01524Y00449D01*
G01X01524Y00449D02*
G01X01522Y00448D01*
G01X01522Y00448D02*
G01X01519Y00448D01*
G01X01519Y00448D02*
G01X01517Y00447D01*
G01X01517Y00447D02*
G01X01515Y00445D01*
G01X01515Y00445D02*
G01X01513Y00444D01*
G01X01513Y00444D02*
G01X01513Y00444D01*
G01X01513Y00444D02*
G01X01515Y00445D01*
G01X01515Y00445D02*
G01X01517Y00447D01*
G01X01517Y00447D02*
G01X01519Y00448D01*
G01X01519Y00448D02*
G01X01522Y00448D01*
G01X01522Y00448D02*
G01X01524Y00449D01*
G01X01524Y00449D02*
G01X01526Y00449D01*
G01X01526Y00449D02*
G01X01529Y00448D01*
G01X01529Y00448D02*
G01X01531Y00448D01*
G01X01531Y00448D02*
G01X01534Y00447D01*
G01X01534Y00447D02*
G01X01536Y00445D01*
G01X01536Y00445D02*
G01X01538Y00444D01*
G01X01538Y00444D02*
G01X01538Y00443D01*
G01X01538Y00443D02*
G01X01536Y00445D01*
G01X01536Y00445D02*
G01X01534Y00446D01*
G01X01534Y00446D02*
G01X01531Y00447D01*
G01X01531Y00447D02*
G01X01529Y00448D01*
G01X01529Y00448D02*
G01X01526Y00449D01*
G01X01526Y00449D02*
G01X01524Y00449D01*
G01X01524Y00449D02*
G01X01522Y00448D01*
G01X01522Y00448D02*
G01X01519Y00447D01*
G01X01519Y00447D02*
G01X01517Y00446D01*
G01X01517Y00446D02*
G01X01515Y00445D01*
G01X01515Y00445D02*
G01X01513Y00443D01*
G01X01513Y00443D02*
G01X01513Y00443D01*
G01X01513Y00443D02*
G01X01515Y00445D01*
G01X01515Y00445D02*
G01X01517Y00446D01*
G01X01517Y00446D02*
G01X01519Y00447D01*
G01X01519Y00447D02*
G01X01522Y00448D01*
G01X01522Y00448D02*
G01X01524Y00448D01*
G01X01524Y00448D02*
G01X01526Y00448D01*
G01X01526Y00448D02*
G01X01529Y00448D01*
G01X01529Y00448D02*
G01X01531Y00447D01*
G01X01531Y00447D02*
G01X01534Y00446D01*
G01X01534Y00446D02*
G01X01536Y00445D01*
G01X01536Y00445D02*
G01X01537Y00443D01*
G01X01537Y00443D02*
G01X01537Y00443D01*
G01X01537Y00443D02*
G01X01536Y00445D01*
G01X01536Y00445D02*
G01X01533Y00446D01*
G01X01533Y00446D02*
G01X01531Y00447D01*
G01X01531Y00447D02*
G01X01529Y00448D01*
G01X01529Y00448D02*
G01X01526Y00448D01*
G01X01526Y00448D02*
G01X01524Y00448D01*
G01X01524Y00448D02*
G01X01522Y00448D01*
G01X01522Y00448D02*
G01X01519Y00447D01*
G01X01519Y00447D02*
G01X01517Y00446D01*
G01X01517Y00446D02*
G01X01515Y00445D01*
G01X01515Y00445D02*
G01X01513Y00443D01*
G01X01513Y00443D02*
G01X01513Y00443D01*
G01X01513Y00443D02*
G01X01515Y00445D01*
G01X01515Y00445D02*
G01X01517Y00446D01*
G01X01517Y00446D02*
G01X01519Y00447D01*
G01X01519Y00447D02*
G01X01522Y00448D01*
G01X01522Y00448D02*
G01X01524Y00448D01*
G01X01524Y00448D02*
G01X01526Y00448D01*
G01X01526Y00448D02*
G01X01529Y00448D01*
G01X01529Y00448D02*
G01X01531Y00447D01*
G01X01531Y00447D02*
G01X01533Y00446D01*
G01X01533Y00446D02*
G01X01535Y00445D01*
G01X01535Y00445D02*
G01X01537Y00443D01*
G01X01537Y00443D02*
G01X01537Y00443D01*
G01X01537Y00443D02*
G01X01535Y00445D01*
G01X01535Y00445D02*
G01X01533Y00446D01*
G01X01533Y00446D02*
G01X01531Y00447D01*
G01X01531Y00447D02*
G01X01529Y00448D01*
G01X01529Y00448D02*
G01X01526Y00448D01*
G01X01526Y00448D02*
G01X01524Y00448D01*
G01X01524Y00448D02*
G01X01522Y00448D01*
G01X01522Y00448D02*
G01X01519Y00447D01*
G01X01519Y00447D02*
G01X01517Y00446D01*
G01X01517Y00446D02*
G01X01515Y00445D01*
G01X01515Y00445D02*
G01X01513Y00443D01*
G01X01513Y00443D02*
G01X01513Y00443D01*
G01X01513Y00443D02*
G01X01515Y00445D01*
G01X01515Y00445D02*
G01X01517Y00446D01*
G01X01517Y00446D02*
G01X01519Y00447D01*
G01X01519Y00447D02*
G01X01522Y00448D01*
G01X01522Y00448D02*
G01X01524Y00448D01*
G01X01524Y00448D02*
G01X01526Y00448D01*
G01X01526Y00448D02*
G01X01529Y00448D01*
G01X01529Y00448D02*
G01X01531Y00447D01*
G01X01531Y00447D02*
G01X01533Y00446D01*
G01X01533Y00446D02*
G01X01535Y00445D01*
G01X01535Y00445D02*
G01X01537Y00443D01*
G01X01537Y00443D02*
G01X01537Y00443D01*
G01X01537Y00443D02*
G01X01535Y00445D01*
G01X01535Y00445D02*
G01X01533Y00446D01*
G01X01533Y00446D02*
G01X01531Y00447D01*
G01X01531Y00447D02*
G01X01529Y00448D01*
G01X01529Y00448D02*
G01X01526Y00448D01*
G01X01526Y00448D02*
G01X01524Y00448D01*
G01X01524Y00448D02*
G01X01522Y00448D01*
G01X01522Y00448D02*
G01X01519Y00447D01*
G01X01519Y00447D02*
G01X01517Y00446D01*
G01X01517Y00446D02*
G01X01515Y00445D01*
G01X01515Y00445D02*
G01X01513Y00443D01*
G01X01513Y00443D02*
G01X01513Y00443D01*
G01X01513Y00443D02*
G01X01515Y00445D01*
G01X01515Y00445D02*
G01X01517Y00446D01*
G01X01517Y00446D02*
G01X01519Y00447D01*
G01X01519Y00447D02*
G01X01522Y00447D01*
G01X01522Y00447D02*
G01X01524Y00448D01*
G01X01524Y00448D02*
G01X01526Y00448D01*
G01X01526Y00448D02*
G01X01529Y00447D01*
G01X01529Y00447D02*
G01X01531Y00447D01*
G01X01531Y00447D02*
G01X01533Y00446D01*
G01X01533Y00446D02*
G01X01535Y00445D01*
G01X01535Y00445D02*
G01X01537Y00443D01*
G01X01537Y00443D02*
G01X01537Y00443D01*
G01X01537Y00443D02*
G01X01535Y00444D01*
G01X01535Y00444D02*
G01X01533Y00446D01*
G01X01533Y00446D02*
G01X01531Y00447D01*
G01X01531Y00447D02*
G01X01529Y00447D01*
G01X01529Y00447D02*
G01X01526Y00448D01*
G01X01526Y00448D02*
G01X01524Y00448D01*
G01X01524Y00448D02*
G01X01522Y00447D01*
G01X01522Y00447D02*
G01X01519Y00447D01*
G01X01519Y00447D02*
G01X01517Y00446D01*
G01X01517Y00446D02*
G01X01515Y00444D01*
G01X01515Y00444D02*
G01X01514Y00443D01*
G01X01514Y00443D02*
G01X01514Y00443D01*
G01X01514Y00443D02*
G01X01515Y00444D01*
G01X01515Y00444D02*
G01X01517Y00446D01*
G01X01517Y00446D02*
G01X01520Y00447D01*
G01X01520Y00447D02*
G01X01522Y00447D01*
G01X01522Y00447D02*
G01X01524Y00448D01*
G01X01524Y00448D02*
G01X01526Y00448D01*
G01X01526Y00448D02*
G01X01529Y00447D01*
G01X01529Y00447D02*
G01X01531Y00447D01*
G01X01531Y00447D02*
G01X01533Y00446D01*
G01X01533Y00446D02*
G01X01535Y00444D01*
G01X01535Y00444D02*
G01X01537Y00443D01*
G01X01537Y00443D02*
G01X01537Y00443D01*
G01X01537Y00443D02*
G01X01535Y00444D01*
G01X01535Y00444D02*
G01X01533Y00446D01*
G01X01533Y00446D02*
G01X01531Y00447D01*
G01X01531Y00447D02*
G01X01529Y00447D01*
G01X01529Y00447D02*
G01X01526Y00448D01*
G01X01526Y00448D02*
G01X01524Y00448D01*
G01X01524Y00448D02*
G01X01522Y00447D01*
G01X01522Y00447D02*
G01X01520Y00447D01*
G01X01520Y00447D02*
G01X01517Y00446D01*
G01X01517Y00446D02*
G01X01515Y00444D01*
G01X01515Y00444D02*
G01X01514Y00443D01*
G01X01514Y00443D02*
G01X01514Y00443D01*
G01X01514Y00443D02*
G01X01516Y00444D01*
G01X01516Y00444D02*
G01X01517Y00445D01*
G01X01517Y00445D02*
G01X01520Y00446D01*
G01X01520Y00446D02*
G01X01522Y00447D01*
G01X01522Y00447D02*
G01X01524Y00447D01*
G01X01524Y00447D02*
G01X01526Y00447D01*
G01X01526Y00447D02*
G01X01529Y00447D01*
G01X01529Y00447D02*
G01X01531Y00446D01*
G01X01531Y00446D02*
G01X01533Y00445D01*
G01X01533Y00445D02*
G01X01535Y00444D01*
G01X01535Y00444D02*
G01X01537Y00443D01*
G01X01537Y00443D02*
G01X01537Y00443D01*
G01X01537Y00443D02*
G01X01535Y00444D01*
G01X01535Y00444D02*
G01X01533Y00445D01*
G01X01533Y00445D02*
G01X01531Y00446D01*
G01X01531Y00446D02*
G01X01529Y00447D01*
G01X01529Y00447D02*
G01X01526Y00447D01*
G01X01526Y00447D02*
G01X01524Y00447D01*
G01X01524Y00447D02*
G01X01522Y00447D01*
G01X01522Y00447D02*
G01X01520Y00446D01*
G01X01520Y00446D02*
G01X01518Y00445D01*
G01X01518Y00445D02*
G01X01516Y00444D01*
G01X01516Y00444D02*
G01X01514Y00443D01*
G01X01514Y00443D02*
G01X01514Y00443D01*
G01X01514Y00443D02*
G01X01516Y00444D01*
G01X01516Y00444D02*
G01X01518Y00446D01*
G01X01518Y00446D02*
G01X01520Y00446D01*
G01X01520Y00446D02*
G01X01523Y00447D01*
G01X01523Y00447D02*
G01X01525Y00447D01*
G01X01525Y00447D02*
G01X01528Y00447D01*
G01X01528Y00447D02*
G01X01530Y00446D01*
G01X01530Y00446D02*
G01X01533Y00446D01*
G01X01533Y00446D02*
G01X01535Y00444D01*
G01X01535Y00444D02*
G01X01537Y00443D01*
G01X01537Y00443D02*
G01X01535Y00444D01*
G01X01535Y00444D02*
G01X01532Y00445D01*
G01X01532Y00445D02*
G01X01530Y00446D01*
G01X01530Y00446D02*
G01X01528Y00447D01*
G01X01528Y00447D02*
G01X01525Y00447D01*
G01X01525Y00447D02*
G01X01523Y00447D01*
G01X01523Y00447D02*
G01X01520Y00446D01*
G01X01520Y00446D02*
G01X01518Y00445D01*
G01X01518Y00445D02*
G01X01516Y00444D01*
G01X01516Y00444D02*
G01X01514Y00443D01*
G01X01514Y00443D02*
G01X01514Y00442D01*
G01X01514Y00442D02*
G01X01516Y00444D01*
G01X01516Y00444D02*
G01X01518Y00445D01*
G01X01518Y00445D02*
G01X01520Y00446D01*
G01X01520Y00446D02*
G01X01523Y00447D01*
G01X01523Y00447D02*
G01X01525Y00447D01*
G01X01525Y00447D02*
G01X01528Y00447D01*
G01X01528Y00447D02*
G01X01530Y00446D01*
G01X01530Y00446D02*
G01X01532Y00445D01*
G01X01532Y00445D02*
G01X01535Y00444D01*
G01X01535Y00444D02*
G01X01536Y00442D01*
G01X01536Y00442D02*
G01X01536Y00442D01*
G01X01536Y00442D02*
G01X01535Y00444D01*
G01X01535Y00444D02*
G01X01532Y00445D01*
G01X01532Y00445D02*
G01X01530Y00446D01*
G01X01530Y00446D02*
G01X01528Y00447D01*
G01X01528Y00447D02*
G01X01525Y00447D01*
G01X01525Y00447D02*
G01X01523Y00447D01*
G01X01523Y00447D02*
G01X01520Y00446D01*
G01X01520Y00446D02*
G01X01518Y00445D01*
G01X01518Y00445D02*
G01X01516Y00444D01*
G01X01516Y00444D02*
G01X01514Y00442D01*
G01X01514Y00442D02*
G01X01514Y00442D01*
G01X01514Y00442D02*
G01X01516Y00444D01*
G01X01516Y00444D02*
G01X01518Y00445D01*
G01X01518Y00445D02*
G01X01520Y00446D01*
G01X01520Y00446D02*
G01X01523Y00447D01*
G01X01523Y00447D02*
G01X01525Y00447D01*
G01X01525Y00447D02*
G01X01528Y00447D01*
G01X01528Y00447D02*
G01X01530Y00446D01*
G01X01530Y00446D02*
G01X01532Y00445D01*
G01X01532Y00445D02*
G01X01534Y00444D01*
G01X01534Y00444D02*
G01X01536Y00442D01*
G01X01536Y00442D02*
G01X01536Y00442D01*
G01X01536Y00442D02*
G01X01534Y00444D01*
G01X01534Y00444D02*
G01X01532Y00445D01*
G01X01532Y00445D02*
G01X01530Y00446D01*
G01X01530Y00446D02*
G01X01528Y00447D01*
G01X01528Y00447D02*
G01X01525Y00447D01*
G01X01525Y00447D02*
G01X01523Y00447D01*
G01X01523Y00447D02*
G01X01520Y00446D01*
G01X01520Y00446D02*
G01X01518Y00445D01*
G01X01518Y00445D02*
G01X01516Y00444D01*
G01X01516Y00444D02*
G01X01514Y00442D01*
G01X01514Y00442D02*
G01X01514Y00442D01*
G01X01514Y00442D02*
G01X01516Y00444D01*
G01X01516Y00444D02*
G01X01518Y00445D01*
G01X01518Y00445D02*
G01X01520Y00446D01*
G01X01520Y00446D02*
G01X01523Y00446D01*
G01X01523Y00446D02*
G01X01525Y00447D01*
G01X01525Y00447D02*
G01X01528Y00446D01*
G01X01528Y00446D02*
G01X01530Y00446D01*
G01X01530Y00446D02*
G01X01532Y00445D01*
G01X01532Y00445D02*
G01X01534Y00444D01*
G01X01534Y00444D02*
G01X01536Y00442D01*
G01X01536Y00442D02*
G01X01536Y00442D01*
G01X01536Y00442D02*
G01X01534Y00444D01*
G01X01534Y00444D02*
G01X01532Y00445D01*
G01X01532Y00445D02*
G01X01530Y00446D01*
G01X01530Y00446D02*
G01X01528Y00446D01*
G01X01528Y00446D02*
G01X01525Y00447D01*
G01X01525Y00447D02*
G01X01523Y00446D01*
G01X01523Y00446D02*
G01X01521Y00446D01*
G01X01521Y00446D02*
G01X01518Y00445D01*
G01X01518Y00445D02*
G01X01516Y00444D01*
G01X01516Y00444D02*
G01X01514Y00442D01*
G01X01514Y00442D02*
G01X01514Y00442D01*
G01X01514Y00442D02*
G01X01516Y00444D01*
G01X01516Y00444D02*
G01X01518Y00445D01*
G01X01518Y00445D02*
G01X01521Y00446D01*
G01X01521Y00446D02*
G01X01523Y00446D01*
G01X01523Y00446D02*
G01X01525Y00446D01*
G01X01525Y00446D02*
G01X01528Y00446D01*
G01X01528Y00446D02*
G01X01530Y00446D01*
G01X01530Y00446D02*
G01X01532Y00445D01*
G01X01532Y00445D02*
G01X01534Y00444D01*
G01X01534Y00444D02*
G01X01536Y00442D01*
G01X01536Y00442D02*
G01X01536Y00442D01*
G01X01536Y00442D02*
G01X01534Y00443D01*
G01X01534Y00443D02*
G01X01532Y00445D01*
G01X01532Y00445D02*
G01X01530Y00446D01*
G01X01530Y00446D02*
G01X01528Y00446D01*
G01X01528Y00446D02*
G01X01525Y00446D01*
G01X01525Y00446D02*
G01X01523Y00446D01*
G01X01523Y00446D02*
G01X01521Y00446D01*
G01X01521Y00446D02*
G01X01518Y00445D01*
G01X01518Y00445D02*
G01X01516Y00443D01*
G01X01516Y00443D02*
G01X01515Y00442D01*
G01X01515Y00442D02*
G01X01515Y00442D01*
G01X01515Y00442D02*
G01X01516Y00443D01*
G01X01516Y00443D02*
G01X01518Y00445D01*
G01X01518Y00445D02*
G01X01521Y00446D01*
G01X01521Y00446D02*
G01X01523Y00446D01*
G01X01523Y00446D02*
G01X01525Y00446D01*
G01X01525Y00446D02*
G01X01528Y00446D01*
G01X01528Y00446D02*
G01X01530Y00446D01*
G01X01530Y00446D02*
G01X01532Y00445D01*
G01X01532Y00445D02*
G01X01534Y00443D01*
G01X01534Y00443D02*
G01X01536Y00442D01*
G01X01536Y00442D02*
G01X01536Y00442D01*
G01X01536Y00442D02*
G01X01534Y00443D01*
G01X01534Y00443D02*
G01X01532Y00445D01*
G01X01532Y00445D02*
G01X01530Y00445D01*
G01X01530Y00445D02*
G01X01528Y00446D01*
G01X01528Y00446D02*
G01X01525Y00446D01*
G01X01525Y00446D02*
G01X01523Y00446D01*
G01X01523Y00446D02*
G01X01521Y00445D01*
G01X01521Y00445D02*
G01X01518Y00445D01*
G01X01518Y00445D02*
G01X01516Y00443D01*
G01X01516Y00443D02*
G01X01515Y00442D01*
G01X01515Y00442D02*
G01X01515Y00442D01*
G01X01515Y00442D02*
G01X01517Y00443D01*
G01X01517Y00443D02*
G01X01519Y00444D01*
G01X01519Y00444D02*
G01X01521Y00445D01*
G01X01521Y00445D02*
G01X01523Y00446D01*
G01X01523Y00446D02*
G01X01525Y00446D01*
G01X01525Y00446D02*
G01X01528Y00446D01*
G01X01528Y00446D02*
G01X01530Y00445D01*
G01X01530Y00445D02*
G01X01532Y00444D01*
G01X01532Y00444D02*
G01X01534Y00443D01*
G01X01534Y00443D02*
G01X01536Y00442D01*
G01X01536Y00442D02*
G01X01536Y00442D01*
G01X01536Y00442D02*
G01X01534Y00443D01*
G01X01534Y00443D02*
G01X01532Y00444D01*
G01X01532Y00444D02*
G01X01530Y00445D01*
G01X01530Y00445D02*
G01X01528Y00446D01*
G01X01528Y00446D02*
G01X01525Y00446D01*
G01X01525Y00446D02*
G01X01523Y00446D01*
G01X01523Y00446D02*
G01X01521Y00445D01*
G01X01521Y00445D02*
G01X01519Y00444D01*
G01X01519Y00444D02*
G01X01517Y00443D01*
G01X01517Y00443D02*
G01X01515Y00442D01*
G01X01515Y00442D02*
G01X01515Y00442D01*
G01X01515Y00442D02*
G01X01517Y00443D01*
G01X01517Y00443D02*
G01X01519Y00444D01*
G01X01519Y00444D02*
G01X01521Y00445D01*
G01X01521Y00445D02*
G01X01523Y00446D01*
G01X01523Y00446D02*
G01X01525Y00446D01*
G01X01525Y00446D02*
G01X01528Y00446D01*
G01X01528Y00446D02*
G01X01530Y00445D01*
G01X01530Y00445D02*
G01X01532Y00444D01*
G01X01532Y00444D02*
G01X01534Y00443D01*
G01X01534Y00443D02*
G01X01536Y00442D01*
G01X01536Y00442D02*
G01X01536Y00442D01*
G01X01536Y00442D02*
G01X01534Y00443D01*
G01X01534Y00443D02*
G01X01532Y00444D01*
G01X01532Y00444D02*
G01X01530Y00445D01*
G01X01530Y00445D02*
G01X01528Y00446D01*
G01X01528Y00446D02*
G01X01525Y00446D01*
G01X01525Y00446D02*
G01X01523Y00446D01*
G01X01523Y00446D02*
G01X01521Y00445D01*
G01X01521Y00445D02*
G01X01519Y00444D01*
G01X01519Y00444D02*
G01X01517Y00443D01*
G01X01517Y00443D02*
G01X01515Y00442D01*
G01X01515Y00442D02*
G01X01515Y00441D01*
G01X01515Y00441D02*
G01X01517Y00443D01*
G01X01517Y00443D02*
G01X01519Y00444D01*
G01X01519Y00444D02*
G01X01521Y00445D01*
G01X01521Y00445D02*
G01X01523Y00445D01*
G01X01523Y00445D02*
G01X01525Y00446D01*
G01X01525Y00446D02*
G01X01528Y00445D01*
G01X01528Y00445D02*
G01X01530Y00445D01*
G01X01530Y00445D02*
G01X01532Y00444D01*
G01X01532Y00444D02*
G01X01534Y00443D01*
G01X01534Y00443D02*
G01X01535Y00441D01*
G01X01535Y00441D02*
G01X01535Y00441D01*
G01X01535Y00441D02*
G01X01534Y00443D01*
G01X01534Y00443D02*
G01X01532Y00444D01*
G01X01532Y00444D02*
G01X01530Y00445D01*
G01X01530Y00445D02*
G01X01527Y00445D01*
G01X01527Y00445D02*
G01X01525Y00446D01*
G01X01525Y00446D02*
G01X01523Y00445D01*
G01X01523Y00445D02*
G01X01521Y00445D01*
G01X01521Y00445D02*
G01X01519Y00444D01*
G01X01519Y00444D02*
G01X01517Y00443D01*
G01X01517Y00443D02*
G01X01515Y00441D01*
G01X01515Y00441D02*
G01X01515Y00441D01*
G01X01515Y00441D02*
G01X01517Y00443D01*
G01X01517Y00443D02*
G01X01519Y00444D01*
G01X01519Y00444D02*
G01X01521Y00445D01*
G01X01521Y00445D02*
G01X01523Y00445D01*
G01X01523Y00445D02*
G01X01525Y00445D01*
G01X01525Y00445D02*
G01X01527Y00445D01*
G01X01527Y00445D02*
G01X01530Y00445D01*
G01X01530Y00445D02*
G01X01532Y00444D01*
G01X01532Y00444D02*
G01X01534Y00443D01*
G01X01534Y00443D02*
G01X01535Y00441D01*
G01X01535Y00441D02*
G01X01535Y00441D01*
G01X01535Y00441D02*
G01X01534Y00443D01*
G01X01534Y00443D02*
G01X01532Y00444D01*
G01X01532Y00444D02*
G01X01530Y00445D01*
G01X01530Y00445D02*
G01X01527Y00445D01*
G01X01527Y00445D02*
G01X01525Y00445D01*
G01X01525Y00445D02*
G01X01523Y00445D01*
G01X01523Y00445D02*
G01X01521Y00445D01*
G01X01521Y00445D02*
G01X01519Y00444D01*
G01X01519Y00444D02*
G01X01517Y00443D01*
G01X01517Y00443D02*
G01X01515Y00441D01*
G01X01515Y00441D02*
G01X01515Y00441D01*
G01X01515Y00441D02*
G01X01517Y00443D01*
G01X01517Y00443D02*
G01X01519Y00444D01*
G01X01519Y00444D02*
G01X01521Y00445D01*
G01X01521Y00445D02*
G01X01523Y00445D01*
G01X01523Y00445D02*
G01X01525Y00445D01*
G01X01525Y00445D02*
G01X01527Y00445D01*
G01X01527Y00445D02*
G01X01530Y00445D01*
G01X01530Y00445D02*
G01X01532Y00444D01*
G01X01532Y00444D02*
G01X01534Y00443D01*
G01X01534Y00443D02*
G01X01535Y00441D01*
G01X01535Y00441D02*
G01X01535Y00441D01*
G01X01535Y00441D02*
G01X01533Y00443D01*
G01X01533Y00443D02*
G01X01532Y00444D01*
G01X01532Y00444D02*
G01X01530Y00444D01*
G01X01530Y00444D02*
G01X01527Y00445D01*
G01X01527Y00445D02*
G01X01525Y00445D01*
G01X01525Y00445D02*
G01X01523Y00445D01*
G01X01523Y00445D02*
G01X01521Y00444D01*
G01X01521Y00444D02*
G01X01519Y00444D01*
G01X01519Y00444D02*
G01X01517Y00443D01*
G01X01517Y00443D02*
G01X01515Y00441D01*
G01X01515Y00441D02*
G01X01515Y00441D01*
G01X01515Y00441D02*
G01X01517Y00442D01*
G01X01517Y00442D02*
G01X01519Y00444D01*
G01X01519Y00444D02*
G01X01521Y00444D01*
G01X01521Y00444D02*
G01X01523Y00445D01*
G01X01523Y00445D02*
G01X01525Y00445D01*
G01X01525Y00445D02*
G01X01527Y00445D01*
G01X01527Y00445D02*
G01X01530Y00444D01*
G01X01530Y00444D02*
G01X01532Y00444D01*
G01X01532Y00444D02*
G01X01533Y00442D01*
G01X01533Y00442D02*
G01X01535Y00441D01*
G54D18*
G01X01661Y00487D02*
G01X01668Y00494D01*
G01X01668Y00494D02*
G01X01673Y00494D01*
G01X01673Y00494D02*
G01X01678Y00489D01*
G01X01678Y00489D02*
G01X01678Y00485D01*
G01X01678Y00485D02*
G01X01671Y00478D01*
G01X01676Y00473D02*
G01X01661Y00487D01*
G01X01653Y00484D02*
G01X01653Y00487D01*
G01X01653Y00487D02*
G01X01654Y00489D01*
G01X01654Y00489D02*
G01X01655Y00492D01*
G01X01655Y00492D02*
G01X01656Y00494D01*
G01X01656Y00494D02*
G01X01658Y00497D01*
G01X01658Y00497D02*
G01X01660Y00499D01*
G01X01660Y00499D02*
G01X01662Y00500D01*
G01X01662Y00500D02*
G01X01664Y00502D01*
G01X01664Y00502D02*
G01X01667Y00503D01*
G01X01667Y00503D02*
G01X01669Y00503D01*
G01X01669Y00503D02*
G01X01672Y00504D01*
G01X01672Y00504D02*
G01X01675Y00504D01*
G01X01675Y00504D02*
G01X01678Y00503D01*
G01X01678Y00503D02*
G01X01680Y00502D01*
G01X01680Y00502D02*
G01X01683Y00501D01*
G01X01683Y00501D02*
G01X01685Y00500D01*
G01X01685Y00500D02*
G01X01687Y00498D01*
G01X01687Y00498D02*
G01X01689Y00496D01*
G01X01689Y00496D02*
G01X01690Y00493D01*
G01X01690Y00493D02*
G01X01691Y00491D01*
G01X01691Y00491D02*
G01X01692Y00488D01*
G01X01692Y00488D02*
G01X01692Y00485D01*
G01X01692Y00485D02*
G01X01692Y00483D01*
G01X01692Y00483D02*
G01X01692Y00480D01*
G01X01692Y00480D02*
G01X01691Y00477D01*
G01X01691Y00477D02*
G01X01690Y00475D01*
G01X01690Y00475D02*
G01X01689Y00472D01*
G01X01689Y00472D02*
G01X01687Y00470D01*
G01X01687Y00470D02*
G01X01685Y00469D01*
G01X01685Y00469D02*
G01X01683Y00467D01*
G01X01683Y00467D02*
G01X01680Y00466D01*
G01X01680Y00466D02*
G01X01678Y00465D01*
G01X01678Y00465D02*
G01X01675Y00464D01*
G01X01675Y00464D02*
G01X01672Y00464D01*
G01X01672Y00464D02*
G01X01669Y00465D01*
G01X01669Y00465D02*
G01X01667Y00465D01*
G01X01667Y00465D02*
G01X01664Y00466D01*
G01X01664Y00466D02*
G01X01662Y00468D01*
G01X01662Y00468D02*
G01X01660Y00469D01*
G01X01660Y00469D02*
G01X01658Y00471D01*
G01X01658Y00471D02*
G01X01656Y00474D01*
G01X01656Y00474D02*
G01X01655Y00476D01*
G01X01655Y00476D02*
G01X01654Y00479D01*
G01X01654Y00479D02*
G01X01653Y00481D01*
G01X01653Y00481D02*
G01X01653Y00484D01*
G01X01676Y00482D02*
G01X01685Y00482D01*
G01X01893Y00484D02*
G01X01899Y00478D01*
G01X01899Y00478D02*
G01X01911Y00478D01*
G01X01911Y00478D02*
G01X01917Y00484D01*
G01X01930Y00478D02*
G01X01954Y00502D01*
G01X01954Y00502D02*
G01X01954Y00508D01*
G01X01954Y00508D02*
G01X01948Y00514D01*
G01X01948Y00514D02*
G01X01936Y00514D01*
G01X01936Y00514D02*
G01X01930Y00508D01*
G01X01917Y00508D02*
G01X01911Y00514D01*
G01X01911Y00514D02*
G01X01899Y00514D01*
G01X01899Y00514D02*
G01X01893Y00508D01*
G01X01893Y00508D02*
G01X01893Y00484D01*
G01X01930Y00478D02*
G01X01954Y00478D01*
G01X02210Y00363D02*
G01X02216Y00351D01*
G01X02216Y00351D02*
G01X02228Y00339D01*
G01X02228Y00339D02*
G01X02228Y00357D01*
G01X02228Y00357D02*
G01X02234Y00363D01*
G01X02234Y00363D02*
G01X02240Y00363D01*
G01X02240Y00363D02*
G01X02246Y00357D01*
G01X02246Y00357D02*
G01X02246Y00345D01*
G01X02246Y00345D02*
G01X02240Y00339D01*
G01X02240Y00339D02*
G01X02228Y00339D01*
G01X02228Y00327D02*
G01X02234Y00321D01*
G01X02234Y00321D02*
G01X02234Y00303D01*
G01X02246Y00303D02*
G01X02210Y00303D01*
G01X02210Y00303D02*
G01X02210Y00321D01*
G01X02210Y00321D02*
G01X02216Y00327D01*
G01X02216Y00327D02*
G01X02228Y00327D01*
G01X02234Y00315D02*
G01X02246Y00327D01*
G01X02032Y00264D02*
G01X02008Y00264D01*
G01X02020Y00264D02*
G01X02020Y00300D01*
G01X02020Y00300D02*
G01X02008Y00288D01*
G01X01995Y00294D02*
G01X01989Y00300D01*
G01X01989Y00300D02*
G01X01977Y00300D01*
G01X01977Y00300D02*
G01X01971Y00294D01*
G01X01971Y00294D02*
G01X01971Y00270D01*
G01X01971Y00270D02*
G01X01977Y00264D01*
G01X01977Y00264D02*
G01X01989Y00264D01*
G01X01989Y00264D02*
G01X01995Y00270D01*
G01X01995Y00270D02*
G01X01995Y00294D01*
G01X01983Y00276D02*
G01X01995Y00264D01*
G01X01744Y00112D02*
G01X01738Y00118D01*
G01X01738Y00118D02*
G01X01726Y00118D01*
G01X01726Y00118D02*
G01X01720Y00112D01*
G01X01720Y00112D02*
G01X01720Y00106D01*
G01X01720Y00106D02*
G01X01726Y00100D01*
G01X01726Y00100D02*
G01X01738Y00100D01*
G01X01738Y00100D02*
G01X01744Y00094D01*
G01X01744Y00094D02*
G01X01744Y00088D01*
G01X01744Y00088D02*
G01X01738Y00082D01*
G01X01738Y00082D02*
G01X01726Y00082D01*
G01X01726Y00082D02*
G01X01720Y00088D01*
G01X01720Y00088D02*
G01X01720Y00094D01*
G01X01720Y00094D02*
G01X01726Y00100D01*
G01X01738Y00100D02*
G01X01744Y00106D01*
G01X01744Y00106D02*
G01X01744Y00112D01*
G01X01708Y00112D02*
G01X01702Y00118D01*
G01X01702Y00118D02*
G01X01690Y00118D01*
G01X01690Y00118D02*
G01X01684Y00112D01*
G01X01684Y00112D02*
G01X01684Y00088D01*
G01X01684Y00088D02*
G01X01690Y00082D01*
G01X01690Y00082D02*
G01X01702Y00082D01*
G01X01702Y00082D02*
G01X01708Y00088D01*
G01X01301Y00214D02*
G01X01277Y00214D01*
G01X01289Y00214D02*
G01X01289Y00250D01*
G01X01289Y00250D02*
G01X01277Y00238D01*
G01X01264Y00244D02*
G01X01258Y00250D01*
G01X01258Y00250D02*
G01X01246Y00250D01*
G01X01246Y00250D02*
G01X01240Y00244D01*
G01X01240Y00244D02*
G01X01240Y00220D01*
G01X01240Y00220D02*
G01X01246Y00214D01*
G01X01246Y00214D02*
G01X01258Y00214D01*
G01X01258Y00214D02*
G01X01264Y00220D01*
G01X01170Y00222D02*
G01X01164Y00216D01*
G01X01164Y00216D02*
G01X01152Y00216D01*
G01X01152Y00216D02*
G01X01146Y00222D01*
G01X01134Y00216D02*
G01X01110Y00216D01*
G01X01122Y00216D02*
G01X01122Y00252D01*
G01X01122Y00252D02*
G01X01110Y00240D01*
G01X01097Y00246D02*
G01X01091Y00252D01*
G01X01091Y00252D02*
G01X01079Y00252D01*
G01X01079Y00252D02*
G01X01073Y00246D01*
G01X01073Y00246D02*
G01X01073Y00222D01*
G01X01073Y00222D02*
G01X01079Y00216D01*
G01X01079Y00216D02*
G01X01091Y00216D01*
G01X01091Y00216D02*
G01X01097Y00222D01*
G01X01146Y00246D02*
G01X01152Y00252D01*
G01X01152Y00252D02*
G01X01164Y00252D01*
G01X01164Y00252D02*
G01X01170Y00246D01*
G01X01170Y00246D02*
G01X01170Y00240D01*
G01X01170Y00240D02*
G01X01164Y00234D01*
G01X01164Y00234D02*
G01X01170Y00228D01*
G01X01170Y00228D02*
G01X01170Y00222D01*
G01X01164Y00234D02*
G01X01158Y00234D01*
G01X01161Y00318D02*
G01X01161Y00354D01*
G01X01161Y00354D02*
G01X01149Y00342D01*
G01X01112Y00354D02*
G01X01112Y00318D01*
G01X01112Y00318D02*
G01X01136Y00318D01*
G01X01149Y00318D02*
G01X01173Y00318D01*
G01X00751Y00341D02*
G01X00745Y00335D01*
G01X00745Y00335D02*
G01X00733Y00335D01*
G01X00733Y00335D02*
G01X00727Y00341D01*
G01X00727Y00341D02*
G01X00751Y00365D01*
G01X00751Y00365D02*
G01X00751Y00341D01*
G01X00727Y00341D02*
G01X00727Y00365D01*
G01X00727Y00365D02*
G01X00733Y00371D01*
G01X00733Y00371D02*
G01X00745Y00371D01*
G01X00745Y00371D02*
G01X00751Y00365D01*
G01X00702Y00371D02*
G01X00702Y00335D01*
G01X00690Y00335D02*
G01X00714Y00335D01*
G01X00677Y00341D02*
G01X00671Y00335D01*
G01X00671Y00335D02*
G01X00659Y00335D01*
G01X00659Y00335D02*
G01X00653Y00341D01*
G01X00653Y00341D02*
G01X00653Y00365D01*
G01X00653Y00365D02*
G01X00659Y00371D01*
G01X00659Y00371D02*
G01X00671Y00371D01*
G01X00671Y00371D02*
G01X00677Y00365D01*
G01X00690Y00359D02*
G01X00702Y00371D01*
G01X00666Y00284D02*
G01X00666Y00248D01*
G01X00654Y00248D02*
G01X00678Y00248D01*
G01X00641Y00248D02*
G01X00629Y00260D01*
G01X00635Y00260D02*
G01X00617Y00260D01*
G01X00617Y00248D02*
G01X00617Y00284D01*
G01X00617Y00284D02*
G01X00635Y00284D01*
G01X00635Y00284D02*
G01X00641Y00278D01*
G01X00641Y00278D02*
G01X00641Y00266D01*
G01X00641Y00266D02*
G01X00635Y00260D01*
G01X00654Y00272D02*
G01X00666Y00284D01*
G01X00660Y00192D02*
G01X00654Y00186D01*
G01X00660Y00192D02*
G01X00672Y00192D01*
G01X00672Y00192D02*
G01X00678Y00186D01*
G01X00678Y00186D02*
G01X00678Y00180D01*
G01X00678Y00180D02*
G01X00654Y00156D01*
G01X00654Y00156D02*
G01X00678Y00156D01*
G01X00641Y00156D02*
G01X00629Y00168D01*
G01X00635Y00168D02*
G01X00617Y00168D01*
G01X00617Y00156D02*
G01X00617Y00192D01*
G01X00617Y00192D02*
G01X00635Y00192D01*
G01X00635Y00192D02*
G01X00641Y00186D01*
G01X00641Y00186D02*
G01X00641Y00174D01*
G01X00641Y00174D02*
G01X00635Y00168D01*
G01X01010Y00520D02*
G01X01016Y00514D01*
G01X01016Y00514D02*
G01X01028Y00514D01*
G01X01028Y00514D02*
G01X01034Y00520D01*
G01X01047Y00532D02*
G01X01071Y00532D01*
G01X01065Y00514D02*
G01X01065Y00550D01*
G01X01065Y00550D02*
G01X01047Y00532D01*
G01X01034Y00544D02*
G01X01028Y00550D01*
G01X01028Y00550D02*
G01X01016Y00550D01*
G01X01016Y00550D02*
G01X01010Y00544D01*
G01X01010Y00544D02*
G01X01010Y00520D01*
G01X01123Y00525D02*
G01X01129Y00519D01*
G01X01129Y00519D02*
G01X01141Y00519D01*
G01X01141Y00519D02*
G01X01147Y00525D01*
G01X01159Y00525D02*
G01X01165Y00519D01*
G01X01165Y00519D02*
G01X01177Y00519D01*
G01X01177Y00519D02*
G01X01183Y00525D01*
G01X01183Y00525D02*
G01X01183Y00531D01*
G01X01183Y00531D02*
G01X01177Y00537D01*
G01X01177Y00537D02*
G01X01171Y00537D01*
G01X01177Y00537D02*
G01X01183Y00543D01*
G01X01183Y00543D02*
G01X01183Y00549D01*
G01X01183Y00549D02*
G01X01177Y00555D01*
G01X01177Y00555D02*
G01X01165Y00555D01*
G01X01165Y00555D02*
G01X01159Y00549D01*
G01X01147Y00549D02*
G01X01141Y00555D01*
G01X01141Y00555D02*
G01X01129Y00555D01*
G01X01129Y00555D02*
G01X01123Y00549D01*
G01X01123Y00549D02*
G01X01123Y00525D01*
G01X01301Y00640D02*
G01X01307Y00634D01*
G01X01307Y00634D02*
G01X01319Y00634D01*
G01X01319Y00634D02*
G01X01325Y00640D01*
G01X01338Y00634D02*
G01X01362Y00634D01*
G01X01350Y00634D02*
G01X01350Y00670D01*
G01X01350Y00670D02*
G01X01338Y00658D01*
G01X01325Y00664D02*
G01X01319Y00670D01*
G01X01319Y00670D02*
G01X01307Y00670D01*
G01X01307Y00670D02*
G01X01301Y00664D01*
G01X01301Y00664D02*
G01X01301Y00640D01*
G01X01375Y00634D02*
G01X01399Y00658D01*
G01X01399Y00658D02*
G01X01399Y00664D01*
G01X01399Y00664D02*
G01X01393Y00670D01*
G01X01393Y00670D02*
G01X01381Y00670D01*
G01X01381Y00670D02*
G01X01375Y00664D01*
G01X01375Y00634D02*
G01X01399Y00634D01*
G01X01403Y00761D02*
G01X01403Y00779D01*
G01X01403Y00779D02*
G01X01397Y00785D01*
G01X01397Y00785D02*
G01X01385Y00785D01*
G01X01385Y00785D02*
G01X01379Y00779D01*
G01X01379Y00779D02*
G01X01379Y00761D01*
G01X01379Y00761D02*
G01X01415Y00761D01*
G01X01471Y00761D02*
G01X01471Y00779D01*
G01X01471Y00779D02*
G01X01477Y00785D01*
G01X01477Y00785D02*
G01X01489Y00785D01*
G01X01489Y00785D02*
G01X01495Y00779D01*
G01X01495Y00779D02*
G01X01495Y00761D01*
G01X01507Y00761D02*
G01X01471Y00761D01*
G01X01579Y00761D02*
G01X01579Y00779D01*
G01X01579Y00779D02*
G01X01585Y00785D01*
G01X01585Y00785D02*
G01X01597Y00785D01*
G01X01597Y00785D02*
G01X01603Y00779D01*
G01X01603Y00779D02*
G01X01603Y00761D01*
G01X01615Y00761D02*
G01X01579Y00761D01*
G01X01679Y00761D02*
G01X01679Y00779D01*
G01X01679Y00779D02*
G01X01685Y00785D01*
G01X01685Y00785D02*
G01X01697Y00785D01*
G01X01697Y00785D02*
G01X01703Y00779D01*
G01X01703Y00779D02*
G01X01703Y00761D01*
G01X01715Y00761D02*
G01X01679Y00761D01*
G01X01779Y00761D02*
G01X01779Y00779D01*
G01X01779Y00779D02*
G01X01785Y00785D01*
G01X01785Y00785D02*
G01X01797Y00785D01*
G01X01797Y00785D02*
G01X01803Y00779D01*
G01X01803Y00779D02*
G01X01803Y00761D01*
G01X01815Y00761D02*
G01X01779Y00761D01*
G01X01779Y00798D02*
G01X01779Y00816D01*
G01X01779Y00816D02*
G01X01785Y00822D01*
G01X01785Y00822D02*
G01X01809Y00822D01*
G01X01809Y00822D02*
G01X01815Y00816D01*
G01X01815Y00816D02*
G01X01815Y00798D01*
G01X01815Y00798D02*
G01X01779Y00798D01*
G01X01715Y00798D02*
G01X01715Y00816D01*
G01X01715Y00816D02*
G01X01709Y00822D01*
G01X01709Y00822D02*
G01X01685Y00822D01*
G01X01685Y00822D02*
G01X01679Y00816D01*
G01X01679Y00816D02*
G01X01679Y00798D01*
G01X01679Y00798D02*
G01X01715Y00798D01*
G01X01709Y00834D02*
G01X01715Y00840D01*
G01X01715Y00840D02*
G01X01715Y00852D01*
G01X01715Y00852D02*
G01X01709Y00858D01*
G01X01709Y00858D02*
G01X01703Y00858D01*
G01X01703Y00858D02*
G01X01697Y00852D01*
G01X01697Y00852D02*
G01X01697Y00846D01*
G01X01697Y00852D02*
G01X01691Y00858D01*
G01X01691Y00858D02*
G01X01685Y00858D01*
G01X01685Y00858D02*
G01X01679Y00852D01*
G01X01679Y00852D02*
G01X01679Y00840D01*
G01X01679Y00840D02*
G01X01685Y00834D01*
G01X01615Y00834D02*
G01X01615Y00858D01*
G01X01615Y00834D02*
G01X01591Y00858D01*
G01X01591Y00858D02*
G01X01585Y00858D01*
G01X01585Y00858D02*
G01X01579Y00852D01*
G01X01579Y00852D02*
G01X01579Y00840D01*
G01X01579Y00840D02*
G01X01585Y00834D01*
G01X01585Y00822D02*
G01X01579Y00816D01*
G01X01579Y00816D02*
G01X01579Y00798D01*
G01X01579Y00798D02*
G01X01615Y00798D01*
G01X01615Y00798D02*
G01X01615Y00816D01*
G01X01615Y00816D02*
G01X01609Y00822D01*
G01X01609Y00822D02*
G01X01585Y00822D01*
G01X01507Y00816D02*
G01X01507Y00798D01*
G01X01507Y00798D02*
G01X01471Y00798D01*
G01X01471Y00798D02*
G01X01471Y00816D01*
G01X01471Y00816D02*
G01X01477Y00822D01*
G01X01477Y00822D02*
G01X01501Y00822D01*
G01X01501Y00822D02*
G01X01507Y00816D01*
G01X01507Y00834D02*
G01X01507Y00858D01*
G01X01507Y00846D02*
G01X01471Y00846D01*
G01X01471Y00846D02*
G01X01483Y00834D01*
G01X01415Y00840D02*
G01X01409Y00834D01*
G01X01409Y00834D02*
G01X01385Y00858D01*
G01X01385Y00858D02*
G01X01409Y00858D01*
G01X01409Y00858D02*
G01X01415Y00852D01*
G01X01415Y00852D02*
G01X01415Y00840D01*
G01X01409Y00834D02*
G01X01385Y00834D01*
G01X01385Y00834D02*
G01X01379Y00840D01*
G01X01379Y00840D02*
G01X01379Y00852D01*
G01X01379Y00852D02*
G01X01385Y00858D01*
G01X01315Y00852D02*
G01X01315Y00840D01*
G01X01315Y00840D02*
G01X01309Y00834D01*
G01X01309Y00834D02*
G01X01297Y00834D01*
G01X01297Y00834D02*
G01X01297Y00852D01*
G01X01297Y00852D02*
G01X01303Y00858D01*
G01X01303Y00858D02*
G01X01309Y00858D01*
G01X01309Y00858D02*
G01X01315Y00852D01*
G01X01297Y00834D02*
G01X01285Y00846D01*
G01X01285Y00846D02*
G01X01279Y00858D01*
G01X01215Y00858D02*
G01X01215Y00834D01*
G01X01215Y00834D02*
G01X01191Y00858D01*
G01X01191Y00858D02*
G01X01185Y00858D01*
G01X01185Y00858D02*
G01X01179Y00852D01*
G01X01179Y00852D02*
G01X01179Y00840D01*
G01X01179Y00840D02*
G01X01185Y00834D01*
G01X01179Y00822D02*
G01X01179Y00798D01*
G01X01179Y00798D02*
G01X01215Y00798D01*
G01X01215Y00798D02*
G01X01215Y00822D01*
G01X01197Y00810D02*
G01X01197Y00798D01*
G01X01197Y00785D02*
G01X01203Y00779D01*
G01X01203Y00779D02*
G01X01203Y00761D01*
G01X01215Y00761D02*
G01X01179Y00761D01*
G01X01179Y00761D02*
G01X01179Y00779D01*
G01X01179Y00779D02*
G01X01185Y00785D01*
G01X01185Y00785D02*
G01X01197Y00785D01*
G01X01115Y00798D02*
G01X01079Y00798D01*
G01X01079Y00798D02*
G01X01079Y00822D01*
G01X01079Y00834D02*
G01X01079Y00858D01*
G01X01079Y00858D02*
G01X01085Y00858D01*
G01X01085Y00858D02*
G01X01109Y00834D01*
G01X01109Y00834D02*
G01X01115Y00834D01*
G01X01097Y00810D02*
G01X01097Y00798D01*
G01X01097Y00785D02*
G01X01103Y00779D01*
G01X01103Y00779D02*
G01X01103Y00761D01*
G01X01115Y00761D02*
G01X01079Y00761D01*
G01X01079Y00761D02*
G01X01079Y00779D01*
G01X01079Y00779D02*
G01X01085Y00785D01*
G01X01085Y00785D02*
G01X01097Y00785D01*
G01X01015Y00798D02*
G01X00979Y00798D01*
G01X00979Y00798D02*
G01X00979Y00822D01*
G01X00997Y00810D02*
G01X00997Y00798D01*
G01X00997Y00785D02*
G01X00985Y00785D01*
G01X00985Y00785D02*
G01X00979Y00779D01*
G01X00979Y00779D02*
G01X00979Y00761D01*
G01X00979Y00761D02*
G01X01015Y00761D01*
G01X01003Y00761D02*
G01X01003Y00779D01*
G01X01003Y00779D02*
G01X00997Y00785D01*
G01X00915Y00798D02*
G01X00879Y00798D01*
G01X00879Y00798D02*
G01X00879Y00822D01*
G01X00879Y00834D02*
G01X00897Y00834D01*
G01X00897Y00834D02*
G01X00891Y00846D01*
G01X00891Y00846D02*
G01X00891Y00852D01*
G01X00891Y00852D02*
G01X00897Y00858D01*
G01X00897Y00858D02*
G01X00909Y00858D01*
G01X00909Y00858D02*
G01X00915Y00852D01*
G01X00915Y00852D02*
G01X00915Y00840D01*
G01X00915Y00840D02*
G01X00909Y00834D01*
G01X00879Y00834D02*
G01X00879Y00858D01*
G01X00815Y00852D02*
G01X00779Y00852D01*
G01X00779Y00852D02*
G01X00797Y00834D01*
G01X00797Y00834D02*
G01X00797Y00858D01*
G01X00779Y00822D02*
G01X00779Y00798D01*
G01X00779Y00798D02*
G01X00815Y00798D01*
G01X00797Y00798D02*
G01X00797Y00810D01*
G01X00797Y00785D02*
G01X00785Y00785D01*
G01X00785Y00785D02*
G01X00779Y00779D01*
G01X00779Y00779D02*
G01X00779Y00761D01*
G01X00779Y00761D02*
G01X00815Y00761D01*
G01X00803Y00761D02*
G01X00803Y00779D01*
G01X00803Y00779D02*
G01X00797Y00785D01*
G01X00879Y00779D02*
G01X00879Y00761D01*
G01X00879Y00761D02*
G01X00915Y00761D01*
G01X00903Y00761D02*
G01X00903Y00779D01*
G01X00903Y00779D02*
G01X00897Y00785D01*
G01X00897Y00785D02*
G01X00885Y00785D01*
G01X00885Y00785D02*
G01X00879Y00779D01*
G01X00897Y00798D02*
G01X00897Y00810D01*
G01X00985Y00846D02*
G01X00997Y00834D01*
G01X00997Y00834D02*
G01X00997Y00852D01*
G01X00997Y00852D02*
G01X01003Y00858D01*
G01X01003Y00858D02*
G01X01009Y00858D01*
G01X01009Y00858D02*
G01X01015Y00852D01*
G01X01015Y00852D02*
G01X01015Y00840D01*
G01X01015Y00840D02*
G01X01009Y00834D01*
G01X01009Y00834D02*
G01X00997Y00834D01*
G01X00985Y00846D02*
G01X00979Y00858D01*
G01X00721Y00863D02*
G01X00721Y00839D01*
G01X00721Y00851D02*
G01X00685Y00851D01*
G01X00685Y00851D02*
G01X00697Y00839D01*
G01X00685Y00827D02*
G01X00685Y00803D01*
G01X00685Y00803D02*
G01X00721Y00803D01*
G01X00703Y00803D02*
G01X00703Y00815D01*
G01X00703Y00790D02*
G01X00691Y00790D01*
G01X00691Y00790D02*
G01X00685Y00784D01*
G01X00685Y00784D02*
G01X00685Y00766D01*
G01X00685Y00766D02*
G01X00721Y00766D01*
G01X00709Y00766D02*
G01X00709Y00784D01*
G01X00709Y00784D02*
G01X00703Y00790D01*
G01X00621Y00803D02*
G01X00585Y00803D01*
G01X00585Y00803D02*
G01X00585Y00827D01*
G01X00591Y00839D02*
G01X00585Y00845D01*
G01X00585Y00845D02*
G01X00585Y00857D01*
G01X00585Y00857D02*
G01X00591Y00863D01*
G01X00591Y00863D02*
G01X00615Y00839D01*
G01X00615Y00839D02*
G01X00621Y00845D01*
G01X00621Y00845D02*
G01X00621Y00857D01*
G01X00621Y00857D02*
G01X00615Y00863D01*
G01X00615Y00863D02*
G01X00591Y00863D01*
G01X00591Y00839D02*
G01X00615Y00839D01*
G01X00603Y00815D02*
G01X00603Y00803D01*
G01X00603Y00790D02*
G01X00609Y00784D01*
G01X00609Y00784D02*
G01X00609Y00766D01*
G01X00621Y00766D02*
G01X00585Y00766D01*
G01X00585Y00766D02*
G01X00585Y00784D01*
G01X00585Y00784D02*
G01X00591Y00790D01*
G01X00591Y00790D02*
G01X00603Y00790D01*
G01X00521Y00790D02*
G01X00509Y00778D01*
G01X00509Y00784D02*
G01X00509Y00766D01*
G01X00521Y00766D02*
G01X00485Y00766D01*
G01X00485Y00766D02*
G01X00485Y00784D01*
G01X00485Y00784D02*
G01X00491Y00790D01*
G01X00491Y00790D02*
G01X00503Y00790D01*
G01X00503Y00790D02*
G01X00509Y00784D01*
G01X00503Y00803D02*
G01X00503Y00815D01*
G01X00485Y00803D02*
G01X00521Y00803D01*
G01X00521Y00803D02*
G01X00521Y00827D01*
G01X00521Y00839D02*
G01X00485Y00839D01*
G01X00485Y00839D02*
G01X00485Y00863D01*
G01X00503Y00851D02*
G01X00503Y00839D01*
G01X00485Y00827D02*
G01X00485Y00803D01*
G01X00421Y00803D02*
G01X00421Y00827D01*
G01X00415Y00839D02*
G01X00421Y00845D01*
G01X00421Y00845D02*
G01X00421Y00857D01*
G01X00421Y00857D02*
G01X00415Y00863D01*
G01X00415Y00863D02*
G01X00409Y00863D01*
G01X00409Y00863D02*
G01X00403Y00857D01*
G01X00403Y00857D02*
G01X00403Y00845D01*
G01X00403Y00845D02*
G01X00397Y00839D01*
G01X00397Y00839D02*
G01X00391Y00839D01*
G01X00391Y00839D02*
G01X00385Y00845D01*
G01X00385Y00845D02*
G01X00385Y00857D01*
G01X00385Y00857D02*
G01X00391Y00863D01*
G01X00321Y00857D02*
G01X00321Y00845D01*
G01X00321Y00845D02*
G01X00315Y00839D01*
G01X00315Y00827D02*
G01X00321Y00827D01*
G01X00321Y00827D02*
G01X00321Y00821D01*
G01X00321Y00821D02*
G01X00315Y00821D01*
G01X00315Y00821D02*
G01X00315Y00827D01*
G01X00315Y00808D02*
G01X00321Y00802D01*
G01X00321Y00802D02*
G01X00321Y00790D01*
G01X00321Y00790D02*
G01X00315Y00784D01*
G01X00303Y00796D02*
G01X00303Y00802D01*
G01X00303Y00802D02*
G01X00309Y00808D01*
G01X00309Y00808D02*
G01X00315Y00808D01*
G01X00303Y00802D02*
G01X00297Y00808D01*
G01X00297Y00808D02*
G01X00291Y00808D01*
G01X00291Y00808D02*
G01X00285Y00802D01*
G01X00285Y00802D02*
G01X00285Y00790D01*
G01X00285Y00790D02*
G01X00291Y00784D01*
G01X00303Y00771D02*
G01X00303Y00747D01*
G01X00291Y00759D02*
G01X00315Y00759D01*
G01X00385Y00766D02*
G01X00385Y00784D01*
G01X00385Y00784D02*
G01X00391Y00790D01*
G01X00391Y00790D02*
G01X00403Y00790D01*
G01X00403Y00790D02*
G01X00409Y00784D01*
G01X00409Y00784D02*
G01X00409Y00766D01*
G01X00409Y00778D02*
G01X00421Y00790D01*
G01X00421Y00803D02*
G01X00385Y00803D01*
G01X00385Y00803D02*
G01X00385Y00827D01*
G01X00403Y00815D02*
G01X00403Y00803D01*
G01X00385Y00766D02*
G01X00421Y00766D01*
G01X00423Y00729D02*
G01X00399Y00729D01*
G01X00399Y00729D02*
G01X00393Y00723D01*
G01X00393Y00723D02*
G01X00393Y00711D01*
G01X00393Y00711D02*
G01X00399Y00705D01*
G01X00399Y00705D02*
G01X00405Y00705D01*
G01X00405Y00705D02*
G01X00411Y00711D01*
G01X00411Y00711D02*
G01X00411Y00729D01*
G01X00423Y00729D02*
G01X00429Y00723D01*
G01X00429Y00723D02*
G01X00429Y00711D01*
G01X00429Y00711D02*
G01X00423Y00705D01*
G01X00423Y00692D02*
G01X00429Y00686D01*
G01X00429Y00686D02*
G01X00429Y00674D01*
G01X00429Y00674D02*
G01X00423Y00668D01*
G01X00423Y00668D02*
G01X00399Y00668D01*
G01X00399Y00668D02*
G01X00393Y00674D01*
G01X00393Y00674D02*
G01X00393Y00686D01*
G01X00393Y00686D02*
G01X00399Y00692D01*
G01X00591Y00693D02*
G01X00591Y00663D01*
G01X00591Y00663D02*
G01X00597Y00657D01*
G01X00597Y00657D02*
G01X00609Y00657D01*
G01X00609Y00657D02*
G01X00615Y00663D01*
G01X00615Y00663D02*
G01X00615Y00693D01*
G01X00627Y00681D02*
G01X00639Y00693D01*
G01X00639Y00693D02*
G01X00639Y00657D01*
G01X00627Y00657D02*
G01X00651Y00657D01*
G01X00215Y00815D02*
G01X00191Y00815D01*
G01X00203Y00803D02*
G01X00203Y00827D01*
G01X00203Y00839D02*
G01X00185Y00839D01*
G01X00185Y00839D02*
G01X00185Y00863D01*
G01X00197Y00857D02*
G01X00197Y00851D01*
G01X00197Y00851D02*
G01X00203Y00839D01*
G01X00215Y00839D02*
G01X00221Y00845D01*
G01X00221Y00845D02*
G01X00221Y00857D01*
G01X00221Y00857D02*
G01X00215Y00863D01*
G01X00215Y00863D02*
G01X00203Y00863D01*
G01X00203Y00863D02*
G01X00197Y00857D01*
G01X00285Y00857D02*
G01X00285Y00845D01*
G01X00285Y00845D02*
G01X00291Y00839D01*
G01X00303Y00851D02*
G01X00303Y00857D01*
G01X00303Y00857D02*
G01X00309Y00863D01*
G01X00309Y00863D02*
G01X00315Y00863D01*
G01X00315Y00863D02*
G01X00321Y00857D01*
G01X00303Y00857D02*
G01X00297Y00863D01*
G01X00297Y00863D02*
G01X00291Y00863D01*
G01X00291Y00863D02*
G01X00285Y00857D01*
G01X00121Y00857D02*
G01X00121Y00839D01*
G01X00121Y00839D02*
G01X00085Y00839D01*
G01X00085Y00839D02*
G01X00085Y00857D01*
G01X00085Y00857D02*
G01X00091Y00863D01*
G01X00091Y00863D02*
G01X00115Y00863D01*
G01X00115Y00863D02*
G01X00121Y00857D01*
G01X00121Y00827D02*
G01X00085Y00827D01*
G01X00085Y00803D02*
G01X00121Y00827D01*
G01X00121Y00803D02*
G01X00085Y00803D01*
G01X00091Y00790D02*
G01X00085Y00784D01*
G01X00085Y00784D02*
G01X00085Y00772D01*
G01X00085Y00772D02*
G01X00091Y00766D01*
G01X00091Y00766D02*
G01X00115Y00766D01*
G01X00115Y00766D02*
G01X00121Y00772D01*
G01X00121Y00772D02*
G01X00121Y00784D01*
G01X00121Y00784D02*
G01X00115Y00790D01*
G01X00115Y00790D02*
G01X00103Y00790D01*
G01X00103Y00790D02*
G01X00103Y00778D01*
G01X00069Y00738D02*
G01X00069Y00714D01*
G01X00069Y00726D02*
G01X00033Y00726D01*
G01X00033Y00726D02*
G01X00045Y00714D01*
G01X00069Y00701D02*
G01X00069Y00677D01*
G01X00069Y00689D02*
G01X00033Y00689D01*
G01X00033Y00689D02*
G01X00045Y00677D01*
G01X00039Y00664D02*
G01X00033Y00658D01*
G01X00033Y00658D02*
G01X00033Y00646D01*
G01X00033Y00646D02*
G01X00039Y00640D01*
G01X00039Y00640D02*
G01X00063Y00640D01*
G01X00063Y00640D02*
G01X00069Y00646D01*
G01X00069Y00646D02*
G01X00069Y00658D01*
G01X00069Y00658D02*
G01X00063Y00664D01*
G01X01279Y00761D02*
G01X01279Y00779D01*
G01X01279Y00779D02*
G01X01285Y00785D01*
G01X01285Y00785D02*
G01X01297Y00785D01*
G01X01297Y00785D02*
G01X01303Y00779D01*
G01X01303Y00779D02*
G01X01303Y00761D01*
G01X01315Y00761D02*
G01X01279Y00761D01*
G01X01279Y00798D02*
G01X01315Y00798D01*
G01X01315Y00798D02*
G01X01315Y00822D01*
G01X01297Y00810D02*
G01X01297Y00798D01*
G01X01279Y00798D02*
G01X01279Y00822D01*
G01X01379Y00816D02*
G01X01379Y00798D01*
G01X01379Y00798D02*
G01X01415Y00798D01*
G01X01415Y00798D02*
G01X01415Y00816D01*
G01X01415Y00816D02*
G01X01409Y00822D01*
G01X01409Y00822D02*
G01X01385Y00822D01*
G01X01385Y00822D02*
G01X01379Y00816D01*
G01X01779Y00852D02*
G01X01797Y00834D01*
G01X01797Y00834D02*
G01X01797Y00858D01*
G01X01779Y00852D02*
G01X01815Y00852D01*
G01X01879Y00858D02*
G01X01879Y00834D01*
G01X01879Y00834D02*
G01X01897Y00834D01*
G01X01897Y00834D02*
G01X01891Y00846D01*
G01X01891Y00846D02*
G01X01891Y00852D01*
G01X01891Y00852D02*
G01X01897Y00858D01*
G01X01897Y00858D02*
G01X01909Y00858D01*
G01X01909Y00858D02*
G01X01915Y00852D01*
G01X01915Y00852D02*
G01X01915Y00840D01*
G01X01915Y00840D02*
G01X01909Y00834D01*
G01X01909Y00822D02*
G01X01885Y00822D01*
G01X01885Y00822D02*
G01X01879Y00816D01*
G01X01879Y00816D02*
G01X01879Y00798D01*
G01X01879Y00798D02*
G01X01915Y00798D01*
G01X01915Y00798D02*
G01X01915Y00816D01*
G01X01915Y00816D02*
G01X01909Y00822D01*
G01X01979Y00816D02*
G01X01979Y00798D01*
G01X01979Y00798D02*
G01X02015Y00798D01*
G01X02015Y00798D02*
G01X02015Y00816D01*
G01X02015Y00816D02*
G01X02009Y00822D01*
G01X02009Y00822D02*
G01X01985Y00822D01*
G01X01985Y00822D02*
G01X01979Y00816D01*
G01X01997Y00834D02*
G01X01997Y00852D01*
G01X01997Y00852D02*
G01X02003Y00858D01*
G01X02003Y00858D02*
G01X02009Y00858D01*
G01X02009Y00858D02*
G01X02015Y00852D01*
G01X02015Y00852D02*
G01X02015Y00840D01*
G01X02015Y00840D02*
G01X02009Y00834D01*
G01X02009Y00834D02*
G01X01997Y00834D01*
G01X01997Y00834D02*
G01X01985Y00846D01*
G01X01985Y00846D02*
G01X01979Y00858D01*
G01X02079Y00858D02*
G01X02079Y00834D01*
G01X02085Y00822D02*
G01X02079Y00816D01*
G01X02079Y00816D02*
G01X02079Y00798D01*
G01X02079Y00798D02*
G01X02115Y00798D01*
G01X02115Y00798D02*
G01X02115Y00816D01*
G01X02115Y00816D02*
G01X02109Y00822D01*
G01X02109Y00822D02*
G01X02085Y00822D01*
G01X02109Y00834D02*
G01X02115Y00834D01*
G01X02109Y00834D02*
G01X02085Y00858D01*
G01X02085Y00858D02*
G01X02079Y00858D01*
G01X02179Y00858D02*
G01X02185Y00846D01*
G01X02185Y00846D02*
G01X02197Y00834D01*
G01X02197Y00834D02*
G01X02197Y00852D01*
G01X02197Y00852D02*
G01X02203Y00858D01*
G01X02203Y00858D02*
G01X02209Y00858D01*
G01X02209Y00858D02*
G01X02215Y00852D01*
G01X02215Y00852D02*
G01X02215Y00840D01*
G01X02215Y00840D02*
G01X02209Y00834D01*
G01X02209Y00834D02*
G01X02197Y00834D01*
G01X02185Y00822D02*
G01X02179Y00816D01*
G01X02179Y00816D02*
G01X02179Y00804D01*
G01X02179Y00804D02*
G01X02185Y00798D01*
G01X02185Y00798D02*
G01X02209Y00798D01*
G01X02209Y00798D02*
G01X02215Y00804D01*
G01X02215Y00804D02*
G01X02215Y00816D01*
G01X02215Y00816D02*
G01X02209Y00822D01*
G01X02279Y00816D02*
G01X02279Y00804D01*
G01X02279Y00804D02*
G01X02285Y00798D01*
G01X02285Y00798D02*
G01X02309Y00798D01*
G01X02309Y00798D02*
G01X02315Y00804D01*
G01X02315Y00804D02*
G01X02315Y00816D01*
G01X02315Y00816D02*
G01X02309Y00822D01*
G01X02309Y00834D02*
G01X02315Y00834D01*
G01X02309Y00834D02*
G01X02285Y00858D01*
G01X02285Y00858D02*
G01X02279Y00858D01*
G01X02279Y00858D02*
G01X02279Y00834D01*
G01X02285Y00822D02*
G01X02279Y00816D01*
G01X02285Y00785D02*
G01X02297Y00785D01*
G01X02297Y00785D02*
G01X02303Y00779D01*
G01X02303Y00779D02*
G01X02303Y00761D01*
G01X02315Y00761D02*
G01X02279Y00761D01*
G01X02279Y00761D02*
G01X02279Y00779D01*
G01X02279Y00779D02*
G01X02285Y00785D01*
G01X02215Y00761D02*
G01X02179Y00761D01*
G01X02179Y00761D02*
G01X02179Y00779D01*
G01X02179Y00779D02*
G01X02185Y00785D01*
G01X02185Y00785D02*
G01X02197Y00785D01*
G01X02197Y00785D02*
G01X02203Y00779D01*
G01X02203Y00779D02*
G01X02203Y00761D01*
G01X02115Y00761D02*
G01X02079Y00761D01*
G01X02079Y00761D02*
G01X02079Y00779D01*
G01X02079Y00779D02*
G01X02085Y00785D01*
G01X02085Y00785D02*
G01X02097Y00785D01*
G01X02097Y00785D02*
G01X02103Y00779D01*
G01X02103Y00779D02*
G01X02103Y00761D01*
G01X02015Y00761D02*
G01X01979Y00761D01*
G01X01979Y00761D02*
G01X01979Y00779D01*
G01X01979Y00779D02*
G01X01985Y00785D01*
G01X01985Y00785D02*
G01X01997Y00785D01*
G01X01997Y00785D02*
G01X02003Y00779D01*
G01X02003Y00779D02*
G01X02003Y00761D01*
G01X01915Y00761D02*
G01X01879Y00761D01*
G01X01879Y00761D02*
G01X01879Y00779D01*
G01X01879Y00779D02*
G01X01885Y00785D01*
G01X01885Y00785D02*
G01X01897Y00785D01*
G01X01897Y00785D02*
G01X01903Y00779D01*
G01X01903Y00779D02*
G01X01903Y00761D01*
G01X02385Y00760D02*
G01X02385Y00778D01*
G01X02385Y00778D02*
G01X02391Y00784D01*
G01X02391Y00784D02*
G01X02403Y00784D01*
G01X02403Y00784D02*
G01X02409Y00778D01*
G01X02409Y00778D02*
G01X02409Y00760D01*
G01X02421Y00760D02*
G01X02385Y00760D01*
G01X02385Y00797D02*
G01X02385Y00815D01*
G01X02385Y00815D02*
G01X02391Y00821D01*
G01X02391Y00821D02*
G01X02397Y00821D01*
G01X02397Y00821D02*
G01X02403Y00815D01*
G01X02403Y00815D02*
G01X02403Y00797D01*
G01X02385Y00797D02*
G01X02421Y00797D01*
G01X02421Y00797D02*
G01X02421Y00815D01*
G01X02421Y00815D02*
G01X02415Y00821D01*
G01X02415Y00821D02*
G01X02409Y00821D01*
G01X02409Y00821D02*
G01X02403Y00815D01*
G01X02391Y00833D02*
G01X02385Y00839D01*
G01X02385Y00839D02*
G01X02385Y00851D01*
G01X02385Y00851D02*
G01X02391Y00857D01*
G01X02391Y00857D02*
G01X02415Y00833D01*
G01X02415Y00833D02*
G01X02421Y00839D01*
G01X02421Y00839D02*
G01X02421Y00851D01*
G01X02421Y00851D02*
G01X02415Y00857D01*
G01X02415Y00857D02*
G01X02391Y00857D01*
G01X02391Y00833D02*
G01X02415Y00833D01*
G01X02485Y00845D02*
G01X02497Y00833D01*
G01X02497Y00821D02*
G01X02503Y00815D01*
G01X02503Y00815D02*
G01X02503Y00797D01*
G01X02485Y00797D02*
G01X02485Y00815D01*
G01X02485Y00815D02*
G01X02491Y00821D01*
G01X02491Y00821D02*
G01X02497Y00821D01*
G01X02503Y00815D02*
G01X02509Y00821D01*
G01X02509Y00821D02*
G01X02515Y00821D01*
G01X02515Y00821D02*
G01X02521Y00815D01*
G01X02521Y00815D02*
G01X02521Y00797D01*
G01X02521Y00797D02*
G01X02485Y00797D01*
G01X02491Y00784D02*
G01X02503Y00784D01*
G01X02503Y00784D02*
G01X02509Y00778D01*
G01X02509Y00778D02*
G01X02509Y00760D01*
G01X02521Y00760D02*
G01X02485Y00760D01*
G01X02485Y00760D02*
G01X02485Y00778D01*
G01X02485Y00778D02*
G01X02491Y00784D01*
G01X02585Y00778D02*
G01X02585Y00760D01*
G01X02585Y00760D02*
G01X02621Y00760D01*
G01X02609Y00760D02*
G01X02609Y00778D01*
G01X02609Y00778D02*
G01X02603Y00784D01*
G01X02603Y00784D02*
G01X02591Y00784D01*
G01X02591Y00784D02*
G01X02585Y00778D01*
G01X02585Y00797D02*
G01X02585Y00815D01*
G01X02585Y00815D02*
G01X02591Y00821D01*
G01X02591Y00821D02*
G01X02597Y00821D01*
G01X02597Y00821D02*
G01X02603Y00815D01*
G01X02603Y00815D02*
G01X02603Y00797D01*
G01X02585Y00797D02*
G01X02621Y00797D01*
G01X02621Y00797D02*
G01X02621Y00815D01*
G01X02621Y00815D02*
G01X02615Y00821D01*
G01X02615Y00821D02*
G01X02609Y00821D01*
G01X02609Y00821D02*
G01X02603Y00815D01*
G01X02591Y00833D02*
G01X02585Y00839D01*
G01X02585Y00839D02*
G01X02585Y00851D01*
G01X02585Y00851D02*
G01X02591Y00857D01*
G01X02591Y00857D02*
G01X02597Y00857D01*
G01X02597Y00857D02*
G01X02621Y00833D01*
G01X02621Y00833D02*
G01X02621Y00857D01*
G01X02685Y00851D02*
G01X02685Y00839D01*
G01X02685Y00839D02*
G01X02691Y00833D01*
G01X02691Y00821D02*
G01X02697Y00821D01*
G01X02697Y00821D02*
G01X02703Y00815D01*
G01X02703Y00815D02*
G01X02703Y00797D01*
G01X02685Y00797D02*
G01X02685Y00815D01*
G01X02685Y00815D02*
G01X02691Y00821D01*
G01X02703Y00815D02*
G01X02709Y00821D01*
G01X02709Y00821D02*
G01X02715Y00821D01*
G01X02715Y00821D02*
G01X02721Y00815D01*
G01X02721Y00815D02*
G01X02721Y00797D01*
G01X02721Y00797D02*
G01X02685Y00797D01*
G01X02691Y00784D02*
G01X02703Y00784D01*
G01X02703Y00784D02*
G01X02709Y00778D01*
G01X02709Y00778D02*
G01X02709Y00760D01*
G01X02721Y00760D02*
G01X02685Y00760D01*
G01X02685Y00760D02*
G01X02685Y00778D01*
G01X02685Y00778D02*
G01X02691Y00784D01*
G01X02785Y00778D02*
G01X02785Y00760D01*
G01X02785Y00760D02*
G01X02821Y00760D01*
G01X02809Y00760D02*
G01X02809Y00778D01*
G01X02809Y00778D02*
G01X02803Y00784D01*
G01X02803Y00784D02*
G01X02791Y00784D01*
G01X02791Y00784D02*
G01X02785Y00778D01*
G01X02785Y00797D02*
G01X02785Y00815D01*
G01X02785Y00815D02*
G01X02791Y00821D01*
G01X02791Y00821D02*
G01X02797Y00821D01*
G01X02797Y00821D02*
G01X02803Y00815D01*
G01X02803Y00815D02*
G01X02803Y00797D01*
G01X02785Y00797D02*
G01X02821Y00797D01*
G01X02821Y00797D02*
G01X02821Y00815D01*
G01X02821Y00815D02*
G01X02815Y00821D01*
G01X02815Y00821D02*
G01X02809Y00821D01*
G01X02809Y00821D02*
G01X02803Y00815D01*
G01X02803Y00833D02*
G01X02803Y00857D01*
G01X02785Y00851D02*
G01X02803Y00833D01*
G01X02785Y00851D02*
G01X02821Y00851D01*
G01X02885Y00857D02*
G01X02885Y00833D01*
G01X02885Y00833D02*
G01X02903Y00833D01*
G01X02903Y00833D02*
G01X02897Y00845D01*
G01X02897Y00845D02*
G01X02897Y00851D01*
G01X02897Y00851D02*
G01X02903Y00857D01*
G01X02903Y00857D02*
G01X02915Y00857D01*
G01X02915Y00857D02*
G01X02921Y00851D01*
G01X02921Y00851D02*
G01X02921Y00839D01*
G01X02921Y00839D02*
G01X02915Y00833D01*
G01X02915Y00821D02*
G01X02921Y00815D01*
G01X02921Y00815D02*
G01X02921Y00797D01*
G01X02921Y00797D02*
G01X02885Y00797D01*
G01X02885Y00797D02*
G01X02885Y00815D01*
G01X02885Y00815D02*
G01X02891Y00821D01*
G01X02891Y00821D02*
G01X02897Y00821D01*
G01X02897Y00821D02*
G01X02903Y00815D01*
G01X02903Y00815D02*
G01X02903Y00797D01*
G01X02903Y00815D02*
G01X02909Y00821D01*
G01X02909Y00821D02*
G01X02915Y00821D01*
G01X02985Y00815D02*
G01X02985Y00797D01*
G01X02985Y00797D02*
G01X03021Y00797D01*
G01X03021Y00797D02*
G01X03021Y00815D01*
G01X03021Y00815D02*
G01X03015Y00821D01*
G01X03015Y00821D02*
G01X03009Y00821D01*
G01X03009Y00821D02*
G01X03003Y00815D01*
G01X03003Y00815D02*
G01X03003Y00797D01*
G01X03003Y00815D02*
G01X02997Y00821D01*
G01X02997Y00821D02*
G01X02991Y00821D01*
G01X02991Y00821D02*
G01X02985Y00815D01*
G01X03003Y00833D02*
G01X03003Y00851D01*
G01X03003Y00851D02*
G01X03009Y00857D01*
G01X03009Y00857D02*
G01X03015Y00857D01*
G01X03015Y00857D02*
G01X03021Y00851D01*
G01X03021Y00851D02*
G01X03021Y00839D01*
G01X03021Y00839D02*
G01X03015Y00833D01*
G01X03015Y00833D02*
G01X03003Y00833D01*
G01X03003Y00833D02*
G01X02991Y00845D01*
G01X02991Y00845D02*
G01X02985Y00857D01*
G01X03088Y00854D02*
G01X03088Y00830D01*
G01X03094Y00818D02*
G01X03088Y00812D01*
G01X03088Y00812D02*
G01X03088Y00794D01*
G01X03088Y00794D02*
G01X03124Y00794D01*
G01X03124Y00794D02*
G01X03124Y00812D01*
G01X03124Y00812D02*
G01X03118Y00818D01*
G01X03118Y00818D02*
G01X03112Y00818D01*
G01X03112Y00818D02*
G01X03106Y00812D01*
G01X03106Y00812D02*
G01X03106Y00794D01*
G01X03106Y00781D02*
G01X03112Y00775D01*
G01X03112Y00775D02*
G01X03112Y00757D01*
G01X03124Y00757D02*
G01X03088Y00757D01*
G01X03088Y00757D02*
G01X03088Y00775D01*
G01X03088Y00775D02*
G01X03094Y00781D01*
G01X03094Y00781D02*
G01X03106Y00781D01*
G01X03106Y00812D02*
G01X03100Y00818D01*
G01X03100Y00818D02*
G01X03094Y00818D01*
G01X03118Y00830D02*
G01X03124Y00830D01*
G01X03118Y00830D02*
G01X03094Y00854D01*
G01X03094Y00854D02*
G01X03088Y00854D01*
G01X03009Y00778D02*
G01X03009Y00760D01*
G01X03021Y00760D02*
G01X02985Y00760D01*
G01X02985Y00760D02*
G01X02985Y00778D01*
G01X02985Y00778D02*
G01X02991Y00784D01*
G01X02991Y00784D02*
G01X03003Y00784D01*
G01X03003Y00784D02*
G01X03009Y00778D01*
G01X02921Y00760D02*
G01X02885Y00760D01*
G01X02885Y00760D02*
G01X02885Y00778D01*
G01X02885Y00778D02*
G01X02891Y00784D01*
G01X02891Y00784D02*
G01X02903Y00784D01*
G01X02903Y00784D02*
G01X02909Y00778D01*
G01X02909Y00778D02*
G01X02909Y00760D01*
G01X02721Y00839D02*
G01X02715Y00833D01*
G01X02721Y00839D02*
G01X02721Y00851D01*
G01X02721Y00851D02*
G01X02715Y00857D01*
G01X02715Y00857D02*
G01X02709Y00857D01*
G01X02709Y00857D02*
G01X02703Y00851D01*
G01X02703Y00851D02*
G01X02703Y00845D01*
G01X02703Y00851D02*
G01X02697Y00857D01*
G01X02697Y00857D02*
G01X02691Y00857D01*
G01X02691Y00857D02*
G01X02685Y00851D01*
G01X02521Y00857D02*
G01X02521Y00833D01*
G01X02521Y00845D02*
G01X02485Y00845D01*
G01X02522Y00601D02*
G01X02522Y00577D01*
G01X02522Y00577D02*
G01X02540Y00577D01*
G01X02540Y00577D02*
G01X02534Y00589D01*
G01X02534Y00589D02*
G01X02534Y00595D01*
G01X02534Y00595D02*
G01X02540Y00601D01*
G01X02540Y00601D02*
G01X02552Y00601D01*
G01X02552Y00601D02*
G01X02558Y00595D01*
G01X02558Y00595D02*
G01X02558Y00583D01*
G01X02558Y00583D02*
G01X02552Y00577D01*
G01X02558Y00564D02*
G01X02546Y00552D01*
G01X02546Y00558D02*
G01X02546Y00540D01*
G01X02558Y00540D02*
G01X02522Y00540D01*
G01X02522Y00540D02*
G01X02522Y00558D01*
G01X02522Y00558D02*
G01X02528Y00564D01*
G01X02528Y00564D02*
G01X02540Y00564D01*
G01X02540Y00564D02*
G01X02546Y00558D01*
G01X02722Y00558D02*
G01X02722Y00540D01*
G01X02722Y00540D02*
G01X02758Y00540D01*
G01X02746Y00540D02*
G01X02746Y00558D01*
G01X02746Y00558D02*
G01X02740Y00564D01*
G01X02740Y00564D02*
G01X02728Y00564D01*
G01X02728Y00564D02*
G01X02722Y00558D01*
G01X02746Y00552D02*
G01X02758Y00564D01*
G01X02740Y00577D02*
G01X02740Y00601D01*
G01X02722Y00595D02*
G01X02758Y00595D01*
G01X02740Y00577D02*
G01X02722Y00595D01*
G01X02728Y00501D02*
G01X02734Y00501D01*
G01X02734Y00501D02*
G01X02740Y00495D01*
G01X02740Y00495D02*
G01X02746Y00501D01*
G01X02746Y00501D02*
G01X02752Y00501D01*
G01X02752Y00501D02*
G01X02758Y00495D01*
G01X02758Y00495D02*
G01X02758Y00483D01*
G01X02758Y00483D02*
G01X02752Y00477D01*
G01X02758Y00464D02*
G01X02746Y00452D01*
G01X02746Y00458D02*
G01X02746Y00440D01*
G01X02758Y00440D02*
G01X02722Y00440D01*
G01X02722Y00440D02*
G01X02722Y00458D01*
G01X02722Y00458D02*
G01X02728Y00464D01*
G01X02728Y00464D02*
G01X02740Y00464D01*
G01X02740Y00464D02*
G01X02746Y00458D01*
G01X02728Y00477D02*
G01X02722Y00483D01*
G01X02722Y00483D02*
G01X02722Y00495D01*
G01X02722Y00495D02*
G01X02728Y00501D01*
G01X02740Y00495D02*
G01X02740Y00489D01*
G01X02588Y00376D02*
G01X02588Y00352D01*
G01X02588Y00352D02*
G01X02564Y00376D01*
G01X02564Y00376D02*
G01X02558Y00376D01*
G01X02558Y00376D02*
G01X02552Y00370D01*
G01X02552Y00370D02*
G01X02552Y00358D01*
G01X02552Y00358D02*
G01X02558Y00352D01*
G01X02558Y00339D02*
G01X02552Y00333D01*
G01X02552Y00333D02*
G01X02552Y00315D01*
G01X02552Y00315D02*
G01X02588Y00315D01*
G01X02588Y00315D02*
G01X02588Y00333D01*
G01X02588Y00333D02*
G01X02582Y00339D01*
G01X02582Y00339D02*
G01X02558Y00339D01*
G01X02733Y00327D02*
G01X02733Y00309D01*
G01X02733Y00309D02*
G01X02769Y00309D01*
G01X02769Y00309D02*
G01X02769Y00327D01*
G01X02769Y00327D02*
G01X02763Y00333D01*
G01X02763Y00333D02*
G01X02739Y00333D01*
G01X02739Y00333D02*
G01X02733Y00327D01*
G01X02745Y00346D02*
G01X02733Y00358D01*
G01X02733Y00358D02*
G01X02769Y00358D01*
G01X02769Y00346D02*
G01X02769Y00370D01*
G01X02940Y00349D02*
G01X02940Y00343D01*
G01X02940Y00343D02*
G01X02946Y00337D01*
G01X02946Y00337D02*
G01X02958Y00337D01*
G01X02958Y00337D02*
G01X02964Y00331D01*
G01X02964Y00331D02*
G01X02964Y00325D01*
G01X02964Y00325D02*
G01X02958Y00319D01*
G01X02958Y00319D02*
G01X02946Y00319D01*
G01X02946Y00319D02*
G01X02940Y00325D01*
G01X02976Y00325D02*
G01X02982Y00319D01*
G01X02982Y00319D02*
G01X02994Y00319D01*
G01X02994Y00319D02*
G01X03000Y00325D01*
G01X03000Y00325D02*
G01X03000Y00331D01*
G01X03000Y00331D02*
G01X02994Y00337D01*
G01X02994Y00337D02*
G01X02988Y00337D01*
G01X02994Y00337D02*
G01X03000Y00343D01*
G01X03000Y00343D02*
G01X03000Y00349D01*
G01X03000Y00349D02*
G01X02994Y00355D01*
G01X02994Y00355D02*
G01X02982Y00355D01*
G01X02982Y00355D02*
G01X02976Y00349D01*
G01X02964Y00349D02*
G01X02958Y00355D01*
G01X02958Y00355D02*
G01X02946Y00355D01*
G01X02946Y00355D02*
G01X02940Y00349D01*
G01X02392Y00414D02*
G01X02368Y00414D01*
G01X02368Y00414D02*
G01X02392Y00438D01*
G01X02392Y00438D02*
G01X02392Y00444D01*
G01X02392Y00444D02*
G01X02386Y00450D01*
G01X02386Y00450D02*
G01X02374Y00450D01*
G01X02374Y00450D02*
G01X02368Y00444D01*
G01X02355Y00444D02*
G01X02349Y00450D01*
G01X02349Y00450D02*
G01X02337Y00450D01*
G01X02337Y00450D02*
G01X02331Y00444D01*
G01X02331Y00444D02*
G01X02331Y00420D01*
G01X02331Y00420D02*
G01X02337Y00414D01*
G01X02337Y00414D02*
G01X02349Y00414D01*
G01X02349Y00414D02*
G01X02355Y00420D01*
G01X02355Y00420D02*
G01X02355Y00444D01*
G01X02343Y00426D02*
G01X02355Y00414D01*
G01X02637Y00114D02*
G01X02631Y00108D01*
G01X02631Y00108D02*
G01X02631Y00084D01*
G01X02631Y00084D02*
G01X02637Y00078D01*
G01X02637Y00078D02*
G01X02649Y00078D01*
G01X02649Y00078D02*
G01X02655Y00084D01*
G01X02668Y00084D02*
G01X02668Y00078D01*
G01X02668Y00084D02*
G01X02692Y00108D01*
G01X02692Y00108D02*
G01X02692Y00114D01*
G01X02692Y00114D02*
G01X02668Y00114D01*
G01X02655Y00108D02*
G01X02649Y00114D01*
G01X02649Y00114D02*
G01X02637Y00114D01*
G54D19*
G01X02318Y00099D02*
G01X02048Y00099D01*
G01X02048Y00069D02*
G01X02318Y00069D01*
G01X02318Y00099D02*
G01X02322Y00099D01*
G01X02322Y00099D02*
G01X02325Y00100D01*
G01X02325Y00100D02*
G01X02329Y00101D01*
G01X02329Y00101D02*
G01X02333Y00101D01*
G01X02333Y00101D02*
G01X02336Y00103D01*
G01X02336Y00103D02*
G01X02340Y00104D01*
G01X02340Y00194D02*
G01X02336Y00196D01*
G01X02336Y00196D02*
G01X02333Y00197D01*
G01X02333Y00197D02*
G01X02329Y00198D01*
G01X02329Y00198D02*
G01X02325Y00199D01*
G01X02325Y00199D02*
G01X02322Y00199D01*
G01X02322Y00199D02*
G01X02318Y00199D01*
G01X02318Y00199D02*
G01X02048Y00199D01*
G01X02048Y00229D02*
G01X02318Y00229D01*
G01X02318Y00229D02*
G01X02323Y00229D01*
G01X02323Y00229D02*
G01X02329Y00228D01*
G01X02329Y00228D02*
G01X02334Y00228D01*
G01X02334Y00228D02*
G01X02340Y00226D01*
G01X02340Y00226D02*
G01X02345Y00224D01*
G01X02345Y00224D02*
G01X02350Y00222D01*
G01X02350Y00222D02*
G01X02355Y00220D01*
G01X02355Y00220D02*
G01X02360Y00217D01*
G01X02360Y00217D02*
G01X02365Y00214D01*
G01X02365Y00214D02*
G01X02369Y00211D01*
G01X02369Y00211D02*
G01X02373Y00207D01*
G01X02373Y00207D02*
G01X02377Y00203D01*
G01X02377Y00203D02*
G01X02381Y00199D01*
G01X02381Y00199D02*
G01X02384Y00194D01*
G01X02384Y00104D02*
G01X02381Y00100D01*
G01X02381Y00100D02*
G01X02377Y00096D01*
G01X02377Y00096D02*
G01X02373Y00092D01*
G01X02373Y00092D02*
G01X02369Y00088D01*
G01X02369Y00088D02*
G01X02365Y00084D01*
G01X02365Y00084D02*
G01X02360Y00081D01*
G01X02360Y00081D02*
G01X02355Y00079D01*
G01X02355Y00079D02*
G01X02350Y00076D01*
G01X02350Y00076D02*
G01X02345Y00074D01*
G01X02345Y00074D02*
G01X02340Y00072D01*
G01X02340Y00072D02*
G01X02334Y00071D01*
G01X02334Y00071D02*
G01X02329Y00070D01*
G01X02329Y00070D02*
G01X02323Y00069D01*
G01X02323Y00069D02*
G01X02318Y00069D01*
G01X02228Y00149D02*
G01X02208Y00149D01*
G01X02158Y00149D02*
G01X02138Y00149D01*
G01X02048Y00229D02*
G01X02042Y00229D01*
G01X02042Y00229D02*
G01X02037Y00228D01*
G01X02037Y00228D02*
G01X02031Y00228D01*
G01X02031Y00228D02*
G01X02026Y00226D01*
G01X02026Y00226D02*
G01X02020Y00224D01*
G01X02020Y00224D02*
G01X02015Y00222D01*
G01X02015Y00222D02*
G01X02010Y00220D01*
G01X02010Y00220D02*
G01X02006Y00217D01*
G01X02006Y00217D02*
G01X02001Y00214D01*
G01X02001Y00214D02*
G01X01996Y00211D01*
G01X01996Y00211D02*
G01X01992Y00207D01*
G01X01992Y00207D02*
G01X01988Y00203D01*
G01X01988Y00203D02*
G01X01985Y00199D01*
G01X01985Y00199D02*
G01X01982Y00194D01*
G01X02026Y00104D02*
G01X02029Y00103D01*
G01X02029Y00103D02*
G01X02033Y00101D01*
G01X02033Y00101D02*
G01X02037Y00101D01*
G01X02037Y00101D02*
G01X02040Y00100D01*
G01X02040Y00100D02*
G01X02044Y00099D01*
G01X02044Y00099D02*
G01X02048Y00099D01*
G01X02026Y00194D02*
G01X02029Y00196D01*
G01X02029Y00196D02*
G01X02033Y00197D01*
G01X02033Y00197D02*
G01X02037Y00198D01*
G01X02037Y00198D02*
G01X02040Y00199D01*
G01X02040Y00199D02*
G01X02044Y00199D01*
G01X02044Y00199D02*
G01X02048Y00199D01*
G01X01982Y00104D02*
G01X01985Y00100D01*
G01X01985Y00100D02*
G01X01988Y00096D01*
G01X01988Y00096D02*
G01X01992Y00092D01*
G01X01992Y00092D02*
G01X01997Y00088D01*
G01X01997Y00088D02*
G01X02001Y00084D01*
G01X02001Y00084D02*
G01X02006Y00081D01*
G01X02006Y00081D02*
G01X02010Y00079D01*
G01X02010Y00079D02*
G01X02015Y00076D01*
G01X02015Y00076D02*
G01X02020Y00074D01*
G01X02020Y00074D02*
G01X02026Y00072D01*
G01X02026Y00072D02*
G01X02031Y00071D01*
G01X02031Y00071D02*
G01X02037Y00070D01*
G01X02037Y00070D02*
G01X02042Y00069D01*
G01X02042Y00069D02*
G01X02048Y00069D01*
G01X02850Y00254D02*
G01X02860Y00254D01*
G01X02860Y00254D02*
G01X02860Y00349D01*
G01X02860Y00349D02*
G01X02850Y00349D01*
G01X03080Y00349D02*
G01X03080Y00249D01*
G01X03080Y00249D02*
G01X03090Y00249D01*
G01X03090Y00349D02*
G01X03080Y00349D01*
M02*
